<?xml version="1.0" encoding="iso-8859-1"?>
<!-- Generator: Adobe Illustrator 16.0.0, SVG Export Plug-In . SVG Version: 6.00 Build 0)  -->
<!DOCTYPE svg PUBLIC "-//W3C//DTD SVG 1.1//EN" "http://www.w3.org/Graphics/SVG/1.1/DTD/svg11.dtd">
<svg version="1.1" xmlns="http://www.w3.org/2000/svg" xmlns:xlink="http://www.w3.org/1999/xlink" x="0px" y="0px" width="640px"
	 height="480px" viewBox="0 0 640 480" style="enable-background:new 0 0 640 480;" xml:space="preserve">
<g id="Layer_2">
</g>
<g id="Layer_1">
	<g>
		<defs>
			<rect id="SVGID_1_" x="23.878" y="5.333" width="14.848" height="49.205"/>
		</defs>
		<clipPath id="SVGID_2_">
			<use xlink:href="#SVGID_1_"  style="overflow:visible;"/>
		</clipPath>
		<path style="clip-path:url(#SVGID_2_);fill:none;stroke:#FFFFFF;stroke-linecap:round;stroke-linejoin:round;" d="M24.231,54.183
			l14.092-24.07c0.064-0.109,0.064-0.246,0-0.357L24.231,5.686"/>
	</g>
	<g>
		<defs>
			<rect id="SVGID_3_" x="42.221" y="5.333" width="5.659" height="13.579"/>
		</defs>
		<clipPath id="SVGID_4_">
			<use xlink:href="#SVGID_3_"  style="overflow:visible;"/>
		</clipPath>
		
			<path style="clip-path:url(#SVGID_4_);fill:none;stroke:#FFFFFF;stroke-width:1.6;stroke-linecap:round;stroke-linejoin:round;" d="
			M42.787,18.346l4.414-5.885c0.151-0.201,0.151-0.477,0-0.679l-4.414-5.884"/>
	</g>
	<g>
		<defs>
			<rect id="SVGID_5_" x="5.535" y="5.333" width="14.847" height="49.205"/>
		</defs>
		<clipPath id="SVGID_6_">
			<use xlink:href="#SVGID_5_"  style="overflow:visible;"/>
		</clipPath>
		<path style="clip-path:url(#SVGID_6_);fill:none;stroke:#FFFFFF;stroke-linecap:round;stroke-linejoin:round;" d="M20.028,54.183
			L5.937,30.113c-0.064-0.109-0.064-0.246,0-0.357l14.092-24.07"/>
	</g>
	<g>
		<defs>
			<rect id="SVGID_7_" x="60.564" y="5.333" width="4.248" height="10.751"/>
		</defs>
		<clipPath id="SVGID_8_">
			<use xlink:href="#SVGID_7_"  style="overflow:visible;"/>
		</clipPath>
		
			<path style="clip-path:url(#SVGID_8_);fill:none;stroke:#FFFFFF;stroke-width:0.8;stroke-linecap:round;stroke-linejoin:round;" d="
			M60.847,15.801l3.627-4.925c0.073-0.099,0.073-0.235,0-0.334l-3.627-4.925"/>
	</g>
	<g>
		<g>
			<defs>
				<rect id="SVGID_9_" x="5.358" y="69.08" width="209.151" height="50.589"/>
			</defs>
			<clipPath id="SVGID_10_">
				<use xlink:href="#SVGID_9_"  style="overflow:visible;"/>
			</clipPath>
			<path style="clip-path:url(#SVGID_10_);fill:#FFFFFF;" d="M8.008,117.781v-7.179c0-1.644-2.537-1.954-2.552-1.956
				c0.015,0,2.552-0.31,2.552-1.955v-7.177c0-1.231,1.332-1.89,1.332-1.89s-2.686,0.284-2.686,1.866v6.982
				c0,1.36-1.194,2.17-1.198,2.173c0.004,0.004,1.198,0.814,1.198,2.175v6.984c0,1.579,2.686,1.864,2.686,1.864
				S8.008,119.011,8.008,117.781"/>
			<path style="clip-path:url(#SVGID_10_);fill:#FFFFFF;" d="M211.73,99.513v7.179c0,1.644,2.538,1.954,2.551,1.955
				c-0.013,0.001-2.551,0.312-2.551,1.956v7.177c0,1.231-1.332,1.89-1.332,1.89s2.686-0.284,2.686-1.866v-6.982
				c0-1.36,1.194-2.17,1.198-2.174c-0.004-0.003-1.198-0.813-1.198-2.175v-6.983c0-1.579-2.686-1.864-2.686-1.864
				S211.73,98.283,211.73,99.513"/>
			<path style="clip-path:url(#SVGID_10_);fill:#FFFFFF;" d="M25.747,115.97c-4.056,0-7.073-3.291-7.073-7.47
				c0-4.142,2.958-7.513,7.171-7.513c2.563,0,4.114,0.933,5.443,2.258l-1.569,1.881c-1.111-1.077-2.304-1.796-3.894-1.796
				c-2.659,0-4.587,2.272-4.587,5.129c0,2.855,1.929,5.169,4.587,5.169c1.709,0,2.802-0.721,3.994-1.882l1.571,1.659
				C29.939,114.977,28.348,115.97,25.747,115.97"/>
			<path style="clip-path:url(#SVGID_10_);fill:#FFFFFF;" d="M46.143,103.329c-2.759,0-4.687,2.293-4.687,5.129
				c0,2.835,1.965,5.169,4.727,5.169c2.762,0,4.69-2.295,4.69-5.128C50.873,105.662,48.907,103.329,46.143,103.329 M46.143,115.97
				c-4.271,0-7.251-3.372-7.251-7.47c0-4.1,3.019-7.513,7.292-7.513c4.272,0,7.253,3.371,7.253,7.472
				C53.436,112.556,50.414,115.97,46.143,115.97"/>
		</g>
		<polygon style="fill:#FFFFFF;" points="62.347,101.239 64.792,101.239 64.792,113.403 72.105,113.403 72.105,115.719 
			62.347,115.719 		"/>
		<polygon style="fill:#FFFFFF;" points="80.601,101.239 83.045,101.239 83.045,113.403 90.356,113.403 90.356,115.719 
			80.601,115.719 		"/>
		<polygon style="fill:#FFFFFF;" points="109.168,103.514 101.298,103.514 101.298,107.28 108.271,107.28 108.271,109.555 
			101.298,109.555 101.298,113.441 109.268,113.441 109.268,115.719 98.854,115.719 98.854,101.239 109.168,101.239 		"/>
		<g>
			<defs>
				<rect id="SVGID_11_" x="5.358" y="69.08" width="209.151" height="50.589"/>
			</defs>
			<clipPath id="SVGID_12_">
				<use xlink:href="#SVGID_11_"  style="overflow:visible;"/>
			</clipPath>
			<path style="clip-path:url(#SVGID_12_);fill:#FFFFFF;" d="M124.578,115.97c-4.052,0-7.074-3.291-7.074-7.47
				c0-4.142,2.958-7.513,7.173-7.513c2.563,0,4.113,0.933,5.445,2.258l-1.57,1.881c-1.114-1.077-2.306-1.796-3.895-1.796
				c-2.663,0-4.593,2.272-4.593,5.129c0,2.855,1.931,5.169,4.593,5.169c1.71,0,2.803-0.721,3.993-1.882l1.572,1.659
				C128.77,114.977,127.182,115.97,124.578,115.97"/>
		</g>
		<polygon style="fill:#FFFFFF;" points="144.618,115.719 142.153,115.719 142.153,103.597 137.744,103.597 137.744,101.238 
			149.031,101.238 149.031,103.597 144.618,103.597 		"/>
		<rect x="157.706" y="101.239" style="fill:#FFFFFF;" width="2.445" height="14.48"/>
		<polygon style="fill:#FFFFFF;" points="200.988,103.514 193.119,103.514 193.119,107.28 200.095,107.28 200.095,109.555 
			193.119,109.555 193.119,113.441 201.088,113.441 201.088,115.719 190.678,115.719 190.678,101.239 200.988,101.239 		"/>
		<polygon style="fill:#FFFFFF;" points="179.669,101.259 182.314,101.259 175.539,115.859 168.591,101.259 171.296,101.259 
			175.493,110.453 		"/>
		<polygon style="fill:#FFFFFF;" points="35.246,69.421 35.246,93.277 52.185,93.277 52.185,89.528 39.272,89.528 39.272,83.122 
			50.756,83.122 50.756,79.374 39.272,79.374 39.272,73.17 52.229,73.17 52.229,69.421 		"/>
		<polygon style="fill:#FFFFFF;" points="23.584,69.421 16.712,84.551 9.808,69.421 5.358,69.421 16.789,93.446 27.937,69.421 		"/>
		<g>
			<defs>
				<rect id="SVGID_13_" x="5.358" y="69.08" width="209.151" height="50.589"/>
			</defs>
			<clipPath id="SVGID_14_">
				<use xlink:href="#SVGID_13_"  style="overflow:visible;"/>
			</clipPath>
			<path style="clip-path:url(#SVGID_14_);fill:#FFFFFF;" d="M70.366,79.44c4.843,1.228,7.361,3.035,7.361,7.021
				c0,4.498-3.369,7.156-8.177,7.156c-3.503,0-6.806-1.263-9.554-3.816l2.419-3c2.192,1.977,4.386,3.101,7.232,3.101
				c2.486,0,4.058-1.192,4.058-3.032c0-1.74-0.917-2.658-5.17-3.68c-4.874-1.227-7.622-2.727-7.622-7.157
				c0-4.157,3.271-6.952,7.818-6.952c3.338,0,5.987,1.056,8.311,3l-2.16,3.17c-2.06-1.603-4.122-2.453-6.216-2.453
				c-2.356,0-3.729,1.259-3.729,2.861C64.935,77.534,65.982,78.351,70.366,79.44"/>
		</g>
		<rect x="112.144" y="69.421" style="fill:#FFFFFF;" width="4.023" height="23.854"/>
		<rect x="155.242" y="69.421" style="fill:#FFFFFF;" width="4.026" height="23.854"/>
		<g>
			<defs>
				<rect id="SVGID_15_" x="5.358" y="69.08" width="209.151" height="50.589"/>
			</defs>
			<clipPath id="SVGID_16_">
				<use xlink:href="#SVGID_15_"  style="overflow:visible;"/>
			</clipPath>
			<path style="clip-path:url(#SVGID_16_);fill:#FFFFFF;" d="M179.638,73.238h-5.856v8.01h5.891c2.878,0,4.71-1.57,4.71-4.023
				C184.382,74.602,182.613,73.238,179.638,73.238 M184.447,93.276l-5.628-8.315h-5.037v8.315h-4.025V69.422h10.208
				c5.267,0,8.508,2.896,8.508,7.565c0,3.954-2.257,6.338-5.466,7.261l6.185,9.028H184.447z"/>
		</g>
		<polygon style="fill:#FFFFFF;" points="197.514,69.421 197.514,93.277 214.509,93.277 214.509,89.528 201.541,89.528 
			201.541,83.122 213.024,83.122 213.024,79.374 201.541,79.374 201.541,73.17 214.497,73.17 214.497,69.421 		"/>
		<path style="fill:#FFFFFF;" d="M135.711,78.159l2.548,5.583h-5.084L135.711,78.159z M124.486,93.287h4.353l2.647-5.829h8.47
			l2.659,5.829h4.45l-11.429-24.024L124.486,93.287z"/>
		<polygon style="fill:#FFFFFF;" points="84.262,69.421 84.262,73.307 91.525,73.307 91.525,93.277 95.583,93.277 95.583,73.307 
			102.845,73.307 102.845,69.421 		"/>
	</g>
	<g>
		<defs>
			<rect id="SVGID_17_" x="221.886" y="68.188" width="59.638" height="134.533"/>
		</defs>
		<clipPath id="SVGID_18_">
			<use xlink:href="#SVGID_17_"  style="overflow:visible;"/>
		</clipPath>
		<line style="clip-path:url(#SVGID_18_);fill:none;stroke:#000000;" x1="222.209" y1="202.578" x2="281.2" y2="68.33"/>
	</g>
	<g>
		<g>
			<defs>
				<rect id="SVGID_19_" x="5.13" y="158.646" width="116.265" height="116.266"/>
			</defs>
			<clipPath id="SVGID_20_">
				<use xlink:href="#SVGID_19_"  style="overflow:visible;"/>
			</clipPath>
			<path style="clip-path:url(#SVGID_20_);fill:#1D1D1B;" d="M29.649,158.646c0,0-24.52,0-24.52,24.52v67.227
				c0,0,0,24.52,24.52,24.52h67.225c0,0,24.52,0,24.52-24.52v-67.227c0,0,0-24.52-24.52-24.52H29.649z"/>
			<path style="clip-path:url(#SVGID_20_);fill:#FFFFFF;" d="M29.709,247.95v-24.499c0-5.608-9.021-6.665-9.07-6.673
				c0.049-0.005,9.07-1.06,9.07-6.672v-24.495c0-4.198,4.733-6.449,4.733-6.449s-9.547,0.971-9.547,6.366v23.831
				c0,4.646-4.244,7.409-4.259,7.419h-0.002l0,0l0,0h0.002c0.016,0.012,4.259,2.777,4.259,7.424v23.83
				c0,5.392,9.547,6.364,9.547,6.364S29.709,252.152,29.709,247.95"/>
			<path style="clip-path:url(#SVGID_20_);fill:#FFFFFF;" d="M96.816,185.608v24.501c0,5.608,9.02,6.666,9.069,6.675
				c-0.049,0.005-9.069,1.06-9.069,6.669v24.496c0,4.198-4.734,6.447-4.734,6.447s9.547-0.969,9.547-6.366V224.2
				c0-4.645,4.244-7.408,4.26-7.416h0.002h-0.002l0.002-0.004h-0.002c-0.016-0.009-4.26-2.776-4.26-7.421v-23.834
				c0-5.391-9.547-6.363-9.547-6.363S96.816,181.409,96.816,185.608"/>
		</g>
		<polygon style="fill:#FFFFFF;" points="78.418,192.556 88.12,192.556 63.273,243.96 37.8,192.556 47.719,192.556 63.107,224.923 
					"/>
	</g>
	<g>
		<path style="fill:#FFFFFF;" d="M18.878,138.633l-0.122,1.587h-1.626v5.514h-2.056v-5.514h-1.097v-1.587h1.097v-1.066
			c0-0.47,0.012-1.194,0.353-1.644c0.36-0.476,0.853-0.799,1.703-0.799c1.383,0,1.967,0.198,1.967,0.198l-0.274,1.624
			c0,0-0.457-0.132-0.884-0.132c-0.427,0-0.809,0.153-0.809,0.579v1.24H18.878z M16.536,129.82c-5.86,0-10.61,4.751-10.61,10.61
			c0,5.86,4.75,10.609,10.61,10.609c5.859,0,10.609-4.749,10.609-10.609C27.146,134.571,22.396,129.82,16.536,129.82"/>
		<path style="fill:#FFFFFF;" d="M54.334,138.778c0.003,0.094,0.005,0.188,0.005,0.283c0,2.882-2.192,6.204-6.205,6.204
			c-1.231,0-2.376-0.361-3.341-0.979c0.17,0.021,0.344,0.031,0.52,0.031c1.021,0,1.962-0.349,2.708-0.933
			c-0.955-0.018-1.76-0.647-2.037-1.515c0.133,0.026,0.271,0.039,0.41,0.039c0.2,0,0.392-0.024,0.575-0.077
			c-0.999-0.199-1.75-1.081-1.75-2.137v-0.027c0.294,0.162,0.631,0.261,0.988,0.272c-0.584-0.392-0.97-1.059-0.97-1.815
			c0-0.399,0.107-0.773,0.295-1.097c1.076,1.32,2.682,2.187,4.495,2.278c-0.038-0.159-0.056-0.326-0.056-0.497
			c0-1.204,0.975-2.18,2.179-2.18c0.627,0,1.194,0.264,1.591,0.688c0.497-0.099,0.963-0.279,1.385-0.529
			c-0.163,0.509-0.508,0.937-0.959,1.207c0.44-0.053,0.861-0.17,1.252-0.344C55.129,138.087,54.759,138.471,54.334,138.778
			 M50.099,129.82c-5.86,0-10.61,4.751-10.61,10.61c0,5.86,4.75,10.609,10.61,10.609c5.859,0,10.609-4.749,10.609-10.609
			C60.708,134.571,55.958,129.82,50.099,129.82"/>
		<path style="fill:#FFFFFF;" d="M85.799,140.407c0-1.152-0.953-2.085-2.128-2.085c-1.175,0-2.128,0.933-2.128,2.085
			c0,1.151,0.953,2.085,2.128,2.085C84.846,142.492,85.799,141.558,85.799,140.407 M87.757,137.901v-1.155
			c0-0.266-0.216-0.482-0.478-0.482h-1.197c-0.262,0-0.476,0.216-0.476,0.482v1.155c0,0.265,0.214,0.482,0.476,0.482h1.197
			C87.541,138.383,87.757,138.166,87.757,137.901 M87.762,144.129v-4.525h-0.934c0.089,0.292,0.136,0.6,0.136,0.92
			c0,1.782-1.475,3.226-3.294,3.226s-3.294-1.444-3.294-3.226c0-0.32,0.049-0.628,0.136-0.92h-0.973v4.525
			c0,0.234,0.189,0.426,0.421,0.426h7.379C87.572,144.555,87.762,144.363,87.762,144.129 M88.958,144.411
			c0,0.757-0.611,1.376-1.36,1.376h-7.876c-0.748,0-1.36-0.619-1.36-1.376v-7.962c0-0.756,0.612-1.375,1.36-1.375h7.876
			c0.749,0,1.36,0.619,1.36,1.375V144.411z M94.271,140.43c0-5.859-4.751-10.61-10.61-10.61c-5.859,0-10.609,4.751-10.609,10.61
			c0,5.86,4.75,10.609,10.609,10.609C89.52,151.039,94.271,146.29,94.271,140.43"/>
		<path style="fill:#FFFFFF;" d="M114.948,142.311c-0.47-0.352-1.01-0.481-1.619-0.493c-0.686,0.019-1.347,0.201-1.881,0.708
			c-0.714,0.68-0.647,1.609,0.146,2.193c0.976,0.717,2.637,0.596,3.499-0.255C115.77,143.794,115.709,142.882,114.948,142.311"/>
		<path style="fill:#FFFFFF;" d="M114.465,138.591c0.175-0.414,0.207-0.845,0.125-1.283c-0.125-0.66-0.406-1.23-0.978-1.617
			c-0.635-0.429-1.338-0.243-1.692,0.436c-0.156,0.3-0.216,0.623-0.216,1.079c0.031,0.673,0.282,1.374,0.93,1.875
			C113.322,139.613,114.126,139.392,114.465,138.591"/>
		<path style="fill:#FFFFFF;" d="M121.898,137.698c-0.506,0-1.012,0.004-1.52-0.002c-0.136-0.001-0.182,0.036-0.179,0.177
			c0.008,0.598-0.001,1.196,0.005,1.794c0.002,0.136-0.036,0.178-0.177,0.178c-0.471,0.001-0.471,0.007-0.471-0.473
			c0-0.499-0.004-0.999,0.003-1.499c0.002-0.137-0.038-0.18-0.179-0.179c-0.591,0.008-1.182-0.002-1.773,0.008
			c-0.162,0.003-0.198-0.048-0.196-0.203c0.006-0.444-0.001-0.444,0.436-0.444c0.492,0,0.985-0.007,1.478,0.005
			c0.177,0.004,0.242-0.029,0.236-0.227c-0.016-0.583-0.002-1.167-0.009-1.751c-0.001-0.136,0.034-0.181,0.177-0.181
			c0.473,0,0.473-0.006,0.473,0.473c0,0.5,0.006,0.999-0.003,1.499c-0.003,0.151,0.043,0.191,0.189,0.187
			c0.302-0.012,0.605-0.004,0.908-0.004c0.295,0,0.592,0.008,0.887-0.002c0.142-0.006,0.176,0.044,0.176,0.18
			C122.36,137.698,122.365,137.698,121.898,137.698 M115.437,145.316c-0.676,0.438-1.439,0.594-2.228,0.635
			c-0.745,0.039-1.478-0.041-2.174-0.332c-1.072-0.451-1.57-1.447-1.267-2.518c0.159-0.559,0.541-0.927,1.035-1.193
			c0.582-0.312,1.214-0.44,1.862-0.504c0.224-0.021,0.45-0.037,0.675-0.037c0.137,0.001,0.151-0.048,0.116-0.161
			c-0.035-0.112-0.082-0.218-0.178-0.279c-0.178-0.114-0.225-0.27-0.21-0.47c0.012-0.146,0.05-0.331-0.02-0.432
			c-0.077-0.112-0.273-0.03-0.417-0.041c-0.611-0.044-1.18-0.194-1.644-0.624c-0.311-0.285-0.492-0.647-0.577-1.056
			c-0.328-1.577,0.44-2.784,2.058-3.23c0.408-0.113,0.824-0.174,1.25-0.171c0.873,0.006,1.747,0.001,2.62,0.004
			c0.07,0.001,0.182-0.048,0.204,0.045c0.025,0.1-0.076,0.156-0.161,0.195c-0.255,0.119-0.532,0.125-0.803,0.168
			c-0.136,0.022-0.279,0.023-0.441,0.143c0.739,0.318,0.853,0.932,0.906,1.611c0.074,0.95-0.253,1.692-1.014,2.253
			c-0.153,0.112-0.298,0.237-0.418,0.386c-0.195,0.241-0.198,0.445-0.009,0.688c0.136,0.174,0.308,0.31,0.477,0.447
			c0.301,0.246,0.603,0.487,0.861,0.779C116.947,142.757,116.714,144.487,115.437,145.316 M115.986,129.82
			c-5.86,0-10.61,4.751-10.61,10.61c0,5.86,4.75,10.609,10.61,10.609c5.859,0,10.609-4.75,10.609-10.609
			C126.596,134.571,121.845,129.82,115.986,129.82"/>
		<path style="fill:#FFFFFF;" d="M148.312,129.82c-5.858,0-10.61,4.751-10.61,10.61c0,4.345,2.612,8.076,6.351,9.717
			c-0.03-0.74-0.005-1.629,0.185-2.435c0.204-0.862,1.364-5.781,1.364-5.781s-0.339-0.678-0.339-1.68
			c0-1.571,0.912-2.746,2.046-2.746c0.965,0,1.432,0.725,1.432,1.593c0,0.97-0.619,2.42-0.938,3.765
			c-0.266,1.125,0.564,2.042,1.675,2.042c2.009,0,3.364-2.581,3.364-5.64c0-2.326-1.566-4.066-4.415-4.066
			c-3.218,0-5.223,2.4-5.223,5.081c0,0.925,0.272,1.577,0.699,2.082c0.196,0.232,0.223,0.324,0.153,0.591
			c-0.051,0.196-0.167,0.666-0.216,0.852c-0.071,0.268-0.288,0.364-0.531,0.265c-1.482-0.605-2.173-2.229-2.173-4.054
			c0-3.014,2.542-6.627,7.583-6.627c4.051,0,6.717,2.931,6.717,6.078c0,4.162-2.314,7.271-5.725,7.271
			c-1.145,0-2.222-0.619-2.591-1.322c0,0-0.616,2.445-0.746,2.917c-0.226,0.817-0.666,1.635-1.069,2.273
			c0.955,0.28,1.963,0.434,3.007,0.434c5.859,0,10.609-4.75,10.609-10.609C158.921,134.571,154.171,129.82,148.312,129.82"/>
	</g>
	<g>
		<rect x="84.359" y="4.552" transform="matrix(-0.707 -0.7072 0.7072 -0.707 138.8967 77.0833)" width="2.114" height="10.432"/>
		<rect x="78.991" y="10.419" transform="matrix(-0.7073 -0.7069 0.7069 -0.7073 130.6175 77.0372)" width="4.536" height="2.114"/>
	</g>
	<g>
		<defs>
			<rect id="SVGID_21_" x="97.25" y="5.333" width="25.788" height="7.968"/>
		</defs>
		<clipPath id="SVGID_22_">
			<use xlink:href="#SVGID_21_"  style="overflow:visible;"/>
		</clipPath>
		<path style="clip-path:url(#SVGID_22_);" d="M101,5.567c2.071,0,3.75,1.679,3.75,3.75c0,2.071-1.679,3.75-3.75,3.75
			c-2.071,0-3.75-1.679-3.75-3.75C97.25,7.246,98.929,5.567,101,5.567"/>
		<circle style="clip-path:url(#SVGID_22_);fill:none;stroke:#000000;" cx="119.054" cy="9.317" r="3.631"/>
	</g>
	<g>
		<defs>
			<rect id="SVGID_23_" x="5.063" y="60.785" width="247.238" height="0.707"/>
		</defs>
		<clipPath id="SVGID_24_">
			<use xlink:href="#SVGID_23_"  style="overflow:visible;"/>
		</clipPath>
		<line style="clip-path:url(#SVGID_24_);fill:none;stroke:#000000;" x1="5.063" y1="61.139" x2="252.302" y2="61.139"/>
	</g>
</g>
</svg>
