<?xml version="1.0" encoding="utf-8"?>
<!-- Generator: Adobe Illustrator 16.0.0, SVG Export Plug-In . SVG Version: 6.00 Build 0)  -->
<!DOCTYPE svg PUBLIC "-//W3C//DTD SVG 1.1//EN" "http://www.w3.org/Graphics/SVG/1.1/DTD/svg11.dtd">
<svg version="1.1" id="Layer_1" xmlns="http://www.w3.org/2000/svg" xmlns:xlink="http://www.w3.org/1999/xlink" x="0px" y="0px"
	 width="640px" height="480px" viewBox="0 0 640 480" enable-background="new 0 0 640 480" xml:space="preserve">
<g id="Layer_2">
</g>
<g id="Layer_1_1_">
	<g>
		<g>
			<defs>
				<rect id="SVGID_1_" x="23.878" y="5.333" width="14.848" height="49.205"/>
			</defs>
			<clipPath id="SVGID_2_">
				<use xlink:href="#SVGID_1_"  overflow="visible"/>
			</clipPath>
			<path clip-path="url(#SVGID_2_)" fill="none" stroke="#FFFFFF" stroke-linecap="round" stroke-linejoin="round" d="
				M24.231,54.183l14.092-24.07c0.064-0.109,0.064-0.246,0-0.357L24.231,5.686"/>
		</g>
	</g>
	<g>
		<g>
			<defs>
				<rect id="SVGID_3_" x="42.221" y="5.333" width="5.659" height="13.579"/>
			</defs>
			<clipPath id="SVGID_4_">
				<use xlink:href="#SVGID_3_"  overflow="visible"/>
			</clipPath>
			
				<path clip-path="url(#SVGID_4_)" fill="none" stroke="#FFFFFF" stroke-width="1.6" stroke-linecap="round" stroke-linejoin="round" d="
				M42.787,18.346l4.414-5.885c0.151-0.201,0.151-0.477,0-0.679l-4.414-5.884"/>
		</g>
	</g>
	<g>
		<g>
			<defs>
				<rect id="SVGID_5_" x="5.535" y="5.333" width="14.847" height="49.205"/>
			</defs>
			<clipPath id="SVGID_6_">
				<use xlink:href="#SVGID_5_"  overflow="visible"/>
			</clipPath>
			<path clip-path="url(#SVGID_6_)" fill="none" stroke="#FFFFFF" stroke-linecap="round" stroke-linejoin="round" d="
				M20.028,54.183L5.937,30.113c-0.064-0.109-0.064-0.246,0-0.357l14.092-24.07"/>
		</g>
	</g>
	<g>
		<g>
			<defs>
				<rect id="SVGID_7_" x="60.564" y="5.333" width="4.248" height="10.751"/>
			</defs>
			<clipPath id="SVGID_8_">
				<use xlink:href="#SVGID_7_"  overflow="visible"/>
			</clipPath>
			
				<path clip-path="url(#SVGID_8_)" fill="none" stroke="#FFFFFF" stroke-width="0.8" stroke-linecap="round" stroke-linejoin="round" d="
				M60.847,15.801l3.627-4.925c0.073-0.099,0.073-0.235,0-0.334l-3.627-4.925"/>
		</g>
	</g>
	<g>
		<g>
			<g>
				<defs>
					<rect id="SVGID_9_" x="5.13" y="158.646" width="116.265" height="116.266"/>
				</defs>
				<clipPath id="SVGID_10_">
					<use xlink:href="#SVGID_9_"  overflow="visible"/>
				</clipPath>
				<path clip-path="url(#SVGID_10_)" fill="#1D1D1B" d="M29.649,158.646c0,0-24.52,0-24.52,24.52v67.227c0,0,0,24.521,24.52,24.521
					h67.225c0,0,24.52,0,24.52-24.521v-67.227c0,0,0-24.52-24.52-24.52H29.649z"/>
			</g>
			<g>
				<defs>
					<rect id="SVGID_11_" x="5.13" y="158.646" width="116.265" height="116.266"/>
				</defs>
				<clipPath id="SVGID_12_">
					<use xlink:href="#SVGID_11_"  overflow="visible"/>
				</clipPath>
				<path clip-path="url(#SVGID_12_)" fill="#FFFFFF" d="M29.709,247.95v-24.499c0-5.608-9.021-6.665-9.07-6.673
					c0.049-0.005,9.07-1.06,9.07-6.672v-24.495c0-4.198,4.733-6.449,4.733-6.449s-9.547,0.971-9.547,6.366v23.831
					c0,4.646-4.244,7.409-4.259,7.419h-0.002l0,0l0,0h0.002c0.016,0.012,4.259,2.777,4.259,7.424v23.83
					c0,5.392,9.547,6.364,9.547,6.364S29.709,252.152,29.709,247.95"/>
			</g>
			<g>
				<defs>
					<rect id="SVGID_13_" x="5.13" y="158.646" width="116.265" height="116.266"/>
				</defs>
				<clipPath id="SVGID_14_">
					<use xlink:href="#SVGID_13_"  overflow="visible"/>
				</clipPath>
				<path clip-path="url(#SVGID_14_)" fill="#FFFFFF" d="M96.816,185.608v24.501c0,5.608,9.02,6.666,9.069,6.675
					c-0.049,0.005-9.069,1.06-9.069,6.669v24.496c0,4.197-4.734,6.447-4.734,6.447s9.547-0.969,9.547-6.366V224.2
					c0-4.645,4.244-7.408,4.26-7.416h0.002h-0.002l0.002-0.004h-0.002c-0.016-0.009-4.26-2.776-4.26-7.421v-23.834
					c0-5.391-9.547-6.363-9.547-6.363S96.816,181.409,96.816,185.608"/>
			</g>
		</g>
		<polygon fill="#FFFFFF" points="78.418,192.556 88.12,192.556 63.273,243.96 37.8,192.556 47.719,192.556 63.107,224.923 		"/>
	</g>
	<g>
		<path fill="#FFFFFF" d="M18.878,138.633l-0.122,1.587H17.13v5.514h-2.056v-5.514h-1.097v-1.587h1.097v-1.066
			c0-0.47,0.012-1.194,0.353-1.644c0.36-0.476,0.853-0.799,1.703-0.799c1.383,0,1.967,0.198,1.967,0.198l-0.274,1.624
			c0,0-0.457-0.132-0.884-0.132c-0.427,0-0.809,0.153-0.809,0.579v1.24H18.878z M16.536,129.82c-5.86,0-10.61,4.751-10.61,10.61
			c0,5.86,4.75,10.609,10.61,10.609c5.859,0,10.609-4.749,10.609-10.609C27.146,134.571,22.396,129.82,16.536,129.82"/>
		<path fill="#FFFFFF" d="M54.334,138.778c0.003,0.094,0.005,0.188,0.005,0.283c0,2.882-2.192,6.204-6.205,6.204
			c-1.231,0-2.376-0.361-3.341-0.979c0.17,0.021,0.344,0.031,0.52,0.031c1.021,0,1.962-0.349,2.708-0.933
			c-0.955-0.018-1.76-0.647-2.037-1.515c0.133,0.026,0.271,0.039,0.41,0.039c0.2,0,0.392-0.024,0.575-0.077
			c-0.999-0.199-1.75-1.081-1.75-2.137v-0.027c0.294,0.162,0.631,0.261,0.988,0.272c-0.584-0.392-0.97-1.059-0.97-1.815
			c0-0.399,0.107-0.773,0.295-1.097c1.076,1.32,2.682,2.187,4.495,2.278c-0.038-0.159-0.056-0.326-0.056-0.497
			c0-1.204,0.975-2.18,2.179-2.18c0.627,0,1.194,0.264,1.591,0.688c0.497-0.099,0.963-0.279,1.385-0.529
			c-0.163,0.509-0.508,0.937-0.959,1.207c0.44-0.053,0.861-0.17,1.252-0.344C55.129,138.087,54.759,138.471,54.334,138.778
			 M50.099,129.82c-5.86,0-10.61,4.751-10.61,10.61c0,5.86,4.75,10.609,10.61,10.609c5.859,0,10.609-4.749,10.609-10.609
			C60.708,134.571,55.958,129.82,50.099,129.82"/>
		<path fill="#FFFFFF" d="M85.799,140.407c0-1.152-0.953-2.085-2.128-2.085c-1.175,0-2.128,0.933-2.128,2.085
			c0,1.151,0.953,2.085,2.128,2.085C84.846,142.492,85.799,141.558,85.799,140.407 M87.757,137.901v-1.155
			c0-0.266-0.216-0.482-0.478-0.482h-1.197c-0.262,0-0.476,0.216-0.476,0.482v1.155c0,0.265,0.214,0.482,0.476,0.482h1.197
			C87.541,138.383,87.757,138.166,87.757,137.901 M87.762,144.129v-4.525h-0.934c0.089,0.292,0.136,0.6,0.136,0.92
			c0,1.782-1.475,3.226-3.294,3.226s-3.294-1.444-3.294-3.226c0-0.32,0.049-0.628,0.136-0.92h-0.973v4.525
			c0,0.234,0.189,0.426,0.421,0.426h7.379C87.572,144.555,87.762,144.363,87.762,144.129 M88.958,144.411
			c0,0.757-0.611,1.376-1.36,1.376h-7.876c-0.748,0-1.36-0.619-1.36-1.376v-7.962c0-0.756,0.612-1.375,1.36-1.375h7.876
			c0.749,0,1.36,0.619,1.36,1.375V144.411z M94.271,140.43c0-5.859-4.751-10.61-10.61-10.61c-5.859,0-10.609,4.751-10.609,10.61
			c0,5.86,4.75,10.609,10.609,10.609C89.52,151.039,94.271,146.29,94.271,140.43"/>
		<path fill="#FFFFFF" d="M114.948,142.311c-0.47-0.352-1.01-0.481-1.619-0.493c-0.686,0.019-1.347,0.201-1.881,0.708
			c-0.714,0.68-0.647,1.609,0.146,2.193c0.976,0.717,2.637,0.596,3.499-0.255C115.77,143.794,115.709,142.882,114.948,142.311"/>
		<path fill="#FFFFFF" d="M114.465,138.591c0.175-0.414,0.207-0.845,0.125-1.283c-0.125-0.66-0.406-1.23-0.978-1.617
			c-0.635-0.429-1.338-0.243-1.692,0.436c-0.156,0.3-0.216,0.623-0.216,1.079c0.031,0.673,0.282,1.374,0.93,1.875
			C113.322,139.613,114.126,139.392,114.465,138.591"/>
		<path fill="#FFFFFF" d="M121.898,137.698c-0.506,0-1.012,0.004-1.52-0.002c-0.136-0.001-0.182,0.036-0.179,0.177
			c0.008,0.598-0.001,1.196,0.005,1.794c0.002,0.136-0.036,0.178-0.177,0.178c-0.471,0.001-0.471,0.007-0.471-0.473
			c0-0.499-0.004-0.999,0.003-1.499c0.002-0.137-0.038-0.18-0.179-0.179c-0.591,0.008-1.182-0.002-1.773,0.008
			c-0.162,0.003-0.198-0.048-0.196-0.203c0.006-0.444-0.001-0.444,0.436-0.444c0.492,0,0.985-0.007,1.478,0.005
			c0.177,0.004,0.242-0.029,0.236-0.227c-0.016-0.583-0.002-1.167-0.009-1.751c-0.001-0.136,0.034-0.181,0.177-0.181
			c0.473,0,0.473-0.006,0.473,0.473c0,0.5,0.006,0.999-0.003,1.499c-0.003,0.151,0.043,0.191,0.189,0.187
			c0.302-0.012,0.605-0.004,0.908-0.004c0.295,0,0.592,0.008,0.887-0.002c0.142-0.006,0.176,0.044,0.176,0.18
			C122.36,137.698,122.365,137.698,121.898,137.698 M115.437,145.316c-0.676,0.438-1.439,0.594-2.228,0.635
			c-0.745,0.039-1.478-0.041-2.174-0.332c-1.072-0.451-1.57-1.447-1.267-2.518c0.159-0.559,0.541-0.927,1.035-1.193
			c0.582-0.312,1.214-0.44,1.862-0.504c0.224-0.021,0.45-0.037,0.675-0.037c0.137,0.001,0.151-0.048,0.116-0.161
			c-0.035-0.112-0.082-0.218-0.178-0.279c-0.178-0.114-0.225-0.27-0.21-0.47c0.012-0.146,0.05-0.331-0.02-0.432
			c-0.077-0.112-0.273-0.03-0.417-0.041c-0.611-0.044-1.18-0.194-1.644-0.624c-0.311-0.285-0.492-0.647-0.577-1.056
			c-0.328-1.577,0.44-2.784,2.058-3.23c0.408-0.113,0.824-0.174,1.25-0.171c0.873,0.006,1.747,0.001,2.62,0.004
			c0.07,0.001,0.182-0.048,0.204,0.045c0.025,0.1-0.076,0.156-0.161,0.195c-0.255,0.119-0.532,0.125-0.803,0.168
			c-0.136,0.022-0.279,0.023-0.441,0.143c0.739,0.318,0.853,0.932,0.906,1.611c0.074,0.95-0.253,1.692-1.014,2.253
			c-0.153,0.112-0.298,0.237-0.418,0.386c-0.195,0.241-0.198,0.445-0.009,0.688c0.136,0.174,0.308,0.31,0.477,0.447
			c0.301,0.246,0.603,0.487,0.861,0.779C116.947,142.757,116.714,144.487,115.437,145.316 M115.986,129.82
			c-5.86,0-10.61,4.751-10.61,10.61c0,5.86,4.75,10.609,10.61,10.609c5.859,0,10.609-4.75,10.609-10.609
			C126.596,134.571,121.845,129.82,115.986,129.82"/>
		<path fill="#FFFFFF" d="M148.312,129.82c-5.858,0-10.61,4.751-10.61,10.61c0,4.345,2.612,8.076,6.351,9.717
			c-0.03-0.74-0.005-1.629,0.185-2.435c0.204-0.862,1.364-5.781,1.364-5.781s-0.339-0.678-0.339-1.68
			c0-1.571,0.912-2.746,2.046-2.746c0.965,0,1.432,0.725,1.432,1.593c0,0.97-0.619,2.42-0.938,3.765
			c-0.266,1.125,0.564,2.042,1.675,2.042c2.009,0,3.364-2.581,3.364-5.64c0-2.326-1.566-4.066-4.415-4.066
			c-3.218,0-5.223,2.4-5.223,5.081c0,0.925,0.272,1.577,0.699,2.082c0.196,0.232,0.223,0.324,0.153,0.591
			c-0.051,0.196-0.167,0.666-0.216,0.852c-0.071,0.268-0.288,0.364-0.531,0.265c-1.482-0.605-2.173-2.229-2.173-4.054
			c0-3.014,2.542-6.627,7.583-6.627c4.051,0,6.717,2.931,6.717,6.078c0,4.162-2.314,7.271-5.725,7.271
			c-1.145,0-2.222-0.619-2.591-1.322c0,0-0.616,2.445-0.746,2.917c-0.226,0.817-0.666,1.635-1.069,2.273
			c0.955,0.28,1.963,0.434,3.007,0.434c5.859,0,10.609-4.75,10.609-10.609C158.921,134.571,154.171,129.82,148.312,129.82"/>
	</g>
	<g>
		<rect x="84.358" y="4.555" transform="matrix(0.707 0.7072 -0.7072 0.707 31.9379 -57.5447)" width="2.114" height="10.432"/>
		<rect x="78.987" y="10.421" transform="matrix(0.7073 0.7069 -0.7069 0.7073 31.8955 -54.0793)" width="4.536" height="2.114"/>
	</g>
	<g>
		<g>
			<defs>
				<rect id="SVGID_15_" x="97.25" y="5.333" width="25.788" height="7.968"/>
			</defs>
			<clipPath id="SVGID_16_">
				<use xlink:href="#SVGID_15_"  overflow="visible"/>
			</clipPath>
			<path clip-path="url(#SVGID_16_)" d="M101,5.567c2.071,0,3.75,1.679,3.75,3.75c0,2.071-1.679,3.75-3.75,3.75
				s-3.75-1.679-3.75-3.75C97.25,7.246,98.929,5.567,101,5.567"/>
		</g>
		<g>
			<defs>
				<rect id="SVGID_17_" x="97.25" y="5.333" width="25.788" height="7.968"/>
			</defs>
			<clipPath id="SVGID_18_">
				<use xlink:href="#SVGID_17_"  overflow="visible"/>
			</clipPath>
			<circle clip-path="url(#SVGID_18_)" fill="none" stroke="#000000" cx="119.054" cy="9.317" r="3.631"/>
		</g>
	</g>
	<g>
		<g>
			<defs>
				<rect id="SVGID_19_" x="5.063" y="60.785" width="247.238" height="0.707"/>
			</defs>
			<clipPath id="SVGID_20_">
				<use xlink:href="#SVGID_19_"  overflow="visible"/>
			</clipPath>
			<line clip-path="url(#SVGID_20_)" fill="none" stroke="#000000" x1="5.063" y1="61.139" x2="252.302" y2="61.139"/>
		</g>
	</g>
</g>
<g>
	<defs>
		<rect id="SVGID_21_" x="129.553" y="4.624" width="77.699" height="19.902"/>
	</defs>
	<clipPath id="SVGID_22_">
		<use xlink:href="#SVGID_21_"  overflow="visible"/>
	</clipPath>
	<path clip-path="url(#SVGID_22_)" fill="#FFFFFF" d="M129.587,5.176h6.839c0.04,0,0.027,0.202,0,0.202h-1.411
		c0,0-0.396-0.017-0.278,0.202c0.024,0.044,4.831,13.19,4.831,13.19s0.084,0.228,0.151,0.252c0,0,4.273-13.199,4.278-13.212
		c0.043-0.132,0.195-0.425-0.068-0.425h-1.546c-0.027,0-0.027-0.201,0-0.201h3.68c0.028,0,0.028,0.201,0,0.201h-1.369
		c-0.376-0.008-0.379,0.109-0.446,0.302c-0.034,0.1-5.948,18.535-5.948,18.535s-0.027-0.079-0.051-0.151
		c-2.5-7.234-6.381-17.302-6.687-18.375c-0.093-0.321-0.139-0.312-0.328-0.311h-1.647C129.539,5.386,129.545,5.176,129.587,5.176"/>
	<path clip-path="url(#SVGID_22_)" fill="#FFFFFF" d="M130.365,6.998c0.256,0,0.463-0.208,0.463-0.465
		c0-0.256-0.207-0.463-0.463-0.463c-0.257,0-0.464,0.207-0.464,0.463C129.9,6.79,130.107,6.998,130.365,6.998 M129.842,6.533
		c0-0.288,0.234-0.522,0.523-0.522c0.288,0,0.523,0.234,0.523,0.522c0,0.289-0.235,0.523-0.523,0.523
		C130.077,7.057,129.842,6.822,129.842,6.533"/>
	<path clip-path="url(#SVGID_22_)" fill="#FFFFFF" d="M130.23,6.519h0.116c0.083,0,0.173-0.008,0.173-0.103
		c0-0.084-0.073-0.108-0.138-0.108h-0.151V6.519z M130.183,6.267h0.205c0.124,0,0.177,0.052,0.177,0.15
		c0,0.089-0.062,0.132-0.14,0.144l0.163,0.25h-0.052l-0.164-0.251h-0.142v0.251h-0.047V6.267z"/>
	<path clip-path="url(#SVGID_22_)" fill="#FFFFFF" d="M152.101,24.437c3.992,0.014,8.31-4.405,8.321-9.875
		c0.01-5.726-4.141-9.806-8.253-9.84c-4.207-0.034-8.245,4.586-8.245,9.84C143.924,19.997,147.74,24.421,152.101,24.437
		 M147.389,14.461c0-5.276,1.013-9.588,4.754-9.587c4.023,0.001,4.813,4.492,4.813,9.587c0,5.276-0.768,9.829-4.779,9.824
		C147.869,24.28,147.389,20.008,147.389,14.461"/>
	<path clip-path="url(#SVGID_22_)" fill="#FFFFFF" d="M171.718,16.297h1.562c0,0,0.291-0.031,0.287,0.11v4.467
		c0,3.436-3.425,3.475-4.393,3.365c-3.581-0.404-3.655-7.798-3.674-9.739c-0.048-5.276,0.781-9.871,4.384-9.688
		c4.276,0.217,5.396,6.347,5.465,6.621c0.142,0.05,0.144-0.066,0.144-0.066l0.008-6.688c0,0-0.029-0.056-0.113,0.022
		c-0.029,0.027-0.064,0.062-0.105,0.104c-1.893,1.936-2.84-0.088-5.592-0.178c-3.389-0.109-7.599,4.589-7.653,10.009
		c-0.055,5.455,3.527,9.658,7.442,9.807c2.123,0.08,2.078-0.511,4.695-1.321c1.602-0.496,2.357,0.583,2.416,1.029
		c0.102,0.067,0.109-0.051,0.109-0.051v-7.667c0-0.151,0.211-0.127,0.211-0.127h1.444c0.036,0,0.036-0.211,0-0.211h-6.645
		C171.661,16.094,171.661,16.297,171.718,16.297"/>
	<path clip-path="url(#SVGID_22_)" fill="#FFFFFF" d="M206.815,5.174v6.869c0,0.034-0.135,0.043-0.135,0
		c0-0.042,0.127-6.675-6.031-6.675h-2.309c-0.13,0-0.207,0.022-0.207,0.123v8.58c0,0.081,0.08,0.124,0.203,0.124h0.771
		c3.664,0,3.369-3.677,3.369-3.719s0.144-0.034,0.144,0s0.008,7.72,0.008,7.754c0,0.033-0.108,0.042-0.108,0
		s-0.084-3.833-3.496-3.833h-0.688c-0.119,0-0.203,0.044-0.203,0.125v9.235c0,0.066,0.078,0.125,0.207,0.125
		c0.516,0.002,1.846,0.005,2.215,0.007c6.619,0.017,6.529-7.087,6.529-7.121s0.168-0.034,0.168,0v7.358h-13.964
		c-0.043,0-0.039-0.203,0-0.203h1.396c0.123,0,0.205-0.043,0.205-0.124c0-1.602,0-18.163,0-18.301
		c-0.002-0.119-0.156-0.127-0.205-0.127h-3.09c0,0-0.203,0.002-0.203,0.118c0,1.302,0,12.291,0,13.854v0.007
		c0.008,3.875-2.971,5.14-5.112,5.175l-0.005-0.007c-2.521,0.014-7.049-0.412-7.049-5.999c0,0-0.012-12.712-0.017-12.888
		c-0.008-0.278-0.353-0.264-0.353-0.264s-1.434,0.003-1.479,0.003s-0.038-0.202,0-0.202h6.974c0.039,0,0.025,0.202,0,0.202
		s-1.483,0-1.483,0s-0.457-0.027-0.457,0.277c0,0.429,0.009,14.182,0.009,14.67c0,2.145,1.213,4.043,3.855,3.998
		c2.061-0.032,4.924-1.248,4.916-4.973c-0.002-0.182,0-12.474,0-13.854c-0.008-0.108-0.219-0.118-0.219-0.118h-1.937
		c-0.042,0-0.034-0.193,0.009-0.193C189.084,5.179,206.815,5.174,206.815,5.174"/>
</g>
<g>
	<text transform="matrix(1 0 0 1 8.25 121.0664)"><tspan x="0" y="0" fill="#FFFFFF" font-family="'GothamCondensed-Book'" font-size="11">SH</tspan><tspan x="8.767" y="0" fill="#FFFFFF" font-family="'GothamCondensed-Book'" font-size="11">A</tspan><tspan x="13.519" y="0" fill="#FFFFFF" font-family="'GothamCondensed-Book'" font-size="11">R</tspan><tspan x="18.04" y="0" fill="#FFFFFF" font-family="'GothamCondensed-Book'" font-size="11">E THI</tspan><tspan x="34.693" y="0" fill="#FFFFFF" font-family="'GothamCondensed-Book'" font-size="11">S</tspan><tspan x="38.598" y="0" fill="#FFFFFF" font-family="'GothamCondensed-Book'" font-size="11"> </tspan><tspan x="40.667" y="0" fill="#FFFFFF" font-family="'GothamCondensed-Book'" font-size="11">P</tspan><tspan x="44.461" y="0" fill="#FFFFFF" font-family="'GothamCondensed-Book'" font-size="11">A</tspan><tspan x="48.938" y="0" fill="#FFFFFF" font-family="'GothamCondensed-Book'" font-size="11">G</tspan><tspan x="53.569" y="0" fill="#FFFFFF" font-family="'GothamCondensed-Book'" font-size="11">E</tspan></text>
	<g>
		<defs>
			<rect id="SVGID_23_" x="-2" y="70.599" width="77.699" height="56.251"/>
		</defs>
		<clipPath id="SVGID_24_">
			<use xlink:href="#SVGID_23_"  overflow="visible"/>
		</clipPath>
		<path clip-path="url(#SVGID_24_)" fill="#FFFFFF" d="M22.836,82.379L22.673,84.5h-2.175v7.37H17.75V84.5h-1.467v-2.121h1.467
			v-1.425c0-0.629,0.016-1.598,0.472-2.198c0.481-0.635,1.142-1.067,2.276-1.067c1.85,0,2.628,0.265,2.628,0.265l-0.366,2.172
			c0,0-0.611-0.177-1.181-0.177c-0.57,0-1.081,0.203-1.081,0.773v1.657H22.836z M19.705,70.599c-7.832,0-14.18,6.35-14.18,14.182
			c0,7.831,6.348,14.18,14.18,14.18s14.181-6.349,14.181-14.18C33.886,76.948,27.537,70.599,19.705,70.599"/>
		<path clip-path="url(#SVGID_24_)" fill="#FFFFFF" d="M62.61,82.573c0.005,0.125,0.007,0.251,0.007,0.377
			c0,3.852-2.93,8.292-8.291,8.292c-1.646,0-3.178-0.483-4.468-1.31c0.228,0.028,0.46,0.041,0.696,0.041
			c1.365,0,2.621-0.466,3.619-1.248c-1.275-0.022-2.353-0.865-2.723-2.022c0.178,0.034,0.36,0.052,0.549,0.052
			c0.266,0,0.523-0.035,0.768-0.103c-1.334-0.268-2.338-1.445-2.338-2.858v-0.035c0.393,0.217,0.843,0.349,1.32,0.364
			c-0.783-0.524-1.297-1.416-1.297-2.426c0-0.534,0.145-1.035,0.395-1.467c1.439,1.765,3.585,2.924,6.007,3.046
			c-0.05-0.214-0.075-0.436-0.075-0.664c0-1.609,1.305-2.914,2.914-2.914c0.838,0,1.596,0.354,2.127,0.92
			c0.665-0.13,1.287-0.372,1.852-0.706c-0.217,0.68-0.68,1.251-1.281,1.611c0.589-0.07,1.15-0.228,1.673-0.459
			C63.674,81.648,63.18,82.162,62.61,82.573 M56.949,70.599c-7.832,0-14.181,6.35-14.181,14.182s6.349,14.18,14.181,14.18
			s14.18-6.348,14.18-14.18S64.781,70.599,56.949,70.599"/>
	</g>
</g>
<g>
	<g>
		<defs>
			<rect id="SVGID_25_" x="-307" y="370.864" width="919.815" height="153.136"/>
		</defs>
		<clipPath id="SVGID_26_">
			<use xlink:href="#SVGID_25_"  overflow="visible"/>
		</clipPath>
		<path clip-path="url(#SVGID_26_)" fill="#FFFFFF" d="M11.23,439.716v-10.149c0-2.324-3.588-2.762-3.608-2.765
			c0.02-0.002,3.608-0.439,3.608-2.765v-10.146c0-1.74,1.883-2.672,1.883-2.672s-3.798,0.401-3.798,2.638v9.872
			c0,1.923-1.688,3.068-1.694,3.073c0.006,0.005,1.694,1.15,1.694,3.075v9.872c0,2.233,3.798,2.637,3.798,2.637
			S11.23,441.455,11.23,439.716"/>
		<path clip-path="url(#SVGID_26_)" fill="#FFFFFF" d="M299.249,413.889v10.149c0,2.324,3.588,2.762,3.606,2.765
			c-0.019,0.002-3.606,0.439-3.606,2.765v10.146c0,1.74-1.884,2.672-1.884,2.672s3.798-0.401,3.798-2.638v-9.872
			c0-1.923,1.688-3.068,1.694-3.073c-0.007-0.005-1.694-1.15-1.694-3.075v-9.872c0-2.233-3.798-2.637-3.798-2.637
			S299.249,412.149,299.249,413.889"/>
		<path clip-path="url(#SVGID_26_)" fill="#FFFFFF" d="M36.307,437.155c-5.732,0-9.999-4.652-9.999-10.562
			c0-5.855,4.183-10.621,10.139-10.621c3.624,0,5.815,1.318,7.694,3.192l-2.219,2.659c-1.57-1.522-3.257-2.54-5.505-2.54
			c-3.759,0-6.486,3.213-6.486,7.252c0,4.036,2.728,7.308,6.486,7.308c2.416,0,3.961-1.02,5.647-2.661l2.22,2.346
			C42.234,435.752,39.986,437.155,36.307,437.155"/>
		<path clip-path="url(#SVGID_26_)" fill="#FFFFFF" d="M65.144,419.284c-3.901,0-6.626,3.242-6.626,7.252
			c0,4.009,2.779,7.308,6.682,7.308c3.905,0,6.631-3.245,6.631-7.25C71.83,422.583,69.051,419.284,65.144,419.284 M65.144,437.155
			c-6.038,0-10.252-4.768-10.252-10.562c0-5.796,4.268-10.621,10.308-10.621s10.255,4.766,10.255,10.563
			C75.454,432.328,71.182,437.155,65.144,437.155"/>
	</g>
	<polygon fill="#FFFFFF" points="88.053,416.329 91.509,416.329 91.509,433.527 101.849,433.527 101.849,436.8 88.053,436.8 	"/>
	<polygon fill="#FFFFFF" points="113.86,416.329 117.316,416.329 117.316,433.527 127.652,433.527 127.652,436.8 113.86,436.8 	"/>
	<polygon fill="#FFFFFF" points="154.248,419.545 143.122,419.545 143.122,424.87 152.98,424.87 152.98,428.086 143.122,428.086 
		143.122,433.581 154.388,433.581 154.388,436.8 139.666,436.8 139.666,416.329 154.248,416.329 	"/>
	<g>
		<defs>
			<rect id="SVGID_27_" x="-307" y="370.864" width="919.815" height="153.136"/>
		</defs>
		<clipPath id="SVGID_28_">
			<use xlink:href="#SVGID_27_"  overflow="visible"/>
		</clipPath>
		<path clip-path="url(#SVGID_28_)" fill="#FFFFFF" d="M176.034,437.155c-5.729,0-10.001-4.652-10.001-10.562
			c0-5.855,4.182-10.621,10.141-10.621c3.625,0,5.815,1.318,7.699,3.192l-2.22,2.659c-1.575-1.522-3.262-2.54-5.506-2.54
			c-3.766,0-6.494,3.213-6.494,7.252c0,4.036,2.729,7.308,6.494,7.308c2.418,0,3.962-1.02,5.645-2.661l2.223,2.346
			C181.959,435.752,179.715,437.155,176.034,437.155"/>
	</g>
	<polygon fill="#FFFFFF" points="204.367,436.8 200.882,436.8 200.882,419.662 194.648,419.662 194.648,416.328 210.605,416.328 
		210.605,419.662 204.367,419.662 	"/>
	<rect x="222.87" y="416.328" fill="#FFFFFF" width="3.457" height="20.471"/>
	<polygon fill="#FFFFFF" points="284.062,419.545 272.936,419.545 272.936,424.87 282.8,424.87 282.8,428.086 272.936,428.086 
		272.936,433.581 284.202,433.581 284.202,436.8 269.485,436.8 269.485,416.329 284.062,416.329 	"/>
	<polygon fill="#FFFFFF" points="253.921,416.357 257.661,416.357 248.082,436.999 238.26,416.357 242.084,416.357 248.016,429.355 
			"/>
	<polygon fill="#FFFFFF" points="73.748,376.646 55.43,376.646 55.43,385.415 71.666,385.415 71.666,390.715 55.43,390.715 
		55.43,399.773 73.685,399.773 73.685,405.071 49.737,405.071 49.737,371.347 73.748,371.347 	"/>
	<polygon fill="#FFFFFF" points="33.25,371.347 39.404,371.347 23.643,405.312 7.482,371.347 13.773,371.347 23.535,392.734 	"/>
	<g>
		<defs>
			<rect id="SVGID_29_" x="-307" y="370.864" width="919.815" height="153.136"/>
		</defs>
		<clipPath id="SVGID_30_">
			<use xlink:href="#SVGID_29_"  overflow="visible"/>
		</clipPath>
		<path clip-path="url(#SVGID_30_)" fill="#FFFFFF" d="M99.391,385.51c6.846,1.735,10.405,4.291,10.405,9.927
			c0,6.359-4.763,10.117-11.561,10.117c-4.952,0-9.622-1.784-13.507-5.396l3.42-4.241c3.1,2.795,6.201,4.384,10.224,4.384
			c3.516,0,5.736-1.685,5.736-4.286c0-2.46-1.295-3.758-7.31-5.203c-6.891-1.734-10.775-3.854-10.775-10.118
			c0-5.878,4.625-9.829,11.054-9.829c4.718,0,8.464,1.493,11.749,4.241l-3.053,4.481c-2.912-2.267-5.828-3.468-8.789-3.468
			c-3.331,0-5.273,1.78-5.273,4.045C91.711,382.814,93.191,383.97,99.391,385.51"/>
	</g>
	<rect x="158.455" y="371.346" fill="#FFFFFF" width="5.688" height="33.726"/>
	<rect x="219.386" y="371.346" fill="#FFFFFF" width="5.692" height="33.726"/>
	<g>
		<defs>
			<rect id="SVGID_31_" x="-307" y="370.864" width="919.815" height="153.136"/>
		</defs>
		<clipPath id="SVGID_32_">
			<use xlink:href="#SVGID_31_"  overflow="visible"/>
		</clipPath>
		<path clip-path="url(#SVGID_32_)" fill="#FFFFFF" d="M253.877,376.742h-8.279v11.324h8.327c4.07,0,6.66-2.22,6.66-5.688
			C260.585,378.67,258.084,376.742,253.877,376.742 M260.675,405.071l-7.957-11.756h-7.12v11.756h-5.691v-33.725h14.433
			c7.447,0,12.028,4.094,12.028,10.695c0,5.589-3.191,8.961-7.727,10.265l8.742,12.765H260.675z"/>
	</g>
	<polygon fill="#FFFFFF" points="303.161,376.646 284.842,376.646 284.842,385.415 301.077,385.415 301.077,390.715 
		284.842,390.715 284.842,399.773 303.178,399.773 303.178,405.071 279.149,405.071 279.149,371.347 303.161,371.347 	"/>
	<path fill="#FFFFFF" d="M188.188,391.593l3.586-7.895l3.603,7.895H188.188z M201.534,405.086h6.291l-16.158-33.965l-15.763,33.965
		h6.154l3.742-8.239h11.974L201.534,405.086z"/>
	<polygon fill="#FFFFFF" points="135.041,405.071 129.304,405.071 129.304,376.838 119.035,376.838 119.035,371.347 145.31,371.347 
		145.31,376.838 135.041,376.838 	"/>
	<text transform="matrix(1 0 0 1 2.2031 467.6279)"><tspan x="0" y="0" fill="#FFFFFF" font-family="'GothamCondensed-Book'" font-size="21" letter-spacing="1">B</tspan><tspan x="8.988" y="0" fill="#FFFFFF" font-family="'GothamCondensed-Book'" font-size="21" letter-spacing="1">U</tspan><tspan x="18.605" y="0" fill="#FFFFFF" font-family="'GothamCondensed-Book'" font-size="21" letter-spacing="1">Y A</tspan><tspan x="41.285" y="0" fill="#FFFFFF" font-family="'GothamCondensed-Book'" font-size="21" letter-spacing="1">ND</tspan><tspan x="60.71" y="0" fill="#FFFFFF" font-family="'GothamCondensed-Book'" font-size="21" letter-spacing="1"> SE</tspan><tspan x="81.08" y="0" fill="#FFFFFF" font-family="'GothamCondensed-Book'" font-size="21" letter-spacing="1">L</tspan><tspan x="88.156" y="0" fill="#FFFFFF" font-family="'GothamCondensed-Book'" font-size="21" letter-spacing="1">L</tspan><tspan x="95.255" y="0" fill="#FFFFFF" font-family="'GothamCondensed-Book'" font-size="21" letter-spacing="1"> </tspan><tspan x="99.706" y="0" fill="#FFFFFF" font-family="'GothamCondensed-Book'" font-size="21">L</tspan><tspan x="106.594" y="0" fill="#FFFFFF" font-family="'GothamCondensed-Book'" font-size="21">U</tspan><tspan x="115.918" y="0" fill="#FFFFFF" font-family="'GothamCondensed-Book'" font-size="21">X</tspan><tspan x="124.318" y="0" fill="#FFFFFF" font-family="'GothamCondensed-Book'" font-size="21" letter-spacing="1">U</tspan><tspan x="133.936" y="0" fill="#FFFFFF" font-family="'GothamCondensed-Book'" font-size="21">R</tspan><tspan x="142.777" y="0" fill="#FFFFFF" font-family="'GothamCondensed-Book'" font-size="21" letter-spacing="1">Y</tspan><tspan x="151.387" y="0" fill="#FFFFFF" font-family="'GothamCondensed-Book'" font-size="21" letter-spacing="1"> </tspan><tspan x="155.839" y="0" fill="#FFFFFF" font-family="'GothamCondensed-Book'" font-size="21" letter-spacing="1">PR</tspan><tspan x="173.835" y="0" fill="#FFFFFF" font-family="'GothamCondensed-Book'" font-size="21">E</tspan><tspan x="181.416" y="0" fill="#FFFFFF" font-family="'GothamCondensed-Book'" font-size="21" letter-spacing="1">-</tspan><tspan x="188.451" y="0" fill="#FFFFFF" font-family="'GothamCondensed-Book'" font-size="21">O</tspan><tspan x="197.9" y="0" fill="#FFFFFF" font-family="'GothamCondensed-Book'" font-size="21" letter-spacing="1">W</tspan><tspan x="211.677" y="0" fill="#FFFFFF" font-family="'GothamCondensed-Book'" font-size="21" letter-spacing="1">N</tspan><tspan x="221.567" y="0" fill="#FFFFFF" font-family="'GothamCondensed-Book'" font-size="21" letter-spacing="1">ED</tspan><tspan x="239.018" y="0" fill="#FFFFFF" font-family="'GothamCondensed-Book'" font-size="21" letter-spacing="1"> </tspan><tspan x="243.47" y="0" fill="#FFFFFF" font-family="'GothamCondensed-Book'" font-size="21">F</tspan><tspan x="250.441" y="0" fill="#FFFFFF" font-family="'GothamCondensed-Book'" font-size="21">A</tspan></text>
	<text transform="matrix(1 0 0 1 262.4756 467.6279)" fill="#FFFFFF" font-family="'GothamCondensed-Book'" font-size="21">S</text>
	<text transform="matrix(1 0 0 1 270.4766 467.6279)"><tspan x="0" y="0" fill="#FFFFFF" font-family="'GothamCondensed-Book'" font-size="21" letter-spacing="1">HI</tspan><tspan x="14.574" y="0" fill="#FFFFFF" font-family="'GothamCondensed-Book'" font-size="21" letter-spacing="1">O</tspan><tspan x="24.233" y="0" fill="#FFFFFF" font-family="'GothamCondensed-Book'" font-size="21">N</tspan></text>
</g>
<g>
	<g>
		<defs>
			<rect id="SVGID_33_" x="-13.138" y="285.54" width="241.056" height="73.264"/>
		</defs>
		<clipPath id="SVGID_34_">
			<use xlink:href="#SVGID_33_"  overflow="visible"/>
		</clipPath>
		<path clip-path="url(#SVGID_34_)" fill="#FFFFFF" d="M9.646,333.041v-7.002c0-1.603-2.476-1.906-2.489-1.908
			c0.013-0.001,2.489-0.303,2.489-1.905v-7.001c0-1.2,1.299-1.844,1.299-1.844s-2.62,0.277-2.62,1.819v6.811
			c0,1.327-1.164,2.117-1.169,2.12v0.001c0.005,0.003,1.169,0.794,1.169,2.121v6.812c0,1.54,2.62,1.817,2.62,1.817
			S9.646,334.241,9.646,333.041"/>
		<path clip-path="url(#SVGID_34_)" fill="#FFFFFF" d="M208.352,315.224v7.002c0,1.603,2.475,1.905,2.49,1.907
			c-0.016,0.001-2.49,0.304-2.49,1.906v7.001c0,1.2-1.299,1.843-1.299,1.843s2.621-0.276,2.621-1.818v-6.812
			c0-1.327,1.162-2.117,1.168-2.12v-0.001c-0.006-0.003-1.168-0.794-1.168-2.121v-6.812c0-1.54-2.621-1.818-2.621-1.818
			S208.352,314.023,208.352,315.224"/>
		<path clip-path="url(#SVGID_34_)" fill="#FFFFFF" d="M26.946,331.274c-3.955,0-6.899-3.209-6.899-7.286
			c0-4.04,2.886-7.328,6.995-7.328c2.5,0,4.012,0.91,5.309,2.203l-1.531,1.834c-1.084-1.05-2.247-1.752-3.798-1.752
			c-2.593,0-4.475,2.216-4.475,5.002c0,2.785,1.882,5.042,4.475,5.042c1.667,0,2.733-0.703,3.896-1.835l1.531,1.617
			C31.035,330.307,29.484,331.274,26.946,331.274"/>
		<path clip-path="url(#SVGID_34_)" fill="#FFFFFF" d="M46.841,318.945c-2.692,0-4.571,2.236-4.571,5.002
			c0,2.768,1.917,5.042,4.61,5.042c2.694,0,4.574-2.237,4.574-5.001C51.454,321.222,49.536,318.945,46.841,318.945 M46.841,331.274
			c-4.166,0-7.073-3.289-7.073-7.286c0-3.999,2.945-7.328,7.112-7.328s7.075,3.288,7.075,7.287
			C53.955,327.944,51.007,331.274,46.841,331.274"/>
	</g>
	<polygon fill="#FFFFFF" points="62.646,316.906 65.03,316.906 65.03,328.772 72.165,328.772 72.165,331.029 62.646,331.029 	"/>
	<polygon fill="#FFFFFF" points="80.451,316.906 82.835,316.906 82.835,328.772 89.966,328.772 89.966,331.029 80.451,331.029 	"/>
	<polygon fill="#FFFFFF" points="108.315,319.125 100.639,319.125 100.639,322.799 107.44,322.799 107.44,325.019 100.639,325.019 
		100.639,328.81 108.411,328.81 108.411,331.029 98.255,331.029 98.255,316.906 108.315,316.906 	"/>
	<g>
		<defs>
			<rect id="SVGID_35_" x="-13.138" y="285.54" width="241.056" height="73.264"/>
		</defs>
		<clipPath id="SVGID_36_">
			<use xlink:href="#SVGID_35_"  overflow="visible"/>
		</clipPath>
		<path clip-path="url(#SVGID_36_)" fill="#FFFFFF" d="M123.346,331.274c-3.953,0-6.901-3.209-6.901-7.286
			c0-4.04,2.886-7.328,6.997-7.328c2.502,0,4.012,0.91,5.311,2.203l-1.531,1.834c-1.086-1.05-2.248-1.752-3.799-1.752
			c-2.597,0-4.479,2.216-4.479,5.002c0,2.785,1.882,5.042,4.479,5.042c1.668,0,2.734-0.703,3.896-1.835l1.533,1.617
			C127.434,330.307,125.883,331.274,123.346,331.274"/>
	</g>
	<polygon fill="#FFFFFF" points="142.893,331.029 140.489,331.029 140.489,319.206 136.188,319.206 136.188,316.906 
		147.196,316.906 147.196,319.206 142.893,319.206 	"/>
	<rect x="155.659" y="316.906" fill="#FFFFFF" width="2.385" height="14.123"/>
	<polygon fill="#FFFFFF" points="197.875,319.125 190.198,319.125 190.198,322.799 197.004,322.799 197.004,325.019 
		190.198,325.019 190.198,328.81 197.973,328.81 197.973,331.029 187.819,331.029 187.819,316.906 197.875,316.906 	"/>
	<polygon fill="#FFFFFF" points="177.081,316.926 179.661,316.926 173.053,331.167 166.276,316.926 168.913,316.926 
		173.006,325.894 	"/>
	<polygon fill="#FFFFFF" points="52.777,289.529 40.139,289.529 40.139,295.579 51.34,295.579 51.34,299.235 40.139,299.235 
		40.139,305.485 52.734,305.485 52.734,309.14 36.212,309.14 36.212,285.873 52.777,285.873 	"/>
	<polygon fill="#FFFFFF" points="24.837,285.873 29.083,285.873 18.208,309.306 7.059,285.873 11.4,285.873 18.135,300.629 	"/>
	<g>
		<defs>
			<rect id="SVGID_37_" x="-13.138" y="285.54" width="241.056" height="73.264"/>
		</defs>
		<clipPath id="SVGID_38_">
			<use xlink:href="#SVGID_37_"  overflow="visible"/>
		</clipPath>
		<path clip-path="url(#SVGID_38_)" fill="#FFFFFF" d="M70.468,295.645c4.723,1.196,7.18,2.961,7.18,6.848
			c0,4.388-3.287,6.98-7.977,6.98c-3.416,0-6.638-1.231-9.319-3.723l2.36-2.926c2.139,1.928,4.278,3.024,7.054,3.024
			c2.425,0,3.957-1.162,3.957-2.957c0-1.696-0.893-2.593-5.043-3.591c-4.754-1.195-7.434-2.658-7.434-6.979
			c0-4.055,3.191-6.781,7.626-6.781c3.255,0,5.839,1.03,8.106,2.925l-2.106,3.093c-2.01-1.563-4.021-2.393-6.064-2.393
			c-2.298,0-3.638,1.229-3.638,2.791C65.17,293.784,66.191,294.581,70.468,295.645"/>
	</g>
	<rect x="111.218" y="285.873" fill="#FFFFFF" width="3.924" height="23.267"/>
	<rect x="153.254" y="285.873" fill="#FFFFFF" width="3.926" height="23.267"/>
	<g>
		<defs>
			<rect id="SVGID_39_" x="-13.138" y="285.54" width="241.056" height="73.264"/>
		</defs>
		<clipPath id="SVGID_40_">
			<use xlink:href="#SVGID_39_"  overflow="visible"/>
		</clipPath>
		<path clip-path="url(#SVGID_40_)" fill="#FFFFFF" d="M177.049,289.595h-5.713v7.813h5.746c2.809,0,4.596-1.532,4.596-3.925
			C181.678,290.925,179.952,289.595,177.049,289.595 M181.741,309.14l-5.49-8.109h-4.914v8.109h-3.926v-23.267h9.959
			c5.137,0,8.297,2.824,8.297,7.379c0,3.855-2.201,6.182-5.33,7.081l6.031,8.807H181.741z"/>
	</g>
	<polygon fill="#FFFFFF" points="211.051,289.529 198.413,289.529 198.413,295.579 209.614,295.579 209.614,299.235 
		198.413,299.235 198.413,305.485 211.063,305.485 211.063,309.14 194.487,309.14 194.487,285.873 211.051,285.873 	"/>
	<path fill="#FFFFFF" d="M134.204,294.394l2.486,5.446h-4.959L134.204,294.394z M123.256,309.149h4.244l2.582-5.684h8.262
		l2.594,5.684h4.342l-11.148-23.433L123.256,309.149z"/>
	<polygon fill="#FFFFFF" points="95.064,309.14 91.106,309.14 91.106,289.662 84.022,289.662 84.022,285.873 102.148,285.873 
		102.148,289.662 95.064,289.662 	"/>
	<text transform="matrix(1 0 0 1 3.4175 352.2988)"><tspan x="0" y="0" fill="#FFFFFF" font-family="'GothamCondensed-Book'" font-size="14.4881">BUY </tspan><tspan x="21.876" y="0" fill="#FFFFFF" font-family="'GothamCondensed-Book'" font-size="14.4881">A</tspan><tspan x="28.483" y="0" fill="#FFFFFF" font-family="'GothamCondensed-Book'" font-size="14.4881">N</tspan><tspan x="35.321" y="0" fill="#FFFFFF" font-family="'GothamCondensed-Book'" font-size="14.4881">D S</tspan><tspan x="50.476" y="0" fill="#FFFFFF" font-family="'GothamCondensed-Book'" font-size="14.4881">EL</tspan><tspan x="60.82" y="0" fill="#FFFFFF" font-family="'GothamCondensed-Book'" font-size="14.4881">L</tspan><tspan x="65.702" y="0" fill="#FFFFFF" font-family="'GothamCondensed-Book'" font-size="14.4881"> </tspan><tspan x="68.788" y="0" fill="#FFFFFF" font-family="'GothamCondensed-Book'" font-size="14.4881">L</tspan><tspan x="73.526" y="0" fill="#FFFFFF" font-family="'GothamCondensed-Book'" font-size="14.4881">U</tspan><tspan x="79.944" y="0" fill="#FFFFFF" font-family="'GothamCondensed-Book'" font-size="14.4881">X</tspan><tspan x="85.753" y="0" fill="#FFFFFF" font-family="'GothamCondensed-Book'" font-size="14.4881">U</tspan><tspan x="92.389" y="0" fill="#FFFFFF" font-family="'GothamCondensed-Book'" font-size="14.4881">R</tspan><tspan x="98.474" y="0" fill="#FFFFFF" font-family="'GothamCondensed-Book'" font-size="14.4881">Y PR</tspan><tspan x="119.916" y="0" fill="#FFFFFF" font-family="'GothamCondensed-Book'" font-size="14.4881">E</tspan><tspan x="125.146" y="0" fill="#FFFFFF" font-family="'GothamCondensed-Book'" font-size="14.4881">-</tspan><tspan x="130.014" y="0" fill="#FFFFFF" font-family="'GothamCondensed-Book'" font-size="14.4881">O</tspan><tspan x="136.533" y="0" fill="#FFFFFF" font-family="'GothamCondensed-Book'" font-size="14.4881">WNED </tspan><tspan x="168.001" y="0" fill="#FFFFFF" font-family="'GothamCondensed-Book'" font-size="14.4881">F</tspan><tspan x="172.811" y="0" fill="#FFFFFF" font-family="'GothamCondensed-Book'" font-size="14.4881">A</tspan></text>
	<text transform="matrix(1 0 0 1 182.9824 352.2988)" fill="#FFFFFF" font-family="'GothamCondensed-Book'" font-size="14.4881">S</text>
	<text transform="matrix(1 0 0 1 188.502 352.2988)"><tspan x="0" y="0" fill="#FFFFFF" font-family="'GothamCondensed-Book'" font-size="14.4881">H</tspan><tspan x="6.78" y="0" fill="#FFFFFF" font-family="'GothamCondensed-Book'" font-size="14.4881">I</tspan><tspan x="10.069" y="0" fill="#FFFFFF" font-family="'GothamCondensed-Book'" font-size="14.4881">O</tspan><tspan x="16.733" y="0" fill="#FFFFFF" font-family="'GothamCondensed-Book'" font-size="14.4881">N</tspan></text>
</g>
<g>
	<defs>
		<rect id="SVGID_41_" x="198" y="66.799" width="84.314" height="190.201"/>
	</defs>
	<clipPath id="SVGID_42_">
		<use xlink:href="#SVGID_41_"  overflow="visible"/>
	</clipPath>
	<line clip-path="url(#SVGID_42_)" fill="none" stroke="#000000" x1="198.458" y1="256.799" x2="281.857" y2="67"/>
</g>
<rect x="84.708" y="21.353" transform="matrix(-0.7069 -0.7073 0.7073 -0.7069 126.825 110.0058)" width="2.989" height="14.75"/>
<rect x="76.118" y="28.647" transform="matrix(-0.7073 -0.707 0.707 -0.7073 114.1178 107.538)" width="6.412" height="2.988"/>
</svg>
