<?xml version="1.0" standalone="no"?>
<!DOCTYPE svg PUBLIC "-//W3C//DTD SVG 1.1//EN" "http://www.w3.org/Graphics/SVG/1.1/DTD/svg11.dtd" >
<svg xmlns="http://www.w3.org/2000/svg">
<metadata>
Created by FontPrep 20130207 at Fri Jul 10 17:41:10 2015
 By Lars
Font software Copyright 1990, 2001 Adobe Systems Incorporated. Typeface designs Copyright 2008 International Typeface Corporation. All rights reserved.
</metadata>
<defs>
<font id="3425884146aa03f170a2a32d099d43d9" horiz-adv-x='1024' >
  <font-face 
    font-family="ITCCaslon224W01-BookIt"
    font-weight="400"
    font-style="italic"
    font-stretch="normal"
    units-per-em="2048"
    panose-1="2 3 5 3 6 5 6 9 4 4"
    ascent="1495"
    descent="-553"
    x-height="946"
    cap-height="1393"
    bbox="-442 -442 2220 1865.02"
    underline-thickness="102"
    underline-position="-102"
    unicode-range="U+0020-2122"
  />
<missing-glyph horiz-adv-x="569" 
 />
    <glyph glyph-name=".notdef" horiz-adv-x="569" 
 />
    <glyph glyph-name=".null" horiz-adv-x="0" 
 />
    <glyph glyph-name="nonmarkingreturn" horiz-adv-x="681" 
 />
    <glyph glyph-name="space" unicode=" " horiz-adv-x="569" 
 />
    <glyph glyph-name="exclam" unicode="!" horiz-adv-x="757" 
d="M220 -16q-105 0 -105 102q0 54 38 90.5t86 36.5q105 1 105 -101q0 -54 -38 -91t-86 -37zM522 1421q92 0 92 -110q0 -61 -24.5 -133t-115 -283.5t-124 -350t-41.5 -145t-16 -6.5q-36 0 -4 102t49 539q10 203 55 295t129 92z" />
    <glyph glyph-name="quotedbl" unicode="&#x22;" horiz-adv-x="681" 
d="M517.5 1421q40.5 0 53.5 -53.5t4 -112.5l-34 -417q-2 -12 -6.5 -38t-27 -26t-26.5 25.5t-6 38.5l-35 417q-11 102 13 134t64.5 32zM218.5 1421q40.5 0 53.5 -53.5t4 -112.5l-34 -417q-2 -12 -6.5 -38t-27 -26t-26.5 25.5t-6 38.5l-35 417q-11 102 13 134t64.5 32z" />
    <glyph glyph-name="numbersign" unicode="#" 
d="M393 545h258l41 299h-258zM90 954h234l61 435h127l-61 -435h258l61 435h127l-61 -435h196v-110h-213l-41 -299h197v-111h-213l-62 -434h-127l62 434h-258l-62 -434h-127l62 434h-217v111h233l41 299h-217v110z" />
    <glyph glyph-name="dollar" unicode="$" 
d="M922 1145q-25 57 -70 94l-287 -403q27 -12 37 -17.5t17.5 -9.5t17.5 -8t37 -15zM563 641q-24 12 -96 47l-283 -389q15 -60 62 -111zM377 1065q0 -86 44 -130t107 -81l291 412q-69 53 -159 53q-91 0 -140 -26.5t-96 -84t-47 -143.5zM823 379q0 98 -63.5 153.5t-155.5 92.5
l-328 -469q73 -84 223 -84q149 0 236.5 79.5t87.5 227.5zM428 709q-207 88 -207 272q0 161 128 268t288 107q105 0 217 -43l104 153h50l-115 -168q56 -28 77 -28t42.5 19.5t43 48t43 63.5t44.5 65h51q-37 -59 -60.5 -93t-41.5 -65t-29 -131q-12 -100 -20.5 -175.5
t-13.5 -111.5t-10 -43t-14 -7q-15 0 -24.5 90.5t-40.5 177.5l-229 -338q127 -52 178 -103t76.5 -104t25.5 -131t-39 -152.5t-146 -165.5t-312 -91q-78 0 -267 63l-149 -225h-51l159 241q-36 9 -67 9t-60.5 -24t-56.5 -60.5t-52.5 -80.5t-55.5 -85h-54q177 217 213.5 404.5
t44.5 243.5t15.5 89t20.5 33t16.5 -11.5t3.5 -83t16 -186.5z" />
    <glyph glyph-name="percent" unicode="%" horiz-adv-x="1517" 
d="M1080 733q122 0 195 -69.5t73 -202.5q0 -193 -105.5 -335t-275.5 -142q-104 0 -173 67t-69 179t26.5 200t74.5 155.5t118 107.5t136 40zM454 1405q122 0 194.5 -69.5t72.5 -202.5q0 -197 -106 -337.5t-275 -140.5q-104 0 -173 66.5t-69 179.5t27 201t75 155.5t118 107.5
t136 40zM1104 696q-94 0 -163 -191t-69 -366q0 -72 23 -95.5t74 -23.5q95 0 163 192t68 366q0 72 -22.5 95t-73.5 23zM1430 1405l-1285 -1421h-96l1286 1421h95zM477 1368q-95 0 -163 -192t-68 -365q0 -72 22.5 -95.5t73.5 -23.5q94 0 162.5 190t68.5 367q0 72 -22.5 95.5
t-73.5 23.5z" />
    <glyph glyph-name="ampersand" unicode="&#x26;" horiz-adv-x="1554" 
d="M369 780q-99 130 -99 240q0 149 109.5 275t274.5 126q164 0 237.5 -88t73.5 -179t-27 -143.5t-84.5 -103t-212.5 -108.5q112 -108 185 -210t137 -249q100 130 143 203t43 137q0 65 -20.5 83.5t-44 24t-44 9t-20.5 23.5t31 20l204 -9l213 9q37 0 37 -21q0 -16 -21.5 -22
t-83 -24.5t-114.5 -86.5q-58 -79 -114.5 -151t-188.5 -252q34 -99 78.5 -158t125.5 -59q80 0 120.5 55t55.5 79.5t29 24.5t13 -15q0 -15 -20.5 -55t-92.5 -114t-182 -74t-175 49.5t-93 110.5q-199 -160 -434 -160q-186 0 -305 104.5t-119 266.5t104 281.5t281 160.5z
M606 831q252 97 252 319t-193 222q-91 0 -161 -65t-70 -165q0 -175 172 -311zM188 386q0 -144 90.5 -242.5t234.5 -98.5t300 125q-124 285 -246.5 406.5t-167.5 164.5q-102 -23 -156.5 -117t-54.5 -238z" />
    <glyph glyph-name="quotesingle" unicode="'" horiz-adv-x="454" 
d="M178 1255q-18 166 67 166t68 -166l-34 -417q-2 -12 -6.5 -38t-27 -26t-26.5 25.5t-6 38.5z" />
    <glyph glyph-name="parenleft" unicode="(" horiz-adv-x="833" 
d="M287 238q0 -148 22.5 -246t55 -164t71.5 -102.5t72 -57t55.5 -31t22.5 -21.5t-7.5 -12t-16.5 -1t-45 14t-124.5 77t-181 232t-92.5 406t50 402t128 291t172 215t182 145.5t160 83t96 26.5t25 -14q0 -12 -16.5 -18.5t-174 -63.5t-306 -457.5t-148.5 -703.5z" />
    <glyph glyph-name="parenright" unicode=")" horiz-adv-x="833" 
d="M229.5 1435.5q-77.5 34.5 -77.5 46.5t7 12.5t16 0.5t45 -14.5t124 -76.5t181 -231.5t93 -407.5q0 -237 -50 -401.5t-128 -290.5t-172 -215t-182 -145.5t-160 -83t-96 -26.5t-25 14q0 12 16.5 18.5t73 26.5t142.5 90q169 145 291.5 476t122.5 609t-72 421t-149.5 177.5z
" />
    <glyph glyph-name="asterisk" unicode="*" horiz-adv-x="985" 
d="M271 1096q42 0 86 -10.5t112 -22.5q-25 -20 -48.5 -43t-64.5 -55.5t-85 -32.5t-64.5 23.5t-20.5 57.5t21.5 58.5t63.5 24.5zM825 875q0 -28 -23.5 -56t-61.5 -28t-57 15t-31.5 46t-24 76t-31.5 106q45 -23 86 -40t72.5 -33.5t51 -37t19.5 -48.5zM561 838q0 -109 -86 -109
t-86 78q0 37 31 83t106 124q35 -122 35 -176zM423 1319.5q21 -38.5 64 -182.5q-37 14 -74.5 25.5t-90 34.5t-52.5 83q0 29 24.5 53.5t66.5 24.5q41 0 62 -38.5zM899 1146q0 -36 -25.5 -60.5t-79 -24.5t-97.5 14.5t-93 18.5q35 16 58.5 38.5t62 57.5t83.5 35q46 0 68.5 -21.5
t22.5 -57.5zM702 1347.5q0 -30.5 -35.5 -78.5t-107.5 -143q-8 59 -18.5 118.5t-10.5 95.5t28 58.5t64 22.5t58 -21.5t22 -52z" />
    <glyph glyph-name="plus" unicode="+" horiz-adv-x="1228" 
d="M492 930h126v-402h402v-127h-402v-401h-126v401h-402v127h402v402z" />
    <glyph glyph-name="comma" unicode="," horiz-adv-x="569" 
d="M274 62q0 -75 -36 -145.5t-104 -145.5t-114.5 -103t-60.5 -28q-20 0 -20 22q0 14 30.5 32t80.5 70q106 111 106 179q0 35 -54 49q-41 12 -63.5 33.5t-22.5 68.5t36 83t92 36t93 -38t37 -113z" />
    <glyph glyph-name="hyphen" unicode="-" horiz-adv-x="681" 
d="M524 543l-28 -156h-488l29 156h487z" />
    <glyph glyph-name="period" unicode="." horiz-adv-x="569" 
d="M126 -16q-106 0 -106 102q0 54 38.5 90.5t86.5 36.5q105 1 105 -101q0 -54 -38 -91t-86 -37z" />
    <glyph glyph-name="slash" unicode="/" horiz-adv-x="569" 
d="M-270 -33l915 1454h133l-915 -1454h-133z" />
    <glyph glyph-name="zero" unicode="0" 
d="M662 1356q-87 0 -152.5 -57.5t-131.5 -183t-109.5 -362t-43.5 -403.5q0 -168 53.5 -242.5t140.5 -74.5t152.5 57t132.5 184.5t109.5 359t42.5 402.5q0 170 -53.5 245t-140.5 75zM632 1405q180 0 298.5 -158.5t118.5 -410.5q0 -168 -54.5 -323t-142.5 -272.5t-198 -187
t-206 -69.5q-180 0 -297.5 158t-117.5 411q0 168 54 322.5t142 272.5t197.5 187.5t205.5 69.5z" />
    <glyph glyph-name="one" unicode="1" 
d="M4 18q0 22 21.5 28.5t96.5 6.5q134 0 176.5 27.5t63.5 114.5q51 225 87 381.5t81 358.5t45 228q0 25 -16.5 29t-80.5 4h-104q-105 0 -118.5 9t-13.5 21t17 18.5t53 13t92.5 15.5t130.5 27t118.5 37t74.5 34t46.5 24.5t28.5 9.5t17 -4.5t5 -18.5t-11 -70.5t-28.5 -141.5
t-41 -190.5t-47 -216t-47 -217t-52.5 -252.5t-29 -166q0 -42 42.5 -58.5t125.5 -16.5q82 0 93.5 -8t11.5 -20q0 -29 -25 -29l-411 4l-357 -4q-45 0 -45 22z" />
    <glyph glyph-name="two" unicode="2" 
d="M896 332q17 0 17 -20t-50 -119t-93 -193h-831q51 270 229 384t256 159t241.5 145t163.5 320q0 115 -79 188.5t-187 73.5q-176 0 -243.5 -78t-88 -104.5t-35 -45t-24.5 -18.5q-18 0 -18 17t34.5 77t100 123.5t159 113.5t188.5 50q176 0 287 -97t111 -245
q0 -251 -169.5 -350t-306 -161.5t-262 -140t-210.5 -223.5h586q120 0 154 49.5t43.5 72t26.5 22.5z" />
    <glyph glyph-name="three" unicode="3" 
d="M975 512q0 -111 -53.5 -208t-142.5 -167.5t-203 -111.5t-214 -41q-186 0 -308 83t-122 199q0 61 32 98t84 37t79 -34.5t38 -82.5t17 -97.5t27 -82.5q40 -63 164 -63q165 0 275 103.5t110 308.5t-170 260q-29 8 -51.5 11t-37 5t-21.5 4.5t-7 14.5q0 18 60.5 26.5
t89.5 20.5q74 29 122 102.5t48 169.5t-59.5 153.5t-184.5 57.5t-198 -71.5t-81 -71.5q-18 0 -18 18q0 10 28.5 51t126 121t248.5 80t253 -80t102 -221q0 -140 -76 -203t-105 -84q148 -124 148 -305z" />
    <glyph glyph-name="four" unicode="4" 
d="M578 512l141 641l-4 4l-615 -645h478zM717 152q0 -51 24.5 -70t55 -25t55.5 -9t25 -21q0 -31 -29 -31l-66 1l-452 -1q-41 0 -41 24t26.5 26.5t61.5 8.5t70.5 25.5t56.5 81.5t31 121t22 118h-547l-18 80l870 908h111l-187 -877h199l-27 -111h-200q-41 -198 -41 -249z" />
    <glyph glyph-name="five" unicode="5" 
d="M412 954q77 0 177.5 -33.5t229.5 -136t125 -311.5q0 -88 -44 -176t-170.5 -200.5t-364.5 -112.5q-161 0 -270 68.5t-109 162.5q0 49 31.5 82t81.5 33t79.5 -39t55.5 -99t49.5 -105.5t120.5 -45.5q169 0 266.5 103t97.5 249q0 186 -157.5 281.5t-346.5 95.5h-94l209 619
h588q46 0 60.5 22.5t22 32.5t21.5 10t14 -14t-32.5 -94t-57.5 -146h-616l-84 -254q40 8 117 8z" />
    <glyph glyph-name="six" unicode="6" 
d="M799 530q0 146 -68.5 207.5t-168.5 61.5t-184.5 -50t-104.5 -92q-19 -42 -37.5 -145t-18.5 -214q0 -110 61.5 -187.5t209.5 -77.5t229.5 149.5t81.5 347.5zM1004 479q0 -196 -153 -345.5t-368 -149.5t-332.5 143.5t-117.5 336.5t66.5 331.5t168 241t221 173t226 113.5
t184.5 62.5t96.5 19.5t18.5 -14t-36 -26.5t-270 -101t-403 -505.5l4 -4q131 102 298 102t282 -109.5t115 -267.5z" />
    <glyph glyph-name="seven" unicode="7" 
d="M330 4q-36 0 -64 -4t-57 -8q68 389 325 707.5t429 500.5h-607q-103 0 -143.5 -52t-52.5 -52t-12 9q-1 18 48.5 112.5t86.5 171.5h782l35 -95q-519 -573 -647 -1302q-87 12 -123 12z" />
    <glyph glyph-name="eight" unicode="8" 
d="M942 1144q0 88 -67 150t-179 62q-113 0 -205 -71t-92 -187t73 -175t135.5 -91.5t131.5 -73.5q133 57 168 177.5t35 208.5zM203 120q80 -87 244 -87t249.5 95.5t85.5 207.5q0 72 -34.5 121t-92 90t-133.5 80t-157 92q-99 -38 -170.5 -140.5t-71.5 -236.5q0 -135 80 -222z
M987 414q0 -76 -36 -153t-149 -177t-345 -100t-350.5 99t-118.5 263q0 191 130 275t212 127q-53 39 -94 105.5t-41 148.5t38.5 157.5t144 160.5t287.5 85t287 -85t105 -218t-81.5 -216.5t-197.5 -150.5q209 -129 209 -321z" />
    <glyph glyph-name="nine" unicode="9" 
d="M258 858q0 -144 68 -206t168 -62q101 0 186 50.5t106 96.5q34 77 44 186t10 148q0 129 -61.5 207t-209.5 78t-229.5 -150.5t-81.5 -347.5zM53 909q0 196 152 346t368 150q215 0 333 -143t118 -355q0 -450 -343.5 -659.5t-473 -236.5t-147.5 -27t-17 16q0 16 36 28.5
t148.5 55.5t265.5 170t259 377l-4 4q-132 -103 -298 -103t-281.5 109.5t-115.5 267.5z" />
    <glyph glyph-name="colon" unicode=":" horiz-adv-x="569" 
d="M249 569q-106 -1 -106 101q0 54 38 91.5t86 37.5q106 1 106 -101q0 -54 -38 -91.5t-86 -37.5zM126 -16q-106 0 -106 102q0 54 38.5 90.5t86.5 36.5q105 1 105 -101q0 -54 -38 -91t-86 -37z" />
    <glyph glyph-name="semicolon" unicode=";" horiz-adv-x="569" 
d="M249 569q-106 -1 -106 101q0 54 38 91.5t86 37.5q106 1 106 -101q0 -54 -38 -91.5t-86 -37.5zM274 62q0 -75 -36 -145.5t-104 -145.5t-114.5 -103t-60.5 -28q-20 0 -20 22q0 14 30.5 32t80.5 70q106 111 106 179q0 35 -54 49q-41 12 -63.5 33.5t-22.5 68.5t36 83t92 36
t93 -38t37 -113z" />
    <glyph glyph-name="less" unicode="&#x3c;" horiz-adv-x="1228" 
d="M1008 -12l-930 411v131l930 412v-129l-795 -348l795 -346v-131z" />
    <glyph glyph-name="equal" unicode="=" horiz-adv-x="1228" 
d="M1020 219h-930v127h930v-127zM1020 584h-930v127h930v-127z" />
    <glyph glyph-name="greater" unicode="&#x3e;" horiz-adv-x="1228" 
d="M115 119l794 346l-794 348v129l929 -412v-131l-929 -411v131z" />
    <glyph glyph-name="question" unicode="?" horiz-adv-x="1214" 
d="M282 -16q-106 0 -106 102q0 54 38 90.5t86 36.5q106 1 106 -101q0 -54 -38 -91t-86 -37zM334 688q0 84 -8 170l71 14q20 -66 83.5 -97.5t147.5 -31.5t154 35t132.5 109t62.5 189q0 114 -79 193t-170 79t-136 -29t-79 -62.5t-68.5 -62.5t-84.5 -29t-73 23.5t-23 57.5
q0 69 93 122t213 53q222 0 345 -101.5t123 -275.5t-132 -317t-331 -143q-77 0 -167 22q-31 -92 -40.5 -129t-30 -37t-20.5 15q0 25 8.5 87t8.5 146z" />
    <glyph glyph-name="at" unicode="@" horiz-adv-x="1638" 
d="M840 -33q-160 0 -301.5 54.5t-246 149.5t-165.5 226t-61 284t56 288t157.5 235.5t243 158.5t299.5 58t285.5 -47t220.5 -130t146.5 -196.5t53.5 -219.5q0 -210 -109 -369.5t-284 -159.5q-91 0 -140 56t-49 94h-4q-59 -100 -128 -125t-114 -25q-96 0 -150 66.5t-54 166.5
q0 196 119.5 364.5t295.5 168.5q59 0 98.5 -34t51.5 -75h4l20 84h142l-121 -462q-21 -87 -21 -125q0 -88 82 -88q128 0 207.5 138.5t79.5 276.5q0 262 -173.5 427t-446.5 165q-127 0 -238 -52t-239 -199t-128 -433t170 -466.5t455 -180.5q208 0 418 100l26 -59
q-137 -77 -266 -96t-192 -19zM758 385q57 0 107 49t107.5 162.5t57.5 261.5q0 53 -27.5 87t-80.5 34q-104 0 -193.5 -135.5t-89.5 -297.5q0 -161 119 -161z" />
    <glyph glyph-name="A" unicode="A" horiz-adv-x="1290" 
d="M762 561l-109 543l-321 -543h430zM305 512q-141 -226 -141 -326t77.5 -125.5t77.5 -40.5q0 -24 -22 -24l-63 1l-433 -1q-27 0 -26 24q0 20 94.5 37.5t216.5 202.5q216 315 377.5 604t161.5 303t-15.5 19.5t-15.5 17.5q0 16 31.5 43t60.5 58t41 53t18.5 37.5t10.5 25
t14 9.5q16 0 25 -50l233 -1210q12 -69 57 -93t63.5 -32t18.5 -22q0 -27 -26 -27l-215 4l-232 -4q-20 0 -20 24.5t25.5 29.5t57 11.5t57.5 24.5t26 58t-7.5 81t-17.5 89t-21.5 98.5t-19.5 99.5h-469z" />
    <glyph glyph-name="B" unicode="B" horiz-adv-x="1251" 
d="M901 434q0 80 -24 185.5t-347 105.5h-133q-39 -180 -63.5 -288.5t-43 -196t-18.5 -107.5q0 -44 41 -66t146 -22q104 0 184 25.5t137.5 77t89 129t31.5 157.5zM981 1118q0 225 -266 225h-178l-129 -569h143q205 0 317.5 89t112.5 255zM1186 1096q0 -76 -85 -194t-409 -152
v-5q207 -9 316.5 -80.5t109.5 -234.5t-137.5 -298.5t-409.5 -135.5l-413 4l-256 -4q-37 0 -37 20q0 25 26.5 29t60.5 8t65.5 20.5t41.5 65.5q147 640 185.5 803.5t50.5 221t12 92.5q0 36 -23.5 52.5t-53 23.5t-53 12.5t-23.5 23.5q0 25 14 25l260 -4l354 4q308 0 356 -110.5
t48 -186.5z" />
    <glyph glyph-name="C" unicode="C" horiz-adv-x="1441" 
d="M262 518q0 -262 103 -382t275 -120q344 0 521 392q14 31 21.5 51t13 34.5t23.5 14.5t18 -23q0 -8 -13.5 -70.5t-33 -153.5l-40.5 -189t-30.5 -110.5t-25.5 -12.5t-20.5 14t-8.5 31.5t-13.5 32t-35.5 14.5t-118 -37t-241 -37q-285 0 -448.5 169.5t-163.5 428.5
q0 193 71.5 350.5t185.5 270t254 174t258 61.5t184.5 -21.5t114.5 -46t81.5 -46t65.5 -21.5t49.5 16.5t27 35t15.5 35t22 16.5q25 0 25 -29q0 -6 -4 -23.5t-14.5 -68.5t-32.5 -148.5t-40 -193.5t-24 -103.5t-18 -7.5q-18 0 -20.5 39t-14.5 131q-25 188 -124 287.5t-267 99.5
q-129 0 -235.5 -72.5t-182.5 -193.5t-118 -280.5t-42 -307.5z" />
    <glyph glyph-name="D" unicode="D" horiz-adv-x="1441" 
d="M301 172q0 -68 49 -97.5t155 -29.5t194.5 38t185.5 129t163 289t66 419t-112.5 322t-346.5 101h-104q-55 -258 -96 -441t-69 -309t-44 -201t-28.5 -133t-12.5 -87zM-121 12q0 23 29 30t65.5 18.5t72.5 35t48 80.5q49 219 86 377t89.5 385.5t52.5 293.5t-24 78.5
t-51.5 15.5t-51 7t-23.5 32t37 28l250 -4l254 4q311 0 464.5 -150.5t153.5 -423.5q0 -172 -62.5 -322.5t-174 -261t-266 -175t-336.5 -64.5l-328 4l-258 -4q-27 0 -27 16z" />
    <glyph glyph-name="E" unicode="E" horiz-adv-x="1290" 
d="M1196 952q0 -26 -22 -24q-18 0 -24.5 25t-26.5 97q-45 164 -172 228.5t-396 64.5l-133 -589q207 0 281 69t89 116.5t25 89.5t27 42q18 0 18 -14t-2 -29.5t-8 -47.5t-19 -88t-37 -170t-38.5 -187.5t-23.5 -110.5t-15.5 -45t-18.5 -8t-15 6t-3 20l10 103q0 98 -59.5 151.5
t-222.5 53.5q-73 -348 -96 -446.5t-23 -127.5q-1 -86 151 -86q280 0 512 223q56 54 101 133.5t60 107.5t31 28t17 -17q0 -17 -57.5 -153t-153.5 -371l-688 4l-327 -4q-41 0 -41 18t25.5 23.5t57 12.5t62.5 25.5t41 63.5q53 240 92 412t65.5 289.5t43 190.5t28 135t11.5 93
t-21.5 46.5t-48.5 21.5t-48.5 10t-21.5 27q0 29 31 29l360 -4l576 4q14 -131 23.5 -210t16.5 -142t7 -89z" />
    <glyph glyph-name="F" unicode="F" horiz-adv-x="1214" 
d="M1182 951q0 -32 -25 -31q-12 0 -49.5 102.5t-102.5 191.5t-189 109t-259 20l-129 -602q175 0 243.5 43.5t91.5 97.5t33.5 89t17.5 57.5t20 22.5q20 0 20 -24t-60 -300t-65.5 -304t-12 -45.5t-23.5 -17.5t-17 19l6 157q6 156 -264 156q-33 -158 -55.5 -254t-41 -177.5
t-18.5 -125.5q0 -43 23.5 -57.5t53.5 -22.5t53.5 -13t23.5 -17q0 -29 -23 -29l-246 4h-38l-195 -4q-29 0 -39 6t-10 24t23.5 20.5t54 7.5t60.5 24.5t42 75.5q53 223 92 385.5t66.5 277.5t44 188.5t30 132.5t13.5 104q0 44 -20.5 63.5t-45 26.5t-45 10.5t-20.5 21.5
q0 29 30 29l40 -1l313 -3l559 4q39 -410 39 -442z" />
    <glyph glyph-name="G" unicode="G" horiz-adv-x="1593" 
d="M45 602q0 188 78 340t197.5 258.5t264.5 163.5t253 57t181 -20.5t132 -45t101 -45t64 -20.5t34 15.5t19 34t15.5 34t24.5 15.5q27 0 27 -27q0 -13 -23 -114.5t-54 -258.5q-30 -156 -36 -176t-23 -20q-27 0 -26 30l8 121q0 184 -125.5 306t-284.5 122t-269.5 -84
t-186.5 -211t-115 -275.5t-39 -279.5q0 -227 103.5 -360t307.5 -133t326.5 125t122.5 329q0 70 -54 85.5t-78.5 19.5t-24.5 18q0 29 28 29l63 -1l445 1q31 0 31 -24t-25.5 -25.5t-60.5 -10t-69 -33t-48 -91.5l-104 -451h-72l-37 100q-238 -133 -446 -133q-253 0 -439 167
t-186 468z" />
    <glyph glyph-name="H" unicode="H" horiz-adv-x="1478" 
d="M678 17q0 21 26.5 24.5t62.5 9.5t68.5 25.5t45.5 73.5l131 555h-602q-49 -219 -91.5 -392.5t-42.5 -204.5q0 -30 24 -42.5t53.5 -16.5t53 -7t23.5 -17q0 -29 -47 -29l-219 4l-250 -4q-39 0 -39 27q0 18 25.5 21t86 10.5t76.5 72.5q144 599 202.5 839t58.5 283t-24 60.5
t-51.5 23.5t-51 10.5t-23.5 20.5q0 29 47 29l219 -4l265 4q25 0 24 -25q0 -20 -27.5 -23.5t-63.5 -10.5t-68.5 -27.5t-45.5 -75.5l-102 -477h602q33 162 54.5 259t36.5 172.5t15 99.5t-22.5 33t-50 13t-50 9.5t-22.5 23.5q0 29 39 29l219 -4l258 4q31 0 31 -25
q0 -20 -28.5 -23.5t-64.5 -9.5t-70 -25.5t-46 -74.5q-47 -223 -84 -389t-63.5 -286t-44 -197.5t-33 -147t-15.5 -99.5t22.5 -45.5t49.5 -22.5t49.5 -11t22.5 -21q0 -10 -5 -15t-28 -5l-227 4l-246 -4q-43 0 -43 21z" />
    <glyph glyph-name="I" unicode="I" horiz-adv-x="720" 
d="M-84 26q0 18 25.5 18.5t58.5 5.5t63.5 22.5t42.5 66.5q55 238 96.5 407t69 286.5t45 190.5t30.5 130t13 99t-22.5 57.5t-50 21.5t-50 10.5t-22.5 22.5q0 29 47 29l219 -4l262 4q27 0 27 -27q0 -20 -27.5 -23.5t-62.5 -9.5t-68.5 -27.5t-48.5 -78.5q-102 -429 -146 -628.5
t-60.5 -274t-28 -136.5t-11.5 -86t24 -36.5t53.5 -16.5t53 -6t23.5 -18.5t-6 -22.5t-33 -6l-227 4l-238 -4q-35 0 -43 6t-8 24z" />
    <glyph glyph-name="J" unicode="J" horiz-adv-x="985" 
d="M1026 1364q0 -23 -25.5 -26t-58.5 -9t-63.5 -24.5t-40.5 -69.5l-201 -928q-41 -182 -165.5 -261t-250.5 -79q-127 0 -221 59t-94 167q0 76 40 117.5t94 41.5t78.5 -29.5t24.5 -62.5q0 -51 -27.5 -97.5t-27.5 -73.5q0 -26 29 -49.5t87 -23.5q109 0 157 68.5t90 261.5
q43 193 73.5 339t51 245.5t33 159t20.5 103t8 69.5t-23.5 43.5t-51 24.5t-51.5 12.5t-24 21.5q0 29 48 29l219 -4l231 4q25 0 33 -6.5t8 -22.5z" />
    <glyph glyph-name="K" unicode="K" horiz-adv-x="1327" 
d="M309 126q0 -40 22.5 -55.5t50.5 -21.5t50.5 -9t22.5 -23.5t-39 -20.5l-209 4h-43l-230 -4q-27 0 -26 22q0 20 26.5 25.5t60.5 12.5t65.5 25.5t43.5 70.5q232 1022 232 1077t-24.5 74.5t-54.5 25.5t-54.5 10t-24.5 25q0 29 51 29l220 -4l266 4q23 -1 23 -23t-28 -26.5
t-93.5 -17t-86.5 -105.5l-120 -580l4 -4q178 174 290.5 283.5t175 176t86 102.5t23.5 69t-14 46t-30.5 18t-31 9.5t-14.5 21.5t9.5 23.5t41.5 6.5l201 -4l201 4q29 0 28 -29q0 -12 -20.5 -15t-96 -28t-184.5 -125l-295 -274l242 -721q39 -113 96.5 -134.5t79 -25.5
t21.5 -24.5t-35 -20.5l-144 4h-157l-250 788l-248 -239q-23 -111 -38 -181.5t-28.5 -136t-13.5 -105.5z" />
    <glyph glyph-name="L" unicode="L" horiz-adv-x="1214" 
d="M-150 20.5q0 24.5 33 28.5t75 12.5t82 29t52 79.5q53 236 91 404.5t63.5 284.5t53.5 234t28 155q0 38 -23.5 56.5t-52.5 23.5t-52.5 9t-23.5 27q0 29 43 29l205 -4l264 4q41 0 41 -29q0 -20 -26.5 -21.5t-91.5 -14.5t-89 -120q-49 -221 -85 -382.5t-88 -396t-52 -281.5
q0 -46 28.5 -74.5t84.5 -28.5q104 0 225 47.5t193 105.5q71 58 120 119.5t81 111.5t50.5 82t30.5 32q23 0 23 -23t-73 -191.5t-142 -332.5l-570 4h-66l-397 -4q-35 0 -35 24.5z" />
    <glyph glyph-name="M" unicode="M" horiz-adv-x="1705" 
d="M1735 1364q0 -23 -27 -26t-91.5 -14t-86.5 -116q-43 -211 -77 -368.5t-70.5 -335t-51 -253t-14.5 -119.5t24.5 -61.5t55 -22.5t55.5 -8t25 -24t-33 -20l-240 4l-268 -4q-29 0 -29 20.5t27 22.5t62.5 9t68.5 27.5t45 78.5l227 1067l-4 4q-308 -521 -442.5 -756.5
t-177.5 -310t-65.5 -111.5t-32 -44t-18.5 -7t-15.5 7t-14.5 43t-20 111.5t-32.5 211t-54.5 342.5t-83 506h-4q-64 -328 -115 -571t-63.5 -316.5t-12.5 -133.5t24.5 -92t54.5 -45.5t54.5 -18.5t24.5 -22q0 -23 -27 -22l-188 4l-277 -4q-23 0 -22 22q0 18 37 24.5t128 49.5
t132 230q98 453 155.5 694t57.5 265t-27.5 33t-59.5 13t-59.5 9t-27.5 28q0 16 8 22.5t37 6.5l25 -1l311 -3l182 -1086l645 1086l52 1l286 3q27 0 27 -29z" />
    <glyph glyph-name="N" unicode="N" horiz-adv-x="1441" 
d="M1204 1200q0 43 -28.5 73t-64.5 45t-64.5 23.5t-28.5 24.5q0 27 39 27l241 -4l224 4q27 0 26 -21q0 -16 -37.5 -26.5t-88 -37t-100.5 -79.5t-75 -158q-147 -626 -186 -820t-50.5 -239t-25.5 -45t-23.5 8.5t-28 43t-111 225t-433.5 850.5h-4q-39 -180 -67.5 -312.5
t-49 -225.5t-34 -153.5t-23.5 -115t-10 -101.5t29.5 -78.5t66.5 -46t66.5 -19.5t29.5 -19.5t-8 -20.5t-39 -6l-205 4l-272 -4q-27 0 -27 17t16.5 23.5t72 19t112 53t84.5 155.5l215 901l-33 62q-47 86 -95 99t-65.5 17.5t-17.5 20.5q0 29 23 29l315 -4l551 -1072h4
q41 186 70.5 319.5t49 225.5t32 148.5t20.5 101.5t8 88z" />
    <glyph glyph-name="O" unicode="O" horiz-adv-x="1593" 
d="M374.5 126.5q112.5 -110.5 297.5 -110.5t320 133t204.5 343t69.5 434q0 225 -111.5 335.5t-297.5 110.5t-322 -134t-204.5 -343.5t-68.5 -433.5t112.5 -334.5zM45 573q0 205 76 363t194.5 265.5t263 163.5t279.5 56q269 0 447 -178t178 -428q0 -205 -76 -362.5
t-194.5 -265t-263 -164t-279.5 -56.5q-269 0 -447 178t-178 428z" />
    <glyph glyph-name="P" unicode="P" horiz-adv-x="1214" 
d="M557 668q202 0 310 120.5t108 327.5q0 162 -80 194.5t-139 32.5h-205l-148 -675h154zM1192 1063q0 -92 -47 -174t-180.5 -176.5t-411.5 -94.5h-160q-31 -150 -50 -235.5t-31.5 -148.5t-12.5 -100q0 -36 25.5 -53.5t57.5 -24.5t57.5 -10t25.5 -20t-10.5 -23.5t-18.5 -6.5
l-246 4h-44l-212 -4q-25 0 -32.5 6t-7.5 24t26.5 20.5t62 8.5t69.5 28.5t46 82.5q55 252 93 428t64 293t40 185.5t23.5 114.5t9.5 78q0 31 -22.5 47.5t-49.5 21.5t-49.5 8.5t-22.5 21.5q0 29 33 29l266 -4l265 4q223 0 333.5 -91.5t110.5 -238.5z" />
    <glyph glyph-name="Q" unicode="Q" horiz-adv-x="1593" 
d="M330.5 894.5q-68.5 -209.5 -68.5 -433.5t112.5 -334.5t297.5 -110.5t320 133t204.5 343t69.5 434q0 225 -111.5 335.5t-297.5 110.5t-322 -134t-204.5 -343.5zM858 1421q269 0 447 -178t178 -428q0 -203 -75 -360.5t-192.5 -265t-261 -164t-278.5 -58.5v-4
q53 -20 116.5 -44.5t175.5 -59.5t191 -35q80 0 126 25.5t73.5 55t42 55.5t31 26t16.5 -20t-25.5 -62.5t-131.5 -124.5t-341 -82q-98 0 -186 33.5t-170 74.5t-161 75t-156 34t-122.5 -24.5t-73.5 -54.5t-43 -54.5t-28 -24.5q-23 0 -22 23q0 20 28.5 60t123.5 108.5t280 68.5
l4 4q-152 47 -265.5 201.5t-113.5 355.5t76 359t194.5 265.5t263 163.5t279.5 56z" />
    <glyph glyph-name="R" unicode="R" horiz-adv-x="1290" 
d="M967 1140q0 100 -64.5 151.5t-214.5 51.5h-137l-129 -606q183 0 269 13.5t132 50.5q70 53 107 146t37 193zM297 116q0 -30 23.5 -43.5t53 -19.5t53.5 -10t24 -20q0 -27 -35 -27l-232 4l-268 -4q-20 0 -20 20.5t26.5 25.5t60 12t66.5 29.5t45 80.5q76 355 152 699.5
t76 381.5t-21.5 55.5t-48.5 25.5t-48.5 12t-21.5 26q0 29 41 29l277 -4l278 4q282 0 344 -103.5t62 -187.5q0 -166 -155.5 -275.5t-379.5 -117.5v-4q127 -16 168 -45t63.5 -65t44 -93.5t47.5 -140t54 -171.5t59 -111t60 -28t50.5 -8t21.5 -27q0 -20 -54 -20l-291 4l-159 539
q-30 96 -77.5 116.5t-98 24.5t-125.5 8q-35 -170 -57.5 -273.5t-40 -186t-17.5 -112.5z" />
    <glyph glyph-name="S" unicode="S" horiz-adv-x="1214" 
d="M135 520q0 -504 348 -504q160 0 260.5 87.5t100.5 263.5q0 76 -47 127t-119 92t-154 77.5t-200.5 115t-118.5 242.5q0 163 133.5 281.5t337.5 118.5q136 0 235 -48t120 -48t32.5 10.5t20 21.5t15.5 21.5t19 10.5q23 0 23 -23t-5.5 -54.5t-12.5 -78.5t-19 -131
t-18.5 -136.5t-11.5 -78t-10 -31.5t-15 -6q-18 0 -20.5 17.5t-6.5 74.5t-26.5 141t-89 186.5t-240.5 102.5q-127 0 -202 -79t-75 -174t47 -147t119 -93t154 -78t200.5 -116.5t118.5 -268.5t-160.5 -319t-380.5 -130q-130 0 -209 34t-115 49.5t-72 15.5t-51 -11.5t-24.5 -26
t-15.5 -25.5t-24 -11t-17 16q0 9 15.5 66t45.5 194q30 138 42 207.5t18 106t12 47t16 10.5t18.5 -5t8.5 -16v-98z" />
    <glyph glyph-name="T" unicode="T" horiz-adv-x="1290" 
d="M160 24q0 18 30.5 20.5t70.5 7.5t77 24.5t54 87.5t48 208t66 307t71.5 342t69.5 327q-189 -20 -304.5 -112.5t-167.5 -176.5t-69.5 -112.5t-31.5 -28.5q-20 0 -21 22q0 6 7.5 22.5t26.5 58.5t55 116.5t78 162.5t46 104.5t16.5 16.5t18.5 -12t33 -12h827q31 0 50.5 12
t27.5 12t10 -7t2 -30l15 -436q0 -27 -23 -26q-14 0 -17 9t-14.5 63.5t-42.5 115.5q-49 102 -138 165.5t-187 72.5q-131 -631 -173.5 -832.5t-55.5 -273t-13 -111.5q0 -39 30 -55.5t65.5 -21.5t65.5 -8t30 -19t-8.5 -23.5t-39.5 -7.5l-264 4l-280 -4q-27 0 -34 5t-7 23z" />
    <glyph glyph-name="U" unicode="U" horiz-adv-x="1441" 
d="M1532 1364q0 -18 -18.5 -19.5t-84.5 -15t-119 -114.5t-72 -180t-36.5 -161.5t-43 -201t-55.5 -258.5t-84 -219.5t-165.5 -153.5t-318.5 -74q-144 0 -286.5 81.5t-142.5 232.5q0 57 37 216.5t61.5 268t61.5 267t37 207.5q0 48 -22.5 66.5t-48 23.5t-48 7.5t-22.5 22.5
t9 26.5t38 6.5l223 -4l244 4q25 0 24 -29q0 -18 -25.5 -19.5t-88.5 -13t-82 -108.5q-70 -335 -131.5 -619t-61.5 -321q0 -127 82.5 -190.5t192.5 -63.5q198 0 314 101t150 259t56 266.5t45.5 224.5t32 174t8.5 117q0 60 -25.5 97t-55.5 53t-55.5 21.5t-25.5 21.5q0 29 29 29
l274 -4l174 4q25 0 25 -29z" />
    <glyph glyph-name="V" unicode="V" horiz-adv-x="1251" 
d="M401 1260q0 -30 148 -1004h4q124 213 292 500t196 348t28 113q0 53 -22.5 74.5t-48 31.5t-48 16.5t-22.5 26.5q0 27 57 27l49 -1l344 1q23 0 30 -6.5t7 -20.5q0 -20 -22.5 -24.5t-99.5 -44t-185 -220.5q-257 -432 -392.5 -663.5t-176.5 -300t-62.5 -100t-30 -39
t-16.5 -7.5t-14 7.5t-21.5 76t-58 309t-164.5 902.5q-6 33 -26.5 46t-44 19t-41 12.5t-17.5 24.5q0 29 51 29l228 -4l208 4q43 0 43 -27q0 -18 -26.5 -21.5t-59 -10.5t-59.5 -25.5t-27 -48.5z" />
    <glyph glyph-name="W" unicode="W" horiz-adv-x="1781" 
d="M563 1364q0 -23 -24.5 -28t-55 -13t-55.5 -26.5t-25 -48.5t1.5 -46t5.5 -50t31 -236.5t75 -616.5h4l346 653l-45 310q-6 35 -25.5 48t-42 18t-40 11.5t-17.5 23.5t6.5 23.5t32.5 6.5l55 -1l377 1q31 0 31 -29q0 -16 -25.5 -21.5t-81 -22t-55.5 -83.5q0 -31 5.5 -74
t12.5 -103.5t19 -160.5t30.5 -249.5t43.5 -360.5h4q392 715 424.5 799t32.5 130q0 45 -20.5 69t-45 33t-45 15t-20.5 29q0 29 34 29l222 -4l190 4q23 -1 23 -25t-85 -43.5t-178 -181.5l-634 -1141q-19 -35 -33 -35t-21.5 6.5t-11.5 38.5l-104 842h-5l-460 -852
q-18 -35 -32 -35t-22 6.5t-12 38.5l-162 1223q-9 69 -48.5 83.5t-55.5 21t-16 24.5q0 29 53 29l190 -4l221 4q33 0 33 -29z" />
    <glyph glyph-name="X" unicode="X" horiz-adv-x="1290" 
d="M1352 1368q0 -18 -17.5 -22.5t-83.5 -26.5t-190 -156l-348 -383l254 -614q35 -85 91 -101t77.5 -20t21.5 -22q0 -27 -29 -27l-213 4l-303 -4q-27 0 -26 22q0 20 25.5 27.5t57 15t57.5 25.5t26 62t-62.5 198t-126.5 307q-251 -286 -289 -339.5t-50.5 -87t-12.5 -77.5
t22.5 -63.5t48 -28t48 -13.5t22.5 -24q0 -25 -30 -24l-261 4l-297 -4q-23 0 -22 22q0 20 28.5 26.5t122.5 34.5t201 146l447 486l-242 540q-31 67 -81 76.5t-69.5 12.5t-19.5 22q0 31 53 31l226 -4l223 4q29 0 28 -23q0 -20 -22.5 -23.5t-50 -7.5t-50 -16.5t-22.5 -38.5
t6 -45.5t25.5 -65t54.5 -124t90 -207.5q84 92 137.5 150.5t96.5 116.5t43 113q0 56 -18.5 76.5t-42 29.5t-42 15.5t-18.5 22.5q0 27 28 27l275 -4l172 4q31 0 31 -25z" />
    <glyph glyph-name="Y" unicode="Y" horiz-adv-x="1214" 
d="M74 1363q0 17 9 23.5t42 6.5l246 -4l215 4q35 0 35 -29q0 -16 -27 -18.5t-85 -13.5t-58 -83q0 -37 33 -133.5t137 -394.5q221 236 284.5 328t78.5 129.5t15 75.5t-17 54.5t-36.5 22.5t-37 10.5t-17.5 21.5t7 23.5t30 6.5l243 -4l166 4q33 0 33 -29q0 -18 -68.5 -32.5
t-197.5 -151.5q-130 -136 -241 -267t-226 -260q-35 -156 -55.5 -249t-37 -164.5t-16.5 -105.5t25 -54.5t54.5 -26.5t54 -8t24.5 -19t-7 -23.5t-30 -6.5l-229 4l-281 -4q-25 0 -24 24q0 23 28.5 26t66.5 11.5t75 34t51 90.5l104 469l-217 604q-18 55 -65 66.5t-65.5 18
t-18.5 23.5z" />
    <glyph glyph-name="Z" unicode="Z" horiz-adv-x="1290" 
d="M915 1343q-429 0 -551 -171t-142 -200.5t-38 -29.5t-18 16t194 435l70 -1l449 -3l69 1l324 3q20 0 20 -17q0 -8 -13 -20.5t-30 -32.5l-1085 -1278h168q188 0 318 65.5t214 150.5t133.5 181.5t61.5 96.5q23 0 23 -22t-71 -186.5t-139 -334.5h-55l-452 4l-433 -4
q-39 0 -38.5 8t11.5 16.5t23 24.5l1096 1298h-109z" />
    <glyph glyph-name="bracketleft" unicode="[" horiz-adv-x="833" 
d="M418 -341q0 -19 -29 -19h-338q-41 0 -41 19t37 180t66.5 292t63.5 274.5t69 290t100 427.5t71.5 304t13.5 31t36 8h299q27 0 27 -20.5t-31 -22.5t-69 -6t-73.5 -20.5t-48.5 -67.5q-80 -350 -136 -599t-95 -418t-60.5 -270t-37 -171t-15.5 -107q0 -36 30 -52.5t65.5 -22.5
t65.5 -8.5t30 -21.5z" />
    <glyph glyph-name="backslash" unicode="\" horiz-adv-x="569" 
d="M453 -33l-539 1454h125l539 -1454h-125z" />
    <glyph glyph-name="bracketright" unicode="]" horiz-adv-x="833" 
d="M303 1446.5q0 19.5 29 19.5h338q41 0 41 -19t-37 -180t-66.5 -292t-63.5 -274.5t-69 -290t-100 -427.5t-71.5 -304t-13.5 -31t-36 -8h-299q-27 0 -27 20.5t31 22.5t69 6t73.5 20.5t48.5 67.5q80 350 136 599t132 578.5t76 375.5t-30 63.5t-66 23.5t-65.5 8t-29.5 21.5z
" />
    <glyph glyph-name="asciicircum" unicode="^" horiz-adv-x="1228" 
d="M668 1389l331 -670h-135l-250 506l-249 -506h-136l332 670h107z" />
    <glyph glyph-name="underscore" unicode="_" horiz-adv-x="1024" 
d="M0 -256v102h1024v-102h-1024z" />
    <glyph glyph-name="grave" unicode="`" horiz-adv-x="645" 
d="M117 1332q0 28 22.5 46.5t58.5 18.5t87 -66l221 -291h-64l-276 213q-27 20 -38 35.5t-11 43.5z" />
    <glyph glyph-name="a" unicode="a" horiz-adv-x="1175" 
d="M532 897q-82 0 -147.5 -63.5t-113.5 -158.5t-75.5 -208t-27.5 -191q0 -133 37 -174t103 -41t121.5 33t119.5 106t121 221.5t57 254.5t-56.5 163.5t-138.5 57.5zM825 165q0 -63 72 -63t127 162q20 59 27.5 75.5t17.5 16.5q16 0 16 -20q0 -65 -38.5 -148.5t-89.5 -143.5
t-142 -60q-92 0 -133 44t-41 130v34q0 35 4 70l-4 4q-64 -110 -155.5 -196t-232.5 -86q-140 0 -204.5 83t-64.5 225t54 264t136 209t176 134t167 47q193 0 247 -207q63 57 132 124t93 67q25 0 25 -27q0 -12 -11.5 -37.5t-42.5 -100.5t-52 -171q-20 -96 -51.5 -244.5
t-31.5 -184.5z" />
    <glyph glyph-name="b" unicode="b" 
d="M229 217q-1 -184 185 -184q179 0 284 212t105 434q0 95 -48.5 148.5t-126.5 53.5t-133 -40t-114.5 -128t-105.5 -250t-46 -246zM987 553q0 -98 -43 -199.5t-117.5 -183.5t-177.5 -134t-203 -52q-178 0 -275 97t-97 259q0 96 103.5 500.5t103.5 446.5t-20.5 59.5
t-45.5 26.5t-45 14.5t-20 18.5t18 19.5t127.5 24t226.5 45.5l-192 -784l4 -4q55 100 137 169.5t207 69.5t217 -104.5t92 -288.5z" />
    <glyph glyph-name="c" unicode="c" horiz-adv-x="1024" 
d="M802 524q-95 0 -95 88q0 39 11 79t11 68q0 61 -44.5 105.5t-126.5 44.5q-158 0 -268 -155t-110 -338q0 -141 85 -227.5t224 -86.5t211 59.5t94.5 87t35.5 27.5t13.5 -14t-28.5 -59t-125.5 -132t-284.5 -87t-298.5 111.5t-110.5 305.5q0 104 43 202.5t166.5 220.5
t361.5 122q152 0 249 -75t97 -166t-29.5 -136t-81.5 -45z" />
    <glyph glyph-name="d" unicode="d" horiz-adv-x="1214" 
d="M693 823q-46 74 -152 74q-78 0 -143.5 -65.5t-113.5 -162t-76 -206t-28 -207.5t45 -146.5t109 -48.5t116 32t96 82t80 114.5t74.5 163.5t38.5 197q0 99 -46 173zM266 -16q-129 0 -199.5 87t-70.5 222t48 249.5t125 204t174 144.5t174 55q126 0 177.5 -55t77.5 -139h4
q107 480 107 529q0 48 -20.5 65.5t-45 26.5t-45 14.5t-20.5 18.5t18 19.5t125 23.5t229 46q-70 -307 -119 -522t-82.5 -360.5t-52 -230.5t-31 -141t-12.5 -89q0 -66 64 -66q92 0 145 158q18 51 23.5 69.5t19.5 18.5q15 0 15 -14t-13.5 -65.5t-45 -112t-85 -108.5t-134.5 -48
t-119 48t-38 117t21 150l-4 4q-174 -319 -410 -319z" />
    <glyph glyph-name="e" unicode="e" horiz-adv-x="948" 
d="M680 782q0 127 -122 127t-242.5 -115.5t-135.5 -340.5q249 45 374.5 105t125.5 224zM589 946q97 0 172 -49t75 -143q0 -66 -72.5 -147t-269.5 -127t-314 -68q-4 -130 80 -220t236 -90q105 0 200 70q61 45 81 64.5t32 19.5t12 -13t-30.5 -54.5t-130.5 -123t-276 -81.5
t-282 114.5t-106 268.5q0 153 60.5 259.5t149.5 177t187.5 106.5t195.5 36z" />
    <glyph glyph-name="f" unicode="f" horiz-adv-x="606" 
d="M700 1245q-84 0 -84 71q0 32 14.5 59.5t14.5 49.5q0 53 -39 53t-86 -53t-61 -103q-17 -63 -32 -194.5t-28 -197.5h219l-16 -103h-221q-236 -1224 -684 -1224q-53 0 -96 33.5t-43 93.5t31.5 95.5t81.5 35.5t69.5 -25.5t27 -56.5t15.5 -56.5t39 -25.5q63 0 120.5 76.5
t77.5 170.5q20 97 74 422.5t92 460.5h-135q99 60 177.5 195t181.5 326.5t264 191.5q72 0 109.5 -40t37.5 -84q0 -76 -38 -123.5t-83 -47.5z" />
    <glyph glyph-name="g" unicode="g" horiz-adv-x="1062" 
d="M713 758q0 151 -153.5 151t-213 -124.5t-59.5 -264.5q0 -151 153.5 -151t213 125t59.5 264zM-45 -178q0 -70 77.5 -126t263.5 -56t287 53t101 153q0 43 -26.5 63.5t-74.5 30t-112.5 11.5t-118.5 6q-237 17 -274 33q-49 -16 -86 -57t-37 -111zM313 356q-211 72 -211 240
q0 172 125 261t326 89q18 85 91.5 163.5t155.5 78.5q81 0 81 -76q0 -35 -27 -57.5t-67 -22.5t-61 8.5t-59 8.5t-52.5 -32t-24.5 -71q135 -16 221 -87t86 -198t-110.5 -221.5t-303.5 -105.5q-194 -12 -251.5 -27.5t-75 -34t-17.5 -57.5t52.5 -58.5t130 -27.5t170 -9.5
t177.5 -13.5t132 -63t47 -117q0 -136 -141 -229.5t-422 -93.5q-197 0 -314.5 59.5t-117.5 149.5t54 130.5t132 67.5q-64 40 -64 129q0 90 93.5 149.5t244.5 63.5v4z" />
    <glyph glyph-name="h" unicode="h" horiz-adv-x="1175" 
d="M1061 332q14 0 14 -19q0 -8 -13 -60t-46 -112.5t-88.5 -108.5t-137 -48t-123.5 48t-42 112q0 99 63.5 330t63.5 287t-35 81.5t-86 25.5t-107.5 -45t-129.5 -149.5t-120 -282.5l-106 -399q-43 12 -90 12t-86 -12q287 1228 287 1283q0 54 -20.5 71.5t-45.5 26.5t-45.5 14.5
t-20.5 18.5t18.5 19.5t128 24t226.5 45.5l-225 -922l4 -4q96 201 195.5 289t213.5 88t171 -58.5t57 -162.5q0 -64 -63.5 -304.5t-63.5 -268.5q5 -66 63 -66q91 0 146 158q18 51 23.5 69.5t19.5 18.5z" />
    <glyph glyph-name="i" unicode="i" horiz-adv-x="645" 
d="M437 1339q46 0 76 -29.5t30 -75.5t-35 -77t-81 -31t-75.5 30t-29.5 76t34.5 76.5t80.5 30.5zM276 152q0 -66 64 -66q92 0 145 158q18 51 23.5 69.5t19.5 18.5t14 -14t-13 -65.5t-45.5 -112t-88 -108.5t-137.5 -48t-124 50t-42 119t75 328.5t75 296.5q0 66 -64 66
q-53 0 -88 -46t-53 -96t-26.5 -69t-18.5 -19q-16 0 -17 19q0 8 14.5 57t75.5 152.5t195 103.5q88 0 127 -47t39 -117t-75 -334t-75 -296z" />
    <glyph glyph-name="j" unicode="j" horiz-adv-x="606" 
d="M437 1339q46 0 76 -29.5t30 -75.5t-35 -77t-81 -31t-75.5 30t-29.5 76t34.5 76.5t80.5 30.5zM266 778q0 66 -63 66q-53 0 -88 -46t-53 -96t-26 -69t-22 -19t-14 14t14.5 62.5t75 152t195.5 103.5q88 0 127 -47t39 -108t-31 -193.5t-73 -309.5t-111 -468
q-24 -100 -124.5 -158.5t-216.5 -58.5q-115 0 -164.5 40t-49.5 88t27.5 76.5t77.5 28.5t75.5 -34t29.5 -78t14.5 -58t60.5 -14t92 31t42 79t-11 72t-11 50t14 92.5t34.5 158.5t80 340.5t59.5 302.5z" />
    <glyph glyph-name="k" unicode="k" horiz-adv-x="1175" 
d="M395 471q176 0 288 80t112 180q0 53 -31 83t-85 30q-95 0 -197.5 -124.5t-162.5 -248.5h76zM86 4q-43 0 -86 -12q105 475 161 723t74.5 331.5t33 148.5t14.5 100q0 34 -20.5 51.5t-45 26.5t-45 14.5t-20.5 18.5t18 19.5t127.5 24t226.5 45.5l-217 -950l4 -4
q104 181 176 255t141.5 112t139.5 38q117 0 174 -53t57 -112q0 -108 -105.5 -195t-322.5 -125v-4q83 5 123.5 -70t71.5 -137t52.5 -92.5t59.5 -30.5q84 0 115 93t49 93t18 -16t-17 -66.5t-51 -104.5t-86 -98t-104 -44t-81 17t-61 54t-73 121q-40 84 -60.5 130t-41 71.5
t-48 35t-77.5 9.5h-59q-35 -101 -129 -430q-43 12 -86 12z" />
    <glyph glyph-name="l" unicode="l" horiz-adv-x="606" 
d="M217 152q0 -66 64 -66q91 0 143 150q20 58 25.5 77t19.5 19t14 -19q0 -8 -13 -60t-74 -160.5t-206 -108.5q-82 0 -119.5 48t-37.5 100t18.5 139t47 203t60 247t79 320t47.5 239q0 49 -20.5 66.5t-45 26.5t-45 14.5t-20.5 18.5t18 19.5t125 23.5t229 46
q-309 -1306 -309 -1343z" />
    <glyph glyph-name="m" unicode="m" horiz-adv-x="1820" 
d="M825 761q-1 107 -119 107q-119 0 -222 -174t-167 -450l-59 -252q-47 12 -91 12t-87 -12q47 223 80 362.5t52 222t28.5 122.5t9.5 70t-16.5 52.5t-46.5 22.5q-52 0 -83.5 -45t-53.5 -105q-21 -61 -26.5 -77.5t-18.5 -16.5t-13 16t13 67.5t70.5 157t182.5 105.5
q78 0 119 -50t41 -122t-10 -125l4 -4q78 156 166 228.5t198 72.5q144 0 180.5 -81t36.5 -131t-10 -101h4q81 146 162.5 229.5t197.5 83.5q117 0 177.5 -64.5t60.5 -142.5t-66.5 -313t-66.5 -274q0 -66 64 -66q90 0 142 150q20 58 26 77t20 19t14 -19q0 -8 -13 -60
t-46 -112.5t-89.5 -108.5t-141.5 -48t-122.5 47t-37.5 104q0 81 66.5 329t66.5 304q0 100 -103 100q-121 0 -226.5 -169t-143.5 -328l-94 -379q-48 12 -92 12t-87 -12q49 215 82 350t60.5 251t27.5 168z" />
    <glyph glyph-name="n" unicode="n" horiz-adv-x="1251" 
d="M827 756q0 112 -112 112q-162 0 -253.5 -211t-105.5 -278l-94 -387q-53 12 -94 12t-80 -12q25 125 86.5 417.5t61.5 363.5t-64 71q-53 0 -88 -46t-53 -96t-26.5 -69t-18.5 -19q-16 0 -17 19q0 8 14.5 57t75.5 152.5t195 103.5q86 0 126 -48t40 -120t-14 -139l4 -4
q88 160 174 235.5t196 75.5t171 -63.5t61 -161.5q0 -30 -21.5 -135t-59.5 -249t-38 -185q0 -66 63 -66q108 0 141 123t47 123t15 -19q0 -8 -12 -60t-71 -160.5t-206 -108.5q-86 0 -123.5 48t-37.5 106q0 84 59 319.5t59 298.5z" />
    <glyph glyph-name="o" unicode="o" horiz-adv-x="1062" 
d="M510 946q197 0 305.5 -113.5t108.5 -304.5q0 -229 -149 -386.5t-382 -157.5q-180 0 -288.5 112.5t-108.5 304.5q0 230 107.5 343.5t205 157.5t201.5 44zM739 639q0 270 -209 270q-166 0 -258 -197.5t-92 -420.5q0 -271 209 -271q167 0 258.5 197t91.5 422z" />
    <glyph glyph-name="p" unicode="p" horiz-adv-x="1214" 
d="M721 881q-67 0 -116.5 -32t-109 -105.5t-109.5 -231.5t-50 -285t68 -160.5t128 -33.5t112 34.5t111 118t97.5 229.5t38.5 252q0 105 -51.5 159.5t-118.5 54.5zM180 -397q-72 16 -101 16t-77 -16q55 256 94 438t66.5 305t55.5 247.5t28 164.5q0 86 -78 86q-47 0 -79.5 -41
t-56.5 -92t-31 -76t-19 -25t-12 12t14 63.5t45.5 109t85 104.5t145.5 47q170 0 170 -229h4q69 115 138 172t193 57t217 -109t93 -274q0 -123 -47 -229.5t-124 -184t-174.5 -121.5t-195.5 -44t-155 33.5t-90 62.5z" />
    <glyph glyph-name="q" unicode="q" 
d="M180 253q0 -192 166 -192q80 0 151.5 70t124 168t81 203.5t28.5 167.5q0 108 -55.5 167.5t-123.5 59.5t-120.5 -37t-109 -118.5t-99.5 -236.5t-43 -252zM717 -397q-72 16 -101 16t-77 -16l131 669l-4 4q-178 -292 -402 -292q-119 0 -193.5 79t-74.5 227t51 265t131 204
t175.5 137t181.5 50t151.5 -50t93.5 -155q93 118 152.5 153.5t77.5 35.5t18 -19q0 -12 -39.5 -76.5t-89.5 -308.5z" />
    <glyph glyph-name="r" unicode="r" horiz-adv-x="909" 
d="M780 946q51 0 82 -25.5t31 -74.5t-31 -77t-72 -28t-61 9.5t-37.5 19.5t-34 19.5t-49.5 9.5t-106.5 -78.5t-157.5 -401.5l-82 -327q-100 15 -132 9.5t-50 -9.5q166 715 166 784q0 68 -74 68t-133 -176q-16 -47 -22.5 -62.5t-18.5 -15.5t-12 14t13 68.5t45 115t86 109.5
t131 49t123 -45t46 -115t-8 -114h4q149 274 354 274z" />
    <glyph glyph-name="s" unicode="s" horiz-adv-x="948" 
d="M-4 217q0 127 99 127q50 0 69.5 -45t24.5 -96q10 -101 45.5 -142t143.5 -41t177.5 54.5t69.5 140.5q0 51 -38 83t-95.5 56.5t-123 47t-123 54t-95 77t-37.5 148.5t109 184t265 81t246 -62t90 -134q0 -99 -86 -99q-64 0 -87 38t-33.5 101.5t-39.5 91t-116 27.5
q-86 0 -139.5 -48t-53.5 -106t38 -92t95.5 -59.5t123 -48.5t160.5 -76.5t95 -183.5t-107 -220.5t-301 -90.5t-285 67.5t-91 165.5z" />
    <glyph glyph-name="t" unicode="t" horiz-adv-x="681" 
d="M344 86q47 0 84 17.5t65.5 38t49 38t28.5 17.5q35 0 -19 -66.5t-144 -106.5t-170 -40t-134.5 44t-54.5 113t24.5 175t52.5 221.5t69 289.5h-175q132 57 205.5 119t123.5 123t106 148l-62 -287h223l-30 -103h-215q-41 -190 -68 -308t-48.5 -217.5t-21.5 -132.5
q0 -32 32 -57.5t79 -25.5z" />
    <glyph glyph-name="u" unicode="u" horiz-adv-x="1251" 
d="M885 153q0 -67 63 -67q108 0 141 123t47 123t15 -19q0 -8 -13.5 -60t-46 -112.5t-89 -108.5t-141.5 -48t-123 48t-38 104t15 159l-4 4q-88 -170 -179.5 -242.5t-197.5 -72.5t-165.5 58t-59.5 167q0 69 59 305t59 264q0 66 -63 66q-108 0 -141 -123t-47 -123t-15 18
q0 8 13.5 60.5t72 161t199.5 108.5q82 0 124 -48t42 -108q0 -80 -59.5 -323t-59.5 -296q0 -110 104 -110q132 0 227 163t140 327l94 387q54 -12 94 -12q39 0 80 12q-25 -125 -51.5 -251t-61 -296.5t-34.5 -237.5z" />
    <glyph glyph-name="v" unicode="v" horiz-adv-x="1175" 
d="M225 592q0 -103 -113 -103q-56 0 -98.5 40t-42.5 146t78 188.5t201 82.5q44 0 140 -16.5t132 -16.5q35 0 54.5 8.5t31.5 8.5t12 -14t-131 -170.5t-131 -337.5q0 -138 72.5 -203.5t183.5 -65.5t177.5 45t108.5 109.5t61.5 134.5t19.5 116t-16.5 73.5t-41 48t-53 36
t-69.5 45t-41 83.5q0 55 26.5 85.5t67.5 30.5q82 0 135 -89t53 -215t-37.5 -239.5t-106.5 -207t-164.5 -152.5t-191.5 -59t-150 24.5t-90 66.5t-53.5 95t-17.5 138t57 202.5t148 247.5q-83 11 -140.5 41t-83.5 41.5t-74 11.5t-76.5 -37t-28.5 -87t43 -50l59 4
q33 0 61.5 -20.5t28.5 -69.5z" />
    <glyph glyph-name="w" unicode="w" horiz-adv-x="1744" 
d="M1075 946q127 0 127 -166q0 -78 -63.5 -216t-210.5 -304q43 -51 99 -86t157 -35t170 52.5t110 120t57.5 131t16.5 83.5q0 66 -34 101t-73.5 60.5t-72.5 53t-33 76.5t33 81t77 32q80 0 128.5 -80t48.5 -193q0 -112 -44 -235t-119 -220.5t-175 -157.5t-200 -60
q-183 0 -269 151q-80 -66 -163 -108.5t-182 -42.5t-172 74.5t-73 200.5t43.5 207.5t185.5 291.5q-59 5 -124.5 36t-97.5 44.5t-78 13.5t-78.5 -38t-32.5 -87t45 -49l61 4q35 0 60.5 -23.5t25.5 -68.5t-27.5 -73t-83.5 -28t-99.5 42t-43.5 148t74.5 186.5t218.5 80.5
q55 0 142.5 -14t124.5 -14t57 6t32.5 6t12.5 -11t-131 -166t-131 -337q0 -297 233 -297q109 0 180 74q-26 76 -26 183t26.5 209.5t70.5 182.5t101.5 129t118.5 49zM1012 819q-70 0 -119 -93.5t-49 -217.5t53 -205q88 98 143.5 209t55.5 209t-84 98z" />
    <glyph glyph-name="x" unicode="x" horiz-adv-x="1175" 
d="M43 229q0 -118 104 -118q70 0 141.5 70.5t168.5 234.5l-70 172q-57 139 -75 171t-48 32q-31 0 -51 -25.5t-43 -63.5t-36 -65t-26 -27q-14 0 -14 12t18.5 62.5t80 156t161.5 105.5q47 0 78 -41t66 -121l86 -204q39 55 77.5 119.5t108 155.5t168.5 91q55 0 98 -37t43 -93
t-22.5 -104t-51 -89t-56 -68t-41.5 -27t-13 14q0 14 15.5 29t49 54t33.5 106q0 31 -18.5 59.5t-70.5 28.5t-98 -32.5t-85 -78.5t-67.5 -95.5t-49.5 -82.5l94 -225q39 -92 63.5 -125t69.5 -33t68 32t44 87t26.5 75.5t17.5 20.5t12 -16q0 -53 -40.5 -144t-89 -154.5
t-130.5 -63.5q-41 0 -68.5 13t-60 64t-133.5 306l-106 -162q-78 -119 -141.5 -170t-139.5 -51t-112.5 45t-36.5 108t28.5 115.5t65.5 92.5t69.5 63.5t38.5 23.5q16 0 17 -16q0 -6 -58.5 -58t-58.5 -129z" />
    <glyph glyph-name="y" unicode="y" horiz-adv-x="1024" 
d="M700 856q0 41 28 65.5t63 24.5q67 0 108 -47t41 -123q0 -145 -98 -332t-288 -412q-190 -224 -325 -326.5t-244 -102.5q-108 0 -157 40t-49 89t29.5 75.5t77.5 26.5t73 -20.5t43 -46t36.5 -46t56.5 -20.5t94.5 35t142.5 116t86 138q0 30 -53.5 188t-96.5 287t-60.5 186.5
t-35 98.5t-53.5 41q-37 0 -60 -37.5t-43 -97.5t-26 -75.5t-18 -15.5q-12 -1 -13 17q0 18 15.5 77.5t68 173t158.5 113.5q47 0 77.5 -31.5t53.5 -97.5l241 -692q109 135 174.5 243.5t65.5 202.5t-39 142.5t-56.5 75t-17.5 67.5z" />
    <glyph glyph-name="z" unicode="z" horiz-adv-x="1024" 
d="M639 61q53 0 83 25.5t30 57.5t-16.5 50.5t-37 35t-37 36t-16.5 54t25.5 65.5t83.5 31t91.5 -41t33.5 -95q0 -114 -89.5 -205t-273.5 -91q-117 0 -187.5 55t-100 79.5t-65.5 24.5t-57.5 -24.5t-39 -55t-39 -55t-60.5 -24.5q-53 0 -53 53q0 63 83 95t95 44l580 529l-4 4
q-12 -4 -16 -4h-50q-106 0 -161 66t-80 77.5t-66 11.5t-68.5 -30.5t-27.5 -69.5t18.5 -57.5t40 -34t39.5 -34t18 -56.5t-29.5 -66.5t-82.5 -28.5t-92 36t-39 112q0 137 112 226t213 89q100 0 193 -66t144 -65q50 0 73.5 20.5t40 45t29 45t31.5 20.5t32.5 -13t13.5 -33
t-19.5 -39t-39.5 -36l-651 -571l4 -4q24 4 74 4q51 0 93 -29.5t74.5 -66.5t64.5 -67t85 -30z" />
    <glyph glyph-name="braceleft" unicode="{" horiz-adv-x="833" 
d="M281 -219q0 -121 125 -129l-13 -49q-148 0 -195.5 27.5t-66 63.5t-18.5 90q0 76 59 315.5t59 302.5q0 62 -26.5 95t-85.5 54q100 31 144 87t67 161l88 391q43 184 133 244.5t268 60.5l-10 -49q-98 -6 -147.5 -67.5t-73.5 -176.5l-82 -371q-26 -121 -62 -169t-74 -71.5
t-94 -37.5v-4q53 -14 88 -52t35 -86q0 -65 -59 -317t-59 -313z" />
    <glyph glyph-name="bar" unicode="|" horiz-adv-x="454" 
d="M123 1495h127v-1495h-127v1495z" />
    <glyph glyph-name="braceright" unicode="}" horiz-adv-x="833" 
d="M461 1317q0 121 -125 129l12 49q147 0 195.5 -27.5t67 -63.5t18.5 -90q0 -77 -59.5 -318t-59.5 -302t26.5 -94t86.5 -53q-100 -31 -142.5 -85t-68.5 -163l-88 -391q-43 -183 -133.5 -244t-268.5 -61l10 49q98 6 147.5 67.5t74.5 176.5l82 370q26 123 62 170t74 70.5
t93 38.5v4q-53 14 -88 52t-35 86q0 63 59.5 318.5t59.5 311.5z" />
    <glyph glyph-name="asciitilde" unicode="~" horiz-adv-x="1228" 
d="M287.5 592q108.5 0 204.5 -42t145 -63.5t95 -21.5t83 42t70 93l65 -104q-76 -110 -131 -134t-102 -24q-68 0 -182.5 61.5t-210.5 61.5q-97 0 -156 -131l-66 102q77 160 185.5 160z" />
    <glyph glyph-name="uni00A0" unicode="&#xa0;" horiz-adv-x="569" 
 />
    <glyph glyph-name="exclamdown" unicode="&#xa1;" horiz-adv-x="757" 
d="M419 1004q105 0 105 -102q0 -54 -38 -91t-86 -37q-105 0 -105 102q0 54 38 91t86 37zM117 -434q-92 0 -92 110q0 61 24.5 133t115 283.5t124 350t41.5 145t16 6.5q36 0 4 -102t-49 -539q-10 -203 -55 -295t-129 -92z" />
    <glyph glyph-name="cent" unicode="&#xa2;" 
d="M395 444q65 -61 195 -61q66 0 122 25.5t89 55.5t50 55.5t29.5 26t12.5 -15.5t-24.5 -59t-112.5 -125t-267 -82q-104 0 -194 51l-205 -282h-70l230 313q-129 109 -129 310t170 348t353 147q89 0 173 -43l187 252h69l-205 -281q29 -27 61 -69t32 -104t-29 -102t-88 -40
q-76 0 -76 76l16 137h-4zM628 1114q-66 0 -129 -41t-132.5 -137.5t-69.5 -243.5q0 -101 22.5 -142.5t34.5 -60.5l416 555q-10 23 -43 46.5t-99 23.5z" />
    <glyph glyph-name="sterling" unicode="&#xa3;" 
d="M-16 168q0 -123 135 -123q109 0 186 74q-80 103 -118 134.5t-88 31.5t-82.5 -32t-32.5 -85zM438 725q-121 131 -121 271q0 144 117.5 276.5t286.5 132.5q93 0 158 -37t93 -53.5t48 -16.5t30.5 9.5t16.5 19.5t12 19.5t17 9.5q18 0 18 -18t-14 -87l-66 -315
q-8 -39 -26.5 -39t-18.5 21l4 53q0 174 -75.5 285.5t-200.5 111.5q-93 0 -172.5 -74t-79.5 -186q0 -49 19.5 -86t48 -77t60.5 -90t56 -130h281l-12 -78h-259q0 -195 -83.5 -298t-122.5 -148q35 -25 78.5 -51.5t110.5 -26.5t115 30.5t77.5 78t46 100.5t25.5 100t15.5 78
t16.5 31q20 0 20 -26t-6 -77t-34.5 -157t-118.5 -210t-246 -104q-70 0 -124 37t-97 84q-115 -92 -215 -92q-183 0 -183 170q0 79 62.5 137.5t153.5 58.5q118 0 272 -133q53 59 92 119t39 125t-18.5 104t-34.5 70h-340l10 78h268z" />
    <glyph glyph-name="currency" unicode="&#xa4;" 
d="M922 694q0 78 -30 148.5t-81 124t-120.5 85t-149.5 31.5t-149.5 -31.5t-121 -85t-81 -124t-29.5 -148.5t29.5 -148.5t81 -123.5t121 -85t149.5 -32t149.5 32t120.5 85t81 123.5t30 148.5zM1049 693.5q0 -190.5 -109 -314.5l113 -111l-86 -86l-115 115
q-133 -111 -311.5 -111t-311.5 111l-114 -115l-86 86l112 111q-108 125 -108 315.5t108 315.5l-112 110l86 86l114 -114q132 110 311.5 110t311.5 -110l115 114l86 -86l-113 -110q109 -126 109 -316.5z" />
    <glyph glyph-name="yen" unicode="&#xa5;" 
d="M1329 1364q0 -18 -16.5 -21.5t-50 -16.5t-88 -49t-130 -116t-155.5 -172t-182 -209h270l-14 -78h-324l-43 -49l-31 -137h371l-14 -78h-373q-18 -82 -30.5 -133t-18.5 -81.5t-9.5 -46t-3.5 -25.5q0 -83 54.5 -94t79 -13t24.5 -19t-7 -23.5t-30 -6.5l-229 4l-264 -4
q-25 0 -25 24t28.5 26.5t66.5 11t75 34t51 90.5l58 256h-320l14 78h322l31 135l-19 51h-307l14 78h265l-170 475q-18 55 -65.5 66.5t-66 18t-18.5 23.5t9.5 23.5t41.5 6.5l230 -4l215 4q35 0 35 -27q0 -18 -27 -21.5t-85 -12.5t-58 -81q0 -45 57 -206.5t113 -323.5
q221 236 284.5 328t78.5 129.5t15 75.5t-17 54.5t-36.5 22.5t-37 10.5t-17.5 21.5t7 23.5t30 6.5l243 -4l166 4q33 0 33 -29z" />
    <glyph glyph-name="brokenbar" unicode="&#xa6;" horiz-adv-x="454" 
d="M123 1495h127v-563h-127v563zM123 563h127v-563h-127v563z" />
    <glyph glyph-name="section" unicode="&#xa7;" horiz-adv-x="1024" 
d="M358 1200q0 -60 37 -106.5t92.5 -89.5t119 -87.5t155.5 -126.5t92 -200q0 -90 -69 -172.5t-218 -106.5q70 -57 110 -113t40 -128q0 -138 -116.5 -229t-313.5 -91q-85 0 -159.5 25.5t-100 38t-43.5 12.5q-31 0 -54 -27.5t-35 -27.5q-11 0 -11 11q-1 17 13 88.5t29 158.5
q25 149 31 178t20 29t16.5 -34t16.5 -108q25 -132 111 -213.5t194 -81.5t162.5 57.5t54.5 127.5t-36.5 116.5t-92 86.5t-119 79t-155.5 112.5t-92 198.5t87 199t214 92q-90 66 -123 126.5t-33 123.5q0 121 95.5 212t236.5 91q98 0 161.5 -28.5t89.5 -41t47 -12.5t33.5 7.5
t20.5 14.5t14.5 14t19.5 7t13 -12t-9 -55t-26 -143t-22.5 -142.5t-23.5 -42.5t-22.5 28.5t-10 64.5t-15.5 80q-21 90 -82 151t-155 61t-141.5 -56t-47.5 -116zM213 661q0 -47 15.5 -78.5t69.5 -83t230 -159.5q68 20 115 70.5t47 104.5t-26.5 94t-70.5 78t-100.5 75
t-117.5 80q-92 -35 -127 -84.5t-35 -96.5z" />
    <glyph glyph-name="dieresis" unicode="&#xa8;" horiz-adv-x="645" 
d="M496 1176q0 43 29.5 72.5t72.5 29.5t72.5 -29.5t29.5 -72.5t-29.5 -73t-72.5 -30t-72.5 30t-29.5 73zM90 1176q0 43 30 72.5t73 29.5t72.5 -29.5t29.5 -72.5t-29.5 -73t-72.5 -30t-73 30t-30 73z" />
    <glyph glyph-name="copyright" unicode="&#xa9;" horiz-adv-x="1638" 
d="M586 711q0 -185 70 -274t176 -89q183 0 266 184h37l-33 -161q-5 -19 -95 -45.5t-184 -26.5q-200 0 -321 106.5t-121 296.5t121 305t342 115q144 0 201 -31.5t57 -46.5v-151h-37q-54 180 -223 180q-110 0 -183 -88.5t-73 -273.5zM786.5 70q238.5 0 406 184.5t167.5 439.5
q0 125 -44 239t-122 200t-182.5 136t-225 50t-225 -50t-182.5 -136t-122 -200t-44 -240t44 -238.5t167.5 -248.5t362 -136zM786.5 -33q-151.5 0 -281.5 56.5t-226.5 154.5t-150.5 231.5t-54 285t54 284.5t150.5 231.5t226.5 154.5t281.5 56t281.5 -56t226.5 -154.5
t150.5 -231.5t54 -284.5t-54 -285t-150.5 -231.5t-226.5 -154.5t-281.5 -56.5z" />
    <glyph glyph-name="ordfeminine" unicode="&#xaa;" horiz-adv-x="704" 
d="M166 987q0 -98 84 -98q95 0 170.5 126t75.5 205q0 148 -109 148q-79 0 -126.5 -72.5t-71 -165.5t-23.5 -143zM455 981q-85 -154 -271 -154q-72 0 -114.5 50.5t-42.5 135.5t35.5 157.5t88 125t114 81t114.5 28.5q122 0 158 -109q41 29 65.5 48.5t47 36t35.5 16.5t13 -13
t-24.5 -58.5t-39.5 -115.5q-23 -107 -39.5 -178t-16.5 -88q0 -35 36 -35q43 0 64.5 50.5t32 73t22.5 22.5q20 0 21 -21q0 -6 -8.5 -38.5t-29 -69.5t-57 -68t-94 -31t-84 26.5t-26.5 52.5v26q0 26 4 47z" />
    <glyph glyph-name="guillemotleft" unicode="&#xab;" horiz-adv-x="909" 
d="M408 459q178 -343 178 -350q0 -25 -27 -25q-12 0 -29.5 22.5t-43 58.5t-71.5 96q-94 122 -117.5 151.5t-23.5 38.5q0 10 5.5 17t22.5 21.5t50.5 42.5t109.5 94q152 132 200.5 176t56.5 44q18 0 18 -18t-86 -104.5t-243 -264.5zM319 109q0 -25 -26 -25q-13 0 -30 22.5
t-43 58.5t-72 96t-72.5 95t-47 59.5t-20.5 34.5q0 16 108.5 106t218.5 190t118 100q18 0 18 -18t-86 -104.5t-244 -264.5q53 -102 115.5 -220t62.5 -130z" />
    <glyph glyph-name="logicalnot" unicode="&#xac;" horiz-adv-x="1228" 
d="M893 584h-803v127h930v-492h-127v365z" />
    <glyph glyph-name="uni00AD" unicode="&#xad;" horiz-adv-x="681" 
d="M524 543l-28 -156h-488l29 156h487z" />
    <glyph glyph-name="registered" unicode="&#xae;" horiz-adv-x="1638" 
d="M786.5 70q238.5 0 406 184.5t167.5 439.5q0 125 -44 239t-122 200t-182.5 136t-225 50t-225 -50t-182.5 -136t-122 -200t-44 -240t44 -238.5t167.5 -248.5t362 -136zM786.5 -33q-151.5 0 -281.5 56.5t-226.5 154.5t-150.5 231.5t-54 285t54 284.5t150.5 231.5
t226.5 154.5t281.5 56t281.5 -56t226.5 -154.5t150.5 -231.5t54 -284.5t-54 -285t-150.5 -231.5t-226.5 -154.5t-281.5 -56.5zM705 709h69q53 0 92 47t39 145q0 147 -131 148h-69v-340zM442 1098h400q156 0 195.5 -77t39.5 -137t-45 -117.5t-119 -82.5l119 -168
q71 -104 144 -172v-25h-166q-25 0 -48.5 30t-51 79t-59.5 109.5t-73 121.5h-73v-217q0 -54 17.5 -68t84.5 -18v-37h-365v37q67 4 85 18t18 68v533q0 54 -17.5 68t-85.5 18v37z" />
    <glyph glyph-name="macron" unicode="&#xaf;" horiz-adv-x="645" 
d="M688 1126h-616l22 103h617z" />
    <glyph glyph-name="degree" unicode="&#xb0;" horiz-adv-x="819" 
d="M551.5 971q54.5 58 54.5 143t-54.5 143t-134 58t-134 -58.5t-54.5 -142.5t54.5 -142.5t134 -58.5t134 58zM127 1114.5q0 59.5 22.5 112.5t62.5 93t93 62.5t112.5 22.5t113 -22.5t93.5 -62.5t62.5 -93t22.5 -112.5t-22.5 -113t-62.5 -93.5t-93.5 -62.5t-113 -22.5
t-112.5 22.5t-93 62.5t-62.5 93.5t-22.5 113z" />
    <glyph glyph-name="plusminus" unicode="&#xb1;" horiz-adv-x="1228" 
d="M90 127h930v-127h-930v127zM492 930h126v-291h402v-127h-402v-313h-126v313h-402v127h402v291z" />
    <glyph glyph-name="twosuperior" unicode="&#xb2;" horiz-adv-x="681" 
d="M600 768q21 0 21 -18t-17.5 -50.5t-73.5 -138.5h-550q24 145 127.5 219t173 110t127 75t95.5 86t38 117t-48.5 106.5t-109.5 36.5t-105.5 -22.5t-73 -48.5t-46 -48.5t-27.5 -22.5q-18 0 -18 17q0 10 21.5 46t98 104.5t196.5 68.5q119 0 191 -59t72 -144q0 -84 -30.5 -136
t-81 -87t-114 -60.5t-177.5 -77t-189 -153.5h346q92 0 116 40t38 40z" />
    <glyph glyph-name="threesuperior" unicode="&#xb3;" horiz-adv-x="681" 
d="M580 1053q79 -67 79 -192t-125 -218.5t-284 -93.5q-110 0 -188 51t-78 121q0 37 20 59.5t54 22.5t51.5 -20.5t24.5 -48t10.5 -54.5t15.5 -42q33 -40 93 -40t104 12.5t97.5 57t53.5 163t-98 148.5q-39 10 -61.5 11t-22.5 21.5t30.5 20.5t71.5 16t70.5 55.5t29.5 93.5
t-36 84t-90 30t-86.5 -12.5t-57.5 -27t-39 -26.5t-18 -12q-20 0 -21 20q0 6 17.5 31t82.5 73t195 48q129 0 167 -66.5t38 -124.5t-32 -95.5t-68 -65.5z" />
    <glyph glyph-name="acute" unicode="&#xb4;" horiz-adv-x="645" 
d="M628 1397q26 0 47 -18.5t21 -49.5t-15 -48t-42 -34l-336 -207h-70l306 297q20 18 41.5 39t47.5 21z" />
    <glyph glyph-name="mu" unicode="&#xb5;" horiz-adv-x="1251" 
d="M885 153q0 -67 63 -67q108 0 141 123t47 123t15 -19q0 -8 -13.5 -60t-46 -112.5t-89 -108.5t-141.5 -48t-123 48t-38 104t15 159l-4 4q-88 -170 -179.5 -242.5t-201.5 -72.5q-40 0 -80 10q-27 -102 -41 -176t-29.5 -121t-37 -70.5t-62.5 -23.5t-65.5 24.5t-24.5 65.5
t17.5 111.5t37.5 160.5l131 582q18 84 34.5 143.5t16.5 106.5t-63 47q-108 0 -141 -123t-47 -123t-15 18q0 8 13.5 60.5t72 161t199.5 108.5q82 0 124 -48t42 -108q0 -80 -59.5 -323t-59.5 -296q0 -110 104 -110q132 0 227 163t140 327l94 387q54 -12 94 -12q39 0 80 12
q-25 -125 -51.5 -251t-61 -296.5t-34.5 -237.5z" />
    <glyph glyph-name="paragraph" unicode="&#xb6;" horiz-adv-x="1228" 
d="M168 880q0 96 38 197t143.5 206.5t357.5 105.5h507l-10 -50q-96 -4 -139 -31.5t-57 -95.5l-338 -1499h-119l364 1614h-122l-365 -1614h-119l189 834q-249 0 -289.5 118.5t-40.5 214.5z" />
    <glyph glyph-name="periodcentered" unicode="&#xb7;" horiz-adv-x="569" 
d="M106 465q0 47 34 81t81 34t81 -34t34 -81t-34 -81t-81 -34t-81 34t-34 81z" />
    <glyph glyph-name="cedilla" unicode="&#xb8;" horiz-adv-x="645" 
d="M152 -129q53 0 99 -37t46 -95t-40.5 -119.5t-209.5 -61.5q-101 0 -182 43l33 57q90 -31 138 -31t78.5 24.5t30.5 63.5t-27.5 62.5t-60.5 23.5t-71 -14l-19 16l123 197h78l-90 -135q21 6 74 6z" />
    <glyph glyph-name="onesuperior" unicode="&#xb9;" horiz-adv-x="681" 
d="M6 575q0 31 81 31t107.5 19t34.5 65q92 391 114 469t22 90t-11.5 14.5t-50.5 2.5q-86 0 -116.5 3.5t-30.5 20.5q0 16 9 22.5t125 21.5t168 43t68 28q25 0 25 -21q0 -10 -12.5 -65t-29.5 -134t-38.5 -168t-39 -168t-30 -134t-12.5 -73q0 -36 117 -36q43 0 43 -28
q0 -14 -7 -17.5t-20 -3.5l-256 4l-231 -4q-18 0 -23.5 3t-5.5 15z" />
    <glyph glyph-name="ordmasculine" unicode="&#xba;" horiz-adv-x="636" 
d="M406 1405q98 0 168.5 -66.5t70.5 -194.5t-97 -222.5t-231 -94.5q-133 0 -203.5 68t-70.5 195t96.5 221t266.5 94zM489 1236q0 62 -30.5 97t-72.5 35t-78 -36t-72.5 -116.5t-36.5 -215.5q0 -136 100 -136q85 0 137.5 115t52.5 257z" />
    <glyph glyph-name="guillemotright" unicode="&#xbb;" horiz-adv-x="909" 
d="M160 821q0 25 26 25q13 0 30 -22t43 -59q26 -36 72 -96q47 -59 73 -95t46 -61t21 -37q-1 -13 -23 -31q-114 -94 -230 -198q-183 -163 -191 -163q-19 0 -19 18t86 104t244 265q-54 102 -116 220t-62 130zM426 821q0 25 27 25q12 0 29 -22t43 -59q26 -36 72 -96
q46 -59 73 -95t47 -60t20 -37t-22 -32q-23 -19 -57 -48t-110 -95t-128 -112q-120 -106 -127 -106q-17 0 -19 18q0 18 86 104t244 265q-54 102 -116 220t-62 130z" />
    <glyph glyph-name="onequarter" unicode="&#xbc;" horiz-adv-x="1708" 
d="M-8 575q0 31 81 31t107.5 19t34.5 65q76 325 105.5 436t29.5 123t-11 14.5t-50 2.5q-87 0 -117.5 4t-30.5 20t9.5 22.5t125.5 21.5t168 43t68 28q25 0 25 -21q0 -10 -12.5 -65t-30 -134t-68.5 -290t-51 -252q0 -37 117 -37q43 0 43 -28q0 -21 -27 -21l-256 4l-232 -4
q-18 0 -23 3t-5 15zM1366 1405l-868 -1421h-158l868 1421h158zM1313 315l78 332l-5 4l-344 -336h271zM1419 105q0 -30 16.5 -40t35 -15t35 -9t16.5 -18q0 -27 -27 -27l-172 4l-99 -2q-100 -2 -100 25q0 16 18.5 19t42 7t46.5 15.5t35 44.5t17 64.5t13 59.5h-344l-14 56
l567 555h80l-117 -529h121l-22 -82h-121q-27 -98 -27 -128z" />
    <glyph glyph-name="onehalf" unicode="&#xbd;" horiz-adv-x="1708" 
d="M1530 207q20 0 20 -19t-17 -50.5t-73 -137.5h-551q23 144 127.5 218.5t174 110.5t127 74.5t95 85.5t37.5 117t-48 107t-109 37t-105.5 -22.5t-73 -48.5t-46 -48.5t-27.5 -22.5q-35 0 8.5 73t134 118t156.5 45q119 0 190.5 -59t71.5 -144q0 -84 -30.5 -136t-81 -87
t-114 -60.5t-177.5 -77.5t-189 -153h346q92 0 116 40t38 40zM-33 575q0 31 81 31t107.5 19t34.5 65q39 166 65 269.5t41 164t22.5 87t7.5 38.5t-11.5 14.5t-50.5 2.5q-85 0 -116 3.5t-31 20.5q0 16 9 22.5t125 21.5t168 43t68 28q25 0 25 -21q0 -10 -12.5 -65t-29.5 -134
t-38.5 -168t-39 -168t-30 -134t-12.5 -73q0 -36 117 -36q43 0 43 -28q0 -14 -7 -17.5t-20 -3.5l-256 4l-231 -4q-18 0 -23.5 3t-5.5 15zM1341 1405l-868 -1421h-158l869 1421h157z" />
    <glyph glyph-name="threequarters" unicode="&#xbe;" horiz-adv-x="1708" 
d="M1397 1405l-869 -1421h-157l868 1421h158zM588 1053q80 -68 80 -192t-125.5 -218t-284.5 -94q-109 0 -187.5 51t-78.5 121q0 37 20 59.5t54 22.5t51.5 -20.5t25 -48t10.5 -54.5t15 -42q32 -40 92 -40t105 12.5t98 57.5t53 163t-98 148q-39 10 -61.5 11t-22.5 21.5
t30.5 20.5t71.5 16t71 55.5t30 93.5t-36.5 84t-90.5 30t-86.5 -12.5t-57 -27t-39 -26.5t-18.5 -12q-20 0 -21 20q0 6 17.5 31t82.5 73t195 48q129 0 167 -66.5t38 -124.5t-31.5 -95.5t-68.5 -65.5zM1327 315l78 332l-4 4l-344 -336h270zM1434 107q0 -32 16 -42t34.5 -15
t35 -9t16.5 -18q0 -27 -27 -27l-172 4l-99 -2q-99 -2 -99 25q0 16 18.5 19t42 7t47 15.5t34.5 44.5t16.5 64.5t13.5 59.5h-344l-15 56l568 555h79l-116 -529h121l-23 -82h-121q-26 -94 -26 -126z" />
    <glyph glyph-name="questiondown" unicode="&#xbf;" horiz-adv-x="1214" 
d="M777 1004q106 0 106 -102q0 -54 -38 -91t-86 -37q-106 0 -106 102q0 54 38 91t86 37zM725 299q0 -84 8 -170l-71 -14q-20 66 -84 97.5t-148 31.5t-153.5 -35t-132 -109t-62.5 -189t79.5 -193t169.5 -78q91 0 136 28.5t79 62t68 62.5t84 29t73.5 -23.5t23.5 -57.5
q0 -69 -93.5 -122t-213.5 -53q-221 0 -344.5 101.5t-123.5 275.5q0 173 131.5 316.5t331.5 143.5q78 0 168 -22q31 92 40 129t29.5 37t20.5 -15q0 -25 -8 -87t-8 -146z" />
    <glyph glyph-name="Agrave" unicode="&#xc0;" horiz-adv-x="1290" 
d="M762 561l-109 543l-321 -543h430zM305 512q-141 -226 -141 -318q0 -93 78 -128q30 -14 54 -22t23 -24q0 -24 -22 -24l-254 4l-242 -4q-27 0 -26 24q0 20 24 25q161 26 287 215q157 229 348 559t191 346q1 15 -15 21t-16 18t5 19t56 52q51 46 68 76q16 30 22 45
q7 15 11 24q4 10 17 10t22 -50l233 -1210q12 -72 79 -104l42 -21q18 -8 18 -22q0 -27 -26 -27l-215 4l-232 -4q-20 0 -20 24t25 30q26 5 58 11q83 15 83 83q0 60 -27 184q-27 123 -39 184h-469zM606 1812q36 0 86 -65l221 -291h-63l-277 213q-27 21 -37 35t-12 43
q0 29 23 47t59 18z" />
    <glyph glyph-name="Aacute" unicode="&#xc1;" horiz-adv-x="1290" 
d="M762 561l-109 543l-321 -543h430zM305 512q-141 -226 -141 -318q0 -93 78 -128q30 -14 54 -22t23 -24q0 -24 -22 -24l-254 4l-242 -4q-27 0 -26 24q0 20 24 25q161 26 287 215q157 229 348 559t191 346q1 15 -15 21t-16 18t5 19t56 52q51 46 68 76q16 30 22 45
q7 15 11 24q4 10 17 10t22 -50l233 -1210q12 -72 79 -104l42 -21q18 -8 18 -22q0 -27 -26 -27l-215 4l-232 -4q-20 0 -20 24t25 30q26 5 58 11q83 15 83 83q0 60 -27 184q-27 123 -39 184h-469zM1036 1812q26 0 46 -18q22 -18 22 -49t-15 -48t-42 -34l-336 -207h-70l305 297
q20 19 42 39t48 20z" />
    <glyph glyph-name="Acircumflex" unicode="&#xc2;" horiz-adv-x="1290" 
d="M762 561l-109 543l-321 -543h430zM305 512q-141 -226 -141 -318q0 -93 78 -128q30 -14 54 -22t23 -24q0 -24 -22 -24l-254 4l-242 -4q-27 0 -26 24q0 20 24 25q161 26 287 215q157 229 348 559t191 346q1 15 -15 21t-16 18t5 19t56 52q51 46 68 76q16 30 22 45
q7 15 11 24q4 10 17 10t22 -50l233 -1210q12 -72 79 -104l42 -21q18 -8 18 -22q0 -27 -26 -27l-215 4l-232 -4q-20 0 -20 24t25 30q26 5 58 11q83 15 83 83q0 60 -27 184q-27 123 -39 184h-469zM981 1456l-170 213l-283 -213h-79l323 348h100l183 -348h-74z" />
    <glyph glyph-name="Atilde" unicode="&#xc3;" horiz-adv-x="1290" 
d="M762 561l-109 543l-321 -543h430zM305 512q-141 -226 -141 -318q0 -93 78 -128q30 -14 54 -22t23 -24q0 -24 -22 -24l-254 4l-242 -4q-27 0 -26 24q0 20 24 25q161 26 287 215q157 229 348 559t191 346q1 15 -15 21t-16 18t5 19t56 52q51 46 68 76q16 30 22 45
q7 15 11 24q4 10 17 10t22 -50l233 -1210q12 -72 79 -104l42 -21q18 -8 18 -22q0 -27 -26 -27l-215 4l-232 -4q-20 0 -20 24t25 30q26 5 58 11q83 15 83 83q0 60 -27 184q-27 123 -39 184h-469zM1149 1731q-12 -87 -65 -150t-124 -63t-167 46t-142 47q-45 1 -73 -28t-35 -70
h-62q44 215 201 218q62 0 166 -48q39 -16 75 -31q94 -39 134 10q20 26 35 69h57z" />
    <glyph glyph-name="Adieresis" unicode="&#xc4;" horiz-adv-x="1290" 
d="M762 561l-109 543l-321 -543h430zM305 512q-141 -226 -141 -318q0 -93 78 -128q30 -14 54 -22t23 -24q0 -24 -22 -24l-254 4l-242 -4q-27 0 -26 24q0 20 24 25q161 26 287 215q157 229 348 559t191 346q1 15 -15 21t-16 18t5 19t56 52q51 46 68 76q16 30 22 45
q7 15 11 24q4 10 17 10t22 -50l233 -1210q12 -72 79 -104l42 -21q18 -8 18 -22q0 -27 -26 -27l-215 4l-232 -4q-20 0 -20 24t25 30q26 5 58 11q83 15 83 83q0 60 -27 184q-27 123 -39 184h-469zM903 1591q0 43 30 73t73 30q42 0 72 -30t30 -73t-30 -73t-72 -29
q-42 -1 -73 29q-30 30 -30 73zM498 1591q0 43 29 73q30 30 73 30t73 -30q29 -30 29 -73t-30 -73t-72 -29q-42 -1 -72 29t-30 73z" />
    <glyph glyph-name="Aring" unicode="&#xc5;" horiz-adv-x="1290" 
d="M762 561l-109 543l-321 -543h430zM305 512q-141 -226 -141 -318q0 -93 78 -128q30 -14 54 -22t23 -24q0 -24 -22 -24l-254 4l-242 -4q-27 0 -26 24q0 20 24 25q161 26 287 215q157 229 348 559t191 346q1 15 -15 21t-16 18t5 19t56 52q51 46 68 76q16 30 22 45
q7 15 11 24q4 10 17 10t22 -50l233 -1210q12 -72 79 -104l42 -21q18 -8 18 -22q0 -27 -26 -27l-215 4l-232 -4q-20 0 -20 24t25 30q26 5 58 11q83 15 83 83q0 60 -27 184q-27 123 -39 184h-469zM672 1661q0 -55 39 -95t95 -40t96 40t40 95t-40 95t-96 40t-95 -40t-39 -95z
M602 1662q0 87 58 145q58 57 146 58q87 1 146 -59q60 -60 60 -145q0 -86 -60 -145q-60 -60 -145 -60t-145 60t-60 146z" />
    <glyph glyph-name="AE" unicode="&#xc6;" horiz-adv-x="1972" 
d="M981 1341l-512 -612h438l135 612h-61zM584 16q0 18 24.5 22.5t57 11.5t62.5 26.5t42 68.5l127 535h-463q-90 -115 -153.5 -189.5t-104.5 -126t-60.5 -89t-19.5 -93.5t23.5 -85t51.5 -40.5t51.5 -14.5t23.5 -17q0 -29 -33 -29l-64 1l-423 -1q-31 0 -42.5 5t-11.5 19
t9.5 18.5t52 19t124.5 72.5t235 240q152 181 282.5 332.5t252 290.5t171 202.5t49.5 93.5t-16.5 39t-36 12t-36 7.5t-16.5 20.5q0 25 43 25l62 -1l465 -3l518 4q14 -131 23.5 -210t16.5 -142t7 -89t-23 -24q-18 0 -24 25t-26 97q-45 164 -172 228.5t-396 64.5l-137 -614
q135 0 225.5 49t111.5 117t31 110t27 42q18 0 18 -27t-45 -231q-45 -205 -59 -279t-23.5 -111t-16.5 -45t-18 -8q-18 0 -18 27l10 102q0 97 -54 151t-199 54q-59 -281 -85 -397t-26 -152q1 -86 149 -86q277 0 508 223q56 54 101 133.5t60 107.5t31 28t17 -17
q0 -17 -57.5 -153t-153.5 -371l-557 4l-434 -4q-41 0 -50 4t-9 16z" />
    <glyph glyph-name="Ccedilla" unicode="&#xc7;" horiz-adv-x="1441" 
d="M575 -199q-33 0 -71 -14l-19 16l103 166q-256 20 -399.5 187.5t-143.5 408.5q0 193 71.5 350.5t185.5 270t254 174t258 61.5t184.5 -21.5t114.5 -46t81.5 -46t65.5 -21.5t49.5 16.5t27 35t15.5 35t22 16.5q25 0 25 -29q0 -6 -4 -23.5t-14.5 -68.5t-32.5 -148.5
t-40 -193.5t-24 -103.5t-18 -7.5q-18 0 -20.5 39t-14.5 131q-25 188 -124 287.5t-267 99.5q-129 0 -235.5 -72.5t-224.5 -260.5t-118 -545q0 -237 103 -357.5t275 -120.5q344 0 521 392q14 31 21.5 51t13 34.5t23.5 14.5t18 -23q0 -8 -13.5 -70.5t-33 -153.5l-40.5 -189
t-30.5 -110.5t-25.5 -12.5t-20.5 14t-8.5 31.5t-13.5 32t-35.5 14.5t-115 -37t-237 -37l-68 -102q21 6 74 6t99 -37t46 -95q0 -96 -72 -138.5t-175 -42.5q-104 0 -185 43l33 57q90 -31 138 -31t79 24.5t31 63.5t-28 62.5t-61 23.5z" />
    <glyph glyph-name="Egrave" unicode="&#xc8;" horiz-adv-x="1290" 
d="M1149 1393l47 -438q0 -28 -22 -27q-18 0 -24 24t-27 98q-45 164 -173 228q-127 65 -395 65l-133 -589q207 0 296 83q58 54 74 102q15 48 25 90t27 42q18 0 18 -14q0 -37 -45 -243t-59 -280t-24 -110q-10 -37 -16 -45t-18 -8t-15 6t-3 20l10 103q0 99 -49 142
q-68 61 -233 63q-38 -181 -79 -364q-40 -183 -40 -216t35 -57t110 -23q289 0 518 223q65 62 161 241q15 28 31 28t17 -16q0 -16 -38 -105q-38 -88 -173 -420l-688 4l-327 -4q-41 0 -41 18t26 24q87 19 118 37q32 19 42 64q73 329 129 575q83 363 96 433q13 71 14 107
q1 57 -69 73q-26 6 -48 10t-22 27q0 29 31 29l360 -4zM512 1747q0 29 23 47t59 18t86 -65l221 -291h-63l-277 213q-27 21 -38 35t-11 43z" />
    <glyph glyph-name="Eacute" unicode="&#xc9;" horiz-adv-x="1290" 
d="M1149 1393l47 -438q0 -28 -22 -27q-18 0 -24 24t-27 98q-45 164 -173 228q-127 65 -395 65l-133 -589q207 0 296 83q58 54 74 102q15 48 25 90t27 42q18 0 18 -14q0 -37 -45 -243t-59 -280t-24 -110q-10 -37 -16 -45t-18 -8t-15 6t-3 20l10 103q0 99 -49 142
q-68 61 -233 63q-38 -181 -79 -364q-40 -183 -40 -216t35 -57t110 -23q289 0 518 223q65 62 161 241q15 28 31 28t17 -16q0 -16 -38 -105q-38 -88 -173 -420l-688 4l-327 -4q-41 0 -41 18t26 24q87 19 118 37q32 19 42 64q73 329 129 575q83 363 96 433q13 71 14 107
q1 57 -69 73q-26 6 -48 10t-22 27q0 29 31 29l360 -4zM1024 1812q26 0 46 -18q22 -18 22 -49t-16 -48t-42 -34l-336 -207h-69l305 297q20 19 42 39t48 20z" />
    <glyph glyph-name="Ecircumflex" unicode="&#xca;" horiz-adv-x="1290" 
d="M1149 1393l47 -438q0 -28 -22 -27q-18 0 -24 24t-27 98q-45 164 -173 228q-127 65 -395 65l-133 -589q207 0 296 83q58 54 74 102q15 48 25 90t27 42q18 0 18 -14q0 -37 -45 -243t-59 -280t-24 -110q-10 -37 -16 -45t-18 -8t-15 6t-3 20l10 103q0 99 -49 142
q-68 61 -233 63q-38 -181 -79 -364q-40 -183 -40 -216t35 -57t110 -23q289 0 518 223q65 62 161 241q15 28 31 28t17 -16q0 -16 -38 -105q-38 -88 -173 -420l-688 4l-327 -4q-41 0 -41 18t26 24q87 19 118 37q32 19 42 64q73 329 129 575q83 363 96 433q13 71 14 107
q1 57 -69 73q-26 6 -48 10t-22 27q0 29 31 29l360 -4zM969 1456l-170 213l-283 -213h-80l324 348h100l182 -348h-73z" />
    <glyph glyph-name="Edieresis" unicode="&#xcb;" horiz-adv-x="1290" 
d="M1149 1393l47 -438q0 -28 -22 -27q-18 0 -24 24t-27 98q-45 164 -173 228q-127 65 -395 65l-133 -589q207 0 296 83q58 54 74 102q15 48 25 90t27 42q18 0 18 -14q0 -37 -45 -243t-59 -280t-24 -110q-10 -37 -16 -45t-18 -8t-15 6t-3 20l10 103q0 99 -49 142
q-68 61 -233 63q-38 -181 -79 -364q-40 -183 -40 -216t35 -57t110 -23q289 0 518 223q65 62 161 241q15 28 31 28t17 -16q0 -16 -38 -105q-38 -88 -173 -420l-688 4l-327 -4q-41 0 -41 18t26 24q87 19 118 37q32 19 42 64q73 329 129 575q83 363 96 433q13 71 14 107
q1 57 -69 73q-26 6 -48 10t-22 27q0 29 31 29l360 -4zM891 1591q0 43 30 73q31 30 73 30t72 -30t30 -73t-30 -73t-73 -29q-43 -1 -73 29t-29 73zM485 1591q0 43 30 73t73 30q42 0 72 -30t30 -73t-30 -73t-72 -29q-42 -1 -73 29q-30 30 -30 73z" />
    <glyph glyph-name="Igrave" unicode="&#xcc;" horiz-adv-x="720" 
d="M-84 26q0 18 26 18q78 3 115 24q37 22 49 71q55 238 83 351t86 360q57 246 71 303t14 99t-25 59t-97 30q-23 4 -23 23q0 29 47 29l219 -4l262 4q27 0 27 -27q0 -20 -28 -24q-90 -11 -128 -34q-37 -24 -51 -81q-233 -980 -246 -1112q0 -37 29 -51t101 -21q24 -2 24 -18
q0 -17 -6 -23t-33 -6l-227 4l-238 -4q-35 0 -43 6t-8 24zM356 1812q36 0 86 -65l222 -291h-64l-276 213q-27 21 -38 35q-12 14 -12 43t23 47t59 18z" />
    <glyph glyph-name="Iacute" unicode="&#xcd;" horiz-adv-x="720" 
d="M-84 26q0 18 26 18q78 3 115 24q37 22 49 71q55 238 83 351t86 360q57 246 71 303t14 99t-25 59t-97 30q-23 4 -23 23q0 29 47 29l219 -4l262 4q27 0 27 -27q0 -20 -28 -24q-90 -11 -128 -34q-37 -24 -51 -81q-233 -980 -246 -1112q0 -37 29 -51t101 -21q24 -2 24 -18
q0 -17 -6 -23t-33 -6l-227 4l-238 -4q-35 0 -43 6t-8 24zM786 1812q26 0 47 -18t21 -49t-15 -48t-42 -34l-336 -207h-70l305 297q20 19 42 39t48 20z" />
    <glyph glyph-name="Icircumflex" unicode="&#xce;" horiz-adv-x="720" 
d="M-84 26q0 18 26 18q78 3 115 24q37 22 49 71q55 238 83 351t86 360q57 246 71 303t14 99t-25 59t-97 30q-23 4 -23 23q0 29 47 29l219 -4l262 4q27 0 27 -27q0 -20 -28 -24q-90 -11 -128 -34q-37 -24 -51 -81q-233 -980 -246 -1112q0 -37 29 -51t101 -21q24 -2 24 -18
q0 -17 -6 -23t-33 -6l-227 4l-238 -4q-35 0 -43 6t-8 24zM731 1456l-170 213l-282 -213h-80l323 348h101l182 -348h-74z" />
    <glyph glyph-name="Idieresis" unicode="&#xcf;" horiz-adv-x="720" 
d="M-84 26q0 18 26 18q78 3 115 24q37 22 49 71q55 238 83 351t86 360q57 246 71 303t14 99t-25 59t-97 30q-23 4 -23 23q0 29 47 29l219 -4l262 4q27 0 27 -27q0 -20 -28 -24q-90 -11 -128 -34q-37 -24 -51 -81q-233 -980 -246 -1112q0 -37 29 -51t101 -21q24 -2 24 -18
q0 -17 -6 -23t-33 -6l-227 4l-238 -4q-35 0 -43 6t-8 24zM653 1591q0 43 30 73t73 30q42 0 72 -30t30 -73t-30 -73t-72 -29q-42 -1 -73 29q-30 30 -30 73zM248 1591q0 43 30 73t72 30t73 -30q30 -30 30 -73t-30 -73t-73 -29q-42 -1 -72 29t-30 73z" />
    <glyph glyph-name="Eth" unicode="&#xd0;" horiz-adv-x="1441" 
d="M301 172q0 -68 49 -97.5t155 -29.5t194.5 38t185.5 129t163 289t66 419t-112.5 322t-346.5 101h-104q-25 -121 -47.5 -222t-45 -210t-36.5 -157h379l-15 -49h-374q-37 -166 -58.5 -264.5t-37 -166t-15.5 -102.5zM322 1230q0 68 -24 80.5t-51.5 15.5t-51 7t-23.5 32t37 28
l250 -4l254 4q311 0 464.5 -150.5t153.5 -423.5q0 -172 -62.5 -322.5t-174 -261t-266 -175t-336.5 -64.5l-328 4l-258 -4q-27 0 -27 16q0 23 29 30t65.5 18.5t72.5 35t48 80.5q49 211 81 352.5t40 176.5h-180l14 49h176q97 408 97 476z" />
    <glyph glyph-name="Ntilde" unicode="&#xd1;" horiz-adv-x="1441" 
d="M1204 1200q0 96 -157 141q-29 8 -29 25q0 25 39 27l241 -4l224 4q27 0 26 -21q0 -16 -38 -26t-88 -37t-100 -80t-75 -158q-163 -693 -200 -885t-47 -205q-9 -14 -19 -14t-21 10t-159 309q-147 299 -412 808h-4q-39 -180 -68 -312t-49 -226q-20 -93 -44 -198t-23 -162
q0 -127 163 -154q30 -5 30 -19q0 -15 -9 -21q-8 -6 -39 -6l-205 4l-272 -4q-27 0 -27 17t16 23t72 19q154 34 197 209l215 901l-33 62q-49 89 -118 105q-26 7 -43 11t-17 27t23 23l315 -4l551 -1072h4q41 185 71 319t49 226q20 92 32 148q28 128 28 190zM1225 1731
q-12 -87 -65 -150t-123 -63q-71 0 -138 32q-69 32 -105 47t-74 15t-66 -29t-36 -70h-61q44 215 201 218q62 0 166 -48q38 -16 74 -31q36 -16 75 -16t60 26q20 26 34 69h58z" />
    <glyph glyph-name="Ograve" unicode="&#xd2;" horiz-adv-x="1593" 
d="M262 462q0 -225 112 -336q112 -110 298 -110t330 144q126 124 194 329t69 433t-112 340t-297 111t-331 -144q-67 -66 -115 -155q-148 -268 -148 -612zM45 573q0 205 76 363q149 310 458 429q144 56 279 56t250 -48q230 -96 328 -323q47 -110 47 -235q0 -205 -76 -363
t-195 -265t-263 -163q-286 -110 -523 -12q-237 99 -334 327q-47 109 -47 234zM676 1747q0 29 22 47q23 18 59 18t87 -65l221 -291h-64l-276 213q-27 21 -38 35t-11 43z" />
    <glyph glyph-name="Oacute" unicode="&#xd3;" horiz-adv-x="1593" 
d="M262 462q0 -225 112 -336q112 -110 298 -110t330 144q126 124 194 329t69 433t-112 340t-297 111t-331 -144q-67 -66 -115 -155q-148 -268 -148 -612zM45 573q0 205 76 363q149 310 458 429q144 56 279 56t250 -48q230 -96 328 -323q47 -110 47 -235q0 -205 -76 -363
t-195 -265t-263 -163q-286 -110 -523 -12q-237 99 -334 327q-47 109 -47 234zM1188 1812q26 0 46 -18q22 -18 22 -49t-16 -48q-15 -17 -42 -34l-336 -207h-69l305 297q20 19 42 39t48 20z" />
    <glyph glyph-name="Ocircumflex" unicode="&#xd4;" horiz-adv-x="1593" 
d="M262 462q0 -225 112 -336q112 -110 298 -110t330 144q126 124 194 329t69 433t-112 340t-297 111t-331 -144q-67 -66 -115 -155q-148 -268 -148 -612zM45 573q0 205 76 363q149 310 458 429q144 56 279 56t250 -48q230 -96 328 -323q47 -110 47 -235q0 -205 -76 -363
t-195 -265t-263 -163q-286 -110 -523 -12q-237 99 -334 327q-47 109 -47 234zM1133 1456l-170 213l-283 -213h-80l324 348h100l182 -348h-73z" />
    <glyph glyph-name="Otilde" unicode="&#xd5;" horiz-adv-x="1593" 
d="M262 462q0 -225 112 -336q112 -110 298 -110t330 144q126 124 194 329t69 433t-112 340t-297 111t-331 -144q-67 -66 -115 -155q-148 -268 -148 -612zM45 573q0 205 76 363q149 310 458 429q144 56 279 56t250 -48q230 -96 328 -323q47 -110 47 -235q0 -205 -76 -363
t-195 -265t-263 -163q-286 -110 -523 -12q-237 99 -334 327q-47 109 -47 234zM633 1513q44 215 201 218q64 0 165 -48q39 -16 75 -31q36 -16 75 -16t59 26t35 69h57q-12 -88 -64 -151q-52 -62 -123 -62t-167 46t-142 47t-74 -28t-36 -70h-61z" />
    <glyph glyph-name="Odieresis" unicode="&#xd6;" horiz-adv-x="1593" 
d="M262 462q0 -225 112 -336q112 -110 298 -110t330 144q126 124 194 329t69 433t-112 340t-297 111t-331 -144q-67 -66 -115 -155q-148 -268 -148 -612zM45 573q0 205 76 363q149 310 458 429q144 56 279 56t250 -48q230 -96 328 -323q47 -110 47 -235q0 -205 -76 -363
t-195 -265t-263 -163q-286 -110 -523 -12q-237 99 -334 327q-47 109 -47 234zM1055 1591q0 43 29 73q30 30 73 30t73 -30t30 -73t-30 -73t-73 -29q-43 -1 -73 29t-29 73zM649 1591q0 43 30 73t73 30q42 0 72 -30t30 -73t-30 -73t-72 -29q-42 -1 -73 29q-30 30 -30 73z" />
    <glyph glyph-name="multiply" unicode="&#xd7;" horiz-adv-x="1228" 
d="M86 840l90 90l375 -375l377 375l92 -90l-375 -375l375 -375l-92 -90l-377 375l-375 -375l-90 90l373 375z" />
    <glyph glyph-name="Oslash" unicode="&#xd8;" horiz-adv-x="1593" 
d="M1217 1315q266 -181 266 -525q0 -180 -76 -337.5t-194.5 -265t-263 -164t-298.5 -56.5t-293 78l-147 -217h-94l176 260q-248 178 -248 514q0 176 76 334t194.5 265.5t263.5 163.5t293 56t275 -65l123 180h96zM399 104q99 -88 279 -88q179 0 314 133t204.5 343t69.5 422
t-97 331zM1110 1300q-99 72 -269 72t-306 -134t-204.5 -343.5t-68.5 -414.5q0 -204 82 -314z" />
    <glyph glyph-name="Ugrave" unicode="&#xd9;" horiz-adv-x="1441" 
d="M1532 1364q0 -18 -18 -19q-118 -6 -195 -120q-40 -62 -61 -122t-47 -186q-27 -127 -53 -245t-60 -287q-48 -214 -203 -316t-360 -102q-145 0 -272 73q-157 89 -157 241q0 60 38 218q160 673 159 731q0 58 -25 78t-94 30q-22 2 -22 22t9 26t38 7l223 -4l244 4q25 0 24 -29
q0 -18 -26 -19q-78 -3 -118 -32t-52 -90q-101 -480 -147 -688q-46 -207 -46 -252q0 -127 83 -191q82 -64 192 -63q199 0 314 101t150 259q142 658 142 773q0 114 -81 159q-29 16 -55 21t-26 22q0 29 29 29l274 -4l174 4q25 0 25 -29zM600 1747q0 29 23 47t59 18t86 -65
l221 -291h-63l-277 213q-27 21 -38 35t-11 43z" />
    <glyph glyph-name="Uacute" unicode="&#xda;" horiz-adv-x="1441" 
d="M1532 1364q0 -18 -18 -19q-118 -6 -195 -120q-40 -62 -61 -122t-47 -186q-27 -127 -53 -245t-60 -287q-48 -214 -203 -316t-360 -102q-145 0 -272 73q-157 89 -157 241q0 60 38 218q160 673 159 731q0 58 -25 78t-94 30q-22 2 -22 22t9 26t38 7l223 -4l244 4q25 0 24 -29
q0 -18 -26 -19q-78 -3 -118 -32t-52 -90q-101 -480 -147 -688q-46 -207 -46 -252q0 -127 83 -191q82 -64 192 -63q199 0 314 101t150 259q142 658 142 773q0 114 -81 159q-29 16 -55 21t-26 22q0 29 29 29l274 -4l174 4q25 0 25 -29zM1112 1812q26 0 46 -18q22 -18 22 -49
t-16 -48t-42 -34l-336 -207h-69l305 297q20 19 42 39t48 20z" />
    <glyph glyph-name="Ucircumflex" unicode="&#xdb;" horiz-adv-x="1441" 
d="M1532 1364q0 -18 -18 -19q-118 -6 -195 -120q-40 -62 -61 -122t-47 -186q-27 -127 -53 -245t-60 -287q-48 -214 -203 -316t-360 -102q-145 0 -272 73q-157 89 -157 241q0 60 38 218q160 673 159 731q0 58 -25 78t-94 30q-22 2 -22 22t9 26t38 7l223 -4l244 4q25 0 24 -29
q0 -18 -26 -19q-78 -3 -118 -32t-52 -90q-101 -480 -147 -688q-46 -207 -46 -252q0 -127 83 -191q82 -64 192 -63q199 0 314 101t150 259q142 658 142 773q0 114 -81 159q-29 16 -55 21t-26 22q0 29 29 29l274 -4l174 4q25 0 25 -29zM1057 1456l-170 213l-283 -213h-80
l324 348h100l182 -348h-73z" />
    <glyph glyph-name="Udieresis" unicode="&#xdc;" horiz-adv-x="1441" 
d="M1532 1364q0 -18 -18 -19q-118 -6 -195 -120q-40 -62 -61 -122t-47 -186q-27 -127 -53 -245t-60 -287q-48 -214 -203 -316t-360 -102q-145 0 -272 73q-157 89 -157 241q0 60 38 218q160 673 159 731q0 58 -25 78t-94 30q-22 2 -22 22t9 26t38 7l223 -4l244 4q25 0 24 -29
q0 -18 -26 -19q-78 -3 -118 -32t-52 -90q-101 -480 -147 -688q-46 -207 -46 -252q0 -127 83 -191q82 -64 192 -63q199 0 314 101t150 259q142 658 142 773q0 114 -81 159q-29 16 -55 21t-26 22q0 29 29 29l274 -4l174 4q25 0 25 -29zM979 1591q0 43 30 73q31 30 73 30
t72 -30t30 -73t-30 -73t-73 -29q-43 -1 -73 29t-29 73zM573 1591q0 43 30 73t73 30t73 -30q29 -30 29 -73t-30 -73t-72 -29q-43 -1 -73 29t-30 73z" />
    <glyph glyph-name="Yacute" unicode="&#xdd;" horiz-adv-x="1214" 
d="M74 1362q0 18 9 24t42 7l246 -4l215 4q35 0 35 -29q0 -16 -27 -18q-26 -2 -58 -8t-59 -25q-40 -27 -22 -99q18 -73 66 -208q49 -135 100 -285q220 235 284 327t79 130t15 76q0 60 -54 77q-19 6 -37 10q-17 3 -17 21t7 24t30 7l243 -4l166 4q33 0 33 -29q0 -18 -16 -22
q-122 -27 -251 -162q-129 -136 -241 -267t-225 -260q-35 -156 -55 -249t-37 -164t-17 -106q0 -34 25 -54t55 -26t54 -9q25 -2 24 -20q0 -17 -7 -23t-30 -6l-229 4l-281 -4q-25 0 -24 24q1 23 29 26t66 11t75 34t51 91l104 469l-217 604q-18 54 -88 72q-25 6 -43 12
q-18 5 -18 23zM984 1812q26 0 48 -18t21 -49q1 -31 -15 -48t-43 -34l-336 -207h-69l305 297q20 19 42 39q21 20 47 20z" />
    <glyph glyph-name="Thorn" unicode="&#xde;" horiz-adv-x="1214" 
d="M496 385q201 0 309 120.5t108 328.5q0 161 -79.5 194t-139.5 33h-205l-147 -676h154zM-106 26q0 18 26.5 20.5t62 8.5t69.5 28.5t46 82.5q55 252 93 428t64 293t40 185.5t23.5 114.5t9.5 78q0 31 -22.5 47.5t-49.5 21.5t-49.5 8.5t-22.5 21.5q0 29 33 29l227 -4l269 4
q20 0 20 -29q0 -20 -27.5 -22.5t-62.5 -8.5t-69.5 -26.5t-47.5 -79.5l-26 -121q94 4 186 4q223 0 333.5 -91t110.5 -239q0 -92 -47 -174t-181 -176t-410 -94h-160q-8 -43 -14.5 -71.5t-12.5 -60.5t-6 -69t25.5 -54.5t57.5 -24.5t57.5 -10t25.5 -20t-10.5 -23.5t-18.5 -6.5
l-246 4h-44l-212 -4q-25 0 -32.5 6t-7.5 24z" />
    <glyph glyph-name="germandbls" unicode="&#xdf;" 
d="M-121 20q0 16 22.5 19.5t75 14.5t68.5 79l150 668h-146q109 68 186.5 198.5t125 209.5t135.5 182.5t243 103.5q106 0 179 -66.5t73 -183.5q0 -177 -96 -240t-131 -83.5t-57.5 -38t-22.5 -39.5t22.5 -41t55.5 -41.5t71.5 -50t94 -95t55.5 -182.5q0 -209 -138 -338
t-331 -129q-98 0 -161.5 39t-63.5 125q0 41 29.5 79t80.5 38t75 -25t24 -47t-7.5 -38.5t-15.5 -31t-15 -26.5t-7 -25q-1 -51 75 -51q161 0 207 176q56 201 56 289t-26 135t-56.5 81t-56 62.5t-25.5 68.5t17.5 69.5t42 57.5t97 98t72.5 249q0 156 -131 156q-94 0 -162 -72
t-94 -182l-268 -1192l-299 -4q-23 0 -23 24z" />
    <glyph glyph-name="agrave" unicode="&#xe0;" horiz-adv-x="1175" 
d="M532 897q-150 0 -261 -222q-47 -95 -75 -208t-28 -191q0 -184 86 -206q144 -43 277 110q81 94 139 240q57 146 57 254t-56 166q-57 58 -139 57zM517 946q73 0 117 -24q82 -44 110 -124q13 -36 20 -59q63 57 131 124t93 67q26 0 26 -27q0 -12 -41 -105t-63 -196
q-22 -104 -54 -252t-31 -182q0 -64 64 -66q45 0 76 38t55 110t32 90q8 16 17 16q16 0 16 -24t-28 -113q-28 -90 -69 -139q-83 -98 -174 -97t-132 45t-41 130v47q0 23 4 57l-4 4q-64 -110 -121 -164q-128 -120 -268 -119q-139 1 -204 84q-64 83 -64 225t54 264t136 209
t176 134t167 47zM725 1040l-276 213q-27 21 -38 35t-11 43t22 47t58 18t87 -65l221 -291h-63z" />
    <glyph glyph-name="aacute" unicode="&#xe1;" horiz-adv-x="1175" 
d="M532 897q-150 0 -261 -222q-47 -95 -75 -208t-28 -191q0 -184 86 -206q144 -43 277 110q81 94 139 240q57 146 57 254t-56 166q-57 58 -139 57zM517 946q73 0 117 -24q82 -44 110 -124q13 -36 20 -59q63 57 131 124t93 67q26 0 26 -27q0 -12 -41 -105t-63 -196
q-22 -104 -54 -252t-31 -182q0 -64 64 -66q45 0 76 38t55 110t32 90q8 16 17 16q16 0 16 -24t-28 -113q-28 -90 -69 -139q-83 -98 -174 -97t-132 45t-41 130v47q0 23 4 57l-4 4q-64 -110 -121 -164q-128 -120 -268 -119q-139 1 -204 84q-64 83 -64 225t54 264t136 209
t176 134t167 47zM979 1329q0 -31 -15 -48t-42 -34l-336 -207h-70l305 297q20 18 42 39q47 42 95 2q22 -18 21 -49z" />
    <glyph glyph-name="acircumflex" unicode="&#xe2;" horiz-adv-x="1175" 
d="M532 897q-150 0 -261 -222q-47 -95 -75 -208t-28 -191q0 -184 86 -206q144 -43 277 110q81 94 139 240q57 146 57 254t-56 166q-57 58 -139 57zM517 946q73 0 117 -24q82 -44 110 -124q13 -36 20 -59q63 57 131 124t93 67q26 0 26 -27q0 -12 -41 -105t-63 -196
q-22 -104 -54 -252t-31 -182q0 -64 64 -66q45 0 76 38t55 110t32 90q8 16 17 16q16 0 16 -24t-28 -113q-28 -90 -69 -139q-83 -98 -174 -97t-132 45t-41 130v47q0 23 4 57l-4 4q-64 -110 -121 -164q-128 -120 -268 -119q-139 1 -204 84q-64 83 -64 225t54 264t136 209
t176 134t167 47zM856 1040l-170 213l-283 -213h-79l323 349h101l182 -349h-74z" />
    <glyph glyph-name="atilde" unicode="&#xe3;" horiz-adv-x="1175" 
d="M532 897q-150 0 -261 -222q-47 -95 -75 -208t-28 -191q0 -184 86 -206q144 -43 277 110q81 94 139 240q57 146 57 254t-56 166q-57 58 -139 57zM517 946q73 0 117 -24q82 -44 110 -124q13 -36 20 -59q63 57 131 124t93 67q26 0 26 -27q0 -12 -41 -105t-63 -196
q-22 -104 -54 -252t-31 -182q0 -64 64 -66q45 0 76 38t55 110t32 90q8 16 17 16q16 0 16 -24t-28 -113q-28 -90 -69 -139q-83 -98 -174 -97t-132 45t-41 130v47q0 23 4 57l-4 4q-64 -110 -121 -164q-128 -120 -268 -119q-139 1 -204 84q-64 83 -64 225t54 264t136 209
t176 134t167 47zM872 1221q38 0 60 25q20 26 35 69h57q-12 -85 -50 -132t-71 -64t-85 -17t-119 32q-68 32 -105 48q-37 14 -75 14q-37 0 -65 -29t-36 -69h-62q44 214 201 217q59 1 132 -31t109 -48t74 -15z" />
    <glyph glyph-name="adieresis" unicode="&#xe4;" horiz-adv-x="1175" 
d="M532 897q-150 0 -261 -222q-47 -95 -75 -208t-28 -191q0 -184 86 -206q144 -43 277 110q81 94 139 240q57 146 57 254t-56 166q-57 58 -139 57zM517 946q73 0 117 -24q82 -44 110 -124q13 -36 20 -59q63 57 131 124t93 67q26 0 26 -27q0 -12 -41 -105t-63 -196
q-22 -104 -54 -252t-31 -182q0 -64 64 -66q45 0 76 38t55 110t32 90q8 16 17 16q16 0 16 -24t-28 -113q-28 -90 -69 -139q-83 -98 -174 -97t-132 45t-41 130v47q0 23 4 57l-4 4q-64 -110 -121 -164q-128 -120 -268 -119q-139 1 -204 84q-64 83 -64 225t54 264t136 209
t176 134t167 47zM778 1176q0 42 30 72t73 30t73 -30t29 -72q0 -42 -30 -73q-31 -30 -73 -30t-72 30t-30 73zM373 1176q-1 42 29 72t73 30t73 -30t30 -72t-30 -73q-30 -30 -73 -30t-73 30q-29 30 -29 73z" />
    <glyph glyph-name="aring" unicode="&#xe5;" horiz-adv-x="1175" 
d="M532 897q-150 0 -261 -222q-47 -95 -75 -208t-28 -191q0 -184 86 -206q144 -43 277 110q81 94 139 240q57 146 57 254t-56 166q-57 58 -139 57zM517 946q73 0 117 -24q82 -44 110 -124q13 -36 20 -59q63 57 131 124t93 67q26 0 26 -27q0 -12 -41 -105t-63 -196
q-22 -104 -54 -252t-31 -182q0 -64 64 -66q45 0 76 38t55 110t32 90q8 16 17 16q16 0 16 -24t-28 -113q-28 -90 -69 -139q-83 -98 -174 -97t-132 45t-41 130v47q0 23 4 57l-4 4q-64 -110 -121 -164q-128 -120 -268 -119q-139 1 -204 84q-64 83 -64 225t54 264t136 209
t176 134t167 47zM547 1245q0 -55 39 -95t95 -40t96 40t40 95t-40 95t-96 40t-95 -40t-39 -95zM682 1450q86 0 145 -59t59 -145t-58 -146q-60 -60 -147 -60t-145 60q-59 60 -59 146q-1 86 59 144q60 60 146 60z" />
    <glyph glyph-name="ae" unicode="&#xe6;" horiz-adv-x="1402" 
d="M1157 784q0 113 -124 113t-222 -129t-106 -311q231 50 341.5 135t110.5 192zM139 168q0 -68 21.5 -87.5t67.5 -19.5q90 0 261 123l68 361q-123 -47 -204 -84t-128 -79t-66.5 -94t-19.5 -120zM-45 162q0 76 42 132t121 104t192.5 94.5t256.5 103.5q43 177 43 226t-19.5 62
t-69.5 13t-106.5 -41t-88.5 -92t-49 -83t-43.5 -67.5t-77.5 -35.5q-76 0 -76 67q0 51 53 104.5t131 97.5t168 71.5t168 27.5t113 -23.5t55 -70.5q72 35 150 64.5t172 29.5t158.5 -45t64.5 -118q0 -126 -194 -224t-414 -141q0 -165 83.5 -240.5t199.5 -75.5t182.5 52.5t87 76
t31.5 23.5t11 -12t-23.5 -53.5t-73.5 -86.5t-126 -81.5t-180 -36.5t-192.5 57t-141.5 145q-290 -202 -444 -202q-164 0 -164 178z" />
    <glyph glyph-name="ccedilla" unicode="&#xe7;" horiz-adv-x="1024" 
d="M802 524q-95 0 -95 88q0 39 11 79t11 68q0 61 -44.5 105.5t-126.5 44.5q-158 0 -268 -155t-110 -338q0 -141 85 -227.5t224 -86.5t211 59.5t94.5 87t35.5 27.5t13.5 -14t-28.5 -59t-125.5 -132t-288.5 -87h-6l-80 -119q21 6 75 6t99.5 -37t45.5 -95t-40.5 -119.5
t-209.5 -61.5q-100 0 -183 43l33 57q90 -31 138 -31t79 24.5t31 63.5t-27.5 62.5t-60.5 23.5t-72 -14l-18 16l117 187q-147 23 -236.5 129t-89.5 282q0 104 43 202.5t166.5 220.5t361.5 122q152 0 249 -75t97 -166t-29.5 -136t-81.5 -45z" />
    <glyph glyph-name="egrave" unicode="&#xe8;" horiz-adv-x="948" 
d="M680 782q0 127 -117 127q-127 0 -236 -105q-132 -128 -147 -351q250 45 359 98q141 69 141 231zM588 946q98 0 173 -49t75 -143q0 -66 -60 -132q-85 -95 -377 -164q-102 -24 -219 -46q-4 -130 80 -220t236 -90q98 0 200 70q60 44 80 64t32 20t13 -13q-1 -13 -31 -55
t-86 -87q-146 -119 -321 -118t-281 115t-106 268t60 260t150 178q90 70 187 106t195 36zM641 1040l-276 213q-27 21 -38 35t-11 43t22 47t58 18t87 -65l222 -291h-64z" />
    <glyph glyph-name="eacute" unicode="&#xe9;" horiz-adv-x="948" 
d="M680 782q0 127 -117 127q-127 0 -236 -105q-132 -128 -147 -351q250 45 359 98q141 69 141 231zM588 946q98 0 173 -49t75 -143q0 -66 -60 -132q-85 -95 -377 -164q-102 -24 -219 -46q-4 -130 80 -220t236 -90q98 0 200 70q60 44 80 64t32 20t13 -13q-1 -13 -31 -55
t-86 -87q-146 -119 -321 -118t-281 115t-106 268t60 260t150 178q90 70 187 106t195 36zM895 1329q0 -31 -15 -48t-42 -34l-336 -207h-70l305 297q20 18 42 39q47 42 95 2q22 -18 21 -49z" />
    <glyph glyph-name="ecircumflex" unicode="&#xea;" horiz-adv-x="948" 
d="M680 782q0 127 -117 127q-127 0 -236 -105q-132 -128 -147 -351q250 45 359 98q141 69 141 231zM588 946q98 0 173 -49t75 -143q0 -66 -60 -132q-85 -95 -377 -164q-102 -24 -219 -46q-4 -130 80 -220t236 -90q98 0 200 70q60 44 80 64t32 20t13 -13q-1 -13 -31 -55
t-86 -87q-146 -119 -321 -118t-281 115t-106 268t60 260t150 178q90 70 187 106t195 36zM772 1040l-170 213l-283 -213h-79l323 349h101l182 -349h-74z" />
    <glyph glyph-name="edieresis" unicode="&#xeb;" horiz-adv-x="948" 
d="M680 782q0 127 -117 127q-127 0 -236 -105q-132 -128 -147 -351q250 45 359 98q141 69 141 231zM588 946q98 0 173 -49t75 -143q0 -66 -60 -132q-85 -95 -377 -164q-102 -24 -219 -46q-4 -130 80 -220t236 -90q98 0 200 70q60 44 80 64t32 20t13 -13q-1 -13 -31 -55
t-86 -87q-146 -119 -321 -118t-281 115t-106 268t60 260t150 178q90 70 187 106t195 36zM694 1176q0 42 30 72t73 30t73 -30t29 -72q0 -42 -30 -73q-31 -30 -73 -30t-72 30t-30 73zM289 1176q-1 42 29 72t73 30t73 -30t30 -72t-30 -73q-30 -30 -73 -30t-73 30q-29 30 -29 73
z" />
    <glyph glyph-name="igrave" unicode="&#xec;" horiz-adv-x="645" 
d="M340 86q92 0 145 158q18 51 24 69q5 18 17 19q16 0 17 -19q1 -8 -13 -60q-14 -53 -47 -113t-88 -108t-137 -48t-124 50t-42 120t74 324t76 300q0 64 -64 66q-53 0 -88 -46t-53 -96q-19 -50 -27 -68q-8 -19 -18 -20q-16 0 -17 19q0 8 15 57q36 124 136 210q54 46 138 46
t123 -47t39 -108q0 -80 -74 -339t-76 -300q0 -66 64 -66zM72 1331q0 29 22 47t58 18t88 -65l221 -291h-64l-276 213q-27 21 -38 35t-11 43z" />
    <glyph glyph-name="iacute" unicode="&#xed;" horiz-adv-x="645" 
d="M340 86q92 0 145 158q18 51 24 69q5 18 17 19q16 0 17 -19q1 -8 -13 -60q-14 -53 -47 -113t-88 -108t-137 -48t-124 50t-42 120t74 324t76 300q0 64 -64 66q-53 0 -88 -46t-53 -96q-19 -50 -27 -68q-8 -19 -18 -20q-16 0 -17 19q0 8 15 57q36 124 136 210q54 46 138 46
t123 -47t39 -108q0 -80 -74 -339t-76 -300q0 -66 64 -66zM188 1040l306 297q20 19 42 39q48 44 94 2q22 -18 22 -49t-16 -48q-15 -17 -42 -34l-336 -207h-70z" />
    <glyph glyph-name="icircumflex" unicode="&#xee;" horiz-adv-x="645" 
d="M340 86q92 0 145 158q18 51 24 69q5 18 17 19q16 0 17 -19q1 -8 -13 -60q-14 -53 -47 -113t-88 -108t-137 -48t-124 50t-42 120t74 324t76 300q0 64 -64 66q-53 0 -88 -46t-53 -96q-19 -50 -27 -68q-8 -19 -18 -20q-16 0 -17 19q0 8 15 57q36 124 136 210q54 46 138 46
t123 -47t39 -108q0 -80 -74 -339t-76 -300q0 -66 64 -66zM528 1040l-170 213l-282 -213h-80l323 349h101l182 -349h-74z" />
    <glyph glyph-name="idieresis" unicode="&#xef;" horiz-adv-x="645" 
d="M340 86q92 0 145 158q18 51 24 69q5 18 17 19q16 0 17 -19q1 -8 -13 -60q-14 -53 -47 -113t-88 -108t-137 -48t-124 50t-42 120t74 324t76 300q0 64 -64 66q-53 0 -88 -46t-53 -96q-19 -50 -27 -68q-8 -19 -18 -20q-16 0 -17 19q0 8 15 57q36 124 136 210q54 46 138 46
t123 -47t39 -108q0 -80 -74 -339t-76 -300q0 -66 64 -66zM451 1176q-1 42 29 72t73 30t73 -30t30 -72t-30 -73q-30 -30 -73 -30t-73 30q-29 30 -29 73zM45 1176q0 42 30 72q31 30 73 30t72 -30t30 -72t-30 -73q-30 -30 -73 -30t-73 30t-29 73z" />
    <glyph glyph-name="eth" unicode="&#xf0;" horiz-adv-x="1062" 
d="M535 946q127 0 219 -61q-18 211 -76 348l-309 -156l-29 51l313 158q-72 137 -131 181t-59 53q-1 20 31 20t108 -50t150 -153l325 166l29 -57l-320 -160q162 -260 162 -627q0 -318 -154.5 -496.5t-400.5 -178.5q-180 0 -288.5 112.5t-108.5 304.5q0 230 149 387.5
t390 157.5zM739 639q0 270 -209 270q-166 0 -258 -197.5t-92 -420.5q0 -271 209 -271q167 0 258.5 197t91.5 422z" />
    <glyph glyph-name="ntilde" unicode="&#xf1;" horiz-adv-x="1251" 
d="M893 152q0 -66 63 -66q106 0 169 227q5 18 18 19q16 0 16 -19q0 -8 -12 -60q-12 -53 -45 -113q-85 -156 -232 -156q-86 0 -124 48t-38 106q1 84 60 319q59 236 59 294q0 119 -112 117q-129 0 -242 -200q-83 -147 -117 -289l-94 -387q-53 12 -94 12t-80 -12q25 125 85 408
t62 363q1 80 -57 80q-58 1 -94 -45q-35 -46 -53 -96q-19 -50 -27 -68q-8 -19 -18 -20q-16 0 -17 19q0 8 15 57q36 124 136 210q54 46 137 46t123 -48t40 -120t-14 -139l4 -4q88 159 174 235t196 76t171 -63q60 -63 61 -162q0 -31 -22 -135t-38 -166t-28 -118
q-12 -54 -22 -95t-9 -55zM880 1221q38 0 60 25q20 26 35 69h57q-12 -88 -64 -151q-52 -62 -123 -62t-138 32q-68 32 -105 48q-37 14 -75 14q-37 0 -65 -29t-36 -69h-61q44 214 200 217q59 1 132 -31t109 -48t74 -15z" />
    <glyph glyph-name="ograve" unicode="&#xf2;" horiz-adv-x="1062" 
d="M510 946q295 0 385 -244q29 -78 29 -182t-38 -202q-78 -203 -276 -290q-98 -44 -202 -44q-295 0 -383 243q-29 77 -29 181t38 203q78 202 275 291q97 44 201 44zM739 639q0 270 -209 270q-167 0 -266 -215q-82 -175 -84 -403q0 -271 209 -271q92 0 158 60
q126 116 172 354q20 109 20 205zM326 1331q0 29 22 47t58 18t88 -65l221 -291h-64l-276 213q-27 21 -38 35t-11 43z" />
    <glyph glyph-name="oacute" unicode="&#xf3;" horiz-adv-x="1062" 
d="M510 946q295 0 385 -244q29 -78 29 -182t-38 -202q-78 -203 -276 -290q-98 -44 -202 -44q-295 0 -383 243q-29 77 -29 181t38 203q78 202 275 291q97 44 201 44zM739 639q0 270 -209 270q-167 0 -266 -215q-82 -175 -84 -403q0 -271 209 -271q92 0 158 60
q126 116 172 354q20 109 20 205zM442 1040l306 297q20 19 42 39q48 44 94 2q22 -18 22 -49t-16 -48q-15 -17 -42 -34l-336 -207h-70z" />
    <glyph glyph-name="ocircumflex" unicode="&#xf4;" horiz-adv-x="1062" 
d="M510 946q295 0 385 -244q29 -78 29 -182t-38 -202q-78 -203 -276 -290q-98 -44 -202 -44q-295 0 -383 243q-29 77 -29 181t38 203q78 202 275 291q97 44 201 44zM739 639q0 270 -209 270q-167 0 -266 -215q-82 -175 -84 -403q0 -271 209 -271q92 0 158 60
q126 116 172 354q20 109 20 205zM782 1040l-170 213l-282 -213h-80l323 349h101l182 -349h-74z" />
    <glyph glyph-name="otilde" unicode="&#xf5;" horiz-adv-x="1062" 
d="M510 946q295 0 385 -244q29 -78 29 -182t-38 -202q-78 -203 -276 -290q-98 -44 -202 -44q-295 0 -383 243q-29 77 -29 181t38 203q78 202 275 291q97 44 201 44zM739 639q0 270 -209 270q-167 0 -266 -215q-82 -175 -84 -403q0 -271 209 -271q92 0 158 60
q126 116 172 354q20 109 20 205zM799 1221q39 -1 59 25t35 69h57q-12 -88 -64 -151q-52 -62 -123 -62t-138 32q-68 32 -105 48q-36 14 -74 14t-66 -29t-36 -69h-61q44 214 200 217q59 1 132 -31t109 -48t75 -15z" />
    <glyph glyph-name="odieresis" unicode="&#xf6;" horiz-adv-x="1062" 
d="M510 946q295 0 385 -244q29 -78 29 -182t-38 -202q-78 -203 -276 -290q-98 -44 -202 -44q-295 0 -383 243q-29 77 -29 181t38 203q78 202 275 291q97 44 201 44zM739 639q0 270 -209 270q-167 0 -266 -215q-82 -175 -84 -403q0 -271 209 -271q92 0 158 60
q126 116 172 354q20 109 20 205zM705 1176q-1 42 29 72t73 30t73 -30t30 -72t-30 -73q-30 -30 -73 -30t-73 30q-29 30 -29 73zM299 1176q0 42 30 72q31 30 73 30t72 -30t30 -72t-30 -73q-30 -30 -73 -30t-73 30t-29 73z" />
    <glyph glyph-name="divide" unicode="&#xf7;" horiz-adv-x="1228" 
d="M440 840q0 47 34 80.5t81 33.5t81 -33.5t34 -80.5t-34 -81t-81 -34t-81 34t-34 81zM440 90q0 47 34 81t81 34t81 -34t34 -81t-34 -81t-81 -34t-81 34t-34 81zM90 401v127h930v-127h-930z" />
    <glyph glyph-name="oslash" unicode="&#xf8;" horiz-adv-x="1062" 
d="M139 70q-143 108 -143 334.5t149 384t381 157.5q106 0 183 -39l120 178h78l-143 -208q160 -112 160 -345t-149 -390.5t-382 -157.5q-121 0 -203 49l-135 -201h-78zM380 20q100 0 166 60.5t109 153t63.5 201t20.5 204.5t-28 158l-480 -705q49 -72 149 -72zM530 909
q-92 0 -157.5 -61.5t-129 -197.5t-63.5 -359q0 -78 19 -133l475 698q-52 53 -144 53z" />
    <glyph glyph-name="ugrave" unicode="&#xf9;" horiz-adv-x="1251" 
d="M885 159q0 -73 63 -73q106 0 169 227q5 18 18 19q16 0 16 -19q0 -8 -13 -60q-34 -135 -136 -221q-56 -48 -141 -48t-123 48t-38 104t15 159l-4 4q-87 -170 -179 -243q-92 -72 -198 -72t-166 58q-59 58 -59 149t59 321q59 231 59 266q0 64 -63 66q-109 0 -169 -228
q-5 -18 -19 -18t-15 18q0 8 13 60q33 133 134 222q54 48 137 48t125 -48t42 -108q0 -84 -60 -321q-60 -238 -59 -294q0 -114 104 -114q136 0 249 201q60 103 84 182q25 78 34 107l94 387q54 -12 94 -12q39 0 80 12q-25 -125 -86 -415q-61 -291 -61 -364zM408 1331
q0 29 22 47t58 18t87 -65l222 -291h-64l-276 213q-27 21 -38 35t-11 43z" />
    <glyph glyph-name="uacute" unicode="&#xfa;" horiz-adv-x="1251" 
d="M885 159q0 -73 63 -73q106 0 169 227q5 18 18 19q16 0 16 -19q0 -8 -13 -60q-34 -135 -136 -221q-56 -48 -141 -48t-123 48t-38 104t15 159l-4 4q-87 -170 -179 -243q-92 -72 -198 -72t-166 58q-59 58 -59 149t59 321q59 231 59 266q0 64 -63 66q-109 0 -169 -228
q-5 -18 -19 -18t-15 18q0 8 13 60q33 133 134 222q54 48 137 48t125 -48t42 -108q0 -84 -60 -321q-60 -238 -59 -294q0 -114 104 -114q136 0 249 201q60 103 84 182q25 78 34 107l94 387q54 -12 94 -12q39 0 80 12q-25 -125 -86 -415q-61 -291 -61 -364zM524 1040l305 297
q20 19 42 39t48 20q25 0 47 -18t22 -49t-16 -48q-15 -17 -42 -34l-336 -207h-70z" />
    <glyph glyph-name="ucircumflex" unicode="&#xfb;" horiz-adv-x="1251" 
d="M885 159q0 -73 63 -73q106 0 169 227q5 18 18 19q16 0 16 -19q0 -8 -13 -60q-34 -135 -136 -221q-56 -48 -141 -48t-123 48t-38 104t15 159l-4 4q-87 -170 -179 -243q-92 -72 -198 -72t-166 58q-59 58 -59 149t59 321q59 231 59 266q0 64 -63 66q-109 0 -169 -228
q-5 -18 -19 -18t-15 18q0 8 13 60q33 133 134 222q54 48 137 48t125 -48t42 -108q0 -84 -60 -321q-60 -238 -59 -294q0 -114 104 -114q136 0 249 201q60 103 84 182q25 78 34 107l94 387q54 -12 94 -12q39 0 80 12q-25 -125 -86 -415q-61 -291 -61 -364zM864 1040l-170 213
l-282 -213h-80l323 349h101l182 -349h-74z" />
    <glyph glyph-name="udieresis" unicode="&#xfc;" horiz-adv-x="1251" 
d="M885 159q0 -73 63 -73q106 0 169 227q5 18 18 19q16 0 16 -19q0 -8 -13 -60q-34 -135 -136 -221q-56 -48 -141 -48t-123 48t-38 104t15 159l-4 4q-87 -170 -179 -243q-92 -72 -198 -72t-166 58q-59 58 -59 149t59 321q59 231 59 266q0 64 -63 66q-109 0 -169 -228
q-5 -18 -19 -18t-15 18q0 8 13 60q33 133 134 222q54 48 137 48t125 -48t42 -108q0 -84 -60 -321q-60 -238 -59 -294q0 -114 104 -114q136 0 249 201q60 103 84 182q25 78 34 107l94 387q54 -12 94 -12q39 0 80 12q-25 -125 -86 -415q-61 -291 -61 -364zM786 1176
q0 42 30 72t73 30t73 -30t30 -72t-30 -73q-30 -30 -73 -30t-73 30t-30 73zM381 1176q0 42 30 72q31 30 73 30t72 -30t30 -72t-30 -73q-30 -30 -73 -30t-73 30t-29 73z" />
    <glyph glyph-name="yacute" unicode="&#xfd;" horiz-adv-x="1024" 
d="M940 756q0 -267 -410 -754q-169 -197 -263 -268q-177 -133 -298 -131q-92 0 -141 40t-49 89q0 50 30 76q29 26 77 26t73 -20t43 -46t36 -46t57 -21q74 0 199 116q124 116 124 173q0 29 -54 188q-131 387 -160 485q-29 99 -47 113q-19 14 -47 14t-52 -37t-43 -97t-25 -75
t-17 -16q-14 -1 -14 17t15 77q36 142 120 237q46 50 100 50t85 -32t53 -97l241 -692q109 135 175 244t66 204t-57 162q-22 27 -39 53q-18 26 -18 68q0 41 28 66t73 24q87 0 125 -100q14 -36 14 -90zM887 1329q1 -31 -15 -48t-43 -34l-335 -207h-70l305 297q20 18 42 39
q47 42 95 2q22 -18 21 -49z" />
    <glyph glyph-name="thorn" unicode="&#xfe;" horiz-adv-x="1214" 
d="M721 881q-67 0 -116.5 -32t-109 -105.5t-109.5 -231.5t-50 -285t68 -160.5t128 -33.5t112 34.5t111 118t97.5 229.5t38.5 252q0 105 -51.5 159.5t-118.5 54.5zM93 -381q-50 0 -91 -16q95 434 211 950t136 616.5t20 129.5q0 30 -20.5 47.5t-45 26.5t-45 14.5t-20.5 18.5
t18 19.5t127.5 24t226.5 45.5l-180 -778h4q69 115 138 172t193 57t217 -109t93 -274q0 -123 -47 -229.5t-124 -184t-174.5 -121.5t-195.5 -44t-155 33.5t-90 62.5l-109 -477q-37 16 -87 16z" />
    <glyph glyph-name="ydieresis" unicode="&#xff;" horiz-adv-x="1024" 
d="M940 756q0 -267 -410 -754q-169 -197 -263 -268q-177 -133 -298 -131q-92 0 -141 40t-49 89q0 50 30 76q29 26 77 26t73 -20t43 -46t36 -46t57 -21q74 0 199 116q124 116 124 173q0 29 -54 188q-131 387 -160 485q-29 99 -47 113q-19 14 -47 14t-52 -37t-43 -97t-25 -75
t-17 -16q-14 -1 -14 17t15 77q36 142 120 237q46 50 100 50t85 -32t53 -97l241 -692q109 135 175 244t66 204t-57 162q-22 27 -39 53q-18 26 -18 68q0 41 28 66t73 24q87 0 125 -100q14 -36 14 -90zM686 1176q0 42 30 72t72 30t73 -30q30 -30 30 -72t-30 -73
q-30 -30 -73 -30q-42 0 -72 30t-30 73zM281 1176q-1 42 29 72t73 30t73 -30t30 -72t-30 -73q-30 -30 -73 -30t-73 30q-29 30 -29 73z" />
    <glyph glyph-name="dotlessi" unicode="&#x131;" horiz-adv-x="645" 
d="M276 152q0 -66 64 -66q92 0 145 158q18 51 23.5 69.5t19.5 18.5t14 -14t-13 -65.5t-45.5 -112t-88 -108.5t-137.5 -48t-124 50t-42 119t75 328.5t75 296.5q0 66 -64 66q-53 0 -88 -46t-53 -96t-26.5 -69t-18.5 -19q-16 0 -17 19q0 8 14.5 57t75.5 152.5t195 103.5
q88 0 127 -47t39 -117t-75 -334t-75 -296z" />
    <glyph glyph-name="OE" unicode="&#x152;" horiz-adv-x="2314" 
d="M2220 952q0 -26 -22 -24q-18 0 -24.5 25t-26.5 97q-45 164 -172 228.5t-392 64.5l-133 -589q207 0 279.5 70t87 116.5t24.5 88.5t27 42q18 0 18 -14t-2 -29.5t-8 -47.5t-19 -88t-37 -170t-38.5 -187.5t-23.5 -110.5t-15.5 -45t-18.5 -8t-15 6t-3 20l10 103
q0 97 -57.5 151t-220.5 54q-73 -348 -96 -446.5t-23 -127.5q-1 -86 149 -86q278 0 510 223q56 54 101 133.5t60 107.5t31 28t17 -17q0 -17 -57.5 -153t-153.5 -371h-87l-507 4q-72 0 -142.5 -2t-141.5 -2l24 123q-212 -152 -454 -152q-145 0 -261 55.5t-239 192.5t-123 379
q0 197 76 350.5t194.5 260t263.5 161.5t293 55t270 -65.5t204 -167.5l43 205l340 -4l444 4q14 -131 23.5 -210t16.5 -142t7 -89zM330.5 894.5q-68.5 -209.5 -68.5 -433.5t112.5 -334.5t297.5 -110.5t320 133t204.5 343t69.5 434q0 225 -111.5 335.5t-297.5 110.5t-322 -134
t-204.5 -343.5z" />
    <glyph glyph-name="oe" unicode="&#x153;" horiz-adv-x="1554" 
d="M1309 782q0 127 -117 127q-146 0 -238 -147.5t-96 -306.5q226 41 338.5 102.5t112.5 224.5zM827 774q169 172 387 172q102 0 176 -49t74 -143q0 -120 -128.5 -197t-477.5 -143q0 -121 69 -216.5t184 -95.5t195 58t100 77t32 19t12 -13t-29.5 -54.5t-129.5 -123
t-269 -81.5q-96 0 -168 44t-115 113q-66 -76 -163 -116.5t-190 -40.5q-179 0 -284.5 114t-105.5 322t146 367t360 159q98 0 186 -43t139 -129zM506 909q-86 0 -148.5 -61.5t-120 -201.5t-57.5 -388q0 -115 54.5 -176.5t145.5 -61.5q161 0 241.5 202t80.5 445q0 242 -196 242
z" />
    <glyph glyph-name="Scaron" unicode="&#x160;" horiz-adv-x="1214" 
d="M844 367q0 76 -47 127q-74 80 -270 169t-275 197q-47 66 -47 154q0 171 135 290t336 117q140 0 302 -81q32 -15 58 -15t47 32q7 11 15 21t20 11q23 0 23 -25t-16 -125t-31 -213q-15 -112 -20 -138t-10 -32t-15 -6q-18 0 -21 17q-2 17 -6 75t-27 141q-79 289 -329 289
q-127 0 -201 -78t-75 -174t46 -148t119 -93t154 -78q81 -37 153 -85q166 -111 166 -300t-162 -319t-379 -130q-128 0 -245 49q-43 18 -79 34t-72 16t-55 -15t-36 -48q-6 -11 -24 -11t-17 16q0 8 3 20t22 86q53 212 77 358t30 156q7 11 17 11t16 -3q11 -7 11 -51v-65
q0 -344 169 -458q69 -46 179 -46q161 0 261 88t100 263zM557 1804l170 -213l283 213h80l-324 -348h-100l-183 348h74z" />
    <glyph glyph-name="scaron" unicode="&#x161;" horiz-adv-x="948" 
d="M-4 217q0 127 96 127q52 0 72 -45t27 -121t32 -104q44 -52 153 -53q110 -1 180 53t69 141q0 51 -49 92t-203 94t-222 131q-38 45 -38 115q0 137 109 218t267 81t246 -62t88 -134q0 -99 -85 -99t-110 86q-7 25 -14 71t-27 66q-38 35 -125 35t-140 -48q-54 -48 -54 -106
t38 -92q63 -56 217 -109q257 -88 257 -252q0 -138 -108 -229t-301 -90t-284 69t-91 165zM352 1389l170 -213l283 213h80l-324 -349h-100l-182 349h73z" />
    <glyph glyph-name="Ydieresis" unicode="&#x178;" horiz-adv-x="1214" 
d="M74 1362q0 18 9 24t42 7l246 -4l215 4q35 0 35 -29q0 -16 -27 -18q-26 -2 -58 -8t-59 -25q-40 -27 -22 -99q18 -73 66 -208q49 -135 100 -285q220 235 284 327t79 130t15 76q0 60 -54 77q-19 6 -37 10q-17 3 -17 21t7 24t30 7l243 -4l166 4q33 0 33 -29q0 -18 -16 -22
q-122 -27 -251 -162q-129 -136 -241 -267t-225 -260q-35 -156 -55 -249t-37 -164t-17 -106q0 -34 25 -54t55 -26t54 -9q25 -2 24 -20q0 -17 -7 -23t-30 -6l-229 4l-281 -4q-25 0 -24 24q1 23 29 26t66 11t75 34t51 91l104 469l-217 604q-18 54 -88 72q-25 6 -43 12
q-18 5 -18 23zM852 1591q0 43 30 73t72 30t73 -30q30 -30 30 -73t-30 -73t-73 -29q-42 -1 -72 29t-30 73zM446 1591q0 43 30 73t73 30t73 -30t30 -73t-30 -73t-73 -29q-43 -1 -73 29t-30 73z" />
    <glyph glyph-name="Zcaron" unicode="&#x17d;" horiz-adv-x="1290" 
d="M915 1343q-424 0 -641 -296q-33 -45 -53 -75q-19 -30 -37 -30t-18 18t194 433l282 -2l237 -2l278 2l115 2q20 0 20 -17q0 -8 -13 -20t-30 -33l-1085 -1278h168q188 0 318 66t211 147t122 159q41 77 52 99t24 23q23 0 22 -25q-1 -17 -71 -182q-70 -166 -138 -336l-221 2
l-286 2l-433 -4q-38 0 -38 8t11 16t23 25l1096 1298h-109zM596 1804l170 -213l283 213h79l-323 -348h-100l-183 348h74z" />
    <glyph glyph-name="zcaron" unicode="&#x17e;" horiz-adv-x="1024" 
d="M639 61q53 0 83 26q30 25 30 57t-16 50t-38 35q-20 15 -36 35t-17 55q0 35 26 66t84 31t91 -41t33 -95q0 -114 -79 -194q-101 -104 -284 -102q-116 0 -219 79q-39 31 -69 56t-66 25q-54 -1 -95 -81q-17 -31 -39 -55t-61 -24q-53 0 -53 53q0 61 115 106q51 21 63 33
l580 529l-4 4q-12 -4 -28 -4h-38q-105 0 -181 90q-54 65 -111 65q-56 0 -84 -31t-28 -69t19 -58q18 -18 40 -33t40 -33t18 -58q1 -39 -29 -67t-83 -28t-92 36t-39 112q0 137 113 227t214 89q102 -1 192 -66t141 -65q52 0 76 20t40 45t28 45t32 20q18 0 32 -13t14 -37
t-59 -71l-651 -571l4 -4q24 4 74 4q81 0 167 -96q33 -37 65 -67t85 -30zM391 1389l170 -213l283 213h80l-324 -349h-100l-183 349h74z" />
    <glyph glyph-name="florin" unicode="&#x192;" 
d="M931 1434q-52 0 -106.5 -39t-121.5 -144t-89 -321h228l-45 -103h-201q-125 -514 -284 -869t-429 -355q-66 0 -97.5 29.5t-31.5 75.5t30 81t79 35t73.5 -16.5t41 -35t28.5 -35t29 -16.5q74 0 116 84t75.5 231.5t72.5 350.5t107 440h-162q94 63 192.5 191.5t234 302.5
t345.5 174q70 0 119 -34t49 -107t-40 -97t-77 -24t-62.5 26.5t-25.5 81.5l4 70q0 23 -52 23z" />
    <glyph glyph-name="circumflex" unicode="&#x2c6;" horiz-adv-x="645" 
d="M573 1040l-170 213l-282 -213h-80l324 349h100l182 -349h-74z" />
    <glyph glyph-name="caron" unicode="&#x2c7;" horiz-adv-x="645" 
d="M201 1389l170 -213l282 213h80l-323 -349h-101l-182 349h74z" />
    <glyph glyph-name="ring" unicode="&#x2da;" horiz-adv-x="645" 
d="M264 1245q0 -55 39 -95t95 -40t96.5 40t40.5 95t-40.5 95t-96.5 40t-95 -40t-39 -95zM195 1245q0 88 60 146.5t145 58.5t144.5 -59.5t59.5 -145.5t-59.5 -145.5t-144.5 -59.5t-145 58.5t-60 146.5z" />
    <glyph glyph-name="tilde" unicode="&#x2dc;" horiz-adv-x="645" 
d="M386 1149q-99 47 -143 47t-72 -28.5t-36 -69.5h-61q30 148 91.5 182.5t114.5 34.5q53 1 126 -31t109 -47.5t75 -15.5t59.5 25.5t34.5 68.5h57q-12 -87 -64.5 -150t-122 -63t-168.5 47z" />
    <glyph glyph-name="endash" unicode="&#x2013;" horiz-adv-x="1024" 
d="M975 524l-29 -118h-1052l28 118h1053z" />
    <glyph glyph-name="emdash" unicode="&#x2014;" horiz-adv-x="2048" 
d="M1999 524l-29 -118h-2076l28 118h2077z" />
    <glyph glyph-name="quoteleft" unicode="&#x2018;" horiz-adv-x="454" 
d="M106 1088q0 139 150 301q59 66 105.5 94t60.5 28q20 0 20 -22q0 -14 -30.5 -31.5t-80.5 -69.5q-106 -111 -106 -180q0 -35 54 -49q41 -12 63.5 -33.5t22.5 -68.5t-36.5 -83t-92.5 -36t-93 37.5t-37 112.5z" />
    <glyph glyph-name="quoteright" unicode="&#x2019;" horiz-adv-x="454" 
d="M500 1345q0 -139 -150 -301q-59 -66 -104.5 -94t-63.5 -28t-18 18t31 36t81 70q106 110 105 179q0 35 -53 49q-41 12 -63.5 33.5t-22.5 68.5t36 83t92 36t93 -37.5t37 -112.5z" />
    <glyph glyph-name="quotesinglbase" unicode="&#x201a;" horiz-adv-x="454" 
d="M193 62q0 -75 -36.5 -145.5t-104.5 -145.5t-114.5 -103t-60.5 -28q-20 0 -20 22q0 14 30.5 32t80.5 70q106 111 106 179q0 35 -54 49q-41 12 -63.5 33.5t-22.5 68.5t36 83t92 36t93.5 -38t37.5 -113z" />
    <glyph glyph-name="quotedblleft" unicode="&#x201c;" horiz-adv-x="909" 
d="M143 1088q0 139 150 301q59 66 105 94t64 28t17 -18q0 -18 -30.5 -35.5t-80.5 -69.5q-106 -110 -106 -180q0 -35 53 -49q41 -12 63.5 -33.5t22.5 -68.5t-35.5 -83t-91.5 -36t-93.5 37.5t-37.5 112.5zM561 1088q0 139 150 301q59 66 105 94t64 28t17 -18
q0 -18 -30.5 -35.5t-80.5 -69.5q-106 -110 -106 -180q0 -35 53 -49q41 -12 63.5 -33.5t22.5 -68.5t-35.5 -83t-91.5 -36t-93.5 37.5t-37.5 112.5z" />
    <glyph glyph-name="quotedblright" unicode="&#x201d;" horiz-adv-x="909" 
d="M918 1345q0 -139 -150 -301q-59 -66 -105.5 -94t-60.5 -28q-20 0 -20 22q0 14 30.5 32t80.5 70q106 111 106 179q0 35 -54 49q-41 12 -63.5 33.5t-22.5 68.5t36.5 83t92.5 36t93 -37.5t37 -112.5zM500 1345q0 -139 -150 -301q-59 -66 -104.5 -94t-63.5 -28t-18 18t31 36
t81 70q106 110 105 179q0 35 -53 49q-41 12 -63.5 33.5t-22.5 68.5t36 83t92 36t93 -37.5t37 -112.5z" />
    <glyph glyph-name="quotedblbase" unicode="&#x201e;" horiz-adv-x="909" 
d="M610 54q0 -75 -36 -145.5t-104 -145.5t-114.5 -103.5t-60.5 -28.5q-21 1 -21 19t31 35.5t81 69.5q106 110 106 179q0 34 -48 48t-70 35.5t-22 68.5t36 83t92 36t93 -38t37 -113zM193 54q0 -75 -36.5 -145.5t-104.5 -145.5t-114.5 -103.5t-60.5 -28.5q-20 0 -20 23
q0 14 30.5 31.5t80.5 69.5q106 110 106 179q0 34 -48 48t-70 35.5t-22 68.5t36 83t92 36t93.5 -38t37.5 -113z" />
    <glyph glyph-name="dagger" unicode="&#x2020;" horiz-adv-x="1024" 
d="M468 975q56 0 56 95q0 44 -13 87t-13 103t33.5 110.5t91.5 50.5q84 0 84 -86q0 -68 -50.5 -145.5t-73 -113.5t-22.5 -56q0 -45 40 -45t112.5 26.5t106.5 39t62 12.5t46 -26.5t18 -64.5t-32 -64t-78 -26t-74.5 10.5t-80 33t-86.5 22.5q-36 0 -48 -16t-12 -48
q0 -97 38 -145q-93 -183 -137.5 -333t-71 -283t-63.5 -326h-49q137 685 137 940q109 109 109 174q0 23 -14.5 30t-42.5 7q-31 0 -116.5 -28.5t-129.5 -28.5q-84 1 -84 81q0 38 34.5 64.5t82.5 26.5t78 -12.5t80 -39t82 -26.5z" />
    <glyph glyph-name="daggerdbl" unicode="&#x2021;" horiz-adv-x="1024" 
d="M437 205q-54 1 -54 -95q0 -44 13.5 -87t13.5 -103t-34 -111t-91 -51q-84 0 -84 86q0 68 50 146t72.5 113.5t22.5 56.5q0 45 -40 45t-146 -39t-134 -39t-46.5 26.5t-18.5 64.5t33 63.5t78 25.5q56 0 130.5 -32.5t109.5 -32.5q36 0 48.5 16t12.5 45q0 100 -39 139
q35 49 55.5 108.5t20.5 98.5t-17 90q105 101 105 162q0 23 -14.5 30t-42.5 7q-31 0 -116.5 -28.5t-129.5 -28.5q-84 1 -84 81q0 38 34.5 64.5t82.5 26.5t78 -12.5t80.5 -39t81.5 -26.5q56 0 56 95q0 44 -13 87t-13 103t34 110.5t91 50.5q84 0 84 -86q0 -68 -50.5 -145.5
t-73 -113.5t-22.5 -56q0 -45 40 -45t112.5 26.5t106.5 39t62 12.5t46 -26.5t18 -64.5t-32 -64t-78 -26t-74.5 10.5t-80 33t-86.5 22.5q-36 0 -48 -16.5t-12 -44.5q0 -80 36 -138q-75 -114 -75 -196q0 -37 22 -90q-109 -109 -108 -174q0 -23 14 -30t42 -7q31 0 116.5 28.5
t129.5 28.5q85 0 85 -81q0 -38 -35 -64.5t-83 -26.5t-78 12.5t-82 39t-82 26.5z" />
    <glyph glyph-name="bullet" unicode="&#x2022;" horiz-adv-x="1024" 
d="M111 694.5q0 71.5 27.5 134t74.5 109.5t109.5 74.5t134 27.5t134 -27.5t110 -74.5t75 -109.5t27.5 -134t-27.5 -134t-75 -110t-110 -75t-134 -27.5t-134 27.5t-109.5 75t-74.5 110t-27.5 134z" />
    <glyph glyph-name="ellipsis" unicode="&#x2026;" horiz-adv-x="2048" 
d="M1551 -16q-105 0 -105 102q0 54 38 90.5t86 36.5q105 1 105 -101q0 -54 -38 -91t-86 -37zM870 -16q-106 0 -106 102q0 54 38 90.5t86 36.5q105 1 105 -101q0 -54 -37.5 -91t-85.5 -37zM188 -16q-106 0 -106 102q0 54 38 90.5t86 36.5q105 1 105 -101q0 -54 -37.5 -91
t-85.5 -37z" />
    <glyph glyph-name="perthousand" unicode="&#x2030;" horiz-adv-x="2048" 
d="M1034 696q-95 0 -163 -191.5t-68 -365.5q0 -72 22.5 -95.5t73.5 -23.5q94 0 162.5 190t68.5 368q0 72 -22.5 95t-73.5 23zM1010 733q122 0 195 -69.5t73 -202.5q0 -195 -105.5 -336t-275.5 -141q-104 0 -173 67t-69 179t27 200t75 155.5t117.5 107.5t135.5 40zM384 1405
q124 0 195.5 -70t71.5 -202q0 -196 -105.5 -337t-275.5 -141q-104 0 -172.5 66.5t-68.5 179.5t26.5 201t74.5 155.5t118 107.5t136 40zM1744 733q124 0 195.5 -70t71.5 -202q0 -195 -105 -336t-276 -141q-104 0 -172.5 67t-68.5 179t26.5 200t74.5 155.5t118 107.5t136 40z
M408 1368q-51 0 -94.5 -59.5t-90.5 -192t-47 -305.5q0 -72 22.5 -95.5t73.5 -23.5t94.5 59.5t90.5 192t47 305.5q0 72 -22.5 95.5t-73.5 23.5zM1360 1405l-1284 -1421h-96l1286 1421h94zM1767 696q-95 0 -163 -191.5t-68 -365.5q0 -72 22.5 -95.5t73.5 -23.5q94 0 163 191.5
t69 366.5q0 72 -23 95t-74 23z" />
    <glyph glyph-name="guilsinglleft" unicode="&#x2039;" horiz-adv-x="681" 
d="M340 109q0 -25 -27 -25q-12 0 -29.5 22.5t-43 58.5t-71.5 96t-72.5 95t-47 59.5t-20.5 34.5q0 11 5 18t22.5 21.5t51 42.5t109.5 94q84 73 166.5 146.5t89.5 73.5q19 0 19 -18t-86.5 -104.5t-243.5 -264.5q53 -102 115.5 -220t62.5 -130z" />
    <glyph glyph-name="guilsinglright" unicode="&#x203a;" horiz-adv-x="681" 
d="M178 821q0 25 27 25q12 0 29 -22q18 -22 44 -59q26 -36 72 -96q98 -129 118 -154q21 -25 21 -38t-41 -48t-132 -114q-91 -78 -144 -125q-120 -106 -127 -106q-18 0 -18 18t86 104t243 265q-54 102 -116 220t-62 130z" />
    <glyph glyph-name="Euro" unicode="&#x20ac;" 
d="M1047 971q0 385 -242 385q-117 0 -220.5 -121t-174.5 -365h391l-13 -61h-397q-13 -45 -26 -115l-11 -55h398l-13 -61h-397q-18 -127 -18 -220q0 -166 53 -245.5t132 -79.5q150 0 270.5 114.5t172.5 286.5q14 47 35 47t14 -32l-90 -433q-6 -33 -30 -32q-12 0 -14.5 14
t-4.5 32.5t-9 33t-31 14.5t-105 -47t-198 -47t-185 37.5t-138.5 138t-70.5 319.5q0 49 6 99h-151l12 61h147q11 77 43 170h-153l12 61h164q97 232 275.5 383.5t334.5 151.5q124 0 189 -55.5t87.5 -55.5t33 16.5t18.5 35t14.5 35t24.5 16.5t12 -33l-98 -459q-6 -33 -27 -33
q-14 0 -18 21.5t-4 77.5z" />
    <glyph glyph-name="trademark" unicode="&#x2122;" horiz-adv-x="2027" 
d="M1053 1198v-434q0 -66 20.5 -92.5t85.5 -32.5v-49h-266v49q66 6 84 32.5t18 92.5v475q0 41 -42.5 70.5t-92.5 29.5v50h256l301 -584l316 584h221v-50q-66 -4 -90.5 -32.5t-24.5 -81.5v-477q0 -76 10.5 -87.5t31 -14.5t58.5 -7v-49h-333v37q37 4 56 7t28.5 15.5t9.5 98.5
v423h-4l-310 -589h-18l-311 616h-4zM489 748q0 -74 10.5 -86.5t31 -15.5t59.5 -7v-49h-338v49q37 4 57.5 7t30.5 14.5t10 87.5v591h-98q-66 0 -95.5 -41t-43.5 -96h-41v187h694v-187h-41q-12 55 -42 96t-93 41h-101v-591z" />
    </font>
</defs>
</svg>
