<?xml version="1.0" standalone="no"?>
<!DOCTYPE svg PUBLIC "-//W3C//DTD SVG 1.1//EN" "http://www.w3.org/Graphics/SVG/1.1/DTD/svg11.dtd" >
<svg xmlns="http://www.w3.org/2000/svg">
<metadata>
Created by FontPrep 20130207 at Fri Jul 10 17:35:01 2015
 By Lars
Font software Copyright 1990, 2001 Adobe Systems Incorporated. Typeface designs Copyright 2008 International Typeface Corporation. All rights reserved.
</metadata>
<defs>
<font id="3793dd7a0c72f941c84c5e828bb7be3c" horiz-adv-x='1024' >
  <font-face 
    font-family="ITCCaslon224W01-Book"
    font-weight="400"
    font-stretch="normal"
    units-per-em="2048"
    panose-1="2 3 5 3 6 5 6 2 4 4"
    ascent="1495"
    descent="-553"
    x-height="934"
    cap-height="1393"
    bbox="-180 -451 2234 1880"
    underline-thickness="102"
    underline-position="-102"
    unicode-range="U+0020-2122"
  />
<missing-glyph horiz-adv-x="569" 
 />
    <glyph glyph-name=".notdef" horiz-adv-x="569" 
 />
    <glyph glyph-name=".null" horiz-adv-x="0" 
 />
    <glyph glyph-name="nonmarkingreturn" horiz-adv-x="681" 
 />
    <glyph glyph-name="space" unicode=" " horiz-adv-x="569" 
 />
    <glyph glyph-name="exclam" unicode="!" horiz-adv-x="796" 
d="M289 92q0 47 33.5 78t74.5 31t75 -31t34 -78t-34 -77.5t-75 -30.5t-74.5 30.5t-33.5 77.5zM283 1225q0 196 114.5 196t114.5 -196q0 -92 -47 -335.5t-47 -416.5l2 -47q0 -25 -22.5 -25t-22.5 25l2 47q0 168 -33 339t-47 256t-14 157z" />
    <glyph glyph-name="quotedbl" unicode="&#x22;" horiz-adv-x="681" 
d="M125 1255q-18 166 68 166t69 -166l-35 -417q-2 -12 -5.5 -38t-27.5 -26t-28 25.5t-6 38.5zM420 1255q-18 166 68 166t69 -166l-35 -417q-2 -12 -6 -38t-28 -26t-27.5 25.5t-5.5 38.5z" />
    <glyph glyph-name="numbersign" unicode="#" 
d="M461 840l-43 -291h276l43 291h-276zM1016 442h-223l-64 -442h-115l66 442h-277l-63 -442h-115l66 442h-225v107h239l43 291h-225v106h239l64 443h115l-66 -443h277l63 443h115l-66 -443h209v-106h-223l-43 -291h209v-107z" />
    <glyph glyph-name="dollar" unicode="$" 
d="M555 854q42 -29 113 -61l172 354q-27 43 -88 108zM586 621l-115 57l-170 -356q32 -80 74 -132zM600 61q114 0 179 80.5t65 177.5q0 189 -221 283l-217 -446q29 -35 82.5 -65t111.5 -30zM575 1331q-96 0 -157.5 -58.5t-61.5 -155.5q0 -148 166 -245l197 408
q-18 16 -58 33.5t-86 17.5zM1008 401q0 -169 -124 -272.5t-242 -103.5t-177 22.5t-94 36.5l-119 -252h-45l123 266q-20 10 -60 10q-77 1 -108 -69l-99 -207h-38l61 143q90 209 90 293v332q0 39 19 39q14 0 18 -19.5t14 -90t52 -158.5l159 325q-87 56 -154 130t-67 216
q0 141 108.5 233.5t256.5 92.5q86 0 168 -29l110 217h43l-117 -231q39 -20 72 -20t54.5 14t45.5 63l89 174h34q-90 -176 -100 -252.5t-10 -134.5l8 -264q0 -29 -23 -28q-12 0 -17 17t-16.5 77.5t-56.5 132.5l-159 -332q301 -143 301 -371z" />
    <glyph glyph-name="percent" unicode="%" horiz-adv-x="1327" 
d="M995.5 729q67.5 0 123 -28.5t94 -78t60 -118t21.5 -148.5t-21.5 -148.5t-60 -117.5t-94 -77.5t-123 -28.5t-123 28.5t-94.5 77.5t-60.5 117.5t-21.5 148.5t21.5 148.5t60.5 118t94.5 78t123 28.5zM331.5 1405q67.5 0 123 -28.5t94.5 -78t60.5 -118t21.5 -148.5
t-21.5 -148.5t-60.5 -117.5t-94.5 -78t-123 -29t-122.5 29t-94 78t-60.5 117.5t-21.5 148.5t21.5 148.5t60.5 118t94 78t122.5 28.5zM995.5 692q-61.5 0 -98.5 -94t-37 -241.5t37 -242t98.5 -94.5t98 94.5t36.5 242t-36.5 241.5t-98 94zM1176 1405l-951 -1421h-73l950 1421
h74zM331.5 1368q-61.5 0 -98 -94t-36.5 -241.5t36.5 -242t98 -94.5t98.5 94.5t37 242t-37 241.5t-98.5 94z" />
    <glyph glyph-name="ampersand" unicode="&#x26;" horiz-adv-x="1517" 
d="M279 471q0 -175 104 -302.5t269 -127.5t300 139q-102 170 -218.5 297.5t-291.5 251.5q-163 -27 -163 -258zM1495 804q0 -19 -20.5 -23.5t-79 -20t-109.5 -105.5l-201 -362q43 -104 108 -172t131 -68t102 30t54 73t32 43q16 -1 16 -17t-13.5 -51t-65.5 -99.5t-159 -64.5
q-106 0 -177 45t-138 135q-99 -90 -195.5 -135t-221.5 -45q-224 0 -344 126t-120 284t105 258.5t211 120.5q-55 43 -101.5 125t-46.5 172q0 171 100 269.5t237 98.5q138 0 232.5 -82.5t94.5 -224.5q0 -217 -260 -313l71 -58q100 -80 188.5 -188.5t141.5 -218.5
q109 177 109 294t-53.5 131.5t-77 17.5t-23.5 26q0 18 31 18l186 -4l211 4q45 0 45 -19zM637 827q186 83 186 265q0 157 -60.5 224.5t-150.5 67.5t-152.5 -65.5t-62.5 -163.5q0 -94 59.5 -166t180.5 -162z" />
    <glyph glyph-name="quotesingle" unicode="'" horiz-adv-x="454" 
d="M158 1255q-18 166 68 166t69 -166l-35 -417q-2 -12 -6 -38t-28 -26t-27.5 25.5t-5.5 38.5z" />
    <glyph glyph-name="parenleft" unicode="(" horiz-adv-x="796" 
d="M139 643q0 379 307 682q107 107 188 138.5t94 31.5t13 -8t-47.5 -30t-120.5 -87q-258 -238 -258 -900.5t201 -770t213 -112.5t12 -13t-13 -8q-34 0 -203 95t-277.5 349t-108.5 633z" />
    <glyph glyph-name="parenright" unicode=")" horiz-adv-x="796" 
d="M657 417q0 -380 -307 -681q-110 -110 -189 -140t-93 -30t-13 8q0 8 42 25t126 92q258 238 258 876t-185.5 763t-213 137t-27.5 20t13 8q33 0 203 -95.5t278 -349t108 -633.5z" />
    <glyph glyph-name="asterisk" unicode="*" horiz-adv-x="985" 
d="M819 1209q0 -32 -24.5 -56.5t-70.5 -34.5t-94 -8t-87 -12q35 25 54 65.5t57 84.5t78 44t63.5 -25.5t23.5 -57.5zM694.5 1028q124.5 0 124.5 -96q0 -35 -23.5 -61.5t-52.5 -26.5t-51 13t-46.5 40.5t-50.5 75t-52 67.5q27 -12 151.5 -12zM491.5 1421q34.5 0 58 -22.5
t23.5 -61.5t-12 -67.5t-27.5 -55t-28.5 -50t-13 -50.5q0 27 -13.5 50.5t-41 70.5t-27.5 94t23.5 69.5t58 22.5zM164 1209q0 32 23.5 57.5t63.5 25.5t78 -44t57.5 -85t53.5 -65q-39 14 -87 12t-94 8t-70.5 34.5t-24.5 56.5zM491.5 717q-34.5 0 -58 22.5t-23.5 61.5t12 67.5
t27.5 55t29 50t13.5 50.5q0 -27 13 -50.5t40.5 -70.5t27.5 -94t-23.5 -69.5t-58 -22.5zM164 932q0 61 96 88q31 8 92 8t88 12q-26 -20 -73.5 -108t-116.5 -88q-39 0 -62.5 26.5t-23.5 61.5z" />
    <glyph glyph-name="plus" unicode="+" horiz-adv-x="1228" 
d="M684 930v-395h395v-140h-395v-395h-139v395h-395v140h395v395h139z" />
    <glyph glyph-name="comma" unicode="," horiz-adv-x="569" 
d="M168 95q0 38 29.5 72t95.5 34t105.5 -55.5t39.5 -130.5t-29.5 -144.5t-68.5 -125.5t-78 -93t-58 -37q-20 0 -20 15t78 94.5t78 191.5q0 63 -35 72q-16 4 -39.5 8t-45 13t-37 28.5t-15.5 57.5z" />
    <glyph glyph-name="hyphen" unicode="-" horiz-adv-x="681" 
d="M592 385h-502v156h502v-156z" />
    <glyph glyph-name="period" unicode="." horiz-adv-x="569" 
d="M176 92q0 47 34 78t75 31t74.5 -31t33.5 -78t-33.5 -77.5t-74.5 -30.5t-75 30.5t-34 77.5z" />
    <glyph glyph-name="slash" unicode="/" horiz-adv-x="569" 
d="M68 -33h-140l574 1454h139z" />
    <glyph glyph-name="zero" unicode="0" 
d="M569 1368q-282 0 -282 -685q0 -335 67.5 -499t214.5 -164q283 0 283 674q0 346 -67.5 510t-215.5 164zM569.5 1405q98.5 0 186.5 -57.5t154.5 -154.5t106.5 -226t40 -272.5t-40 -272.5t-106.5 -226.5t-154.5 -154.5t-186.5 -57t-186.5 57t-154.5 154.5t-106.5 226.5
t-40 272.5t40 272.5t106.5 226t154.5 154.5t186.5 57.5z" />
    <glyph glyph-name="one" unicode="1" 
d="M188 18q0 14 11 20.5t75 6.5q143 0 190.5 31t47.5 141v934q0 27 -9 38t-34 11h-272q-29 0 -29 22t162.5 38t378.5 157v-1200q0 -109 41.5 -140.5t175.5 -31.5q47 0 58 -6t11 -21q0 -23 -26 -22l-89 1l-665 -1q-27 0 -27 22z" />
    <glyph glyph-name="two" unicode="2" 
d="M130 993q-15 1 -15 21t12 56t56.5 111.5t152 149.5t263.5 74t282.5 -111.5t126.5 -287.5t-114 -266.5t-201 -139.5t-176 -105.5t-170 -130t-136 -180.5h557q111 0 150.5 43t49 62.5t17.5 21.5q20 2 21 -22q0 -7 -27 -83.5t-43 -123.5t-29 -82h-817q10 129 66.5 221
t136.5 165t169 133.5t164.5 124t126 139t50.5 159.5q0 151 -84 239.5t-234 88.5q-94 0 -166.5 -48t-111.5 -108t-50.5 -90.5t-26.5 -30.5z" />
    <glyph glyph-name="three" unicode="3" 
d="M999 457q0 -57 -27.5 -138t-138.5 -208t-393 -127q-169 0 -280 85.5t-111 183.5q0 44 28.5 68.5t76.5 24.5t87.5 -47t56.5 -116q37 -150 210 -150q131 0 229.5 94.5t98.5 243.5q0 95 -53 192t-124 129q-71 31 -116 31t-57.5 2t-12.5 15t17.5 18.5t67 18.5t100.5 68
t51 188q0 134 -67 199.5t-163 65.5t-147 -30.5t-82 -68.5t-47.5 -68.5t-29.5 -30.5t-13 18q0 6 19.5 51t101.5 140.5t262 95.5q144 0 247 -93.5t103 -224.5q0 -132 -113 -243q219 -150 219 -387z" />
    <glyph glyph-name="four" unicode="4" 
d="M631 500v674h-4l-488 -674h492zM451 20q0 24 27.5 26.5t61 8.5t62.5 30t29 91v217h-541l-33 74l664 922h106v-889h222l-37 -107h-185v-217q0 -68 28 -91.5t61.5 -29.5t62.5 -8.5t29 -26.5t-27 -24h-21l-85 2l-146 1l-252 -3q-26 0 -26 24z" />
    <glyph glyph-name="five" unicode="5" 
d="M981 1466q14 0 14 -9t-75 -253h-596l-37 -258q20 4 27 4h87q259 0 392 -114.5t178 -203.5t45 -181t-40 -177.5t-148.5 -187.5t-317.5 -102q-164 0 -275.5 75t-111.5 137t23.5 86.5t65.5 24.5t68.5 -20.5t47 -51t40 -65.5t64 -86t157.5 -51t196 91.5t83 213.5
q0 224 -174 330t-399 106h-34q-34 0 -56 -4l18 84q43 217 57.5 336t24.5 199h549q69 0 85.5 26.5t22 38.5t19.5 12z" />
    <glyph glyph-name="six" unicode="6" 
d="M303 475q0 -442 291 -442q262 0 262 377q0 268 -102 328.5t-178 60.5t-148 -39t-109 -105q-16 -53 -16 -180zM1061 415q0 -79 -36 -162t-133.5 -176t-307.5 -93q-92 0 -179.5 43t-197 170.5t-109.5 393.5q0 267 171.5 451t330 262t219 97.5t66.5 19.5q16 0 16 -16
q0 -10 -98.5 -51t-241.5 -178q-90 -90 -150.5 -194.5t-93.5 -260.5l5 -4q108 131 306 131q102 0 188.5 -42t141 -104.5t79 -135t24.5 -151.5z" />
    <glyph glyph-name="seven" unicode="7" 
d="M303 1204q-94 0 -122.5 -54t-37.5 -54q-16 0 -16 14q0 8 18 55l84 224h752l45 -86q-416 -580 -416 -1319q-43 16 -112.5 16t-112.5 -16q5 463 222.5 780t312.5 440h-617z" />
    <glyph glyph-name="eight" unicode="8" 
d="M885 1077q0 132 -77.5 211.5t-197.5 79.5t-191 -73.5t-71 -176.5q0 -167 158 -247t239 -113q140 95 140 319zM213 413q0 -167 91 -280t242 -113q152 0 237 77t85 187t-48 171t-119.5 104t-154.5 78t-153 76q-78 -35 -129 -124t-51 -176zM362 733q-198 131 -198 321
q0 64 33.5 130.5t126 143.5t262.5 77t287.5 -94.5t117.5 -243.5t-87 -225t-130 -101q206 -97 242.5 -199t36.5 -145q0 -195 -149 -304t-345 -109t-297.5 80.5t-138.5 150t-37 139.5q0 129 78 225.5t198 153.5z" />
    <glyph glyph-name="nine" unicode="9" 
d="M836 897q0 459 -291 459q-262 0 -262 -377q0 -272 102 -330.5t178 -58.5t147.5 39t108.5 104q17 56 17 164zM510 541q-102 0 -188 42t-140.5 104.5t-79 135.5t-24.5 151t36 161.5t133.5 176.5t307.5 93q92 0 179 -43t196.5 -171t109.5 -394t-171 -450t-329.5 -262.5
t-219 -98t-66.5 -19.5q-16 0 -16 17q0 8 132.5 66t269 229t181.5 389l-4 4q-108 -131 -307 -131z" />
    <glyph glyph-name="colon" unicode=":" horiz-adv-x="569" 
d="M176 727q0 47 34 78t75 31t74.5 -31t33.5 -78t-33.5 -78t-74.5 -31t-75 31t-34 78zM176 92q0 47 34 78t75 31t74.5 -31t33.5 -78t-33.5 -77.5t-74.5 -30.5t-75 30.5t-34 77.5z" />
    <glyph glyph-name="semicolon" unicode=";" horiz-adv-x="569" 
d="M176 727q0 47 34 78t75 31t74.5 -31t33.5 -78t-33.5 -78t-74.5 -31t-75 31t-34 78zM168 95q0 38 29.5 72t95.5 34t105.5 -55.5t39.5 -130.5t-29.5 -144.5t-68.5 -125.5t-78 -93t-58 -37q-20 0 -20 15t78 94.5t78 191.5q0 63 -35 72q-16 4 -39.5 8t-45 13t-37 28.5
t-15.5 57.5z" />
    <glyph glyph-name="less" unicode="&#x3c;" horiz-adv-x="1228" 
d="M1079 807l-762 -342l762 -342v-139l-929 413v135l929 414v-139z" />
    <glyph glyph-name="equal" unicode="=" horiz-adv-x="1228" 
d="M1079 207h-929v139h929v-139zM1079 584h-929v139h929v-139z" />
    <glyph glyph-name="greater" unicode="&#x3e;" horiz-adv-x="1228" 
d="M150 946l929 -414v-135l-929 -413v139l761 342l-761 342v139z" />
    <glyph glyph-name="question" unicode="?" 
d="M399 92q0 47 34 78t75 31t74.5 -31t33.5 -78t-33.5 -77.5t-74.5 -30.5t-75 30.5t-34 77.5zM403 831q92 -92 206 -92t206 92t92 224t-90.5 224.5t-222.5 92.5t-184.5 -104.5t-85.5 -131t-71 -26.5t-64.5 22.5t-26.5 55.5q0 74 95 153.5t280 79.5q186 0 313 -123t127 -299
t-118 -302t-255 -126q-63 0 -96 7l6 -170q0 -23 -20 -23t-24.5 18.5t-21.5 118t-98 277.5z" />
    <glyph glyph-name="at" unicode="@" horiz-adv-x="1638" 
d="M862 -33q-160 0 -301 54.5t-245.5 149.5t-166 226t-61.5 284t56.5 288t157.5 235.5t242.5 158.5t299.5 58q307 0 506.5 -177t199.5 -443q0 -183 -75.5 -294.5t-149 -159.5t-147.5 -48t-110 19.5t-67.5 55t-31.5 75.5h-4q-59 -100 -128 -125t-114 -25q-96 0 -150.5 66.5
t-54.5 166.5t30 189.5t84 166.5t131 127t153 50t115.5 -34t51.5 -75h4l21 84h141l-121 -462q-20 -82 -20 -123q0 -40 18 -65t76 -25t111 42t108.5 138.5t55.5 234.5q0 262 -173.5 427t-447.5 165q-127 0 -237.5 -52t-238.5 -198t-128 -433t170 -467.5t455 -180.5
q207 0 417 100l27 -59q-137 -77 -266 -96t-193 -19zM780 385q57 0 107.5 49t108 162.5t57.5 261.5q0 53 -28 87t-81 34q-103 0 -192.5 -135.5t-89.5 -297.5q0 -161 118 -161z" />
    <glyph glyph-name="A" unicode="A" horiz-adv-x="1366" 
d="M608 1135l-198 -574h432zM854 20q0 18 22.5 22.5t71.5 13.5t49 68t-30 128l-111 272h-463l-35 -118q-30 -106 -30 -174t22 -103t50 -53q36 -23 69 -31t33 -22q0 -27 -41 -27l-223 4h-36l-200 -4q-31 0 -31 22q0 14 13.5 18.5t57 16t93.5 64.5q98 105 182 338l265 719
q-20 23 -40 36t-20 19t32 33.5t55 70.5q31 58 41 91.5t20 33.5t14 -14t16 -45l508 -1243q37 -85 84 -98t64.5 -16t17.5 -22q0 -25 -33 -24l-260 4l-113 -2q-114 -2 -114 22z" />
    <glyph glyph-name="B" unicode="B" horiz-adv-x="1290" 
d="M451 717v-502q0 -103 42.5 -136.5t147.5 -33.5t238 35t133 295q0 342 -432 342h-129zM74 20q0 24 27.5 26.5t61.5 8.5t62.5 30t28.5 91v1036q0 68 -28.5 91.5t-62.5 29.5t-61.5 8t-27.5 27t26 25l22 -1l230 -3l307 4q245 0 368.5 -98t123.5 -241t-117.5 -225t-316.5 -94
v-4q227 -8 363.5 -102t136.5 -252q0 -202 -137.5 -291.5t-372.5 -89.5l-355 4h-41l-211 -4q-26 0 -26 24zM451 754h141q176 0 269 72t93 226t-89 222.5t-230 68.5h-184v-589z" />
    <glyph glyph-name="C" unicode="C" horiz-adv-x="1441" 
d="M1296 868q0 -33 -24 -32q-16 0 -22.5 21t-17.5 87t-50 146.5t-136.5 181t-287.5 100.5q-191 0 -315 -179t-124 -516t132.5 -499t304.5 -162q204 0 336 128t161 327q8 47 25 47q25 0 25 -33v-485q0 -33 -29 -33q-16 0 -23.5 15.5t-29 62t-159.5 -15.5t-302 -62
q-302 0 -484 213t-182 514q0 154 61.5 287t158 231.5t214.5 153.5t220 55t167.5 -17.5t116.5 -39t87 -38.5t64.5 -17t39 16t14.5 35.5t9 36t28 16.5t22 -33v-512z" />
    <glyph glyph-name="D" unicode="D" horiz-adv-x="1441" 
d="M451 287q0 -137 50.5 -189.5t188.5 -52.5q243 0 348 175.5t105 418.5q0 516 -207 610t-352 94h-133v-1056zM74 20q0 24 27.5 26.5t61.5 8.5t62.5 30t28.5 91v1036q0 68 -28.5 91.5t-62.5 29.5t-61.5 8t-27.5 27t26 25l22 -1l230 -3l219 4q383 0 580 -204t197 -509
q0 -304 -179.5 -494t-500.5 -190l-316 4h-41l-211 -4q-26 0 -26 24z" />
    <glyph glyph-name="E" unicode="E" horiz-adv-x="1290" 
d="M74 20q0 24 27.5 26.5t61.5 8.5t62.5 30t28.5 91v1036q0 68 -28.5 91.5t-62.5 29.5t-61.5 8t-27.5 27t26 25l22 -1l230 -3h59l627 4l127 -387q15 -40 15 -57t-21 -17q-16 0 -50 88t-96.5 159.5t-144.5 108.5t-185 46t-232 9v-589q161 0 249 60.5t88 211.5q0 41 21 41
q14 0 17 -9t3 -32v-602q0 -23 -3 -32t-17 -9q-20 0 -21 41q0 293 -337 293v-541q0 -70 31.5 -100.5t128.5 -30.5q188 0 343 110.5t200 241t49.5 137.5t13.5 7q16 0 16 -24t-19 -85l-106 -436q-376 4 -756 4h-41l-211 -4q-26 0 -26 24z" />
    <glyph glyph-name="F" unicode="F" horiz-adv-x="1175" 
d="M1155 950q0 -18 -19 -18t-52 88t-95.5 159.5t-142.5 108.5t-178.5 46t-216.5 9v-589q161 0 249 60.5t88 211.5q0 41 21 41q14 0 17 -9t3 -32v-602q0 -23 -3 -32t-17 -9q-20 0 -21 41q0 293 -337 293v-541q0 -68 27.5 -91.5t61 -29.5t62.5 -8.5t29 -26.5t-27 -24h-22
l-85 2l-145 1l-252 -3q-26 0 -26 24t27.5 26.5t61.5 8.5t62.5 30t28.5 91v1036q0 68 -28.5 91.5t-62.5 29.5t-61.5 8t-27.5 27t26 25l22 -1l230 -3h58l604 4l127 -387q14 -38 14 -56z" />
    <glyph glyph-name="G" unicode="G" horiz-adv-x="1554" 
d="M1237 104q-185 -137 -473 -137q-106 0 -233.5 50.5t-223.5 142.5t-154.5 224t-58.5 294t57.5 298t150.5 234.5t214.5 154.5t227.5 56t168.5 -16t112.5 -34.5t90 -35t73 -16.5t43 14.5t15 30.5t10.5 30.5t21.5 14.5q25 0 25 -33v-514q0 -29 -23 -28q-14 0 -18.5 14
t-33.5 217.5t-211.5 255t-246.5 51.5q-211 0 -331 -176t-120 -489t130.5 -502t347.5 -189q367 0 366 373q0 147 -61.5 166.5t-84 25t-36.5 10.5t-14 19q0 29 28 29l25 -1l242 -3l43 1l217 3q27 0 26.5 -24.5t-29 -26.5t-62.5 -8.5t-61.5 -30t-27.5 -90.5v-479h-68z" />
    <glyph glyph-name="H" unicode="H" horiz-adv-x="1478" 
d="M856 20q0 24 27.5 26.5t61.5 8.5t62.5 30t28.5 91v541h-594v-541q0 -68 28 -91.5t61.5 -29.5t62.5 -8.5t29 -26.5t-27 -24h-22l-85 2l-145 1l-252 -3q-26 0 -26 24t27.5 26.5t61 8.5t62.5 30t29 91v1036q0 68 -29 91.5t-62.5 29.5t-61 8t-27.5 27t26 25l22 -1l85 -1
l145 -1l252 3q27 0 27 -25t-29 -27t-62.5 -8t-61.5 -29.5t-28 -91.5v-458h594v458q0 68 -28.5 91.5t-62.5 29.5t-61.5 8t-27.5 27t27 25l21 -1l85 -1l145 -1l252 3q27 0 27 -25t-28.5 -27t-62.5 -8t-61.5 -29.5t-27.5 -91.5v-1036q0 -68 27.5 -91.5t61.5 -29.5t62.5 -8.5
t28.5 -26.5t-27 -24h-22l-84 2l-146 1l-251 -3q-27 0 -27 24z" />
    <glyph glyph-name="I" unicode="I" horiz-adv-x="720" 
d="M639 1368q0 -25 -28.5 -27t-62.5 -8t-61.5 -29.5t-27.5 -91.5v-1036q0 -68 27.5 -91.5t61.5 -29.5t62.5 -8.5t28.5 -26.5t-27 -24h-22l-84 2l-146 1l-251 -3q-27 0 -27 24t27.5 26.5t61.5 8.5t62.5 30t28.5 91v1036q0 68 -28.5 91.5t-62.5 29.5t-61.5 8t-27.5 27t27 25
l21 -1l85 -1l145 -1l252 3q27 0 27 -25z" />
    <glyph glyph-name="J" unicode="J" horiz-adv-x="909" 
d="M881 1368q0 -25 -29 -27t-62.5 -8t-61.5 -29.5t-28 -91.5v-815q0 -208 -106 -319t-266 -111q-161 0 -244.5 75t-83.5 171q0 47 27 85t85 38t85.5 -33t27.5 -72t-12 -66.5t-12 -65.5t34.5 -60.5t86.5 -22.5q100 0 141 50.5t41 134.5v1011q0 68 -29 91.5t-62.5 29.5t-61 8
t-27.5 27t26 25l22 -1l85 -1l145 -1l252 3q27 0 27 -25z" />
    <glyph glyph-name="K" unicode="K" horiz-adv-x="1327" 
d="M74 20q0 24 27.5 26.5t61.5 8.5t62.5 30t28.5 91v1036q0 68 -28.5 91.5t-62.5 29.5t-61.5 8t-27.5 27t26 25l22 -1l85 -1l145 -1l252 3q27 0 27 -25t-29 -27t-62.5 -8t-61 -29.5t-27.5 -91.5v-585h4l372 477q70 88 70 135t-17.5 65.5t-39 25.5t-39 11.5t-17.5 22.5
q0 29 33 29l207 -4l199 4q31 0 30 -27q0 -16 -83 -29t-226 -180l-186 -223l418 -770q49 -90 107 -103.5t78.5 -17t20.5 -21.5t-10 -22t-33 -4l-165 4h-125l-420 778l-178 -223v-379q0 -68 27.5 -91.5t61 -29.5t62.5 -8.5t29 -26.5t-27 -24h-22l-85 2l-145 1l-252 -3
q-26 0 -26 24z" />
    <glyph glyph-name="L" unicode="L" horiz-adv-x="1251" 
d="M631 1368q0 -25 -29 -27t-62.5 -8t-61 -29.5t-27.5 -91.5v-1036q0 -70 31.5 -100.5t122.5 -30.5q176 0 331.5 116.5t195.5 238.5t46 131.5t14 9.5q16 0 16 -22t-18 -87l-107 -436q-340 4 -731 4h-41l-211 -4q-26 0 -26 24t27.5 26.5t61.5 8.5t62.5 30t28.5 91v1036
q0 68 -28.5 91.5t-62.5 29.5t-61.5 8t-27.5 27t26 25l22 -1l85 -1l145 -1l252 3q27 0 27 -25z" />
    <glyph glyph-name="M" unicode="M" horiz-adv-x="1630" 
d="M1585 1368q0 -25 -28.5 -27t-62.5 -8t-61.5 -29.5t-27.5 -91.5v-1036q0 -68 27.5 -91.5t61.5 -29.5t62.5 -8.5t28.5 -26.5t-26 -24h-21l-86 2l-146 1l-251 -3q-27 0 -27 24t27.5 26.5t61.5 8.5t62.5 30t28.5 91v1020h-8l-434 -1159l-9 -23q-9 -22 -21.5 -22t-17.5 12
t-13 33l-418 1143h-4v-861q0 -119 50 -186t134 -88q20 -4 32.5 -8.5t12.5 -22.5t-23 -18h-23l-82 2l-130 1l-236 -3q-23 0 -22 20q0 16 12 20.5t33 8.5q84 20 134 88t50 186v893q0 68 -28.5 91.5t-62.5 29.5t-61.5 8t-27.5 27t27 25l22 -1l230 -3h73l410 -1108l420 1108h80
l41 1l211 3q26 0 26 -25z" />
    <glyph glyph-name="N" unicode="N" horiz-adv-x="1402" 
d="M1157 -6q0 -31 -13 -31t-22.5 15.5t-31.5 46.5l-783 1091h-6v-751q0 -154 47 -230t146 -90q23 -4 34 -8t11 -19q0 -23 -25 -22h-14l-74 2l-154 1l-241 -3q-25 0 -25 22q0 14 11.5 18.5t33.5 8.5q98 14 145.5 90t47.5 230v821l-72 90q-35 47 -81 57t-61.5 13.5t-15.5 17.5
t8.5 21.5t43.5 7.5l198 -4h78l754 -1063h4v698q0 154 -47 229.5t-146 89.5q-23 4 -34 8.5t-11 18.5q0 23 25 23l13 -1l74 -1l154 -1l242 3q25 0 25 -23q0 -14 -11.5 -18t-33.5 -9q-98 -14 -145.5 -89.5t-47.5 -229.5v-1030z" />
    <glyph glyph-name="O" unicode="O" horiz-adv-x="1593" 
d="M319 694.5q0 -194.5 42 -324.5t110 -209t154 -112t172 -33t172 33t153.5 112t109.5 209t42 324.5t-42 324.5t-109.5 209t-153.5 111.5t-172 32.5t-172 -32.5t-154 -111.5t-110 -209t-42 -324.5zM797 -33q-123 0 -249 50.5t-226.5 143.5t-164 228t-63.5 305t63.5 305.5
t164 228.5t226.5 143t249 50t248.5 -50t226 -143t164 -228.5t63.5 -305.5t-63.5 -305t-164 -228t-226 -143.5t-248.5 -50.5z" />
    <glyph glyph-name="P" unicode="P" horiz-adv-x="1175" 
d="M451 662h104q186 0 278.5 78t92.5 266t-86 262.5t-256 74.5h-133v-681zM614 1393q225 0 370.5 -107.5t145.5 -296.5t-165 -283t-414 -94h-100v-436q0 -68 27.5 -91.5t61 -29.5t62.5 -8.5t29 -26.5t-27 -24h-22l-85 2l-145 1l-252 -3q-26 0 -26 24t27.5 26.5t61.5 8.5
t62.5 30t28.5 91v1036q0 68 -28.5 91.5t-62.5 29.5t-61.5 8t-27.5 27t26 25l22 -1l230 -3z" />
    <glyph glyph-name="Q" unicode="Q" horiz-adv-x="1593" 
d="M319 694.5q0 -194.5 42 -324.5t110 -209t154 -112t172 -33t172 33t153.5 112t109.5 209t42 324.5t-42 324.5t-109.5 209t-153.5 111.5t-172 32.5t-172 -32.5t-154 -111.5t-110 -209t-42 -324.5zM283 -266q-21 0 -21 22t18.5 59.5t91 104t234.5 76.5v4q-220 68 -366 250.5
t-146 443.5q0 170 63.5 305.5t164 228.5t226.5 143t249 50t248.5 -50t226 -143t164 -228.5t63.5 -302.5t-58.5 -298t-152.5 -224t-213 -147.5t-237 -60.5v-4q98 -33 178 -63.5t187.5 -69.5t192.5 -39t147.5 34t94.5 89q12 23 19.5 36t19.5 13q40 0 -5 -97t-165.5 -145.5
t-241.5 -48.5t-216 34t-182 75t-169 74.5t-148 33.5t-99 -10t-56.5 -26.5t-41 -37t-30 -41t-18.5 -30.5t-22 -10z" />
    <glyph glyph-name="R" unicode="R" horiz-adv-x="1366" 
d="M616 713q347 0 347 323q0 150 -92.5 228.5t-252.5 78.5h-147v-630h145zM524 676h-53v-500q0 -68 27.5 -91.5t61.5 -29.5t62.5 -8.5t28.5 -26.5t-26 -24h-21l-86 2l-146 1l-251 -3q-27 0 -27 24t28 26.5t61.5 8.5t62 30t28.5 91v1036q0 68 -28.5 91.5t-62 29.5t-61.5 8
t-28 27t27 25l21 -1l231 -3l262 4q255 0 393.5 -102t138.5 -263q0 -107 -78 -196t-194 -113q-70 -15 -231 -27v-4q158 -12 240 -57.5t138 -155.5l150 -289q58 -113 123 -128t88.5 -17t23.5 -21q0 -12 -4 -18t-20 -6l-211 4h-119l-266 518q-47 90 -114.5 124t-168.5 34z" />
    <glyph glyph-name="S" unicode="S" horiz-adv-x="1175" 
d="M1038 924q0 -35 -24 -35q-16 0 -23.5 16.5t-27.5 83.5q-63 205 -160.5 300t-245.5 95q-104 0 -171 -69t-67 -154q0 -84 34 -134t89.5 -87t125 -64.5t196.5 -75t232.5 -137.5t105.5 -262q0 -212 -156 -323t-309 -111t-259 43t-126 43t-28.5 -11t-22.5 -36.5t-33 -25.5
q-33 0 -33 45v524q0 25 3 39t24 14q27 0 32.5 -33.5t27.5 -141.5q44 -212 148.5 -311.5t241.5 -99.5t227.5 77.5t90.5 209.5q0 222 -159 282t-232.5 85.5t-232.5 92t-159 306.5q0 149 122 250.5t277 101.5q154 0 245 -39t109 -39t27 11.5t13 24t10 23.5t23 11q25 0 28 -37
q26 -290 30.5 -354t5.5 -78t1 -20z" />
    <glyph glyph-name="T" unicode="T" horiz-adv-x="1327" 
d="M379 -4q-27 0 -27 24t61.5 29.5t106.5 26t45 100.5v1176q-127 -15 -247 -106t-183 -218q-31 -59 -38 -78.5t-21.5 -19.5t-14.5 17t19 83l100 365q8 27 25 26q10 0 23 -16t53 -16h766q35 0 46 11t15 16t14 5q16 0 25 -26l100 -365q19 -66 19 -83t-14.5 -17t-21.5 19.5
t-38 79.5q-66 128 -183 217t-247 106v-1176q0 -105 66.5 -115t91 -12t40 -7t15.5 -22q0 -24 -27 -24h-29l-100 2l-155 1z" />
    <glyph glyph-name="U" unicode="U" horiz-adv-x="1402" 
d="M575 1368q0 -25 -28.5 -27t-62 -8t-61.5 -29.5t-28 -91.5v-796q0 -178 91.5 -281.5t254.5 -104.5t273 93.5t110 273.5v615q0 239 -73.5 275t-100 43t-44 13.5t-17.5 24.5q0 25 37 25l58 -1l405 1q37 0 36 -25q0 -18 -17 -24.5t-66.5 -19.5t-100.5 -77t-51 -235v-594
q0 -308 -172 -379.5t-296 -71.5q-240 0 -375.5 114.5t-135.5 299.5v831q0 68 -28.5 91.5t-62.5 29.5t-61.5 8t-27.5 27t26 25l21 -1l219 -3l41 1l211 3q26 0 26 -25z" />
    <glyph glyph-name="V" unicode="V" horiz-adv-x="1366" 
d="M522 1364q0 -18 -22.5 -22.5t-50 -9.5t-50 -20.5t-22.5 -45.5t3 -45t9 -35.5t17.5 -50t27.5 -72.5l326 -832l248 695q53 152 53 232q0 79 -28.5 115t-62.5 50t-61.5 18.5t-27.5 20.5q0 31 51 31l221 -4l195 4q53 0 53 -24t-27.5 -27t-109.5 -44.5t-168 -277.5l-361 -975
q-12 -33 -21 -55.5t-25.5 -22.5t-26 22.5t-21.5 55.5l-461 1155q-42 102 -96.5 120.5t-75 23t-20.5 22.5q0 27 53 27l217 -4l211 4q53 0 53 -29z" />
    <glyph glyph-name="W" unicode="W" horiz-adv-x="1857" 
d="M1141 1374q0 -20 -20.5 -23t-45 -7.5t-45 -18t-20.5 -73.5t39 -165l272 -825h4l219 701q31 101 31 195t-24.5 127.5t-55.5 47t-55.5 16.5t-24.5 19t12.5 20.5t42.5 4.5l164 -4l209 4q35 0 47.5 -4.5t12.5 -20.5t-27 -20.5t-101 -41.5t-137 -225l-340 -1036
q-10 -33 -20 -55.5t-26.5 -22.5t-27 22.5t-20.5 55.5l-282 844h-4l-254 -844q-10 -33 -19.5 -55.5t-26 -22.5t-26.5 22.5t-21 55.5l-399 1149q-25 74 -58.5 103.5t-63.5 41t-50 13.5t-20 18q0 23 34 23l16 -1l201 -3l232 4q35 0 35 -23q0 -12 -22.5 -18t-71 -22t-48.5 -66
q0 -36 35 -129l303 -854h4l195 677l-96 279q-16 49 -44 69.5t-54.5 30t-46 13.5t-19.5 19t10 19.5t33 4.5l198 -4l34 1l202 3q31 1 31 -19z" />
    <glyph glyph-name="X" unicode="X" horiz-adv-x="1366" 
d="M629 1370q0 -16 -20.5 -18t-64.5 -8.5t-44 -53.5t49 -119l217 -352l106 170q35 57 63 116t28 119t-22.5 82.5t-49.5 32t-49.5 12.5t-22.5 19q0 23 31 23l201 -4l233 4q31 0 31 -19q0 -10 -9.5 -14t-87 -33.5t-235.5 -265.5l-190 -287l385 -627q51 -85 110.5 -96.5t80 -13
t20.5 -21.5t-35 -20h-21l-264 4l-217 -4q-16 0 -27.5 3t-11.5 20t21.5 20.5t67.5 11t46 72.5q0 40 -55 135l-231 383l-148 -235q-74 -119 -74 -207q0 -87 23.5 -112.5t53.5 -33.5t53.5 -10.5t23.5 -24.5t-43 -22h-23l-254 4l-127 -2q-127 -2 -136 2t-9 22.5t88.5 30.5
t212.5 158q96 115 175 234.5t155 236.5l-340 559q-51 83 -106.5 95t-75 14t-19.5 20q0 23 41 23l232 -4l215 4q23 0 36 -3.5t13 -19.5z" />
    <glyph glyph-name="Y" unicode="Y" horiz-adv-x="1251" 
d="M1288 1366q0 -16 -20.5 -21.5t-95 -46.5t-185.5 -211l-264 -405v-506q0 -68 27.5 -91.5t61.5 -29.5t62.5 -8.5t28.5 -26.5t-26 -24h-21l-86 2l-146 1l-251 -3q-27 0 -27 24t27.5 26.5t61.5 8.5t62.5 30t28.5 91v455l-323 590q-58 108 -125.5 119.5t-67.5 29.5q0 23 62 23
l192 -4l34 1l179 3q39 0 50.5 -4.5t11.5 -21.5t-19.5 -20.5t-44 -7.5t-44 -16t-19.5 -68t63 -163l217 -381l178 280q84 129 84 205q0 75 -20.5 101t-45 35t-47 11.5t-24.5 19.5t10.5 23.5t44.5 6.5l18 -1l181 -3l170 4q47 0 47 -27z" />
    <glyph glyph-name="Z" unicode="Z" horiz-adv-x="1214" 
d="M1077 1393q39 0 39 -22q0 -9 -5 -17t-11 -19l-813 -1290h200q191 0 346 110.5t200 241t49.5 137.5t13.5 7q16 0 16 -22t-18 -87l-107 -436q-234 4 -446 4h-79l-240 -2q-159 -2 -159 9t10.5 26.5t45.5 72.5l772 1237h-35q-129 0 -232.5 -9t-185.5 -46t-144.5 -108.5
t-111.5 -196.5q-10 -29 -17 -40t-18 -11q-20 0 -20 18t14 56l127 387q196 -4 387 -4l63 1z" />
    <glyph glyph-name="bracketleft" unicode="[" horiz-adv-x="796" 
d="M291 -406q-33 0 -33 46v1781q0 45 33 45h321q33 0 33 -20t-23.5 -21.5t-42.5 -2.5t-49 -7t-63 -35.5t-33 -111.5v-1475q0 -82 33 -111.5t63 -35.5t49 -7t42.5 -3.5t23.5 -21.5t-33 -20h-321z" />
    <glyph glyph-name="backslash" unicode="\" horiz-adv-x="569" 
d="M641 -33h-139l-574 1454h140z" />
    <glyph glyph-name="bracketright" unicode="]" horiz-adv-x="796" 
d="M506 1466q33 0 33 -45v-1781q0 -46 -33 -46h-322q-33 0 -32.5 20.5t32 20.5t72.5 8.5t73.5 38t32.5 111.5v1475q0 82 -33 111.5t-63 35.5t-48.5 7t-42 2.5t-23.5 21.5t32 20h322z" />
    <glyph glyph-name="asciicircum" unicode="^" horiz-adv-x="1228" 
d="M209 719l336 670h139l336 -670h-156l-250 514l-258 -514h-147z" />
    <glyph glyph-name="underscore" unicode="_" horiz-adv-x="1024" 
d="M0 -256v102h1024v-102h-1024z" />
    <glyph glyph-name="grave" unicode="`" horiz-adv-x="606" 
d="M-2 1318q0 38 18.5 56.5t55.5 18.5t80 -41l307 -312h-82l-338 215q-41 25 -41 63z" />
    <glyph glyph-name="a" unicode="a" horiz-adv-x="1024" 
d="M279 221q0 -164 114 -164q31 0 97.5 27t152.5 100v336q-220 -77 -292 -138t-72 -161zM827 735v-608q0 -57 54 -57q39 0 73.5 34.5t40.5 34.5q16 0 17 -18q0 -6 -19.5 -28.5t-73 -65.5t-126.5 -43q-105 0 -124.5 62.5t-21.5 86.5q-180 -149 -346 -149q-100 0 -159.5 57
t-59.5 143q0 49 18.5 89t99.5 98t443 198v240q0 88 -101 88t-137 -60.5t-51.5 -103.5t-48.5 -103.5t-123 -60.5q-29 0 -48 24.5t-19 66.5t47 93.5t164 122t264 70.5q237 0 237 -211z" />
    <glyph glyph-name="b" unicode="b" 
d="M670 946q179 0 287 -121t108 -288q0 -244 -147 -398.5t-355 -154.5q-82 0 -144.5 28.5t-121.5 67.5q-27 -29 -54.5 -62.5t-44.5 -33.5t-18 26v1247q0 79 -53 92t-77.5 15t-24.5 18t13 19.5t91 18.5t236 75v-670q66 51 137.5 86t167.5 35zM365 250q0 -104 49 -167t146 -63
q174 0 247.5 138.5t73.5 317.5q0 180 -82.5 286t-203.5 106q-120 0 -230 -94v-524z" />
    <glyph glyph-name="c" unicode="c" horiz-adv-x="1024" 
d="M213.5 802.5q139.5 143.5 335.5 143.5q159 0 280 -89t121 -222q0 -74 -32.5 -105.5t-75.5 -31.5t-74 28t-31 84t6.5 74t6.5 47q0 70 -54 118t-134 48q-143 0 -229.5 -104t-86.5 -268t97 -281t261 -117q68 0 134.5 26.5t101.5 56.5q39 33 61.5 71t36.5 38t14 -21
t-22.5 -72.5t-110.5 -146.5t-284 -95t-328.5 130t-132.5 337q0 208 139.5 351.5z" />
    <glyph glyph-name="d" unicode="d" 
d="M774 694q0 158 -83 186.5t-139 28.5t-112.5 -32.5t-119 -124t-62.5 -261.5t72.5 -285.5t214.5 -115.5q78 0 151 45t78 76v483zM574 946q104 0 200 -24v335q0 51 -25.5 71t-56 27t-56.5 9t-26 18t14.5 19.5t95 18t238.5 75.5v-1249q0 -55 25 -79t53.5 -31t53 -9.5
t24.5 -18.5t-13.5 -20t-88 -21t-226.5 -83v180q-158 -180 -327 -180q-168 0 -276.5 124.5t-108.5 297.5q0 239 146 389.5t354 150.5z" />
    <glyph glyph-name="e" unicode="e" horiz-adv-x="1024" 
d="M593 127q134 0 226 61q38 26 59 57t27 40.5t17 9.5q18 -1 18 -19t-20.5 -65t-67.5 -97.5t-127.5 -90t-184.5 -39.5q-198 0 -332 132t-134 332t132 349t328 149t300 -129.5t104 -304.5h-680q7 -266 130.5 -325.5t204.5 -59.5zM754 561q0 188 -56.5 268t-164.5 80
t-191.5 -100.5t-87.5 -247.5h500z" />
    <glyph glyph-name="f" unicode="f" horiz-adv-x="606" 
d="M500 1438q0 53 -51 53t-84 -74.5t-33 -165.5q0 -90 13 -170t24 -151h217l-29 -90h-188v-697q0 -49 23.5 -66.5t52 -22.5t52 -9t23.5 -27t-33 -22l-53 1l-368 -1q-33 0 -33 22t23.5 26.5t52 9.5t52 22.5t23.5 66.5v697h-151q80 27 118 94.5t74 200.5q37 133 84.5 269
t192.5 136q79 0 122.5 -50t43.5 -115q0 -64 -31 -102t-69 -38q-85 0 -85 104q0 31 8.5 54.5t8.5 44.5z" />
    <glyph glyph-name="g" unicode="g" horiz-adv-x="948" 
d="M483 365q96 0 135 64.5t41 207.5q-2 143 -39.5 207.5t-135.5 64.5t-137.5 -64.5t-37.5 -207.5h-2q2 -143 41 -207.5t135 -64.5zM422 -385q373 0 373 188q0 72 -38 94.5t-112 26.5t-182.5 5t-249.5 30q-45 0 -78 -39t-33 -100q0 -98 83 -151.5t237 -53.5zM516 946
q144 -9 245 -89.5t101 -216.5t-103 -215t-259 -101t-196 -36t-53 -31t-13 -51t42 -62.5t140 -28.5h190q188 0 266 -69t78 -190t-148.5 -205.5t-371.5 -84.5q-297 0 -363.5 91t-66.5 155t48 107.5t112 60.5q-86 64 -86 162t84 147t205 49v6q-175 28 -219 122.5t-44 169.5
t36 135t116.5 117.5t218.5 57.5q0 80 61 175.5t152 95.5q49 0 74.5 -24t25.5 -58q0 -95 -118 -95l-72 4q-41 0 -58.5 -28.5t-23.5 -69.5z" />
    <glyph glyph-name="h" unicode="h" horiz-adv-x="1214" 
d="M53 18q0 22 23.5 26.5t52.5 9.5t52.5 22.5t23.5 66.5v1114q0 51 -25.5 71t-56.5 27t-56.5 9t-25.5 18t15.5 19.5t97 18t235.5 75.5v-737q37 27 140.5 107.5t260.5 80.5q111 0 164.5 -59.5t53.5 -151.5v-592q0 -49 23.5 -66.5t52 -22.5t52 -9t23.5 -27t-33 -22l-53 1
l-368 -1q-33 0 -33 22t23.5 26.5t52 9.5t52 22.5t23.5 66.5v562q0 66 -30.5 100.5t-113.5 34.5t-149.5 -36t-140.5 -104v-557q0 -49 23.5 -66.5t52.5 -22.5t52.5 -9t23.5 -27t-33 -22l-53 1l-369 -1q-33 0 -33 22z" />
    <glyph glyph-name="i" unicode="i" horiz-adv-x="606" 
d="M399 1198q0 -113 -112.5 -113t-112.5 113t112.5 113t112.5 -113zM59 18q0 22 23.5 26.5t52.5 9.5t52.5 22.5t23.5 66.5v566q0 51 -23.5 70.5t-52.5 26.5t-52.5 9t-23.5 21q0 14 12.5 17t89 17.5t234.5 75.5v-803q0 -49 23.5 -66.5t52.5 -22.5t52.5 -9t23.5 -27t-33 -22
l-53 1l-369 -1q-33 0 -33 22z" />
    <glyph glyph-name="j" unicode="j" horiz-adv-x="606" 
d="M438 1198q0 -113 -112.5 -113t-112.5 113t112.5 113t112.5 -113zM-106 -300q0 99 98 99q77 0 95.5 -60.5t31 -88t56.5 -27.5t84 33t40 82q0 16 -8 38.5t-24.5 69.5t-16.5 101v762q0 51 -23.5 70.5t-52.5 26.5t-52.5 9t-23.5 21q0 14 12.5 17t89 17.5t234.5 75.5v-999
q0 -203 -107.5 -292t-217.5 -89q-109 0 -162 44t-53 90z" />
    <glyph glyph-name="k" unicode="k" 
d="M53 18q0 22 23.5 26.5t52.5 9.5t52.5 22.5t23.5 66.5v1114q0 79 -53.5 92t-78 15t-24.5 18t13.5 19.5t92 18.5t234.5 75v-1040l186 145q158 121 158 212q0 77 -71.5 80t-71.5 19q0 23 51 23l182 -4l195 4q35 0 35 -21q0 -16 -59 -20t-138 -80l-172 -170l307 -530
q25 -41 51.5 -52.5t50 -14.5t39 -4.5t15.5 -23.5t-33 -22l-244 4l-108 -2q-109 -2 -109 18q0 25 19.5 29t62.5 9.5t43 40.5t-26 77l-199 356l-164 -127v-258q0 -49 23.5 -66.5t52.5 -22.5t52.5 -9t23.5 -27t-33 -22l-53 1l-369 -1q-33 0 -33 22z" />
    <glyph glyph-name="l" unicode="l" horiz-adv-x="569" 
d="M41 18q0 22 23.5 26.5t52 9.5t52.5 22.5t24 66.5v1114q0 51 -26 71t-56.5 27t-56 9t-25.5 18t14 19.5t94 18t240 75.5v-1352q0 -49 23.5 -66.5t52 -22.5t52 -9t23.5 -27t-32 -22l-53 1l-369 -1q-33 0 -33 22z" />
    <glyph glyph-name="m" unicode="m" horiz-adv-x="1781" 
d="M389 758q187 188 393 188q78 0 133.5 -51t65.5 -141q55 41 101 75.5t115 75.5t171 43q101 2 155 -50t54 -140v-615q0 -49 23.5 -66.5t52 -22.5t52.5 -9t24 -27t-33 -22l-53 1l-369 -1q-33 0 -33 22t23.5 26.5t52.5 9.5t52.5 22.5t23.5 66.5v566q0 131 -127 131
q-109 0 -283 -127v-570q0 -49 23.5 -66.5t52 -22.5t52.5 -9t24 -27t-33 -22l-53 1l-369 -1q-33 0 -33 22t23.5 26.5t52.5 9.5t52.5 22.5t23.5 66.5v566q0 131 -131 131t-279 -140v-557q0 -49 23.5 -66.5t52.5 -22.5t52.5 -9t23.5 -27t-33 -22l-53 1l-369 -1q-33 0 -33 22
t23.5 26.5t52.5 9.5t52.5 22.5t23.5 66.5v566q0 51 -23.5 70.5t-52.5 26.5t-52.5 9t-23.5 21q0 14 13.5 17t91 17.5t231.5 75.5v-188z" />
    <glyph glyph-name="n" unicode="n" horiz-adv-x="1214" 
d="M53 18q0 22 23.5 26.5t52.5 9.5t52.5 22.5t23.5 66.5v566q0 51 -23.5 70.5t-52.5 26.5t-52.5 9t-23.5 21q0 14 13.5 17t91 17.5t231.5 75.5v-188q37 27 140.5 107.5t260.5 80.5q111 0 164.5 -59.5t53.5 -151.5v-592q0 -49 23.5 -66.5t52 -22.5t52 -9t23.5 -27t-33 -22
l-53 1l-368 -1q-33 0 -33 22t23.5 26.5t52 9.5t52 22.5t23.5 66.5v562q0 66 -30.5 100.5t-113.5 34.5t-149.5 -36t-140.5 -104v-557q0 -49 23.5 -66.5t52.5 -22.5t52.5 -9t23.5 -27t-33 -22l-53 1l-369 -1q-33 0 -33 22z" />
    <glyph glyph-name="o" unicode="o" horiz-adv-x="1099" 
d="M74 465q0 196 138 338.5t336.5 142.5t337 -142.5t138.5 -338.5q0 -195 -137.5 -338t-338 -143t-337.5 142.5t-137 338.5zM548 33q77 0 130 36.5t87 97t48 138.5t14 212.5t-69 257t-209 122.5t-209.5 -123.5t-69.5 -361.5t100.5 -308.5t177.5 -70.5z" />
    <glyph glyph-name="p" unicode="p" 
d="M365 236q0 -156 83.5 -186t124.5 -30q135 0 221.5 121t86.5 338q0 144 -71 252.5t-210 108.5q-68 0 -122 -29t-113 -82v-493zM180 -262v971q0 51 -24.5 70.5t-53 26.5t-53 9t-24.5 21q0 14 13 17t91 18t236 75v-168q90 85 162.5 126.5t156.5 41.5q165 0 273 -125
t108 -307q0 -227 -144 -378.5t-348 -151.5q-141 0 -208 24v-270q0 -49 22.5 -66.5t50 -22.5t51 -8t23.5 -21t-31 -17l-53 1l-365 -1q-31 0 -30 16q0 18 22.5 21.5t50 8.5t51 22.5t23.5 66.5z" />
    <glyph glyph-name="q" unicode="q" 
d="M774 -262v401h-4q-124 -155 -314 -155t-286 114.5t-96 323.5t146.5 366.5t346.5 157.5q100 0 172 -38t105 -68l114 106v-1208q0 -49 23 -66.5t50.5 -22.5t51 -8t23.5 -21t-31 -17l-53 1l-365 -1q-31 0 -30 16q0 18 22.5 21.5t50 8.5t51 22.5t23.5 66.5zM774 692
q0 102 -58 159.5t-134 57.5q-140 0 -232 -124.5t-92 -319.5t75.5 -293t194.5 -98q147 0 246 131v487z" />
    <glyph glyph-name="r" unicode="r" horiz-adv-x="833" 
d="M225 143v557q0 55 -24.5 76t-55 29t-55 12t-24.5 23q0 14 22.5 18t120.5 23.5t201 64.5v-266h4q93 217 167 241.5t122 24.5t81 -28.5t33 -79.5t-30.5 -76t-65.5 -25t-48.5 7.5t-36 24.5t-61.5 17q-66 0 -115.5 -95t-49.5 -263v-285q0 -49 23.5 -66.5t52 -22.5t52 -9
t23.5 -27t-33 -22l-53 1l-369 -1q-33 0 -32 24q0 20 23.5 24.5t52 9.5t52 22.5t23.5 66.5z" />
    <glyph glyph-name="s" unicode="s" horiz-adv-x="872" 
d="M372 -16q-134 0 -286 51v301q0 37 17 37t36 -64q41 -135 123 -212t180 -77t143.5 52t45.5 113t-40 96.5t-98.5 64.5t-226.5 95.5t-168 240.5q0 110 89.5 187t242.5 77q72 0 157 -18.5t138 -42.5v-262q0 -23 -14 -23t-17.5 13t-17.5 51q-41 110 -102.5 177.5t-170.5 67.5
q-63 0 -106 -35.5t-43 -99.5t40 -101.5t98.5 -69.5t226 -103t167.5 -236q0 -191 -140 -235.5t-274 -44.5z" />
    <glyph glyph-name="t" unicode="t" horiz-adv-x="720" 
d="M369 1233v-303h274l-37 -99h-237v-573q0 -102 43 -139t101 -37t86 16.5t46.5 35t30.5 34.5t24 16t12 -12t-16 -42t-78.5 -88t-191.5 -58q-242 0 -242 274v573h-139v5q239 136 320 397h4z" />
    <glyph glyph-name="u" unicode="u" horiz-adv-x="1175" 
d="M418 -16q-125 0 -178.5 59t-53.5 152v505q0 55 -24.5 76t-55 29t-55 12t-24.5 23q0 14 22.5 18t120.5 23.5t201 64.5v-721q0 -66 30.5 -100.5t113.5 -34.5t149.5 31t140.5 92v487q0 55 -24.5 76t-55.5 29t-55.5 12t-24.5 23q0 14 22.5 18t120.5 23.5t201 64.5v-717
q0 -87 55.5 -99.5t80 -16.5t24.5 -23q0 -14 -22.5 -18t-118 -23t-203.5 -65v180q-163 -128 -246.5 -154t-140.5 -26z" />
    <glyph glyph-name="v" unicode="v" horiz-adv-x="1024" 
d="M432 911q0 -12 -18.5 -15t-57.5 -12t-39 -55q0 -18 13 -51l225 -573l119 252q87 185 92.5 234.5t5.5 91.5t-18.5 66.5t-40 33t-39 10.5t-17.5 18q0 23 45 23l144 -4l133 4q43 0 43 -19q0 -10 -53.5 -34t-102.5 -125l-360 -760q-14 -29 -29 -29q-14 0 -24 29l-330 811
q-27 65 -61.5 76.5t-47 15t-12.5 19.5t25 16l180 -4h25l161 4q39 0 39 -23z" />
    <glyph glyph-name="w" unicode="w" horiz-adv-x="1478" 
d="M948 916q0 -18 -18.5 -19.5t-40 -6.5t-40 -17.5t-18.5 -34.5t9.5 -43t13.5 -33l213 -535l104 267q14 39 30 80.5t34 105.5t18 104q0 41 -19.5 63.5t-42 32t-42 12.5t-19.5 19q0 23 31 23l144 -4l155 4q35 0 35 -23q0 -12 -16.5 -14t-67 -29.5t-102.5 -162.5l-281 -703
q-14 -35 -35 -35q-12 0 -18 8.5t-14 26.5l-236 606l-221 -606q-12 -35 -32.5 -35t-35.5 35l-315 817q-30 77 -69.5 80t-39.5 19t41 16l148 -4l161 4q47 0 48 -16q0 -12 -14.5 -15.5t-45.5 -11t-31 -50.5t27 -106l197 -493l159 415l-63 150q-30 73 -76.5 83.5t-46.5 22.5
q0 20 21 21l43 -1l333 1q35 0 35 -18z" />
    <glyph glyph-name="x" unicode="x" horiz-adv-x="1099" 
d="M8 25q0 18 75.5 30t178.5 140l213 258l-248 364q-37 56 -79 65l-56 12t-14 15q0 25 31 25l176 -4l231 4q41 0 41 -27q0 -12 -52 -18.5t-52 -59.5q0 -31 27 -75t114 -170q74 88 110.5 140t36.5 88t-15 49t-33.5 18.5t-34 9.5t-15.5 22q0 23 37 23l137 -4l174 4
q33 0 33 -23q0 -16 -53.5 -24.5t-151.5 -114.5l-203 -221l304 -445q33 -47 78.5 -53t62 -11.5t16.5 -25.5t-55 -20l-205 4l-221 -4q-33 0 -33 27q0 20 18.5 23t42 6t42 11.5t18.5 34.5q0 39 -75.5 147t-110.5 173q-136 -156 -145 -203t-9 -79t16.5 -52.5t37 -28.5t37 -13
t16.5 -25.5t-41 -20.5h-18l-179 4l-166 -4q-39 0 -39 29z" />
    <glyph glyph-name="y" unicode="y" horiz-adv-x="1099" 
d="M360 828q0 -38 18.5 -77.5t55.5 -113.5l201 -410l110 287q57 140 60 216q4 76 -19.5 103t-52 37.5t-52.5 15.5t-24 23q0 25 35 25l187 -4l168 4q39 0 38 -25q0 -16 -19 -20t-77.5 -35t-120.5 -178l-319 -746q-138 -321 -195 -342.5t-91 -21.5q-66 0 -101 50t-35 98
t22.5 77t63.5 29t57.5 -22.5t25.5 -49.5t18.5 -49.5t33.5 -22.5t46 35t42 76l107 227l-373 760q-46 90 -98 104.5t-52 28.5q0 27 37 27l45 -1l312 1q33 0 32 -23q0 -18 -13 -23t-43 -13.5t-30 -46.5z" />
    <glyph glyph-name="z" unicode="z" horiz-adv-x="985" 
d="M862 395q16 0 16 -16t-77 -383l-369 4q-94 0 -186 -2t-185 -2l592 889q-198 0 -307 -53t-172 -203q-16 -37 -21.5 -47.5t-17.5 -10.5q-12 1 -12 15t10 54t24.5 92t30 106.5t25.5 95.5l213 -2q213 -2 297 0t170 2l-594 -901q142 0 246.5 26.5t195.5 124.5
q52 55 74.5 114.5t29.5 78t17 18.5z" />
    <glyph glyph-name="braceleft" unicode="{" horiz-adv-x="796" 
d="M291 276q0 106 -31 165t-125 89q132 39 144 120t12 134v400q0 188 76 249.5t249 61.5v-49q-86 -8 -117.5 -58.5t-31.5 -166.5v-404q0 -127 -23.5 -174t-56.5 -71.5t-86 -39.5v-4q101 -27 133.5 -92t32.5 -192v-404q0 -117 31.5 -167t117.5 -58v-49q-173 0 -249 61.5
t-76 249.5v399z" />
    <glyph glyph-name="bar" unicode="|" horiz-adv-x="454" 
d="M158 1495h139v-1495h-139v1495z" />
    <glyph glyph-name="braceright" unicode="}" horiz-adv-x="796" 
d="M506 784q0 -114 23.5 -155t54 -62.5t78.5 -36.5q-95 -32 -125.5 -85.5t-30.5 -168.5v-399q0 -188 -76 -249.5t-250 -61.5v49q86 8 118 58.5t32 166.5v404q0 127 23.5 174t56 71.5t86.5 38.5v4q-141 37 -153.5 131.5t-12.5 153.5v404q0 117 -32 167t-118 58v49
q174 0 250 -61.5t76 -249.5v-400z" />
    <glyph glyph-name="asciitilde" unicode="~" horiz-adv-x="1228" 
d="M381.5 600q103.5 0 198.5 -41q96 -41 145 -63.5t81 -22.5t55.5 11.5t43 29.5t35.5 41t33 43l65 -113q-63 -83 -105.5 -119t-108.5 -36t-111 16t-90 39q-106 68 -206 68t-161 -123l-66 112q88 158 191.5 158z" />
    <glyph glyph-name="uni00A0" unicode="&#xa0;" horiz-adv-x="569" 
 />
    <glyph glyph-name="exclamdown" unicode="&#xa1;" horiz-adv-x="796" 
d="M508 895q0 -47 -34 -78t-75 -31t-74.5 31t-33.5 78t33.5 78t74.5 31t75 -31t34 -78zM514 -238q0 -196 -114.5 -196t-114.5 196q0 96 47 341t47 411l-2 47q0 25 22.5 25t22.5 -25l-2 -47q0 -162 32.5 -336t47 -260t14.5 -156z" />
    <glyph glyph-name="cent" unicode="&#xa2;" 
d="M342 305q-180 131 -180 387q0 82 39 172t137.5 188.5t271.5 98.5q59 0 125 -18l119 262h61l-129 -279q190 -98 191 -268q0 -74 -39 -107.5t-84 -33.5t-73.5 32.5t-28.5 91.5l8 146v25q0 26 -4 47h-4l-277 -596q103 -68 191 -68t135 23.5t75.5 52t44 52.5t25.5 24
q18 1 18 -15t-23 -62t-109 -134t-257 -88q-99 0 -182 38l-135 -280h-59zM634 1114q-109 0 -192.5 -99.5t-83.5 -260.5q0 -74 13.5 -138.5t60.5 -119.5l281 598q-28 20 -79 20z" />
    <glyph glyph-name="sterling" unicode="&#xa3;" 
d="M236 291q-39 0 -69 -32t-30 -72q0 -69 66.5 -123.5t148.5 -21t117 68.5l-57 71q-59 75 -98 92t-78 17zM582 205q82 -82 200 -82q106 0 157 74.5t67 214.5q8 66 10 85t12 19q23 0 23 -51q0 -207 -93 -352.5t-231 -145.5q-105 0 -159 49.5t-74 67.5q-99 -84 -194 -84
t-153.5 54.5t-58.5 127.5q0 74 54.5 124t129.5 50t127.5 -26t153.5 -103q47 73 47 166q0 118 -162 266h-286v66h233q-60 48 -122 141.5t-62 178.5q0 157 87.5 258.5t229.5 101.5q74 0 140.5 -28.5t94 -42t47.5 -13.5t30 8t15 17.5t8 17.5t13 8q16 0 17 -20l39 -418
q4 -23 -15 -23q-8 0 -15 18.5t-30 84.5q-53 160 -144 257t-194 97t-160 -61.5t-57 -136.5q0 -74 37 -127.5t50 -66.5l101 -101q89 -89 119 -150h240v-66h-211q8 -27 17.5 -60t9.5 -97q0 -154 -88 -297z" />
    <glyph glyph-name="currency" unicode="&#xa4;" 
d="M950 694q0 78 -29.5 148.5t-81 124t-121 85t-149.5 31.5t-149.5 -31.5t-120.5 -85t-81 -124t-30 -148.5t30 -148.5t81 -123.5t120.5 -85t149.5 -32t149.5 32t121 85t81 123.5t29.5 148.5zM1077 693.5q0 -191.5 -108 -314.5l112 -111l-86 -86l-114 115
q-133 -111 -311.5 -111t-311.5 111l-115 -115l-86 86l113 111q-109 126 -109 315.5t109 315.5l-113 110l86 86l115 -114q132 110 311.5 110t311.5 -110l114 114l86 -86l-112 -110q108 -125 108 -316.5z" />
    <glyph glyph-name="yen" unicode="&#xa5;" 
d="M1229 1366q0 -14 -73 -32t-187 -201l-240 -375h326v-62h-367l-8 -16v-143h375v-62h-375v-299q0 -68 27.5 -91.5t61.5 -29.5t62.5 -8.5t28.5 -26.5t-26 -24h-22l-85 2l-145 1l-252 -3q-27 0 -27 24t27.5 26.5t61.5 8.5t62.5 30t28.5 91v299h-362v62h362v110l-24 49h-338
v62h303l-268 489q-40 73 -92 84.5t-70.5 16t-18.5 22.5q0 23 62 23l184 -4l33 1l164 3q39 0 50 -4.5t11 -21.5t-19.5 -20.5t-44 -7.5t-44 -15.5t-19.5 -63.5t60 -152l233 -410l186 289q99 147 99 236t-49.5 103.5t-72 18t-22.5 19.5t8.5 22.5t34.5 6.5l17 -1l182 -3l154 4
q47 0 47 -27z" />
    <glyph glyph-name="brokenbar" unicode="&#xa6;" horiz-adv-x="454" 
d="M158 1495h139v-553h-139v553zM158 553h139v-553h-139v553z" />
    <glyph glyph-name="section" unicode="&#xa7;" horiz-adv-x="1024" 
d="M674 328q96 80 96 186t-81 164.5t-141.5 88.5t-117.5 60q-90 -29 -123 -80t-33 -114q0 -84 103.5 -152.5t296.5 -152.5zM115 -233q-25 0 -25 30v375q0 25 19 25q14 0 20 -25t36 -82t64.5 -111.5t77.5 -96.5t94.5 -68.5t139 -26.5t134 59t46.5 131q0 71 -45 114.5
t-112.5 79.5t-145.5 68.5t-190.5 104t-112.5 223.5q0 100 63.5 173t216.5 116q-240 147 -239 293q0 113 91.5 192.5t223.5 79.5q84 0 146.5 -20.5t88.5 -29.5t44 -9t29.5 9t18.5 20.5t13 20.5t17 9t12 -16v-369q0 -20 -21 -20q-12 0 -17.5 19.5t-15.5 64.5q-23 99 -97 191.5
t-193 92.5q-66 0 -115 -45t-49 -119t43 -121.5t108.5 -86.5t141 -77t184.5 -116t109 -233q0 -115 -66 -180t-143 -97v-4l27 -12q68 -29 106.5 -98t38.5 -135q0 -130 -105.5 -220t-269.5 -90q-89 0 -154 24.5t-90.5 36t-54.5 11.5t-55 -27.5t-37 -27.5z" />
    <glyph glyph-name="dieresis" unicode="&#xa8;" horiz-adv-x="606" 
d="M401 1175q0 42 24 72.5t70 30.5t78.5 -30.5t32.5 -72.5t-32.5 -72t-78.5 -30t-70 30t-24 72zM0 1175q0 42 23.5 72.5t69.5 30.5t79 -30.5t33 -72.5t-33 -72t-79 -30t-69.5 30t-23.5 72z" />
    <glyph glyph-name="copyright" unicode="&#xa9;" horiz-adv-x="1638" 
d="M618 712q0 -186 70 -275t176 -89q184 0 266 184h37l-32 -161q-5 -18 -95 -45t-184 -27q-200 0 -321 106.5t-121 296.5t121 305t342 115q142 0 200 -31.5t58 -46.5v-151h-37q-54 180 -224 180q-109 0 -182.5 -87.5t-73.5 -273.5zM1225.5 254.5q167.5 184.5 167.5 439.5
q0 125 -44 239t-122 200t-182.5 136t-225.5 50t-225.5 -50t-182 -136t-121.5 -200t-44 -240t44 -238.5t166.5 -248.5t362 -136t407 184.5zM819.5 -33q-151.5 0 -281.5 56.5t-226.5 154.5t-151 231.5t-54.5 285t54.5 284.5t151 231.5t226.5 154.5t281.5 56t281.5 -56
t226 -154.5t150.5 -231.5t54.5 -284.5t-54.5 -285t-150.5 -231.5t-226 -154.5t-281.5 -56.5z" />
    <glyph glyph-name="ordfeminine" unicode="&#xaa;" horiz-adv-x="614" 
d="M172 956q0 -70 64 -71q20 0 61 16.5t88 61.5v178q-128 -51 -161.5 -77t-42.5 -47t-9 -61zM362 1405q154 0 154 -127v-365q0 -29 35 -28q17 0 47 18q39 31 39 6q0 -12 -49.5 -47t-97.5 -35q-49 0 -66.5 27t-26.5 53q-99 -80 -227 -80q-55 0 -96 34t-41 75t11 64.5t64 61.5
t277 124v127q0 29 -11.5 40t-45.5 11t-55 -14.5t-34.5 -36t-23.5 -47t-32.5 -61.5t-84.5 -36q-20 0 -34.5 19.5t-10.5 42.5q0 52 105.5 113t203.5 61z" />
    <glyph glyph-name="guillemotleft" unicode="&#xab;" horiz-adv-x="985" 
d="M825 110q0 -26 -22 -26q-14 0 -31 16l-305 316q-18 20 -18 48t18 50l305 315q27 27 46 11q7 -6 7 -20t-14 -27l-246 -328l246 -328q14 -13 14 -27zM511 84q-11 0 -28 16l-305 316q-18 20 -18 48t18 50l305 315q16 16 31 17q21 0 23 -23q0 -15 -15 -30l-246 -328l246 -328
q13 -13 14 -27q2 -14 -6 -20t-19 -6z" />
    <glyph glyph-name="logicalnot" unicode="&#xac;" horiz-adv-x="1228" 
d="M940 584h-790v139h929v-516h-139v377z" />
    <glyph glyph-name="uni00AD" unicode="&#xad;" horiz-adv-x="681" 
d="M592 385h-502v156h502v-156z" />
    <glyph glyph-name="registered" unicode="&#xae;" horiz-adv-x="1638" 
d="M1225.5 254.5q167.5 184.5 167.5 439.5q0 125 -44 239t-122 200t-182.5 136t-225.5 50t-225.5 -50t-182 -136t-121.5 -200t-44 -240t44 -238.5t166.5 -248.5t362 -136t407 184.5zM819.5 -33q-151.5 0 -281.5 56.5t-226.5 154.5t-151 231.5t-54.5 285t54.5 284.5
t151 231.5t226.5 154.5t281.5 56t281.5 -56t226 -154.5t150.5 -231.5t54.5 -284.5t-54.5 -285t-150.5 -231.5t-226 -154.5t-281.5 -56.5zM737 709h70q53 0 92 47t39 145q0 147 -131 148h-70v-340zM475 1098h399q157 0 196.5 -77t39.5 -137t-45 -117.5t-119 -82.5
q25 -37 100.5 -149.5t161.5 -190.5v-25h-166q-25 0 -48 30t-51 79t-59.5 109.5t-72.5 121.5h-74v-217q0 -54 18 -68t85 -18v-37h-365v37q67 4 85 18.5t18 67.5v533q0 53 -17 67.5t-86 18.5v37z" />
    <glyph glyph-name="macron" unicode="&#xaf;" horiz-adv-x="606" 
d="M623 1122h-639v111h639v-111z" />
    <glyph glyph-name="degree" unicode="&#xb0;" horiz-adv-x="819" 
d="M125 1120.5q0 59.5 21.5 111.5t60.5 90t90 60.5t112.5 22.5t112.5 -22.5t90 -60.5t60.5 -90t21.5 -111.5t-21.5 -112t-60.5 -91t-90 -60t-112.5 -21.5t-112.5 21.5t-90 60t-60.5 91t-21.5 112zM588 1120q0 82 -48 134.5t-130 52.5t-130.5 -52.5t-48.5 -134.5t48.5 -134
t130.5 -52t130 52t48 134z" />
    <glyph glyph-name="plusminus" unicode="&#xb1;" horiz-adv-x="1228" 
d="M1079 139v-139h-929v139h929zM545 930h139v-277h395v-139h-395v-276h-139v276h-395v139h395v277z" />
    <glyph glyph-name="twosuperior" unicode="&#xb2;" horiz-adv-x="681" 
d="M492 1146q0 69 -47 123t-125 54t-123 -29.5t-74 -68.5t-36 -55.5t-20 -16.5t-13.5 16.5t19 55.5t87.5 109.5t207 70.5q105 0 188.5 -65.5t83.5 -172.5q0 -150 -162 -235t-230.5 -142t-105.5 -118h318q92 0 120.5 46t42.5 46t15 -14q0 -14 -17.5 -61.5t-27.5 -77
t-19 -50.5h-530q10 137 94 211t140.5 110t103.5 73.5t79 79.5t32 111z" />
    <glyph glyph-name="threesuperior" unicode="&#xb3;" horiz-adv-x="681" 
d="M637 836q0 -35 -18.5 -84.5t-90 -126t-254.5 -76.5q-108 0 -181 52.5t-73 95t17.5 61t49.5 18.5t57.5 -27.5t36.5 -68.5q24 -90 144 -90t156.5 74.5t36.5 110.5q0 62 -40.5 135.5t-91 76t-67 2.5t-26.5 1.5t-10 15.5t23.5 18t76.5 28.5t53 131.5q0 66 -42 102.5t-97 36.5
t-89 -17.5t-55.5 -38t-32.5 -38t-20 -17.5q-16 0 -16 21q0 2 14.5 29.5t69.5 85t161 57.5t172 -57t66 -137t-71 -144q141 -90 141 -231z" />
    <glyph glyph-name="acute" unicode="&#xb4;" horiz-adv-x="606" 
d="M534 1393q74 0 74 -75q0 -38 -41 -63l-338 -215h-82l308 312q41 41 79 41z" />
    <glyph glyph-name="mu" unicode="&#xb5;" horiz-adv-x="1175" 
d="M805 164q-231 -180 -365 -180h-28q-29 0 -41 4l8 -303q0 -119 -107 -119q-53 0 -81.5 28.5t-28.5 73.5t12 217.5t12 278.5v536q0 55 -24.5 76t-55 29t-55 12t-24.5 23q0 14 22.5 18t120.5 23.5t201 64.5v-721q0 -66 30.5 -100.5t113.5 -34.5t149.5 31t140.5 92v487
q0 55 -24.5 76t-55.5 29t-55.5 12t-24.5 23q0 14 22.5 18t120.5 23.5t201 64.5v-717q0 -87 55.5 -99.5t80 -16.5t24.5 -23q0 -14 -22.5 -18t-118 -23t-203.5 -65v180z" />
    <glyph glyph-name="paragraph" unicode="&#xb6;" horiz-adv-x="1228" 
d="M508 547q-205 0 -306.5 116t-101.5 325q0 210 100 305.5t328 95.5h508v-50q-98 0 -133 -24.5t-35 -65.5v-1528h-118v1606h-123v-1606h-119v826z" />
    <glyph glyph-name="periodcentered" unicode="&#xb7;" horiz-adv-x="569" 
d="M176 465q0 47 34 77.5t75 30.5t74.5 -30.5t33.5 -77.5t-33.5 -78t-74.5 -31t-75 31t-34 78z" />
    <glyph glyph-name="cedilla" unicode="&#xb8;" horiz-adv-x="606" 
d="M268 -209q-33 0 -71 -14l-15 12l88 211h70l-53 -143q31 8 69 8q77 0 118.5 -43.5t41.5 -97.5q0 -88 -70.5 -131.5t-173.5 -43.5t-182 33l29 64q85 -23 131 -23q45 0 80 19.5t35 66.5t-32 64.5t-65 17.5z" />
    <glyph glyph-name="onesuperior" unicode="&#xb9;" horiz-adv-x="681" 
d="M90 1274q-18 0 -18 16t26.5 21.5t119.5 21t222 84.5v-715q0 -63 23 -83.5t110 -20.5q37 0 37 -27q0 -14 -18 -14l-58 1l-432 -1q-16 0 -16 13t6 20.5t43 7.5q86 0 116 20t30 84v541q0 31 -29 31h-162z" />
    <glyph glyph-name="ordmasculine" unicode="&#xba;" horiz-adv-x="659" 
d="M109 914q-89 87 -89 202t89 202t221 87t220.5 -86.5t88.5 -202.5t-88.5 -202.5t-220.5 -86.5t-221 87zM500 1115q0 46 -10.5 89t-32 77t-53 54.5t-93.5 20.5t-106.5 -70.5t-44.5 -143.5t10 -116t31.5 -77t53.5 -53t75 -19t74.5 19t53 53t32 77t10.5 89z" />
    <glyph glyph-name="guillemotright" unicode="&#xbb;" horiz-adv-x="985" 
d="M160 820q0 26 25 26q11 0 28 -17l305 -315q18 -22 18 -50t-18 -48l-305 -316q-15 -16 -27 -16q-26 0 -26 20t14 33l246 328l-246 328q-14 14 -14 27zM449 820q0 26 25 26q11 0 28 -17l305 -315q18 -22 18 -50t-18 -48l-305 -316q-16 -16 -28 -16q-26 0 -25 20q0 20 14 33
l246 328l-246 328q-14 14 -14 27z" />
    <glyph glyph-name="onequarter" unicode="&#xbc;" horiz-adv-x="1708" 
d="M90 1274q-18 0 -18 16t26.5 21.5t119.5 21t222 84.5v-715q0 -63 23 -83.5t110 -20.5q37 0 37 -27q0 -14 -18 -14l-58 1l-432 -1q-16 0 -16 13t6 20.5t43 7.5q86 0 116 20t30 84v541q0 31 -29 31h-162zM537 -16h-119l907 1421h119zM1384 303v373h-4l-290 -373h294z
M1276 13q0 17 17.5 20.5t37 8.5t36.5 18.5t17 54.5v114h-342l-30 50l432 557h84v-533h141l-29 -74h-112v-114q0 -41 18.5 -54.5t40 -18.5t40 -8t18.5 -22q4 -16 -27 -16l-40 1l-282 -1q-20 0 -20 17z" />
    <glyph glyph-name="onehalf" unicode="&#xbd;" horiz-adv-x="1708" 
d="M1503 584q0 68 -46.5 123t-124.5 55t-123.5 -30t-74 -68.5t-35.5 -55t-21 -16.5t-13.5 16.5t20 55t87 109.5t206.5 71q106 0 189.5 -65.5t83.5 -172.5q0 -149 -164.5 -236t-230.5 -142.5t-103 -116.5h317q93 0 121.5 46t42.5 46t14 -12t-17 -61.5t-27.5 -79.5t-18.5 -50
h-530q14 182 187.5 291t217 167t43.5 126zM76 1274q-19 0 -19 16t27 21.5t120 21t222 84.5v-715q0 -64 23 -84t110 -20q37 0 37 -27q0 -14 -18 -14l-58 1l-432 -1q-16 0 -16 13t6 20.5t43 7.5q86 0 115.5 19.5t29.5 84.5v541q0 31 -28 31h-162zM463 -16h-119l907 1421h119z
" />
    <glyph glyph-name="threequarters" unicode="&#xbe;" horiz-adv-x="1708" 
d="M686 836q0 -35 -18.5 -84.5t-90 -126t-253.5 -76.5q-109 0 -181.5 52.5t-72.5 95t17 61t49 18.5t57.5 -27.5t36.5 -68.5q24 -90 144 -90t156.5 74.5t36.5 110.5q0 62 -40.5 135.5t-91 76t-67 2.5t-26.5 1.5t-10 15.5t23.5 18t76.5 28.5t53 131.5q0 66 -42 102.5t-97 36.5
t-89 -17.5t-55.5 -38t-32.5 -38t-19 -17.5q-16 0 -17 21q0 2 14.5 29.5t69.5 85t161 57.5t172 -56.5t66 -136.5t-71 -145q141 -90 141 -231zM535 -16h-119l907 1421h119zM1384 303v373h-4l-290 -373h294zM1276 13q0 17 17.5 20.5t37 8.5t36.5 18.5t17 54.5v114h-342l-30 50
l432 557h84v-533h141l-29 -74h-112v-114q0 -41 18.5 -54.5t40 -18.5t40 -8t18.5 -22q4 -16 -27 -16l-40 1l-282 -1q-20 0 -20 17z" />
    <glyph glyph-name="questiondown" unicode="&#xbf;" 
d="M739 895q0 -47 -33.5 -78t-74.5 -31t-75 31t-34 78t34 78t75 31t74.5 -31t33.5 -78zM735 156q-91 92 -205 92t-206.5 -92.5t-92.5 -223.5t90 -224t223 -93t185.5 104.5t85.5 131t71 26.5t64.5 -22.5t26.5 -55.5q0 -74 -95 -153.5t-281 -79.5t-312.5 122.5t-126.5 299.5
t118 302.5t255 125.5q61 0 96 -6l-6 170q0 23 22 22q18 0 22.5 -18.5t21.5 -117t97 -278.5z" />
    <glyph glyph-name="Agrave" unicode="&#xc0;" horiz-adv-x="1366" 
d="M608 1135l-198 -574h432zM854 20q0 18 23 22t49 10q72 14 72 72q-1 59 -31 128l-111 272h-463l-35 -118q-30 -106 -30 -174q0 -155 145 -188q29 -7 29 -21q0 -27 -41 -27l-223 4l-143 -2l-93 -2q-31 0 -31 22q-1 14 13 18t36 11q67 18 116 70q97 106 181 338l265 719
q-20 24 -40 36t-20 18t32 35q63 55 99 172q7 23 17 23t14 -14t16 -45l508 -1243q37 -85 106 -104q26 -7 43 -10t17 -22q0 -25 -33 -24l-260 4l-196 -4q-31 0 -31 24zM367 1748q0 72 65 75q49 0 88 -41l307 -312h-82l-337 216q-41 24 -41 62z" />
    <glyph glyph-name="Aacute" unicode="&#xc1;" horiz-adv-x="1366" 
d="M608 1135l-198 -574h432zM854 20q0 18 23 22t49 10q72 14 72 72q-1 59 -31 128l-111 272h-463l-35 -118q-30 -106 -30 -174q0 -155 145 -188q29 -7 29 -21q0 -27 -41 -27l-223 4l-143 -2l-93 -2q-31 0 -31 22q-1 14 13 18t36 11q67 18 116 70q97 106 181 338l265 719
q-20 24 -40 36t-20 18t32 35q63 55 99 172q7 23 17 23t14 -14t16 -45l508 -1243q37 -85 106 -104q26 -7 43 -10t17 -22q0 -25 -33 -24l-260 4l-196 -4q-31 0 -31 24zM902 1823q38 -1 56 -19t18 -56t-40 -62l-338 -216h-82l307 312q41 41 79 41z" />
    <glyph glyph-name="Acircumflex" unicode="&#xc2;" horiz-adv-x="1366" 
d="M608 1135l-198 -574h432zM854 20q0 18 23 22t49 10q72 14 72 72q-1 59 -31 128l-111 272h-463l-35 -118q-30 -106 -30 -174q0 -155 145 -188q29 -7 29 -21q0 -27 -41 -27l-223 4l-143 -2l-93 -2q-31 0 -31 22q-1 14 13 18t36 11q67 18 116 70q97 106 181 338l265 719
q-20 24 -40 36t-20 18t32 35q63 55 99 172q7 23 17 23t14 -14t16 -45l508 -1243q37 -85 106 -104q26 -7 43 -10t17 -22q0 -25 -33 -24l-260 4l-196 -4q-31 0 -31 24zM422 1470h-70l254 340h127l258 -340h-71l-250 209z" />
    <glyph glyph-name="Atilde" unicode="&#xc3;" horiz-adv-x="1366" 
d="M608 1135l-198 -574h432zM854 20q0 18 23 22t49 10q72 14 72 72q-1 59 -31 128l-111 272h-463l-35 -118q-30 -106 -30 -174q0 -155 145 -188q29 -7 29 -21q0 -27 -41 -27l-223 4l-143 -2l-93 -2q-31 0 -31 22q-1 14 13 18t36 11q67 18 116 70q97 106 181 338l265 719
q-20 24 -40 36t-20 18t32 35q63 55 99 172q7 23 17 23t14 -14t16 -45l508 -1243q37 -85 106 -104q26 -7 43 -10t17 -22q0 -25 -33 -24l-260 4l-196 -4q-31 0 -31 24zM1010 1741q0 -2 -8 -36q-19 -86 -96 -147q-42 -34 -116 -34t-223 77q-31 15 -61 15q-73 0 -99 -64
q-7 -16 -14 -28h-59q16 98 76 151t130 53t128 -28t94 -44q34 -16 80 -18q46 0 69 33t39 70h60z" />
    <glyph glyph-name="Adieresis" unicode="&#xc4;" horiz-adv-x="1366" 
d="M608 1135l-198 -574h432zM854 20q0 18 23 22t49 10q72 14 72 72q-1 59 -31 128l-111 272h-463l-35 -118q-30 -106 -30 -174q0 -155 145 -188q29 -7 29 -21q0 -27 -41 -27l-223 4l-143 -2l-93 -2q-31 0 -31 22q-1 14 13 18t36 11q67 18 116 70q97 106 181 338l265 719
q-20 24 -40 36t-20 18t32 35q63 55 99 172q7 23 17 23t14 -14t16 -45l508 -1243q37 -85 106 -104q26 -7 43 -10t17 -22q0 -25 -33 -24l-260 4l-196 -4q-31 0 -31 24zM863 1503q-45 0 -69 30t-24 72q0 43 24 73t70 30t78 -31q33 -31 33 -73t-33 -71q-33 -30 -79 -30z
M369 1605q-1 43 23 73t70 30t79 -31t33 -73t-34 -71q-32 -30 -78 -30t-70 30q-23 30 -23 72z" />
    <glyph glyph-name="Aring" unicode="&#xc5;" horiz-adv-x="1366" 
d="M608 1135l-198 -574h432zM854 20q0 18 23 22t49 10q72 14 72 72q-1 59 -31 128l-111 272h-463l-35 -118q-30 -106 -30 -174q0 -155 145 -188q29 -7 29 -21q0 -27 -41 -27l-223 4l-143 -2l-93 -2q-31 0 -31 22q-1 14 13 18t36 11q67 18 116 70q97 106 181 338l265 719
q-20 24 -40 36t-20 18t32 35q63 55 99 172q7 23 17 23t14 -14t16 -45l508 -1243q37 -85 106 -104q26 -7 43 -10t17 -22q0 -25 -33 -24l-260 4l-196 -4q-31 0 -31 24zM537 1675q1 -55 37 -95t96 -40t98 39q39 39 39 95t-39 96t-98 40t-96 -40t-37 -95zM467 1676q0 86 59 145
t146 59t145 -59t59 -147q1 -87 -58 -144q-59 -58 -146 -59q-88 -1 -146 59t-59 146z" />
    <glyph glyph-name="AE" unicode="&#xc6;" horiz-adv-x="2009" 
d="M909 1323h-4l-381 -586h385v586zM729 20q0 24 27.5 26.5t61.5 8.5t62.5 30t28.5 91v524h-411l-166 -262q-70 -112 -70 -196t27.5 -129t103.5 -64q37 -10 37 -29q0 -12 -8 -18t-43 -6h-31l-242 4l-251 -4q-25 0 -30 7t-5 20.5t20 23.5q103 26 213.5 127.5t249.5 314.5
l410 623q31 47 48 76t29.5 50t12.5 48t-20.5 37t-46 14t-46 7.5t-20.5 20.5t11 22.5t36 5.5l323 -4l654 4l127 -387q14 -38 14 -56t-19 -18t-52 88t-95.5 159.5t-144.5 108.5t-185.5 46t-232.5 9v-606q317 0 317 273q0 41 21 41q14 0 17 -9.5t3 -31.5v-602q0 -23 -3 -32
t-17 -9q-20 0 -21 41q0 156 -86 224t-231 68v-524q0 -70 31 -100.5t129 -30.5q187 0 342.5 110.5t200.5 241t50 137.5t13 7q16 0 16 -22t-18 -87l-107 -436q-376 4 -755 4h-42l-210 -4q-27 0 -27 24z" />
    <glyph glyph-name="Ccedilla" unicode="&#xc7;" horiz-adv-x="1441" 
d="M721 -209q-33 0 -72 -14l-14 12l74 180q-137 6 -251 66.5t-239 212.5t-125 446q0 154 61.5 287t158 231.5t214.5 153.5t220 55t167.5 -17.5t116.5 -39t87 -38.5t64.5 -17t39 16t14.5 35.5t9 36t28 16.5t22 -33v-512q0 -33 -24 -32q-16 0 -22.5 21t-17.5 87t-50 146.5
t-136.5 181t-287.5 100.5q-191 0 -315 -179t-124 -516t132.5 -499t304.5 -162q204 0 336 128t161 327q8 47 25 47q25 0 25 -33v-485q0 -33 -29 -33q-16 0 -23.5 15.5t-28 60.5t-123 3t-168 -58.5t-151.5 -20.5l-41 -110q31 8 70 8q76 0 118 -44t42 -97q0 -88 -70.5 -131.5
t-174.5 -43.5t-181 33l28 64q85 -23 131 -23t80.5 19.5t34.5 66.5t-31.5 64.5t-64.5 17.5z" />
    <glyph glyph-name="Egrave" unicode="&#xc8;" horiz-adv-x="1290" 
d="M74 20q0 24 28 27q87 6 119 34q33 28 33 95v1036q0 107 -91 121q-34 6 -62 8t-27 27q0 23 26 25l87 -2l165 -2h236l450 4l127 -387q15 -40 15 -57t-21 -17q-16 0 -50 88t-96 160q-63 72 -145 108t-185 46q-103 9 -232 9v-589q161 0 241 55q98 67 96 217q0 41 21 41
q14 0 17 -9t3 -32v-602q0 -23 -3 -32t-17 -9q-20 0 -21 41q0 232 -202 278q-61 14 -135 15v-541q-1 -70 31 -100t129 -31q186 0 338 107t233 323q16 49 21 57q5 9 14 9q16 0 16 -25t-19 -84l-106 -436q-376 4 -756 4l-165 -2l-87 -2q-26 0 -26 24zM340 1748q0 72 66 75
q49 0 88 -41l307 -312h-82l-338 216q-41 24 -41 62z" />
    <glyph glyph-name="Eacute" unicode="&#xc9;" horiz-adv-x="1290" 
d="M74 20q0 24 28 27q87 6 119 34q33 28 33 95v1036q0 107 -91 121q-34 6 -62 8t-27 27q0 23 26 25l87 -2l165 -2h236l450 4l127 -387q15 -40 15 -57t-21 -17q-16 0 -50 88t-96 160q-63 72 -145 108t-185 46q-103 9 -232 9v-589q161 0 241 55q98 67 96 217q0 41 21 41
q14 0 17 -9t3 -32v-602q0 -23 -3 -32t-17 -9q-20 0 -21 41q0 232 -202 278q-61 14 -135 15v-541q-1 -70 31 -100t129 -31q186 0 338 107t233 323q16 49 21 57q5 9 14 9q16 0 16 -25t-19 -84l-106 -436q-376 4 -756 4l-165 -2l-87 -2q-26 0 -26 24zM876 1823q74 0 74 -75
q0 -38 -41 -62l-338 -216h-82l308 312q41 41 79 41z" />
    <glyph glyph-name="Ecircumflex" unicode="&#xca;" horiz-adv-x="1290" 
d="M74 20q0 24 28 27q87 6 119 34q33 28 33 95v1036q0 107 -91 121q-34 6 -62 8t-27 27q0 23 26 25l87 -2l165 -2h236l450 4l127 -387q15 -40 15 -57t-21 -17q-16 0 -50 88t-96 160q-63 72 -145 108t-185 46q-103 9 -232 9v-589q161 0 241 55q98 67 96 217q0 41 21 41
q14 0 17 -9t3 -32v-602q0 -23 -3 -32t-17 -9q-20 0 -21 41q0 232 -202 278q-61 14 -135 15v-541q-1 -70 31 -100t129 -31q186 0 338 107t233 323q16 49 21 57q5 9 14 9q16 0 16 -25t-19 -84l-106 -436q-376 4 -756 4l-165 -2l-87 -2q-26 0 -26 24zM395 1470h-69l254 340h127
l258 -340h-72l-250 209z" />
    <glyph glyph-name="Edieresis" unicode="&#xcb;" horiz-adv-x="1290" 
d="M74 20q0 24 28 27q87 6 119 34q33 28 33 95v1036q0 107 -91 121q-34 6 -62 8t-27 27q0 23 26 25l87 -2l165 -2h236l450 4l127 -387q15 -40 15 -57t-21 -17q-16 0 -50 88t-96 160q-63 72 -145 108t-185 46q-103 9 -232 9v-589q161 0 241 55q98 67 96 217q0 41 21 41
q14 0 17 -9t3 -32v-602q0 -23 -3 -32t-17 -9q-20 0 -21 41q0 232 -202 278q-61 14 -135 15v-541q-1 -70 31 -100t129 -31q186 0 338 107t233 323q16 49 21 57q5 9 14 9q16 0 16 -25t-19 -84l-106 -436q-376 4 -756 4l-165 -2l-87 -2q-26 0 -26 24zM743 1605q0 43 24 73
t70 30q47 0 79 -31t32 -73t-33 -71q-33 -30 -79 -30t-69 30q-24 30 -24 72zM435 1503q-45 0 -69 30t-24 72q0 43 24 73t70 30t78 -31q33 -31 33 -73t-33 -71q-33 -30 -79 -30z" />
    <glyph glyph-name="Igrave" unicode="&#xcc;" horiz-adv-x="720" 
d="M639 1368q0 -25 -29 -27q-86 -6 -119 -33q-33 -28 -32 -96v-1036q0 -68 32 -95t119 -34q29 -3 29 -27t-27 -24l-87 2l-165 2l-164 -2l-87 -2q-27 0 -27 24t28 27q86 6 119 34t33 95v1036q0 107 -91 121q-33 6 -61 8t-28 26t27 26l87 -2l164 -2l165 2l87 2q27 0 27 -25z
M55 1748q0 72 66 75q49 0 88 -41l307 -312h-82l-338 216q-41 24 -41 62z" />
    <glyph glyph-name="Iacute" unicode="&#xcd;" horiz-adv-x="720" 
d="M639 1368q0 -25 -29 -27q-86 -6 -119 -33q-33 -28 -32 -96v-1036q0 -68 32 -95t119 -34q29 -3 29 -27t-27 -24l-87 2l-165 2l-164 -2l-87 -2q-27 0 -27 24t28 27q86 6 119 34t33 95v1036q0 107 -91 121q-33 6 -61 8t-28 26t27 26l87 -2l164 -2l165 2l87 2q27 0 27 -25z
M591 1823q38 -1 56 -19q19 -18 19 -56t-41 -62l-338 -216h-82l307 312q41 41 79 41z" />
    <glyph glyph-name="Icircumflex" unicode="&#xce;" horiz-adv-x="720" 
d="M639 1368q0 -25 -29 -27q-86 -6 -119 -33q-33 -28 -32 -96v-1036q0 -68 32 -95t119 -34q29 -3 29 -27t-27 -24l-87 2l-165 2l-164 -2l-87 -2q-27 0 -27 24t28 27q86 6 119 34t33 95v1036q0 107 -91 121q-33 6 -61 8t-28 26t27 26l87 -2l164 -2l165 2l87 2q27 0 27 -25z
M111 1470h-70l254 340h127l258 -340h-72l-250 209z" />
    <glyph glyph-name="Idieresis" unicode="&#xcf;" horiz-adv-x="720" 
d="M639 1368q0 -25 -29 -27q-86 -6 -119 -33q-33 -28 -32 -96v-1036q0 -68 32 -95t119 -34q29 -3 29 -27t-27 -24l-87 2l-165 2l-164 -2l-87 -2q-27 0 -27 24t28 27q86 6 119 34t33 95v1036q0 107 -91 121q-33 6 -61 8t-28 26t27 26l87 -2l164 -2l165 2l87 2q27 0 27 -25z
M459 1605q-1 43 23 73t70 30t79 -31t33 -73t-33 -71q-33 -30 -79 -30t-70 30q-23 30 -23 72zM57 1605q0 43 24 73t70 30q47 0 79 -31t32 -73t-33 -71q-33 -30 -79 -30t-69 30q-24 30 -24 72z" />
    <glyph glyph-name="Eth" unicode="&#xd0;" horiz-adv-x="1441" 
d="M451 692v-405q0 -137 50.5 -189.5t188.5 -52.5q243 0 348 175.5t105 418.5q0 516 -207 610t-352 94h-133v-589h360v-62h-360zM74 20q0 24 27.5 26.5t61.5 8.5t62.5 30t28.5 91v516h-213v62h213v458q0 68 -28.5 91.5t-62.5 29.5t-61.5 8t-27.5 27t26 25l22 -1l230 -3
l219 4q383 0 580 -204t197 -509q0 -304 -179.5 -494t-500.5 -190l-316 4h-41l-211 -4q-26 0 -26 24z" />
    <glyph glyph-name="Ntilde" unicode="&#xd1;" horiz-adv-x="1402" 
d="M1157 -6q0 -31 -13 -31t-23 15q-9 15 -31 47l-783 1091h-6v-751q0 -154 47 -230t146 -90q24 -4 34 -8t10 -23t-24 -18l-54 2l-188 2l-187 -2l-54 -2q-25 0 -25 22q0 14 11 18t34 9q98 14 146 90q47 76 47 230v821l-72 90q-35 46 -104 62q-23 4 -38 8t-16 18q0 14 8 21
t44 8l198 -4h78l754 -1063h4v698q0 154 -47 230t-146 89q-23 5 -34 9t-11 18q0 23 25 23l54 -2l187 -2l188 2l54 2q25 0 25 -23q1 -14 -11 -18t-34 -9q-98 -14 -146 -90t-47 -229v-1030zM1040 1741q0 -2 -7 -36q-17 -84 -96 -147q-43 -34 -113 -34t-160 45q-35 15 -66 31
q-30 16 -60 16q-70 0 -101 -64q-7 -16 -13 -28h-59q16 98 76 151t129 53t128 -28q60 -28 95 -44t81 -18q46 0 68 33q23 33 39 70h59z" />
    <glyph glyph-name="Ograve" unicode="&#xd2;" horiz-adv-x="1593" 
d="M319 694q0 -194 42 -324t110 -209q125 -145 326 -145q321 0 435 354q42 130 42 324t-42 325q-81 252 -263 320q-86 33 -172 33q-322 0 -436 -353q-42 -130 -42 -325zM797 -33q-123 0 -249 50q-263 104 -390 372q-63 135 -64 305q0 170 64 305q124 267 390 372
q126 50 249 50t249 -50q264 -105 390 -372q63 -135 63 -305t-63 -305q-123 -264 -390 -372q-126 -50 -249 -50zM870 1470l-338 216q-40 24 -40 62q1 72 65 75q49 0 88 -41l307 -312h-82z" />
    <glyph glyph-name="Oacute" unicode="&#xd3;" horiz-adv-x="1593" 
d="M319 694q0 -194 42 -324t110 -209q125 -145 326 -145q321 0 435 354q42 130 42 324t-42 325q-81 252 -263 320q-86 33 -172 33q-322 0 -436 -353q-42 -130 -42 -325zM797 -33q-123 0 -249 50q-263 104 -390 372q-63 135 -64 305q0 170 64 305q124 267 390 372
q126 50 249 50t249 -50q264 -105 390 -372q63 -135 63 -305t-63 -305q-123 -264 -390 -372q-126 -50 -249 -50zM1027 1823q38 -1 56 -19q19 -18 19 -56t-41 -62l-338 -216h-82l307 312q41 41 79 41z" />
    <glyph glyph-name="Ocircumflex" unicode="&#xd4;" horiz-adv-x="1593" 
d="M319 694q0 -194 42 -324t110 -209q125 -145 326 -145q321 0 435 354q42 130 42 324t-42 325q-81 252 -263 320q-86 33 -172 33q-322 0 -436 -353q-42 -130 -42 -325zM797 -33q-123 0 -249 50q-263 104 -390 372q-63 135 -64 305q0 170 64 305q124 267 390 372
q126 50 249 50t249 -50q264 -105 390 -372q63 -135 63 -305t-63 -305q-123 -264 -390 -372q-126 -50 -249 -50zM547 1470h-70l254 340h127l258 -340h-72l-249 209z" />
    <glyph glyph-name="Otilde" unicode="&#xd5;" horiz-adv-x="1593" 
d="M319 694q0 -194 42 -324t110 -209q125 -145 326 -145q321 0 435 354q42 130 42 324t-42 325q-81 252 -263 320q-86 33 -172 33q-322 0 -436 -353q-42 -130 -42 -325zM797 -33q-123 0 -249 50q-263 104 -390 372q-63 135 -64 305q0 170 64 305q124 267 390 372
q126 50 249 50t249 -50q264 -105 390 -372q63 -135 63 -305t-63 -305q-123 -264 -390 -372q-126 -50 -249 -50zM1135 1741q1 -2 -7 -36q-19 -86 -97 -147q-43 -34 -113 -34t-160 45q-35 15 -66 31q-30 16 -60 16q-70 0 -101 -64q-7 -16 -13 -28h-59q17 98 77 151t128 53
t128 -28t95 -44t81 -18q46 0 68 33q23 33 39 70h60z" />
    <glyph glyph-name="Odieresis" unicode="&#xd6;" horiz-adv-x="1593" 
d="M319 694q0 -194 42 -324t110 -209q125 -145 326 -145q321 0 435 354q42 130 42 324t-42 325q-81 252 -263 320q-86 33 -172 33q-322 0 -436 -353q-42 -130 -42 -325zM797 -33q-123 0 -249 50q-263 104 -390 372q-63 135 -64 305q0 170 64 305q124 267 390 372
q126 50 249 50t249 -50q264 -105 390 -372q63 -135 63 -305t-63 -305q-123 -264 -390 -372q-126 -50 -249 -50zM988 1503q-46 0 -70 30t-23 72q0 43 24 73q23 30 69 30t79 -31t33 -73t-33 -71q-33 -30 -79 -30zM494 1605q0 43 24 73t69 30q46 0 79 -31q32 -31 32 -73
t-32 -71q-32 -30 -79 -30q-46 0 -70 30q-23 30 -23 72z" />
    <glyph glyph-name="multiply" unicode="&#xd7;" horiz-adv-x="1228" 
d="M150 831l96 99l368 -371l365 371l100 -99l-366 -366l366 -367l-100 -98l-365 362l-364 -362l-100 98l366 367z" />
    <glyph glyph-name="Oslash" unicode="&#xd8;" horiz-adv-x="1593" 
d="M94 725q0 139 63.5 274.5t164 228.5t226.5 143t270 50t298 -84l90 170h76l-106 -204q225 -145 274 -324.5t49 -284.5q0 -170 -63.5 -305t-164 -228t-226 -143.5t-256.5 -50.5t-273 66l-108 -213h-91l132 248q-158 93 -256.5 253t-98.5 404zM319 688q0 -372 168 -547
l594 1131q-115 100 -284 100q-322 0 -400 -241.5t-78 -442.5zM797 16q321 0 399 242t78 434q0 347 -141 527l-586 -1129q103 -74 250 -74z" />
    <glyph glyph-name="Ugrave" unicode="&#xd9;" horiz-adv-x="1402" 
d="M575 1368q-1 -25 -29 -27q-87 -6 -119 -34q-32 -27 -32 -95v-796q0 -178 91 -282t253 -105q259 0 354 204q32 70 31 164v615q0 241 -117 297q-30 14 -57 21t-44 13t-17 25q0 25 37 25l231 -4l232 4q37 0 36 -25q0 -18 -17 -24t-44 -14q-26 -7 -56 -21q-118 -56 -118 -297
v-594q0 -194 -117 -323q-117 -128 -354 -128q-237 1 -373 115q-135 114 -135 299v831q0 107 -91 121q-34 6 -62 8t-27 27q0 23 26 25l85 -2l155 -2l165 2l87 2q26 0 26 -25zM397 1748q0 72 66 75q49 0 88 -41l307 -312h-82l-338 216q-41 24 -41 62z" />
    <glyph glyph-name="Uacute" unicode="&#xda;" horiz-adv-x="1402" 
d="M575 1368q-1 -25 -29 -27q-87 -6 -119 -34q-32 -27 -32 -95v-796q0 -178 91 -282t253 -105q259 0 354 204q32 70 31 164v615q0 241 -117 297q-30 14 -57 21t-44 13t-17 25q0 25 37 25l231 -4l232 4q37 0 36 -25q0 -18 -17 -24t-44 -14q-26 -7 -56 -21q-118 -56 -118 -297
v-594q0 -194 -117 -323q-117 -128 -354 -128q-237 1 -373 115q-135 114 -135 299v831q0 107 -91 121q-34 6 -62 8t-27 27q0 23 26 25l85 -2l155 -2l165 2l87 2q26 0 26 -25zM933 1823q38 -1 56 -19q19 -18 19 -56t-41 -62l-338 -216h-82l307 312q41 41 79 41z" />
    <glyph glyph-name="Ucircumflex" unicode="&#xdb;" horiz-adv-x="1402" 
d="M575 1368q-1 -25 -29 -27q-87 -6 -119 -34q-32 -27 -32 -95v-796q0 -178 91 -282t253 -105q259 0 354 204q32 70 31 164v615q0 241 -117 297q-30 14 -57 21t-44 13t-17 25q0 25 37 25l231 -4l232 4q37 0 36 -25q0 -18 -17 -24t-44 -14q-26 -7 -56 -21q-118 -56 -118 -297
v-594q0 -194 -117 -323q-117 -128 -354 -128q-237 1 -373 115q-135 114 -135 299v831q0 107 -91 121q-34 6 -62 8t-27 27q0 23 26 25l85 -2l155 -2l165 2l87 2q26 0 26 -25zM465 1470h-70l254 340h127l258 -340h-71l-250 209z" />
    <glyph glyph-name="Udieresis" unicode="&#xdc;" horiz-adv-x="1402" 
d="M575 1368q-1 -25 -29 -27q-87 -6 -119 -34q-32 -27 -32 -95v-796q0 -178 91 -282t253 -105q259 0 354 204q32 70 31 164v615q0 241 -117 297q-30 14 -57 21t-44 13t-17 25q0 25 37 25l231 -4l232 4q37 0 36 -25q0 -18 -17 -24t-44 -14q-26 -7 -56 -21q-118 -56 -118 -297
v-594q0 -194 -117 -323q-117 -128 -354 -128q-237 1 -373 115q-135 114 -135 299v831q0 107 -91 121q-34 6 -62 8t-27 27q0 23 26 25l85 -2l155 -2l165 2l87 2q26 0 26 -25zM906 1503q-46 0 -70 30t-23 72q0 43 24 73q23 30 69 30t79 -31t33 -73t-33 -71q-33 -30 -79 -30z
M412 1605q0 43 24 73t69 30q46 0 79 -31q32 -31 32 -73t-32 -71q-32 -30 -79 -30q-46 0 -70 30q-23 30 -23 72z" />
    <glyph glyph-name="Yacute" unicode="&#xdd;" horiz-adv-x="1251" 
d="M1288 1366q0 -16 -20 -21t-60 -27q-111 -62 -221 -231l-264 -405v-506q0 -68 33 -95t118 -34q29 -3 29 -27t-26 -24l-87 2l-165 2l-165 -2l-87 -2q-27 0 -27 24t28 27q28 2 62 8t62 30q29 24 28 91v455l-323 590q-52 96 -130 116q-28 7 -45 11t-18 22q0 23 62 23l192 -4
l134 2l79 2q39 0 50 -4q11 -3 11 -21t-18 -21q-20 -3 -45 -7t-44 -17q-19 -12 -19 -68t63 -163l217 -381l178 280q86 132 85 206t-27 107t-86 39q-23 1 -25 19t10 24t45 7l71 -2l128 -2l170 4q47 0 47 -27zM833 1823q74 0 74 -75q0 -38 -41 -62l-338 -216h-82l308 312
q41 41 79 41z" />
    <glyph glyph-name="Thorn" unicode="&#xde;" horiz-adv-x="1175" 
d="M451 375h104q186 0 278.5 78.5t92.5 262.5t-85 262.5t-257 78.5h-133v-682zM1130 706q0 -192 -165 -286t-414 -94h-100v-150q0 -68 27.5 -91.5t61 -29.5t62.5 -8.5t29 -26.5t-27 -24h-22l-85 2l-145 1l-252 -3q-26 0 -26 24t27.5 26.5t61.5 8.5t62.5 30t28.5 91v1036
q0 68 -28.5 91.5t-62.5 29.5t-61.5 8t-27.5 27t26 25l22 -1l85 -1l145 -1l252 3q27 0 27 -25t-29 -27t-62.5 -8t-61 -29.5t-27.5 -91.5v-108l133 2q370 0 458 -148.5t88 -251.5z" />
    <glyph glyph-name="germandbls" unicode="&#xdf;" horiz-adv-x="1175" 
d="M225 143v676h-151q61 41 100 109.5t68.5 148.5t57.5 162t68 149.5t100 109.5t144 42q148 0 229 -87.5t81 -223.5q0 -92 -35 -145.5t-76 -87t-76 -57t-35 -51.5t30 -50.5t74 -50t96 -63.5t127 -122.5t75 -246.5t-102.5 -265.5t-260.5 -105.5q-113 0 -180 54t-67 152
q0 61 30.5 89t65.5 28t57.5 -26.5t22.5 -64.5t-6.5 -54.5t-12.5 -29.5t-12 -25.5t-6 -32.5t25.5 -37t73.5 -17q94 0 130.5 67t36.5 210t-18.5 213t-45 119t-59.5 81.5t-59.5 59.5t-45 52.5t-18.5 67.5t21.5 71.5t70 92.5t48.5 196t-51.5 193t-133.5 60t-149.5 -73.5
t-67.5 -210.5q0 -47 10.5 -135t10.5 -191v-893h-93l-211 -4q-33 0 -32 24q0 20 23.5 24.5t52 9.5t52 22.5t23.5 66.5z" />
    <glyph glyph-name="agrave" unicode="&#xe0;" horiz-adv-x="1024" 
d="M279 221q0 -164 114 -164q31 0 97 27t153 100v336q-217 -76 -290 -138q-74 -61 -74 -161zM195 569q-80 -1 -80 91q0 42 47 94q96 105 273 165q83 28 155 27q237 0 237 -211v-608q0 -57 54 -57q39 0 97 58q11 11 17 11q16 0 17 -18q0 -6 -20 -29q-20 -24 -50 -48
q-77 -60 -149 -60q-102 0 -136 98q-8 27 -10 51q-183 -151 -346 -149q-100 0 -160 57q-59 57 -59 143q0 49 18 89t76 82q96 69 467 214v240q0 88 -101 88t-152 -85q-22 -36 -37 -79q-57 -164 -158 -164zM207 1318q0 73 65 75q47 0 88 -41l308 -312h-82l-338 215
q-41 25 -41 63z" />
    <glyph glyph-name="aacute" unicode="&#xe1;" horiz-adv-x="1024" 
d="M279 221q0 -164 114 -164q31 0 97 27t153 100v336q-217 -76 -290 -138q-74 -61 -74 -161zM195 569q-80 -1 -80 91q0 42 47 94q96 105 273 165q83 28 155 27q237 0 237 -211v-608q0 -57 54 -57q39 0 97 58q11 11 17 11q16 0 17 -18q0 -6 -20 -29q-20 -24 -50 -48
q-77 -60 -149 -60q-102 0 -136 98q-8 27 -10 51q-183 -151 -346 -149q-100 0 -160 57q-59 57 -59 143q0 49 18 89t76 82q96 69 467 214v240q0 88 -101 88t-152 -85q-22 -36 -37 -79q-57 -164 -158 -164zM817 1318q0 -38 -41 -63l-338 -215h-82l308 312q23 23 45 31
q59 23 90 -9q18 -18 18 -56z" />
    <glyph glyph-name="acircumflex" unicode="&#xe2;" horiz-adv-x="1024" 
d="M279 221q0 -164 114 -164q31 0 97 27t153 100v336q-217 -76 -290 -138q-74 -61 -74 -161zM195 569q-80 -1 -80 91q0 42 47 94q96 105 273 165q83 28 155 27q237 0 237 -211v-608q0 -57 54 -57q39 0 97 58q11 11 17 11q16 0 17 -18q0 -6 -20 -29q-20 -24 -50 -48
q-77 -60 -149 -60q-102 0 -136 98q-8 27 -10 51q-183 -151 -346 -149q-100 0 -160 57q-59 57 -59 143q0 49 18 89t76 82q96 69 467 214v240q0 88 -101 88t-152 -85q-22 -36 -37 -79q-57 -164 -158 -164zM262 1040h-69l253 340h127l258 -340h-71l-250 209z" />
    <glyph glyph-name="atilde" unicode="&#xe3;" horiz-adv-x="1024" 
d="M279 221q0 -164 114 -164q31 0 97 27t153 100v336q-217 -76 -290 -138q-74 -61 -74 -161zM195 569q-80 -1 -80 91q0 42 47 94q96 105 273 165q83 28 155 27q237 0 237 -211v-608q0 -57 54 -57q39 0 97 58q11 11 17 11q16 0 17 -18q0 -6 -20 -29q-20 -24 -50 -48
q-77 -60 -149 -60q-102 0 -136 98q-8 27 -10 51q-183 -151 -346 -149q-100 0 -160 57q-59 57 -59 143q0 49 18 89t76 82q96 69 467 214v240q0 88 -101 88t-152 -85q-22 -36 -37 -79q-57 -164 -158 -164zM850 1311q0 -2 -7 -36t-31 -74q-65 -109 -175 -107q-77 0 -229 76
q-90 43 -142 -17q-12 -15 -19 -31t-14 -28h-59q16 98 76 151t132 53q70 0 128 -28t92 -44q35 -16 81 -18q46 0 69 33t39 70h59z" />
    <glyph glyph-name="adieresis" unicode="&#xe4;" horiz-adv-x="1024" 
d="M279 221q0 -164 114 -164q31 0 97 27t153 100v336q-217 -76 -290 -138q-74 -61 -74 -161zM195 569q-80 -1 -80 91q0 42 47 94q96 105 273 165q83 28 155 27q237 0 237 -211v-608q0 -57 54 -57q39 0 97 58q11 11 17 11q16 0 17 -18q0 -6 -20 -29q-20 -24 -50 -48
q-77 -60 -149 -60q-102 0 -136 98q-8 27 -10 51q-183 -151 -346 -149q-100 0 -160 57q-59 57 -59 143q0 49 18 89t76 82q96 69 467 214v240q0 88 -101 88t-152 -85q-22 -36 -37 -79q-57 -164 -158 -164zM610 1175q0 43 24 73t70 30t78 -31t33 -73q0 -42 -33 -71
q-32 -30 -78 -30t-70 30t-24 72zM209 1175q-1 43 23 73t70 30t79 -31t33 -73t-33 -71q-33 -30 -79 -30t-70 30q-23 30 -23 72z" />
    <glyph glyph-name="aring" unicode="&#xe5;" horiz-adv-x="1024" 
d="M279 221q0 -164 114 -164q31 0 97 27t153 100v336q-217 -76 -290 -138q-74 -61 -74 -161zM195 569q-80 -1 -80 91q0 42 47 94q96 105 273 165q83 28 155 27q237 0 237 -211v-608q0 -57 54 -57q39 0 97 58q11 11 17 11q16 0 17 -18q0 -6 -20 -29q-20 -24 -50 -48
q-77 -60 -149 -60q-102 0 -136 98q-8 27 -10 51q-183 -151 -346 -149q-100 0 -160 57q-59 57 -59 143q0 49 18 89t76 82q96 69 467 214v240q0 88 -101 88t-152 -85q-22 -36 -37 -79q-57 -164 -158 -164zM377 1245q0 -55 37 -95t96 -40t98 39t39 95t-39 96t-98 40t-96 -40
t-37 -95zM307 1245q-1 85 59 145t146 60t145 -59q58 -59 59 -147q1 -87 -58 -144q-59 -58 -146 -59q-88 -1 -146 59t-59 145z" />
    <glyph glyph-name="ae" unicode="&#xe6;" horiz-adv-x="1554" 
d="M786 815q135 131 321 131t290 -129.5t104 -304.5h-682q7 -284 131.5 -353t212.5 -69t141.5 32t88 70.5t55 70.5t36.5 32q16 -1 15 -17q0 -16 -20.5 -62t-104.5 -139t-282 -93q-121 0 -222.5 57t-160.5 158q-217 -180 -309.5 -197.5t-127.5 -17.5q-111 0 -165 57t-54 121
t18.5 106.5t98.5 101t444 199.5v240q0 88 -101 88t-137 -60.5t-51.5 -103.5t-48.5 -103.5t-122 -60.5q-29 0 -48.5 24.5t-19.5 66.5t47 93.5t165 122t263 70.5q186 0 225 -131zM1317 561q0 188 -56.5 268t-165.5 80t-190.5 -101.5t-85.5 -246.5h498zM250 221
q0 -164 115 -164q31 0 97 27t152 100v336q-221 -78 -292.5 -139.5t-71.5 -159.5z" />
    <glyph glyph-name="ccedilla" unicode="&#xe7;" horiz-adv-x="1024" 
d="M495 -209q-33 0 -71 -14l-14 12l79 195q-172 12 -293.5 139t-121.5 331t139.5 348t335.5 144q159 0 280 -89t121 -222q0 -74 -32.5 -105.5t-75.5 -31.5t-74 28t-31 84t6.5 74t6.5 47q0 70 -54 118t-134 48q-143 0 -229.5 -104t-86.5 -268t97 -281t261 -117
q68 0 134.5 26.5t101.5 56.5q39 33 61.5 71t36.5 38t14 -20t-20.5 -69.5t-104.5 -142.5t-266 -103l-47 -127q32 8 70 8q77 0 118 -43.5t41 -97.5q0 -88 -70.5 -131.5t-173.5 -43.5t-182 33l29 64q85 -23 131 -23q45 0 80 19.5t35 66.5t-32 64.5t-65 17.5z" />
    <glyph glyph-name="egrave" unicode="&#xe8;" horiz-adv-x="1024" 
d="M593 127q137 0 226 61q45 30 86 98q6 9 17 9q18 -1 18 -19t-20 -65t-68 -97q-124 -130 -317 -130t-327 132t-134 331q0 198 131 348q131 151 328 151t301 -130t104 -304h-680q2 -78 21 -147q37 -142 167 -206q66 -32 147 -32zM754 561q0 348 -215 348q-114 0 -198 -101
t-87 -247h500zM225 1318q0 73 66 75q47 0 88 -41l307 -312h-82l-338 215q-41 25 -41 63z" />
    <glyph glyph-name="eacute" unicode="&#xe9;" horiz-adv-x="1024" 
d="M593 127q137 0 226 61q45 30 86 98q6 9 17 9q18 -1 18 -19t-20 -65t-68 -97q-124 -130 -317 -130t-327 132t-134 331q0 198 131 348q131 151 328 151t301 -130t104 -304h-680q2 -78 21 -147q37 -142 167 -206q66 -32 147 -32zM754 561q0 348 -215 348q-114 0 -198 -101
t-87 -247h500zM375 1040l307 312q39 39 78 40q39 0 57 -18q19 -18 19 -56t-41 -63l-338 -215h-82z" />
    <glyph glyph-name="ecircumflex" unicode="&#xea;" horiz-adv-x="1024" 
d="M593 127q137 0 226 61q45 30 86 98q6 9 17 9q18 -1 18 -19t-20 -65t-68 -97q-124 -130 -317 -130t-327 132t-134 331q0 198 131 348q131 151 328 151t301 -130t104 -304h-680q2 -78 21 -147q37 -142 167 -206q66 -32 147 -32zM754 561q0 348 -215 348q-114 0 -198 -101
t-87 -247h500zM281 1040h-70l254 340h127l258 -340h-72l-250 209z" />
    <glyph glyph-name="edieresis" unicode="&#xeb;" horiz-adv-x="1024" 
d="M593 127q137 0 226 61q45 30 86 98q6 9 17 9q18 -1 18 -19t-20 -65t-68 -97q-124 -130 -317 -130t-327 132t-134 331q0 198 131 348q131 151 328 151t301 -130t104 -304h-680q2 -78 21 -147q37 -142 167 -206q66 -32 147 -32zM754 561q0 348 -215 348q-114 0 -198 -101
t-87 -247h500zM629 1175q-1 43 23 73t70 30t79 -31t33 -73t-33 -71q-33 -30 -79 -30t-70 30q-23 30 -23 72zM227 1175q0 43 24 73t70 30q47 0 79 -31t32 -73t-33 -71q-33 -30 -79 -30t-69 30q-24 30 -24 72z" />
    <glyph glyph-name="igrave" unicode="&#xec;" horiz-adv-x="606" 
d="M59 18q0 22 24 26q25 4 53 10q28 4 52 22t23 67v566q0 51 -31 76t-97 30q-24 2 -24 21q1 14 13 17t89 18t234 75v-803q0 -49 25 -67t103 -31q24 -4 24 -27t-33 -22l-211 4l-211 -4q-33 0 -33 22zM-2 1318q0 73 65 75q46 0 89 -41l307 -312h-82l-338 215q-41 25 -41 63z
" />
    <glyph glyph-name="iacute" unicode="&#xed;" horiz-adv-x="606" 
d="M59 18q0 22 24 26q25 4 53 10q28 4 52 22t23 67v566q0 51 -31 76t-97 30q-24 2 -24 21q1 14 13 17t89 18t234 75v-803q0 -49 25 -67t103 -31q24 -4 24 -27t-33 -22l-211 4l-211 -4q-33 0 -33 22zM608 1318q0 -38 -41 -63l-338 -215h-82l308 312q23 23 45 31q59 23 90 -9
q18 -18 18 -56z" />
    <glyph glyph-name="icircumflex" unicode="&#xee;" horiz-adv-x="606" 
d="M59 18q0 22 24 26q25 4 53 10q28 4 52 22t23 67v566q0 51 -31 76t-97 30q-24 2 -24 21q1 14 13 17t89 18t234 75v-803q0 -49 25 -67t103 -31q24 -4 24 -27t-33 -22l-211 4l-211 -4q-33 0 -33 22zM53 1040h-69l254 340h127l258 -340h-72l-250 209z" />
    <glyph glyph-name="idieresis" unicode="&#xef;" horiz-adv-x="606" 
d="M59 18q0 22 24 26q25 4 53 10q28 4 52 22t23 67v566q0 51 -31 76t-97 30q-24 2 -24 21q1 14 13 17t89 18t234 75v-803q0 -49 25 -67t103 -31q24 -4 24 -27t-33 -22l-211 4l-211 -4q-33 0 -33 22zM401 1175q0 43 24 73t70 30q47 0 79 -31t32 -73t-33 -71q-33 -30 -79 -30
t-69 30q-24 30 -24 72zM93 1073q-45 0 -69 30t-24 72q0 43 24 73t70 30t78 -31q33 -31 33 -73t-33 -71q-33 -30 -79 -30z" />
    <glyph glyph-name="eth" unicode="&#xf0;" horiz-adv-x="1099" 
d="M205 1486q0 9 26 9t122.5 -44t203.5 -116l295 131v-69l-238 -107q195 -166 302.5 -352t107.5 -410q0 -291 -150 -417.5t-344 -126.5q-84 0 -171 39.5t-186 142.5t-99 299t138 338.5t337 142.5q94 0 180 -37q-92 198 -223 334l-291 -129v70l244 108q-71 74 -140 116
t-91.5 55.5t-22.5 22.5zM548 33q77 0 130 36.5t87 97t48 138.5t14 212.5t-69 257t-209 122.5t-209.5 -123.5t-69.5 -361.5t100.5 -308.5t177.5 -70.5z" />
    <glyph glyph-name="ntilde" unicode="&#xf1;" horiz-adv-x="1214" 
d="M53 18q0 22 24 26q25 4 53 10q28 4 52 22t23 67v566q0 51 -31 76t-97 30q-24 2 -24 21q-1 14 13 17t92 18t231 75v-188q37 26 80 60q164 128 298 128t187 -59t54 -152v-592q0 -49 24 -66t52 -23t52 -9q24 -4 23 -25q0 -25 -33 -24l-211 4l-210 -4q-33 0 -33 22t23 27
q24 4 53 9q28 4 52 22t23 67v562q-1 67 -31 101t-113 34t-150 -36t-140 -104v-557q0 -49 25 -67t103 -31q24 -4 24 -27t-33 -22l-211 4l-211 -4q-33 0 -33 22zM946 1311q0 -2 -7 -36q-17 -82 -96 -148q-93 -76 -274 12q-35 16 -65 31q-30 16 -61 16q-73 1 -100 -64
q-7 -16 -13 -28h-60q16 98 76 151t131 53q70 0 128 -28q59 -28 93 -44t81 -18q46 0 69 33t39 70h59z" />
    <glyph glyph-name="ograve" unicode="&#xf2;" horiz-adv-x="1099" 
d="M74 465q0 195 137 338t336 143t342 -145q135 -141 135 -336t-137 -338t-337 -143q-201 0 -338 143q-138 143 -138 338zM548 33q77 0 130 37t87 97t48 138t14 160q0 189 -62 298q-76 134 -216 134t-216 -134q-61 -107 -63 -298q0 -289 149 -395q52 -37 129 -37zM246 1318
q0 73 65 75q47 0 88 -41l308 -312h-82l-338 215q-41 25 -41 63z" />
    <glyph glyph-name="oacute" unicode="&#xf3;" horiz-adv-x="1099" 
d="M74 465q0 195 137 338t336 143t342 -145q135 -141 135 -336t-137 -338t-337 -143q-201 0 -338 143q-138 143 -138 338zM548 33q77 0 130 37t87 97t48 138t14 160q0 189 -62 298q-76 134 -216 134t-216 -134q-61 -107 -63 -298q0 -289 149 -395q52 -37 129 -37zM856 1318
q0 -38 -41 -63l-338 -215h-82l307 312q23 23 46 31q59 23 90 -9q18 -18 18 -56z" />
    <glyph glyph-name="ocircumflex" unicode="&#xf4;" horiz-adv-x="1099" 
d="M74 465q0 195 137 338t336 143t342 -145q135 -141 135 -336t-137 -338t-337 -143q-201 0 -338 143q-138 143 -138 338zM548 33q77 0 130 37t87 97t48 138t14 160q0 189 -62 298q-76 134 -216 134t-216 -134q-61 -107 -63 -298q0 -289 149 -395q52 -37 129 -37zM301 1040
h-70l254 340h127l258 -340h-71l-250 209z" />
    <glyph glyph-name="otilde" unicode="&#xf5;" horiz-adv-x="1099" 
d="M74 465q0 195 137 338t336 143t342 -145q135 -141 135 -336t-137 -338t-337 -143q-201 0 -338 143q-138 143 -138 338zM548 33q77 0 130 37t87 97t48 138t14 160q0 189 -62 298q-76 134 -216 134t-216 -134q-61 -107 -63 -298q0 -289 149 -395q52 -37 129 -37zM889 1311
q0 -2 -7 -36t-31 -74q-65 -109 -175 -107q-71 0 -164 45q-35 16 -66 31q-30 16 -60 16q-73 1 -100 -64q-7 -16 -14 -28h-59q17 98 77 151t130 53t128 -28t93 -44t81 -18q46 0 69 33t38 70h60z" />
    <glyph glyph-name="odieresis" unicode="&#xf6;" horiz-adv-x="1099" 
d="M74 465q0 195 137 338t336 143t342 -145q135 -141 135 -336t-137 -338t-337 -143q-201 0 -338 143q-138 143 -138 338zM548 33q77 0 130 37t87 97t48 138t14 160q0 189 -62 298q-76 134 -216 134t-216 -134q-61 -107 -63 -298q0 -289 149 -395q52 -37 129 -37zM649 1175
q0 43 24 73t70 30q47 0 79 -31t32 -73t-33 -71q-33 -30 -79 -30t-69 30q-24 30 -24 72zM248 1175q0 43 24 73t69 30q46 0 79 -31t33 -73t-33 -71q-33 -30 -79 -30t-70 30q-23 30 -23 72z" />
    <glyph glyph-name="divide" unicode="&#xf7;" horiz-adv-x="1228" 
d="M1079 535v-140h-929v140h929zM492 91q0 50 36.5 86t86 36t86 -37t36.5 -73q0 -59 -36.5 -97.5t-85.5 -38.5q-50 0 -86.5 37t-36.5 87zM492 841q0 50 36.5 86t86 36t86 -37t36.5 -73q0 -60 -36 -98t-86 -38t-86.5 37t-36.5 87z" />
    <glyph glyph-name="oslash" unicode="&#xf8;" horiz-adv-x="1099" 
d="M74 448q0 112 35.5 199.5t99 153t150.5 105.5t189.5 40t203.5 -45l69 135h78l-88 -170q98 -66 155.5 -172t57.5 -216q0 -209 -137.5 -351.5t-337.5 -142.5q-94 0 -176 34l-92 -176h-80l108 209q-111 66 -173 175.5t-62 221.5zM559 897q-88 0 -188.5 -71.5t-100.5 -360.5
q0 -221 84 -328l361 692q-68 68 -156 68zM543 33q147 0 215.5 122t68.5 314t-65 301l-356 -688q55 -49 137 -49z" />
    <glyph glyph-name="ugrave" unicode="&#xf9;" horiz-adv-x="1175" 
d="M418 -16q-125 0 -178 59t-54 152v505q0 55 -30 80t-105 37q-25 4 -24 23q1 14 23 18q99 18 168 34q69 17 153 54v-721q1 -67 31 -101t113 -34t150 31t140 92v487q0 55 -30 80t-105 37q-25 4 -25 23q0 14 23 18q203 35 321 88v-717q0 -86 80 -105q31 -7 55 -11t25 -23
q0 -14 -23 -18q-203 -35 -321 -88v180q-164 -128 -276 -163q-54 -17 -111 -17zM283 1318q0 73 65 75q47 0 88 -41l307 -312h-81l-338 215q-41 25 -41 63z" />
    <glyph glyph-name="uacute" unicode="&#xfa;" horiz-adv-x="1175" 
d="M418 -16q-125 0 -178 59t-54 152v505q0 55 -30 80t-105 37q-25 4 -24 23q1 14 23 18q99 18 168 34q69 17 153 54v-721q1 -67 31 -101t113 -34t150 31t140 92v487q0 55 -30 80t-105 37q-25 4 -25 23q0 14 23 18q203 35 321 88v-717q0 -86 80 -105q31 -7 55 -11t25 -23
q0 -14 -23 -18q-203 -35 -321 -88v180q-164 -128 -276 -163q-54 -17 -111 -17zM432 1040l307 312q39 39 78 40q39 0 57 -18t18 -56t-40 -63l-338 -215h-82z" />
    <glyph glyph-name="ucircumflex" unicode="&#xfb;" horiz-adv-x="1175" 
d="M418 -16q-125 0 -178 59t-54 152v505q0 55 -30 80t-105 37q-25 4 -24 23q1 14 23 18q99 18 168 34q69 17 153 54v-721q1 -67 31 -101t113 -34t150 31t140 92v487q0 55 -30 80t-105 37q-25 4 -25 23q0 14 23 18q203 35 321 88v-717q0 -86 80 -105q31 -7 55 -11t25 -23
q0 -14 -23 -18q-203 -35 -321 -88v180q-164 -128 -276 -163q-54 -17 -111 -17zM338 1040h-70l254 340h127l258 -340h-71l-250 209z" />
    <glyph glyph-name="udieresis" unicode="&#xfc;" horiz-adv-x="1175" 
d="M418 -16q-125 0 -178 59t-54 152v505q0 55 -30 80t-105 37q-25 4 -24 23q1 14 23 18q99 18 168 34q69 17 153 54v-721q1 -67 31 -101t113 -34t150 31t140 92v487q0 55 -30 80t-105 37q-25 4 -25 23q0 14 23 18q203 35 321 88v-717q0 -86 80 -105q31 -7 55 -11t25 -23
q0 -14 -23 -18q-203 -35 -321 -88v180q-164 -128 -276 -163q-54 -17 -111 -17zM779 1073q-45 0 -69 30t-24 72q0 43 24 73t70 30t78 -31q33 -31 33 -73t-33 -71q-33 -30 -79 -30zM285 1175q-1 43 23 73t70 30t79 -31t33 -73t-34 -71q-32 -30 -78 -30t-70 30q-23 30 -23 72z
" />
    <glyph glyph-name="yacute" unicode="&#xfd;" horiz-adv-x="1099" 
d="M657 909q0 25 35 25l187 -4l168 4q39 0 38 -25q0 -16 -19 -20q-19 -5 -50 -21q-86 -46 -148 -192l-319 -746q-138 -321 -225 -354q-27 -10 -61 -10t-72 22t-51 67q-13 43 -13 75t23 61q24 29 64 29t56 -23t26 -49t18 -50q9 -22 33 -22q25 0 47 35t42 76l107 227l-373 760
q-40 78 -98 102q-23 9 -37 13t-15 18q0 27 37 27l181 -4l176 4q33 0 32 -23q0 -18 -13 -23t-29 -9q-42 -10 -43 -50q-1 -39 17 -79t56 -113l201 -410l110 287q57 141 61 216q3 76 -21 104q-25 28 -53 36q-28 10 -52 16t-23 23zM856 1318q0 -38 -41 -63l-338 -215h-82
l307 312q23 23 46 31q59 23 90 -9q18 -18 18 -56z" />
    <glyph glyph-name="thorn" unicode="&#xfe;" 
d="M365 236q0 -156 83.5 -186t124.5 -30q135 0 221.5 121t86.5 338q0 144 -71 252.5t-210 108.5q-68 0 -122 -30t-113 -83v-491zM180 -262v1519q0 79 -53 92t-77.5 15t-24.5 18t13 19.5t91 18.5t236 75v-715q84 80 159.5 123t159.5 43q165 0 273 -125t108 -307
q0 -227 -144 -378.5t-348 -151.5q-110 0 -208 20v-266q0 -49 22.5 -66.5t50 -22.5t51 -8t23.5 -21t-31 -17l-53 1l-365 -1q-31 0 -30 16q0 18 22.5 21.5t50 8.5t51 22.5t23.5 66.5z" />
    <glyph glyph-name="ydieresis" unicode="&#xff;" horiz-adv-x="1099" 
d="M657 909q0 25 35 25l187 -4l168 4q39 0 38 -25q0 -16 -19 -20q-19 -5 -50 -21q-86 -46 -148 -192l-319 -746q-138 -321 -225 -354q-27 -10 -61 -10t-72 22t-51 67q-13 43 -13 75t23 61q24 29 64 29t56 -23t26 -49t18 -50q9 -22 33 -22q25 0 47 35t42 76l107 227l-373 760
q-40 78 -98 102q-23 9 -37 13t-15 18q0 27 37 27l181 -4l176 4q33 0 32 -23q0 -18 -13 -23t-29 -9q-42 -10 -43 -50q-1 -39 17 -79t56 -113l201 -410l110 287q57 141 61 216q3 76 -21 104q-25 28 -53 36q-28 10 -52 16t-23 23zM649 1175q0 43 24 73t70 30q47 0 79 -31
t32 -73t-33 -71q-33 -30 -79 -30t-69 30q-24 30 -24 72zM248 1175q0 43 24 73t69 30q46 0 79 -31t33 -73t-33 -71q-33 -30 -79 -30t-70 30q-23 30 -23 72z" />
    <glyph glyph-name="dotlessi" unicode="&#x131;" horiz-adv-x="606" 
d="M59 18q0 22 23.5 26.5t52.5 9.5t52.5 22.5t23.5 66.5v566q0 51 -23.5 70.5t-52.5 26.5t-52.5 9t-23.5 21q0 14 12.5 17t89 17.5t234.5 75.5v-803q0 -49 23.5 -66.5t52.5 -22.5t52.5 -9t23.5 -27t-33 -22l-53 1l-369 -1q-33 0 -33 22z" />
    <glyph glyph-name="OE" unicode="&#x152;" horiz-adv-x="2314" 
d="M1268 188h-4q-54 -84 -188 -152.5t-270 -68.5t-260 52.5t-224.5 147.5t-164 229t-63.5 298t63.5 298t164 229.5t224.5 147.5t226 52q169 0 303 -67.5t189 -153.5h4v193l96 -1l676 1l127 -387q14 -38 14 -56t-19 -18t-52 88t-95.5 159.5t-144.5 108.5t-185.5 46t-232.5 9
v-589q162 0 250 60.5t88 211.5q0 41 20 41q14 0 17.5 -9t3.5 -32v-602q0 -23 -3 -32t-18 -9q-20 0 -20 41q0 231 -132 262t-206 31v-541q0 -70 32 -100.5t129 -30.5q187 0 345 112.5t199 238.5t47 135.5t14 9.5q16 0 16 -22t-18 -87l-107 -436l-105 1l-736 -1v192zM319 694
q0 -178 37 -306t101.5 -211t150.5 -122t184.5 -39t184.5 39t150.5 122t101.5 211t37 306t-37 306t-101.5 211t-150.5 122t-184.5 39t-184.5 -39t-150.5 -122t-101.5 -211t-37 -306z" />
    <glyph glyph-name="oe" unicode="&#x153;" horiz-adv-x="1705" 
d="M1653 512h-678q7 -281 131.5 -351.5t210.5 -70.5t139 32t88 70.5t55.5 70.5t32.5 32q18 0 19 -23q0 -10 -20.5 -56t-104.5 -139t-287 -93t-338 159q-142 -159 -347 -159q-206 0 -343 142.5t-137 338.5t138 338.5t344 142.5q207 0 349 -166q141 166 340 166t303.5 -129
t104.5 -305zM1468 561q0 188 -56 268t-163 80t-192.5 -103t-85.5 -245h497zM548 33q77 0 130 36.5t87 97t48 138.5t14 212.5t-69 257t-209 122.5t-209.5 -123.5t-69.5 -361.5t100.5 -308.5t177.5 -70.5z" />
    <glyph glyph-name="Scaron" unicode="&#x160;" horiz-adv-x="1175" 
d="M1038 924q0 -35 -24 -35q-16 0 -23 15t-28 85q-63 205 -161 300t-245 95q-104 0 -170 -68t-67 -154q-1 -85 33 -135q63 -93 214 -151q70 -28 144 -56q183 -69 268 -142q123 -105 123 -277q0 -213 -172 -334q-264 -185 -626 -27q-32 13 -52 13t-28 -11q-9 -12 -17 -26
q-20 -37 -39 -36q-33 0 -33 45v524q0 25 3 39t24 14q27 0 32 -34q31 -214 84 -314q93 -179 215 -219t243 0t169 147q25 53 25 132q0 80 -34 138q-64 111 -214 166q-70 27 -144 53q-74 27 -143 55q-248 101 -248 343q0 148 123 251t274 102t308 -66q58 -24 75 -1q9 11 13 23
t10 24t23 11q25 0 28 -37q26 -292 31 -355q4 -63 5 -77t1 -20zM813 1810h70l-254 -340h-127l-258 340h71l250 -208z" />
    <glyph glyph-name="scaron" unicode="&#x161;" horiz-adv-x="872" 
d="M86 336q0 37 17 37t36 -64q41 -135 123 -212t181 -77t143 52q45 52 45 113t-40 97q-64 57 -222 119t-231 154q-40 51 -40 115q0 121 91 199q91 79 241 77q72 0 157 -18t138 -43v-262q0 -23 -14 -23t-18 13q-11 49 -44 115t-65 102q-73 80 -181 79q-63 0 -106 -36
t-43 -100t40 -101q71 -66 226 -131q154 -65 226 -155q40 -50 40 -114q0 -197 -209 -266q-71 -23 -167 -22q-173 0 -324 51v301zM686 1380h70l-254 -340h-127l-258 340h71l250 -209z" />
    <glyph glyph-name="Ydieresis" unicode="&#x178;" horiz-adv-x="1251" 
d="M1288 1366q0 -16 -20 -21t-60 -27q-111 -62 -221 -231l-264 -405v-506q0 -68 33 -95t118 -34q29 -3 29 -27t-26 -24l-87 2l-165 2l-165 -2l-87 -2q-27 0 -27 24t28 27q28 2 62 8t62 30q29 24 28 91v455l-323 590q-52 96 -130 116q-28 7 -45 11t-18 22q0 23 62 23l192 -4
l134 2l79 2q39 0 50 -4q11 -3 11 -21t-18 -21q-20 -3 -45 -7t-44 -17q-19 -12 -19 -68t63 -163l217 -381l178 280q86 132 85 206t-27 107t-86 39q-23 1 -25 19t10 24t45 7l71 -2l128 -2l170 4q47 0 47 -27zM818 1503q-46 0 -70 30t-23 72q0 43 24 73q23 30 69 30t79 -31
t33 -73t-33 -71q-33 -30 -79 -30zM324 1605q0 43 24 73t69 30q46 0 79 -31q32 -31 32 -73t-32 -71q-32 -30 -79 -30q-46 0 -70 30q-23 30 -23 72z" />
    <glyph glyph-name="Zcaron" unicode="&#x17d;" horiz-adv-x="1214" 
d="M63 7q1 11 11 27l45 72l772 1237h-35q-129 0 -232 -9q-212 -18 -330 -154q-62 -72 -112 -197q-10 -29 -17 -40t-18 -11q-20 0 -20 18t14 56l127 387q196 -4 387 -4l249 2l173 2q39 0 39 -23q0 -8 -5 -16t-11 -19l-813 -1290h200q189 0 341 107t233 323q16 49 21 57
q5 9 14 9q16 0 16 -23t-18 -86l-107 -436q-234 4 -446 4l-318 -2l-135 -2q-25 0 -25 11zM858 1810h70l-254 -340h-127l-258 340h71l250 -208z" />
    <glyph glyph-name="zcaron" unicode="&#x17e;" horiz-adv-x="985" 
d="M862 395q16 0 16 -16t-77 -383l-369 4q-94 0 -186 -2t-185 -2l592 889q-198 0 -307 -53t-172 -203q-16 -37 -21 -47t-16 -11q-14 0 -14 14t90 349l340 -4q86 0 170 2t170 2l-594 -901q142 0 211 17q139 34 231 134q54 57 85 144q11 31 19 49q7 18 17 18zM743 1380h70
l-254 -340h-127l-258 340h72l250 -209z" />
    <glyph glyph-name="florin" unicode="&#x192;" 
d="M72 -434q-51 0 -92 30.5t-41 75.5t28.5 76t69.5 31t63.5 -14.5t39 -33t32.5 -32.5t46 -14q63 0 96 70t55 239q44 340 58.5 439.5t66.5 373.5h-136q53 43 98.5 111.5t89.5 144.5t149.5 254t314.5 178q94 0 143.5 -49.5t44.5 -97.5q-4 -48 -31.5 -80.5t-73.5 -32.5t-73 37
t-27 86t-11 60.5t-55 11.5t-90 -37t-96.5 -143.5t-50.5 -336.5h230l-29 -106h-219q-47 -410 -151.5 -727t-224.5 -415.5t-224 -98.5z" />
    <glyph glyph-name="circumflex" unicode="&#x2c6;" horiz-adv-x="606" 
d="M53 1040h-69l254 340h127l258 -340h-72l-250 209z" />
    <glyph glyph-name="caron" unicode="&#x2c7;" horiz-adv-x="606" 
d="M553 1380h70l-254 -340h-127l-258 340h71l250 -209z" />
    <glyph glyph-name="ring" unicode="&#x2da;" horiz-adv-x="606" 
d="M168 1245q0 -55 37 -95t96 -40t98 39t39 95t-39 96t-98 40t-96 -40t-37 -95zM98 1245q0 86 59.5 145.5t144.5 59.5t145.5 -60.5t60.5 -145.5t-59.5 -144.5t-146.5 -59.5t-145.5 59.5t-58.5 145.5z" />
    <glyph glyph-name="tilde" unicode="&#x2dc;" horiz-adv-x="606" 
d="M641 1311q0 -2 -7 -36t-50 -107.5t-156 -73.5q-70 0 -134.5 30.5t-95 46t-60.5 15.5t-49 -9.5t-31.5 -23.5t-19.5 -30.5t-13 -28.5h-60q16 98 76.5 151t130.5 53t128 -28t93 -45t81 -17t68.5 33t39.5 70h59z" />
    <glyph glyph-name="endash" unicode="&#x2013;" horiz-adv-x="1024" 
d="M1024 524v-118h-1024v118h1024z" />
    <glyph glyph-name="emdash" unicode="&#x2014;" horiz-adv-x="2048" 
d="M2048 524v-118h-2048v118h2048z" />
    <glyph glyph-name="quoteleft" unicode="&#x2018;" horiz-adv-x="454" 
d="M362 1031q0 -38 -29 -71.5t-95 -33.5t-106 55t-40 130t30 144.5t68.5 126t77 93t58.5 36.5t20 -15t-78 -93t-78 -193q0 -61 35 -71q16 -4 40 -8.5t45.5 -13.5t36.5 -28.5t15 -57.5z" />
    <glyph glyph-name="quoteright" unicode="&#x2019;" horiz-adv-x="454" 
d="M92 1389q0 38 30 72t96 34t105 -55.5t39 -129.5t-29.5 -144t-68.5 -126.5t-78 -93.5t-58 -37q-19 -1 -19 15t77.5 93.5t77.5 192.5q0 63 -35 72q-16 4 -39.5 8t-45 13.5t-37 28.5t-15.5 57z" />
    <glyph glyph-name="quotesinglbase" unicode="&#x201a;" horiz-adv-x="454" 
d="M92 95q0 38 30 72t96 34t105 -55.5t39 -130.5t-29.5 -144.5t-68.5 -125.5t-78 -93t-58 -37t-19 15t77.5 94t77.5 192q0 63 -35 72q-16 4 -39.5 8t-45 13t-37 28.5t-15.5 57.5z" />
    <glyph glyph-name="quotedblleft" unicode="&#x201c;" horiz-adv-x="948" 
d="M819 1031q0 -38 -29.5 -71.5t-95.5 -33.5t-105.5 55t-39.5 130t29.5 144.5t68.5 126t78 93t58 36.5t19 -15t-77.5 -93t-77.5 -193q0 -62 35 -71q16 -4 39.5 -8.5t45 -13.5t37 -28.5t15.5 -57.5zM401 1031q0 -38 -29.5 -71.5t-95.5 -33.5t-105.5 55t-39.5 130t29.5 144.5
t68.5 126t78 93t59 36.5t19 -15q0 -15 -78 -93t-78 -193q0 -61 35 -71q16 -4 40 -8.5t45.5 -13.5t36.5 -28.5t15 -57.5z" />
    <glyph glyph-name="quotedblright" unicode="&#x201d;" horiz-adv-x="948" 
d="M129 1389q0 38 29.5 72t95.5 34t105.5 -55.5t39.5 -129.5t-29.5 -144t-68.5 -126.5t-78 -93.5t-58 -37q-19 -1 -19 15t77.5 92.5t77.5 193.5q0 63 -35 72q-16 4 -39.5 8t-45 13.5t-37 28.5t-15.5 57zM547 1389q0 38 29.5 72t95.5 34t105.5 -55.5t39.5 -129.5t-29.5 -144
t-68.5 -126.5t-78 -93.5t-58 -37q-19 -1 -19 15t77.5 94t77.5 192q0 63 -35 72q-16 4 -39.5 8t-45 13.5t-37 28.5t-15.5 57z" />
    <glyph glyph-name="quotedblbase" unicode="&#x201e;" horiz-adv-x="948" 
d="M129 95q0 38 29.5 72t95.5 34t105.5 -55.5t39.5 -130.5t-29.5 -144.5t-68.5 -125.5t-78 -93t-58 -37t-19 15t77.5 93t77.5 193q0 63 -35 72q-16 4 -39.5 8t-45 13t-37 28.5t-15.5 57.5zM547 95q0 38 29.5 72t95.5 34t105.5 -55.5t39.5 -130.5t-29.5 -144.5t-68.5 -125.5
t-78 -93t-58 -37t-19 15t77.5 94.5t77.5 191.5q0 63 -35 72q-16 4 -39.5 8t-45 13t-37 28.5t-15.5 57.5z" />
    <glyph glyph-name="dagger" unicode="&#x2020;" horiz-adv-x="1024" 
d="M915 956.5q0 -38.5 -28.5 -63.5t-67.5 -25t-70.5 10.5t-61.5 21.5t-55.5 21.5t-41.5 10.5q-51 0 -51 -64q0 -103 26.5 -138.5t46.5 -59.5q-35 -44 -44 -91t-14 -105t-8 -150.5t-4 -223.5t-3 -313h-54q-2 182 -3 313t-5 261.5t-16.5 196t-48.5 112.5q48 60 60.5 95
t12.5 101q0 65 -51 66q-16 0 -41.5 -10.5t-84 -32t-100.5 -21.5t-70.5 25t-28.5 63.5t28.5 63t67.5 24.5t70.5 -10t61.5 -21.5t55.5 -21.5t51.5 -10t33.5 8t7.5 42q0 44 -35.5 123t-35.5 137t27.5 94t70.5 36t70.5 -35.5t27.5 -87.5t-11 -83t-35.5 -85.5t-24.5 -93.5
t7.5 -47t33.5 -8t51.5 10t81.5 31.5t101 21.5q44 0 72.5 -24.5t28.5 -63z" />
    <glyph glyph-name="daggerdbl" unicode="&#x2021;" horiz-adv-x="1024" 
d="M485 883q0 57 -47 49q-18 0 -44.5 -10.5t-85 -32t-100.5 -21.5t-70.5 25t-28.5 63.5t28.5 63t67.5 24.5t70.5 -10t61.5 -21.5t55.5 -21.5t51.5 -10t33.5 8t7.5 42q0 44 -35.5 123t-35.5 137t27.5 94t70.5 36t70.5 -35.5t27.5 -87.5t-11 -83t-35.5 -85.5t-24.5 -93.5
t7.5 -47t33.5 -8t51.5 10t81.5 31.5t101 21.5q44 0 72.5 -24.5t28.5 -63t-28.5 -63.5t-67.5 -25t-70.5 10.5t-61.5 21.5t-55.5 21.5t-45.5 12.5t-33.5 -13.5t-13.5 -54.5t75 -129q-53 -57 -53 -147t53 -148q-75 -87 -75 -145q0 -23 13.5 -38t33.5 -13t45.5 12t81.5 31.5
t101 21.5q44 0 72.5 -24.5t28.5 -63.5t-28.5 -63.5t-67.5 -24.5t-70.5 10.5t-61.5 21.5t-55.5 21.5t-51.5 10.5t-33.5 -8.5t-7.5 -42.5q0 -45 35.5 -122.5t35.5 -136.5q0 -58 -27.5 -94.5t-70.5 -36.5t-70.5 36t-27.5 88t11 83t35.5 84.5t24.5 93.5t-7.5 48t-33.5 8
t-51.5 -10.5t-84 -32t-100.5 -21.5t-70.5 24.5t-28.5 63.5t28.5 63.5t67.5 24.5q50 0 132 -31.5t104 -33.5q44 -4 44 56t-69 140q53 57 53 147.5t-53 147.5q69 80 69 146z" />
    <glyph glyph-name="bullet" unicode="&#x2022;" horiz-adv-x="1024" 
d="M166 694.5q0 71.5 27.5 134t74.5 109.5t109.5 74.5t134.5 27.5t134.5 -27.5t109.5 -74.5t74.5 -109.5t27.5 -134t-27.5 -134t-74.5 -110t-109.5 -75t-134.5 -27.5t-134.5 27.5t-109.5 75t-74.5 110t-27.5 134z" />
    <glyph glyph-name="ellipsis" unicode="&#x2026;" horiz-adv-x="2048" 
d="M1595 92q0 47 34 78t75 31t74.5 -31t33.5 -78t-33.5 -77.5t-74.5 -30.5t-75 30.5t-34 77.5zM915 92q0 47 35 78t76 31t74 -31t33 -78t-33 -77.5t-74 -30.5t-76 30.5t-35 77.5zM236 92q0 47 33.5 78t74.5 31t75 -31t34 -78t-34 -77.5t-75 -30.5t-74.5 30.5t-33.5 77.5z
" />
    <glyph glyph-name="perthousand" unicode="&#x2030;" horiz-adv-x="1933" 
d="M1597.5 729q63.5 0 114.5 -28.5t88 -78t56.5 -118t19.5 -148.5t-19.5 -148.5t-56.5 -117.5t-88 -77.5t-114.5 -28.5t-114.5 28.5t-88 77.5t-56.5 117.5t-19.5 148.5t19.5 148.5t56.5 118t88 78t114.5 28.5zM1597.5 692q-61.5 0 -96.5 -94t-35 -241.5t35 -242t96.5 -94.5
t96.5 94.5t35 242t-35 241.5t-96.5 94zM946.5 729q63.5 0 114.5 -28.5t88 -78t56.5 -118t19.5 -148.5t-19.5 -148.5t-56.5 -117.5t-88 -77.5t-114.5 -28.5t-115 28.5t-88 77.5t-56 117.5t-19.5 148.5t19.5 148.5t56 118t88 78t115 28.5zM335.5 1405q63.5 0 115 -28.5t88 -78
t56 -118t19.5 -148.5t-19.5 -148.5t-56 -117.5t-88 -78t-115 -29t-114.5 29t-88 78t-56.5 117.5t-19.5 148.5t19.5 148.5t56.5 118t88 78t114.5 28.5zM946.5 692q-61.5 0 -96.5 -94t-35 -241.5t35 -242t96.5 -94.5t96 94.5t34.5 242t-34.5 241.5t-96 94zM160 -16l880 1421
h74l-881 -1421h-73zM335.5 1368q-61.5 0 -96 -94t-34.5 -241.5t34.5 -242t96 -94.5t96.5 94.5t35 242t-35 241.5t-96.5 94z" />
    <glyph glyph-name="guilsinglleft" unicode="&#x2039;" horiz-adv-x="720" 
d="M526 84q-14 0 -30 16l-306 316q-18 20 -18 48t18 50l306 315q26 25 40 15t13 -24q0 -14 -14 -27l-246 -328l246 -328q14 -13 14 -33t-23 -20z" />
    <glyph glyph-name="guilsinglright" unicode="&#x203a;" horiz-adv-x="720" 
d="M195 84q-23 0 -23 20t14 33l246 328l-246 328q-14 14 -14 30q0 23 23 23q14 0 30 -17l305 -315q18 -22 18 -50t-18 -48l-305 -316q-16 -16 -30 -16z" />
    <glyph glyph-name="Euro" unicode="&#x20ac;" 
d="M358 694v-55h412v-61h-410q15 -283 99.5 -420.5t199.5 -137.5q141 0 239 120t114 294q4 47 18 47t21.5 -8t7.5 -24v-433q0 -33 -23 -32q-12 0 -17 14t-11.5 32.5t-16.5 33t-34 14.5t-95.5 -47t-191.5 -47q-217 0 -349 169t-161 425h-152v61h148l-2 55q0 59 8 117h-154v61
h164q49 228 195 380.5t301 152.5q123 0 200.5 -55.5t100 -55.5t30 16.5t10.5 35t7 35t21 16.5t18 -33v-459q0 -33 -24 -33t-39 94q-31 188 -114.5 295t-206.5 107q-122 0 -202 -125t-102 -371h403v-61h-408q-4 -58 -4 -117z" />
    <glyph glyph-name="trademark" unicode="&#x2122;" horiz-adv-x="2027" 
d="M1053 1198v-434q0 -66 20.5 -92.5t85.5 -32.5v-49h-266v49q66 6 84 32.5t18 92.5v475q0 41 -42.5 70.5t-92.5 29.5v50h256l301 -584l316 584h221v-50q-66 -4 -90.5 -32.5t-24.5 -81.5v-477q0 -76 10.5 -87.5t31 -14.5t58.5 -7v-49h-333v49q37 4 56 7t28.5 16t9.5 98v411
h-4l-310 -589h-18l-311 616h-4zM489 748q0 -74 10.5 -86.5t31 -15.5t59.5 -7v-49h-338v49q37 4 57.5 7t30.5 14.5t10 87.5v591h-98q-66 0 -95.5 -41t-43.5 -96h-41v187h694v-187h-41q-12 55 -42 96t-93 41h-101v-591z" />
    </font>
</defs>
</svg>
